<?xml version="1.0" encoding="UTF-8"?>
<svg width="153px" height="115px" viewBox="0 0 153 115" version="1.1" xmlns="http://www.w3.org/2000/svg" xmlns:xlink="http://www.w3.org/1999/xlink">
    <!-- Generator: Sketch 51 (57462) - http://www.bohemiancoding.com/sketch -->
    <title>Group</title>
    <desc>Created with Sketch.</desc>
    <defs></defs>
    <g id="DRIVER" stroke="none" stroke-width="1" fill="none" fill-rule="evenodd">
        <g id="register_attach-doc1" transform="translate(-392.000000, -319.000000)">
            <rect fill="#EFEEF4" x="0" y="0" width="1442" height="1025"></rect>
            <g id="Group" transform="translate(392.000000, 319.000000)">
                <rect id="Rectangle-5" fill="#EFEEF4" x="0" y="0" width="153" height="115" rx="4"></rect>
                <g id="attachment" opacity="0.517131696" transform="translate(52.000000, 31.000000)" fill="#0F7EDF" fill-rule="nonzero">
                    <path d="M49.14,20.206 C48.749,19.815 48.117,19.815 47.726,20.206 L20.432,47.5 C18.42,49.512 15.735,50.619 12.869,50.619 C10.002,50.619 7.316,49.512 5.305,47.5 C3.294,45.488 2.186,42.803 2.186,39.936 C2.186,37.07 3.293,34.384 5.305,32.373 L32.598,5.078 C35.495,2.182 40.043,2.359 43.177,5.491 C46.31,8.624 46.488,13.173 43.591,16.07 L17.951,41.711 C16.518,43.144 14.184,43.145 12.748,41.711 C11.314,40.276 11.314,37.942 12.748,36.508 L30.117,19.139 C30.508,18.748 30.508,18.116 30.117,17.725 C29.726,17.334 29.094,17.334 28.703,17.725 L11.334,35.093 C9.12,37.307 9.12,40.909 11.334,43.124 C13.55,45.34 17.153,45.336 19.365,43.124 L45.006,17.483 C48.709,13.779 48.531,8.015 44.592,4.076 C40.654,0.138 34.889,-0.041 31.185,3.663 L3.89,30.958 C1.5,33.347 0.185,36.535 0.185,39.936 C0.185,43.337 1.5,46.526 3.89,48.915 C6.279,51.305 9.467,52.62 12.869,52.62 C16.269,52.62 19.458,51.305 21.847,48.915 L49.14,21.62 C49.531,21.229 49.531,20.596 49.14,20.206 Z" id="Shape"></path>
                </g>
            </g>
        </g>
    </g>
</svg>