<?xml version="1.0" encoding="UTF-8"?>
<svg width="70px" height="71px" viewBox="0 0 70 71" version="1.1" xmlns="http://www.w3.org/2000/svg" xmlns:xlink="http://www.w3.org/1999/xlink">
    <!-- Generator: Sketch 51 (57462) - http://www.bohemiancoding.com/sketch -->
    <title>24-hours</title>
    <desc>Created with Sketch.</desc>
    <defs></defs>
    <g id="DRIVER" stroke="none" stroke-width="1" fill="none" fill-rule="evenodd">
        <g id="main_driver" transform="translate(-1117.000000, -651.000000)">
            <rect fill="#FFFFFF" x="0" y="0" width="1440" height="4831"></rect>
            <g id="24-hours" transform="translate(1117.000000, 651.000000)" fill-rule="nonzero">
                <path d="M36,8 C41.6867342,8 51.0654859,10.5564392 56,16 C58.9674555,19.2735796 62.4086091,25.6229166 62,31.5 C61.5133533,38.4995091 56.584439,45.1763748 53,50 C49.7744095,54.3407183 40.178794,53.6715176 41,54 C41.9943915,54.3977566 48.4051003,60.3725451 50,60 C54.0247063,59.0598878 59.2697767,54.2377529 63,50 C68.199665,44.0928749 67.8160417,31.6333042 68,26 C68.4661879,11.7240578 47.9111361,1 38.5,1 C21.6553151,1 8,14.6553151 8,31.5 C8,42.646818 11.8140562,28.9828948 20,18.3062719 C24.1843706,12.8487525 30.3021332,8 36,8 Z" id="Oval-12" fill="#FFE500"></path>
                <path d="M30,69 C36.6729077,69 34.9968183,69.7967111 38,69 C40.2165578,68.4119716 48,67.8012899 48,61 C48,58.3126684 42.8612054,54.0078057 36,53 C33.9464472,52.6983646 31.1097547,56.5709428 29,56 C26.2366807,55.2521893 23.2846037,52.0295632 21,51 C16.2091181,48.8409753 18.1367815,42.2354283 15,41 C13.0879344,40.2469288 20.708276,34.8418714 19,34 C16.4812545,32.7587137 16.9809056,26.9071323 15,26 C9.08399395,23.2908352 14.2939924,22 10,22 C4.59313352,22 2.24180549,29.8287015 2,34 C1.72312148,38.7763305 1.26566565,41.8984985 6,49 C10,55 12.8456761,56.1390134 16,59 C18.2475438,61.0385328 19.4929638,62.3003335 21,64 C22.3774147,65.5534767 25.0057708,67.0433362 27,68 C28.1755577,68.5639339 28.3795698,69 30,69 Z" id="Oval-11" fill="#FFCF00"></path>
                <path d="M61.835179,10.2578626 C56.2115923,4.04761242 48.5252809,0.416507548 40.192253,0.0336364169 C31.8597753,-0.350205412 23.8771381,2.56161205 17.716203,8.23021258 C16.0187267,9.79192742 14.4947262,11.5366882 13.1864354,13.4160987 C12.8470502,13.9036666 12.9639847,14.5762218 13.4476808,14.9183236 C13.931377,15.2607028 14.5985915,15.1426936 14.9379767,14.6549871 C16.1567094,12.9044021 17.576707,11.2787598 19.1587621,9.82326711 C31.0056031,-1.07698107 49.4410844,-0.229561485 60.2547747,11.7119686 C71.068465,23.6534987 70.2279123,42.236685 58.3810713,53.1369331 C55.6130252,55.6837681 52.4568941,57.6319595 48.9894421,58.9399061 C48.7474565,58.4405511 48.4227913,57.9718425 48.0124199,57.5567997 C47.7220096,57.2630941 47.3966566,57.0046111 47.0360856,56.7832919 L44.3719049,55.1835811 C48.3721655,54.2411718 52.0492742,52.2903456 55.1338688,49.4521625 C59.9082359,45.0593369 62.6996689,39.0554294 62.9939311,32.5462042 C63.2883309,26.0371176 61.0504797,19.8019066 56.6926746,14.989462 C56.2941343,14.5494583 55.6174274,14.518396 55.1811929,14.9199877 C54.7448209,15.3215794 54.7138676,16.003703 55.1122704,16.443568 C59.0848794,20.8305694 61.124905,26.5144238 60.8565059,32.448025 C60.5881069,38.3816261 58.0434745,43.854839 53.6914473,47.859108 C50.2937433,50.9854498 46.1083135,52.9307291 41.5676779,53.499697 L38.9282597,51.914824 C36.7188854,50.5921783 33.9075048,50.9487019 32.0880039,52.7860951 L30.2473172,54.6643962 C30.0970908,54.8181825 29.8645975,54.8633894 29.6692481,54.7771359 C23.5937439,52.0844189 18.7837462,47.225658 16.125481,41.0955598 C16.1232799,41.090429 16.1209412,41.0852982 16.1186025,41.0801673 C16.030145,40.884641 16.0710033,40.6500093 16.2103617,40.5062073 L18.0733347,38.6360878 C19.8920102,36.8060442 20.2458402,33.9722986 18.9324594,31.7430207 L16.9634199,28.4172698 C17.660212,23.2714596 20.1301439,18.5223876 23.9461983,15.0112333 C27.6695305,11.5853618 32.2900943,9.59293428 37.3080978,9.24930709 C42.1791765,8.91608024 47.0798329,10.2340111 51.1077451,12.9612573 C51.5981821,13.2933747 52.2629204,13.1617758 52.5924006,12.667413 C52.9218807,12.1730503 52.7914644,11.5029911 52.3008897,11.1708736 C47.8811781,8.17821089 42.505355,6.73131579 37.163099,7.09740771 C31.6572722,7.47445465 26.5880927,9.6601898 22.5036392,13.4181788 C18.9418142,16.6953948 16.4495959,20.9560669 15.3139555,25.6315044 L14.1033395,23.5869365 C14.0987997,23.5793096 14.0941223,23.5716827 14.0893073,23.5639171 C13.8707086,23.2148817 13.611114,22.8919165 13.3262065,22.6123554 C12.7759265,22.0601668 12.1308607,21.6605165 11.4434234,21.411047 C11.8299951,20.3425856 12.2786109,19.2947861 12.7836304,18.2840119 C13.0494157,17.7520692 12.8370076,17.1036428 12.309289,16.8357301 C11.7817081,16.5678173 11.1384307,16.7820643 10.8725079,17.3138683 C10.2600462,18.5399989 9.72531163,19.8170218 9.27628313,21.1190055 C8.09978444,21.2124699 6.95024947,21.7078033 6.05398088,22.6073633 L4.74500228,23.9039388 C0.128565593,28.5635679 -1.26157932,35.5151542 1.20367519,41.613358 C5.73082894,52.8290831 14.0839421,62.0989742 24.7241566,67.7154344 C25.2477481,67.9919447 25.8941895,67.7878208 26.168229,67.2604543 C26.442406,66.7328104 26.2403157,66.0810559 25.7168618,65.8048229 C15.5240249,60.4245197 7.52226555,51.5444333 3.18537112,40.7999129 C1.04546968,35.5064179 2.2520962,29.4725574 6.25208169,25.435146 L7.55899674,24.1407892 C8.18425242,23.5134408 9.0182018,23.223618 9.83976987,23.2657741 C9.90759188,23.2790865 9.9754139,23.2879614 10.0426856,23.2879614 C10.0514901,23.2879614 10.060157,23.28602 10.0689615,23.2858814 C10.7101753,23.3679747 11.3314414,23.6536373 11.8254553,24.1493868 C11.9954919,24.3162082 12.1462686,24.5029983 12.273796,24.7049036 L17.0941114,32.8464273 C17.905912,34.2244028 17.6870381,35.9776225 16.5626785,37.108902 L14.6910386,38.9880352 C13.9301389,39.7718047 13.7204822,40.967705 14.168135,41.9666922 C17.0427978,48.5908758 22.2418435,53.8415214 28.8091604,56.7520908 C29.8130087,57.1956999 31.0036771,56.9648124 31.7710426,56.1789628 L33.6065016,54.3060699 C34.7296232,53.1718783 36.4689207,52.9511138 37.8347158,53.7688577 L40.7716978,55.5324778 C40.7734862,55.5335872 40.7754122,55.5346965 40.7772006,55.5358059 L45.9318112,58.6309467 C46.1372032,58.7571374 46.3273249,58.9080117 46.4970863,59.0798253 C47.6687701,60.2646319 47.6656059,62.1893878 46.4801652,63.380712 L45.2102565,64.6911546 C41.1978897,68.7305075 35.2120812,69.9466537 29.9603462,67.7896235 C29.4135054,67.5649762 28.7888,67.8298381 28.5659366,68.3813334 C28.3429356,68.9329674 28.6058319,69.5622572 29.1529478,69.7869045 C31.140009,70.6031231 33.2175912,71 35.2770142,71 C39.4881697,71 43.6209102,69.3392739 46.7316432,66.2076627 L48.0007265,64.8979134 C49.052174,63.8413776 49.554167,62.4370546 49.5084937,61.047708 C53.3238603,59.6429689 56.7911747,57.5204679 59.8237679,54.730265 C65.9847031,49.0615258 69.5869737,41.3138283 69.9668044,32.9140988 C70.3464977,24.514092 67.4586281,16.4679741 61.835179,10.2578626 Z" id="Shape" fill="#393939"></path>
                <path d="M37.7586052,38.1278345 C37.5975847,37.9184403 37.4097727,37.8140184 37.1953054,37.8140184 L30.4366594,37.8140184 L30.4366594,36.9320039 C30.4366594,36.452406 30.6930138,35.9569865 31.2066747,35.4462959 C31.7199276,34.9356053 32.3406182,34.4287668 33.0687465,33.9257806 C33.7964668,33.4227943 34.5244591,32.8889905 35.2525873,32.3239564 C35.9804436,31.7594727 36.6009982,31.0707557 37.1146591,30.2582183 C37.627912,29.4456809 37.8848105,28.5754981 37.8848105,27.646707 C37.8848105,26.2768399 37.4056928,25.1602544 36.4480015,24.2961251 C35.4899022,23.4319959 34.3290313,23 32.9651168,23 C31.6777686,23 30.5704805,23.3837059 29.6433885,24.1511176 C28.7158885,24.9185294 28.2525465,25.9070294 28.2525465,27.1162051 C28.2525465,28.0312384 28.6204186,28.4882735 29.3560267,28.4882735 C29.7388584,28.4882735 30.0492037,28.3959584 30.2870626,28.2114659 C30.5245135,28.0266983 30.6433749,27.8109755 30.6433749,27.5644352 C30.6433749,26.8105061 30.8578423,26.2410695 31.287049,25.856263 C31.7159837,25.471319 32.2754756,25.2788469 32.9652528,25.2788469 C33.7774272,25.2788469 34.3941739,25.5226357 34.8157648,26.009938 C35.2372197,26.4975155 35.4480151,27.0662642 35.4480151,27.7159089 C35.4480151,28.3659664 35.1911167,29.0161614 34.6778638,29.6656685 C34.1646108,30.3160012 33.5403843,30.9118528 32.8046402,31.453361 L30.5976799,33.0784358 C29.8660157,33.6204943 29.250085,34.224463 28.7500238,34.8900668 C28.2499626,35.5558082 28,36.2372335 28,36.9340676 L28,39.1870498 C28,39.4196947 28.1177735,39.6129922 28.3537284,39.7677678 C28.5894113,39.922681 28.8293101,40 29.0728808,40 L37.2007453,40 C37.4137167,40 37.6003046,39.8877361 37.7599652,39.662658 C37.9198977,39.4381302 38,39.1783824 38,38.8835521 C38,38.5892721 37.9194897,38.3372287 37.7586052,38.1278345 Z" id="Shape" fill="#393939"></path>
                <path d="M48.7795167,34.2291874 C48.6323449,33.9987456 48.4275124,33.8837311 48.1646074,33.8837311 L47.0274574,33.8837311 L47.0274574,30.6558952 C47.0274574,30.3909215 46.9073311,30.1882703 46.6676277,30.0479416 C46.4276496,29.9076129 46.1375618,29.8371734 45.7973641,29.8371734 C44.9772103,29.8371734 44.567408,30.1101265 44.567408,30.6558952 L44.567408,33.8837311 L41.1560956,33.8837311 L45.9367106,24.3255562 C46.0140033,24.1707818 46.0528556,24.0465496 46.0528556,23.9534099 C46.0528556,23.6899496 45.9135091,23.4651485 45.6350906,23.2790065 C45.3566722,23.0928646 45.0856672,23 44.8227622,23 C44.3429434,23 43.9873696,23.224526 43.7552169,23.6735779 L38.1392092,34.7539068 C38.0465404,34.9243649 38,35.0948231 38,35.2648685 C38,35.5409859 38.0811367,35.7597336 38.2436848,35.920974 C38.4060956,36.0823521 38.6109281,36.1626972 38.8585942,36.1626972 L44.5675453,36.1626972 L44.5675453,39.1808654 C44.567408,39.4308432 44.6871225,39.6296422 44.9271005,39.778088 C45.166804,39.9262586 45.4568918,40 45.7973641,40 C46.1221856,40 46.4082921,39.9262586 46.6560956,39.778088 C46.9033498,39.6297798 47.0274574,39.4309808 47.0274574,39.181003 L47.0274574,36.1626972 L48.1646074,36.1626972 C48.3811093,36.1626972 48.5742724,36.0438305 48.7447831,35.8059595 C48.9147446,35.5682261 49,35.3109568 49,35.0348394 C49,34.7281799 48.9264141,34.4596292 48.7795167,34.2291874 Z" id="Shape" fill="#393939"></path>
            </g>
        </g>
    </g>
</svg>