<?xml version="1.0" encoding="UTF-8"?>
<svg width="401px" height="402px" viewBox="0 0 401 402" version="1.1" xmlns="http://www.w3.org/2000/svg" xmlns:xlink="http://www.w3.org/1999/xlink">
    <!-- Generator: Sketch 51 (57462) - http://www.bohemiancoding.com/sketch -->
    <title>img1</title>
    <desc>Created with Sketch.</desc>
    <defs>
        <ellipse id="path-1" cx="184.81712" cy="185.117146" rx="183.969254" ry="184.291534"></ellipse>
        <filter x="-6.9%" y="-6.9%" width="113.9%" height="113.8%" filterUnits="objectBoundingBox" id="filter-2">
            <feOffset dx="0" dy="0" in="SourceAlpha" result="shadowOffsetOuter1"></feOffset>
            <feGaussianBlur stdDeviation="8.5" in="shadowOffsetOuter1" result="shadowBlurOuter1"></feGaussianBlur>
            <feComposite in="shadowBlurOuter1" in2="SourceAlpha" operator="out" result="shadowBlurOuter1"></feComposite>
            <feColorMatrix values="0 0 0 0 0.592156863   0 0 0 0 0.592156863   0 0 0 0 0.592156863  0 0 0 0.443137255 0" type="matrix" in="shadowBlurOuter1"></feColorMatrix>
        </filter>
    </defs>
    <g id="DRIVER" stroke="none" stroke-width="1" fill="none" fill-rule="evenodd">
        <g id="main_driver" transform="translate(-795.000000, -1308.000000)">
            <rect fill="#FFFFFF" x="0" y="0" width="1440" height="4831"></rect>
            <g id="img1" transform="translate(811.000000, 1324.000000)">
                <g id="Oval">
                    <use fill="black" fill-opacity="1" filter="url(#filter-2)" xlink:href="#path-1"></use>
                    <use fill-opacity="0.0156862745" fill="#EFEEF4" fill-rule="evenodd" xlink:href="#path-1"></use>
                </g>
                <g id="Group" transform="translate(58.000000, 73.000000)" fill-rule="nonzero">
                    <g>
                        <rect id="Rectangle-path" fill="#363C50" x="0.211786763" y="0.152520212" width="200.138491" height="129.992459"></rect>
                        <rect id="Rectangle-path" fill="#FFCF00" x="9.95397786" y="10.0547011" width="180.018749" height="110.398782"></rect>
                        <rect id="Rectangle-path" fill="#FFFFFF" x="88.1032934" y="20.7996207" width="61.629948" height="28.4424344"></rect>
                        <rect id="Rectangle-path" fill="#363C50" x="79.4200361" y="130.355664" width="41.9337791" height="48.2467961"></rect>
                        <rect id="Rectangle-path" fill="#363C50" x="70.5249921" y="171.017811" width="59.3002937" height="7.79533387"></rect>
                        <path d="M57.8177863,155.637828 L31.7680145,155.637828 L31.7680145,120.664168 C31.7680145,114.764997 36.63911,109.919248 42.5691394,109.919248 L46.8048746,109.919248 C52.734904,109.919248 57.6059995,114.764997 57.6059995,120.664168 L57.6059995,155.637828 L57.8177863,155.637828 Z" id="Shape" fill="#F2DBAF"></path>
                        <rect id="Rectangle-path" fill="#FFFFFF" x="22.0258234" y="20.7996207" width="53.5820511" height="2.52821639"></rect>
                        <rect id="Rectangle-path" fill="#FFFFFF" x="22.0258234" y="28.3842699" width="53.5820511" height="2.52821639"></rect>
                        <rect id="Rectangle-path" fill="#FFFFFF" x="22.0258234" y="35.9689191" width="53.5820511" height="2.52821639"></rect>
                        <rect id="Rectangle-path" fill="#FFFFFF" x="22.0258234" y="43.5535682" width="53.5820511" height="2.52821639"></rect>
                        <rect id="Rectangle-path" fill="#FFFFFF" x="22.0258234" y="51.1382174" width="53.5820511" height="2.52821639"></rect>
                        <rect id="Rectangle-path" fill="#FFFFFF" x="22.0258234" y="58.5121819" width="53.5820511" height="2.52821639"></rect>
                        <rect id="Rectangle-path" fill="#FFFFFF" x="22.0258234" y="66.096831" width="53.5820511" height="2.52821639"></rect>
                        <rect id="Rectangle-path" fill="#FFFFFF" x="22.0258234" y="73.6814802" width="53.5820511" height="2.52821639"></rect>
                        <rect id="Rectangle-path" fill="#FFFFFF" x="22.0258234" y="81.2661294" width="53.5820511" height="2.52821639"></rect>
                        <rect id="Rectangle-path" fill="#FFFFFF" x="22.0258234" y="88.8507785" width="53.5820511" height="2.52821639"></rect>
                        <rect id="Rectangle-path" fill="#FFFFFF" x="22.0258234" y="96.4354277" width="53.5820511" height="2.52821639"></rect>
                        <rect id="Rectangle-path" fill="#FFFFFF" x="22.0258234" y="104.020077" width="53.5820511" height="2.52821639"></rect>
                    </g>
                    <path d="M199.875068,40.7058686 L199.875068,33.3476395 L164.044401,33.3476395 L164.044401,40.7058686 L128.213734,40.7058686 C123.155287,40.7058686 118.939914,44.910571 118.939914,49.9562138 L118.939914,130.055794 L200.085837,130.055794 L199.875068,40.7058686 Z" id="Shape" fill="#363C50"></path>
                    <g transform="translate(123.386266, 30.012876)">
                        <path d="M129.091278,200.985638 L6.73451304,200.985638 C3.34160449,200.985638 0.584866293,198.23241 0.584866293,194.843822 L0.584866293,20.9668895 C0.584866293,17.5783013 3.34160449,14.8250734 6.73451304,14.8250734 L129.091278,14.8250734 C132.484186,14.8250734 135.240924,17.5783013 135.240924,20.9668895 L135.240924,194.843822 C135.240924,198.020623 132.484186,200.985638 129.091278,200.985638 Z" id="Shape" fill="#FFCF00"></path>
                        <rect id="Rectangle-path" fill="#FFFFFF" x="9.49125124" y="22.2376101" width="117.267402" height="168.370477"></rect>
                        <rect id="Rectangle-path" fill="#363C50" x="43.4203367" y="6.35360289" width="57.4673886" height="23.7201175"></rect>
                        <rect id="Rectangle-path" fill="#363C50" x="68.0189237" y="0.423573526" width="11.2390096" height="5.93002937"></rect>
                        <rect id="Rectangle-path" fill="#D0021B" x="21.1543744" y="39.6041247" width="25.4468141" height="25.4144116" rx="3"></rect>
                        <rect id="Rectangle-path" fill="#363C50" x="46.6011885" y="81.9614773" width="66.1617167" height="2.54144116"></rect>
                        <rect id="Rectangle-path" fill="#363C50" x="46.6011885" y="95.3040434" width="66.1617167" height="2.54144116"></rect>
                        <rect id="Rectangle-path" fill="#363C50" x="46.6011885" y="108.858396" width="66.1617167" height="2.54144116"></rect>
                        <rect id="Rectangle-path" fill="#363C50" x="46.6011885" y="122.412749" width="66.1617167" height="2.54144116"></rect>
                        <rect id="Rectangle-path" fill="#363C50" x="46.6011885" y="135.967102" width="66.1617167" height="2.54144116"></rect>
                        <rect id="Rectangle-path" fill="#363C50" x="46.6011885" y="149.521455" width="66.1617167" height="2.54144116"></rect>
                        <rect id="Rectangle-path" fill="#363C50" x="46.6011885" y="163.075808" width="66.1617167" height="2.54144116"></rect>
                        <polygon id="Shape" fill="#0F7EDF" points="21.1543744 80.9025435 25.3955101 89.1622272 40.4515418 74.3371538 26.455794 83.0204111"></polygon>
                        <polygon id="Shape" fill="#0F7EDF" points="21.1543744 96.9983375 25.3955101 105.258021 40.4515418 90.6447346 26.455794 99.3279919"></polygon>
                        <polygon id="Shape" fill="#0F7EDF" points="21.1543744 113.305918 25.3955101 121.565602 40.4515418 106.740529 26.455794 115.423786"></polygon>
                        <polygon id="Shape" fill="#0F7EDF" points="21.1543744 129.401712 25.3955101 137.661396 40.4515418 122.836323 26.455794 131.51958"></polygon>
                        <polygon id="Shape" fill="#0F7EDF" points="21.1543744 145.497506 25.3955101 153.75719 40.4515418 138.932117 26.455794 147.827161"></polygon>
                        <polygon id="Shape" fill="#0F7EDF" points="21.1543744 161.5933 25.3955101 169.852984 40.4515418 155.239697 26.455794 163.922955"></polygon>
                    </g>
                    <rect id="Rectangle-path" fill="#0F7EDF" x="2.22317597" y="143.39485" width="30.0128755" height="70.0300429"></rect>
                    <path d="M80.2986284,213.424893 L32.2360515,213.424893 L32.2360515,143.39485 L80.2986284,143.39485 C87.0147964,143.39485 92.2618026,148.929139 92.2618026,155.527714 L92.2618026,201.079171 C92.2618026,207.890604 87.0147964,213.424893 80.2986284,213.424893 Z" id="Shape" fill="#F2DBAF"></path>
                </g>
            </g>
        </g>
    </g>
</svg>