<?xml version="1.0" encoding="UTF-8"?>
<svg width="429px" height="414px" viewBox="0 0 429 414" version="1.1" xmlns="http://www.w3.org/2000/svg" xmlns:xlink="http://www.w3.org/1999/xlink">
    <!-- Generator: Sketch 51 (57462) - http://www.bohemiancoding.com/sketch -->
    <title>img2</title>
    <desc>Created with Sketch.</desc>
    <defs>
        <circle id="path-1" cx="210.202515" cy="190" r="190"></circle>
        <filter x="-6.7%" y="-6.7%" width="113.4%" height="113.4%" filterUnits="objectBoundingBox" id="filter-2">
            <feOffset dx="0" dy="0" in="SourceAlpha" result="shadowOffsetOuter1"></feOffset>
            <feGaussianBlur stdDeviation="8.5" in="shadowOffsetOuter1" result="shadowBlurOuter1"></feGaussianBlur>
            <feComposite in="shadowBlurOuter1" in2="SourceAlpha" operator="out" result="shadowBlurOuter1"></feComposite>
            <feColorMatrix values="0 0 0 0 0.592156863   0 0 0 0 0.592156863   0 0 0 0 0.592156863  0 0 0 0.443137255 0" type="matrix" in="shadowBlurOuter1"></feColorMatrix>
        </filter>
    </defs>
    <g id="DRIVER" stroke="none" stroke-width="1" fill="none" fill-rule="evenodd">
        <g id="main_driver" transform="translate(-235.000000, -1859.000000)">
            <rect fill="#FFFFFF" x="0" y="0" width="1440" height="4831"></rect>
            <g id="img2" transform="translate(235.000000, 1876.000000)">
                <g id="Oval">
                    <use fill="black" fill-opacity="1" filter="url(#filter-2)" xlink:href="#path-1"></use>
                    <use fill-opacity="0.0156862745" fill="#EFEEF4" fill-rule="evenodd" xlink:href="#path-1"></use>
                </g>
                <polygon id="Shape" stroke="#979797" stroke-width="8" fill="#757575" points="385.068331 195.291092 25.2908955 195.291092 25.2908955 201.003639 25.2908955 206.706649 385.068331 206.706649"></polygon>
                <path d="M0.962025283,201.003636 L428.101254,201.003636" id="Shape" stroke="#FFFFFF" stroke-width="10.9577999"></path>
                <polyline id="Shape" stroke="#757575" stroke-width="20" points="343.395531 168.336761 198.591033 168.336761 198.591033 132.714285 294.757297 132.714285 294.757297 96.2156001 102.044701 96.2156001 102.044701 63.9972574 172.156559 63.9972574 172.156559 17.3164062"></polyline>
                <polyline id="Shape" stroke="#FFFFFF" stroke-width="10.9577999" points="343.395531 168.336761 198.591033 168.336761 198.591033 132.714285 294.757297 132.714285 294.757297 96.2156001 102.044701 96.2156001 102.044701 63.9972574 172.156559 63.9972574 172.156559 17.3164062"></polyline>
                <g id="truck" transform="translate(111.000000, 110.000000)">
                    <path d="M151.312199,21.8017654 L104.826416,21.8017654 L104.826416,79.1124573 L163.170513,79.1124573 L174.290796,79.1124573 L187.146446,79.1124573 L187.146446,51.00441 C187.146446,47.9817156 184.693,45.5314238 181.651129,45.5314238 L174.05144,45.5314238 L151.312199,21.8017654 Z" id="Shape" fill="#FFE500"></path>
                    <rect id="Rectangle-path" fill="#FFCF00" x="3.96593475" y="0.632858276" width="132.964706" height="78.479599"></rect>
                    <polygon id="Rectangle-path" fill="#4B4A4B" points="0.664756775 71.0887604 190.637123 71.0887604 190.637123 79.1124573 165 79.1124573 0.664756775 79.1124573"></polygon>
                    <path d="M178.240229,79.122509 L148.040924,79.122509 C148.040924,76.8228505 148.559538,74.633657 149.497033,72.6754329 C151.920557,67.5840496 157.126646,64.0592461 163.140576,64.0592461 C169.154506,64.0592461 174.360596,67.5840496 176.78412,72.6754329 C177.721614,74.633657 178.240229,76.8128091 178.240229,79.122509 Z" id="Shape" fill="#F9DE9D"></path>
                    <ellipse id="Oval" fill="#4B4A4B" cx="163.150552" cy="79.1225109" rx="12.5763941" ry="12.5426769"></ellipse>
                    <path d="M163.15056,85.0875635 C159.849381,85.0875635 157.16655,82.4063025 157.16655,79.1124692 C157.16655,75.8186357 159.849381,73.1373749 163.15056,73.1373749 C166.451739,73.1373749 169.134571,75.8186357 169.134571,79.1124692 C169.134571,82.4063025 166.451739,85.0875635 163.15056,85.0875635 Z" id="Shape" fill="#DEDEDE"></path>
                    <polygon id="Shape" fill="#B0DCDE" points="170.700378 45.8025646 148.868713 45.8025646 148.868713 25.3667374 151.391971 25.3667374"></polygon>
                    <rect id="Rectangle-path" fill="#B0DCDE" x="139.334213" y="25.3667374" width="7.34037781" height="20.4458714"></rect>
                    <rect id="Rectangle-path" fill="#FFE500" x="3.96593475" y="0.632858276" width="132.964706" height="15.3444443"></rect>
                    <rect id="Rectangle-path" fill="#FFE500" x="3.96593475" y="57.3209381" width="131.997284" height="13.7678223"></rect>
                    <path d="M46.1931009,79.122509 L15.9937963,79.122509 C15.9937963,76.8228505 16.5124106,74.633657 17.4499055,72.6754329 C19.8734296,67.5840496 25.0795183,64.0592461 31.0934486,64.0592461 C37.1073781,64.0592461 42.3134682,67.5840496 44.7369919,72.6754329 C45.6744867,74.633657 46.1931009,76.8128091 46.1931009,79.122509 Z" id="Shape" fill="#F9DE9D"></path>
                    <ellipse id="Oval" fill="#4B4A4B" cx="31.0934381" cy="79.122509" rx="12.5763941" ry="12.542675"></ellipse>
                    <ellipse id="Oval" fill="#4B4A4B" cx="31.0934477" cy="79.1225109" rx="12.5763941" ry="12.5426769"></ellipse>
                    <path d="M31.0934501,85.0875635 C27.792271,85.0875635 25.1094398,82.4063025 25.1094398,79.1124692 C25.1094398,75.8186357 27.792271,73.1373749 31.0934501,73.1373749 C34.3946287,73.1373749 37.0774603,75.8186357 37.0774603,79.1124692 C37.0774603,82.4063025 34.3946287,85.0875635 31.0934501,85.0875635 Z" id="Shape" fill="#DEDEDE"></path>
                </g>
                <path d="M121.088308,254.910375 C121.088308,255.694456 120.96889,256.448379 120.749959,257.162092 C120.531028,257.875806 120.202629,258.539259 119.804571,259.142397 L113.485401,269.626957 L107.176182,259.132345 C106.360163,257.926069 105.892445,256.468483 105.892445,254.900323 C105.892445,250.70851 109.305792,247.300777 113.495353,247.300777 C117.674961,247.310829 121.088308,250.718563 121.088308,254.910375 Z" id="Shape" fill="#FFCF00"></path>
                <ellipse id="Oval" fill="#FFFFFF" cx="113.485401" cy="254.910375" rx="3.98057985" ry="3.98071432"></ellipse>
                <path d="M113.485401,247.310829 L113.485401,269.626955 L107.176182,259.132345 C106.360163,257.926068 105.892445,256.468483 105.892445,254.900323 C105.892445,250.718562 109.29584,247.310829 113.485401,247.310829 Z" id="Shape" fill="#FFCF00"></path>
                <ellipse id="Oval" fill="#DEDEDE" cx="113.485397" cy="269.626962" rx="6.61771393" ry="2.0607233"></ellipse>
                <ellipse id="Oval" fill="#DEDEDE" cx="213.249293" cy="74.7769222" rx="12.13589" ry="3.68658257"></ellipse>
                <path d="M225.385184,53.6655532 C225.385184,54.8318182 225.2048,55.9585488 224.864073,57.0160937 C224.533368,58.0736386 224.032299,59.0619978 223.420994,59.9614061 L213.80047,75.5774931 L204.179947,59.9614061 C202.937296,58.1625916 202.215756,55.9980832 202.215756,53.6655532 C202.215756,47.4290024 207.416852,42.3488325 213.80047,42.3488325 C220.19411,42.3488325 225.385184,47.4290024 225.385184,53.6655532 Z" id="Shape" fill="#FFCF00"></path>
                <ellipse id="Oval" fill="#FFFFFF" cx="213.800471" cy="53.6655536" rx="6.07295609" ry="5.93015957"></ellipse>
                <path d="M213.80047,42.3488325 L213.80047,75.5774931 L204.179947,59.9614061 C202.937296,58.1625916 202.215756,55.9980832 202.215756,53.6655532 C202.215756,47.4290024 207.40683,42.3488325 213.80047,42.3488325 Z" id="Shape" fill="#FFCF00"></path>
                <ellipse id="Oval" fill="#DEDEDE" cx="248.651002" cy="60.1811028" rx="6.18342686" ry="2.02246094"></ellipse>
                <path d="M254.109142,49.0723681 C254.109142,49.6643076 254.025457,50.2365162 253.867384,50.7692617 C253.709312,51.3020076 253.476852,51.8051559 253.188602,52.2688421 L248.650989,60.1909691 L244.113377,52.2688421 C243.527579,51.351336 243.183538,50.2562476 243.183538,49.0723681 C243.183538,45.9054903 245.629014,43.3305527 248.641691,43.3305527 C251.654368,43.3305527 254.109142,45.915356 254.109142,49.0723681 Z" id="Shape" fill="#0F7EDF"></path>
                <ellipse id="Oval" fill="#FFFFFF" cx="248.65099" cy="49.0723674" rx="2.86390305" ry="3.00902653"></ellipse>
                <path d="M248.65099,43.3404183 L248.65099,60.190968 L244.113377,52.2688419 C243.527579,51.3513354 243.183538,50.2562471 243.183538,49.0723678 C243.192837,45.915356 245.638312,43.3404183 248.65099,43.3404183 Z" id="Shape" fill="#0F7EDF"></path>
                <ellipse id="Oval" fill="#DEDEDE" cx="321.727738" cy="156.354034" rx="6.18342686" ry="2.02246046"></ellipse>
                <path d="M327.185883,145.235437 C327.185883,145.827377 327.102198,146.399585 326.944125,146.932331 C326.786052,147.465077 326.553593,147.968225 326.265343,148.431911 L321.72773,156.354038 L317.190118,148.431911 C316.604319,147.514405 316.260279,146.419317 316.260279,145.235437 C316.260279,142.06856 318.705755,139.493622 321.718432,139.493622 C324.731109,139.503487 327.185883,142.078425 327.185883,145.235437 Z" id="Shape" fill="#0F7EDF"></path>
                <ellipse id="Oval" fill="#FFFFFF" cx="321.72773" cy="145.235437" rx="2.86390281" ry="3.009027"></ellipse>
                <path d="M321.72773,139.503487 L321.72773,156.354037 L317.190118,148.431911 C316.604319,147.514405 316.260279,146.419316 316.260279,145.235437 C316.260279,142.078425 318.715053,139.503487 321.72773,139.503487 Z" id="Shape" fill="#0F7EDF"></path>
                <polygon id="Shape" fill="#3C4147" points="212.79292 379.999924 203.471295 379.930075 202.899159 256.262237 200.024527 256.19239 195.574846 379.999924 186.202936 379.930075 176.413462 238.89873 176.050644 233.772095 224.151909 234.079413 224.124001 239.220017"></polygon>
                <path d="M186.092327,129.873367 C186.092327,129.873367 183.383914,130.052669 183.787932,131.335364 C184.191949,132.61806 186.361672,137.583332 187.468979,137.56954 C188.576286,137.555748 189.518993,136.879919 189.518993,136.879919 L186.092327,129.873367 Z" id="Shape" fill="#F1C5B3"></path>
                <path d="M216.08439,130.835396 C216.08439,130.835396 218.762254,131.042651 218.333204,132.327636 C217.904154,133.61262 215.699724,138.559118 214.619702,138.531484 C213.524884,138.50385 212.607605,137.812998 212.607605,137.812998 L216.08439,130.835396 Z" id="Shape" fill="#F1C5B3"></path>
                <polygon id="Shape" fill="#DEB6A7" points="205.779768 156.810078 196.253174 156.754859 196.346834 141.417671 205.873428 141.486695"></polygon>
                <path d="M216.454837,125.670342 C216.412854,132.461272 212.200651,142.543934 210.983169,144.079154 C208.436257,147.287903 204.965738,149.141233 201.383266,149.113572 C197.898752,149.08591 194.456221,147.329397 192.063241,144.134479 C190.21603,141.686423 186.577582,132.253809 186.633558,125.476711 C186.731516,111.645898 192.804925,105.767802 201.677139,105.823125 C210.549355,105.878449 216.538799,112.171469 216.454837,125.670342 Z" id="Shape" fill="#F1C5B3"></path>
                <path d="M200.101273,106.683862 C200.101273,106.683862 191.158252,103.623658 186.757271,109.041046 C182.356289,114.458434 182.793566,127.746889 187.984467,135.645523 L188.520485,135.645523 C188.520485,135.645523 185.741659,121.474849 190.932561,119.407143 C196.123463,117.325653 198.634278,118.125166 198.634278,118.125166 L200.101273,106.683862 Z" id="Shape" fill="#3C4147"></path>
                <path d="M202.98735,106.612213 C202.98735,106.612213 212.063596,103.671784 216.444739,109.140434 C220.825884,114.595343 220.197966,127.827278 214.832136,135.645523 L214.289845,135.645523 C214.289845,135.645523 217.300989,121.561689 212.077867,119.418197 C206.869015,117.274707 204.300266,118.044165 204.300266,118.044165 L202.98735,106.612213 Z" id="Shape" fill="#3C4147"></path>
                <path d="M226.956056,159.985399 L222.774996,158.544338 L222.789027,158.516356 L221.119408,157.94273 L215.731735,156.109924 L215.717705,156.137906 L212.40653,155.018635 L206.555851,153.03193 L201.561027,153.003948 L196.566206,152.961975 L191.767808,154.528954 L191.136439,154.738817 L187.488535,155.942033 L182.08683,157.690894 L180.389152,158.236538 L176.095849,159.635627 C170.343384,161.510405 168.856161,169.065482 169.431408,175.011609 L175.941514,241.146519 L200.971752,241.314409 L224.31834,241.468307 L233.634529,173.780411 C234.293957,167.862266 232.66643,161.930132 226.956056,159.985399 Z" id="Shape" fill="#0F7EDF"></path>
                <path d="M211.645576,155.168179 C210.682282,159.940912 206.326515,163.544258 201.091219,163.544258 C195.758197,163.544258 191.332626,159.804937 190.481018,154.882631 L191.109254,154.678668 L195.883844,153.155744 L200.881807,151.999954 L205.823927,153.223732 L211.645576,155.168179 Z" id="Shape" fill="#DEB6A7"></path>
                <rect id="Rectangle-path" fill="#C5AA7E" x="170.278488" y="194.329071" width="61.5696182" height="50.025322"></rect>
                <path d="M162.989079,181.822723 C162.989079,181.822723 151.094263,203.693071 151.038222,209.605491 C150.96817,215.994265 166.099385,242.740259 170.3025,245.416257 C173.524889,247.475796 184.859289,248.232365 185.643871,245.318185 C186.316371,242.810312 174.211397,241.913641 174.323481,239.335715 C174.393532,237.388259 180.572111,240.442542 181.314662,238.649199 C181.678932,237.78055 175.122071,235.356741 173.174629,235.356741 C172.207911,235.356741 170.610729,235.00648 169.826147,233.955692 C165.342823,227.931189 161.405906,210.376067 162.386633,208.750851 C164.544232,205.150159 172.404057,194.964547 172.404057,194.964547 L161.728145,188.085405" id="Shape" fill="#F1C5B3"></path>
                <polygon id="Shape" fill="#0A6ABD" points="174.126587 191.265911 171.199281 201.063236 157.772156 190.423734 170.622066 163.54425"></polygon>
                <path d="M239.137514,181.822723 C239.137514,181.822723 251.032331,203.693071 251.088374,209.605491 C251.158425,215.994265 236.027211,242.740259 231.824094,245.416257 C228.601706,247.475796 217.267305,248.232365 216.482724,245.318185 C215.810225,242.810312 227.915197,241.913641 227.803115,239.335715 C227.733062,237.388259 221.554483,240.442542 220.811933,238.649199 C220.447663,237.78055 227.004522,235.356741 228.951966,235.356741 C229.918682,235.356741 231.515866,235.00648 232.314458,233.955692 C236.79778,227.931189 240.734699,210.376067 239.753973,208.750851 C237.596373,205.150159 229.736547,194.964547 229.736547,194.964547 L240.412461,188.085405" id="Shape" fill="#F1C5B3"></path>
                <polygon id="Shape" fill="#0A6ABD" points="228 191.265911 230.927306 201.063236 244.354431 190.423734 231.518264 163.54425"></polygon>
                <rect id="Rectangle-path" fill="#FFFFFF" x="207.79747" y="199.139191" width="19.2405052" height="10.5822754"></rect>
                <rect id="Rectangle-path" fill="#646363" x="209.721527" y="201.063232" width="1" height="6.73417664"></rect>
                <rect id="Rectangle-path" fill="#646363" x="210.683548" y="201.063232" width="1" height="6.73417664"></rect>
                <rect id="Rectangle-path" fill="#646363" x="210.683548" y="201.063232" width="1" height="6.73417664"></rect>
                <rect id="Rectangle-path" fill="#646363" x="215.493683" y="201.063232" width="1" height="6.73417664"></rect>
                <rect id="Rectangle-path" fill="#646363" x="224.151901" y="201.063232" width="1" height="6.73417664"></rect>
                <rect id="Rectangle-path" fill="#646363" x="219.341766" y="201.063232" width="1" height="6.73417664"></rect>
                <rect id="Rectangle-path" fill="#646363" x="220.303802" y="201.063232" width="1" height="6.73417664"></rect>
                <rect id="Rectangle-path" fill="#646363" x="221.265839" y="201.063232" width="1" height="6.73417664"></rect>
                <rect id="Rectangle-path" fill="#646363" x="212.607605" y="201.063232" width="1" height="6.73417664"></rect>
                <rect id="Rectangle-path" fill="#646363" x="209.721527" y="201.063232" width="1" height="6.73417664"></rect>
                <rect id="Rectangle-path" fill="#646363" x="218.379761" y="201.063232" width="1" height="6.73417664"></rect>
                <rect id="Rectangle-path" fill="#646363" x="213.569626" y="201.063232" width="1" height="6.73417664"></rect>
                <rect id="Rectangle-path" fill="#646363" x="216.455704" y="201.063232" width="1.92404938" height="6.73417664"></rect>
                <rect id="Rectangle-path" fill="#646363" x="222.227844" y="201.063232" width="1.92404938" height="6.73417664"></rect>
                <rect id="Rectangle-path" fill="#646363" x="218.379761" y="201.063232" width="1" height="6.73417664"></rect>
                <path d="M219.521008,117.413058 C219.521008,120.267729 211.533562,122.570775 201.69743,122.570775 C191.847186,122.570775 183.873852,120.253939 183.873852,117.413058 C183.873852,107.883693 191.861298,100.160908 201.69743,100.160908 C211.547672,100.174699 219.521008,107.897484 219.521008,117.413058 Z" id="Shape" fill="#0F7EDF"></path>
                <path d="M219.521008,117.413057 L214.172522,133.355091 L214.059626,133.355091 C211.025525,130.569372 206.255637,128.790374 200.89304,128.790374 C195.643341,128.790374 190.972236,130.500419 187.924023,133.189603 L187.909911,133.189603 L183.873852,117.909522 L219.521008,117.413057 Z" id="Shape" fill="#3E97E5"></path>
                <path d="M219.521008,117.413059 C219.521008,120.267731 211.533562,122.570776 201.69743,122.570776 C191.847186,122.570776 183.873852,120.25394 183.873852,117.413059 C183.873852,114.572177 191.861298,112.255342 201.69743,112.255342 C211.547672,112.269132 219.521008,114.572177 219.521008,117.413059 Z" id="Shape" fill="#0F7EDF"></path>
            </g>
        </g>
    </g>
</svg>