<?xml version="1.0" encoding="UTF-8"?>
<svg width="414px" height="414px" viewBox="0 0 414 414" version="1.1" xmlns="http://www.w3.org/2000/svg" xmlns:xlink="http://www.w3.org/1999/xlink">
    <!-- Generator: Sketch 51 (57462) - http://www.bohemiancoding.com/sketch -->
    <title>img3</title>
    <desc>Created with Sketch.</desc>
    <defs>
        <circle id="path-1" cx="190" cy="190" r="190"></circle>
        <filter x="-6.7%" y="-6.7%" width="113.4%" height="113.4%" filterUnits="objectBoundingBox" id="filter-3">
            <feOffset dx="0" dy="0" in="SourceAlpha" result="shadowOffsetOuter1"></feOffset>
            <feGaussianBlur stdDeviation="8.5" in="shadowOffsetOuter1" result="shadowBlurOuter1"></feGaussianBlur>
            <feComposite in="shadowBlurOuter1" in2="SourceAlpha" operator="out" result="shadowBlurOuter1"></feComposite>
            <feColorMatrix values="0 0 0 0 0.592156863   0 0 0 0 0.592156863   0 0 0 0 0.592156863  0 0 0 0.443137255 0" type="matrix" in="shadowBlurOuter1"></feColorMatrix>
        </filter>
    </defs>
    <g id="DRIVER" stroke="none" stroke-width="1" fill="none" fill-rule="evenodd">
        <g id="main_driver" transform="translate(-820.000000, -2413.000000)">
            <rect fill="#FFFFFF" x="0" y="0" width="1440" height="4831"></rect>
            <g id="img3" transform="translate(837.000000, 2430.000000)">
                <g id="140396-OT1DHV-516" fill-rule="nonzero">
                    <g transform="translate(26.000000, 58.000000)">
                        <g id="OBJECTS" transform="translate(9.000000, 1.000000)">
                            <g id="Group">
                                <g transform="translate(0.000000, 185.125786)">
                                    <g transform="translate(0.000000, 0.276730)">
                                        <rect id="Rectangle-path" fill="#C69C6D" x="0.204661017" y="0.613207547" width="96.8728814" height="56.5513627"></rect>
                                        <rect id="Rectangle-path" fill="#AA7E52" x="0.204661017" y="0.613207547" width="28.175" height="56.5513627"></rect>
                                        <polygon id="Shape" fill="#D3AD88" points="28.379661 57.1645702 97.0775424 57.1645702 97.0775424 0.613207547"></polygon>
                                        <g transform="translate(6.822034, 0.000000)" id="Shape">
                                            <polygon fill="#EACD50" points="54.6444915 13.6949686 54.7809322 18.8731656 47.0720339 18.8731656 47.0720339 0.613207547 60.784322 0.613207547 60.784322 13.6949686"></polygon>
                                            <polygon fill="#EACD50" points="13.6440678 57.1645702 0 57.1645702 0 0.613207547 13.6440678 0.613207547 13.6440678 41.221174"></polygon>
                                            <polygon fill="#F4E39A" points="60.784322 13.6949686 54.7809322 18.8731656 54.6444915 13.6949686"></polygon>
                                        </g>
                                        <g transform="translate(69.584746, 35.429769)" id="Rectangle-path">
                                            <rect fill="#FFFFFF" x="0.136440678" y="0.408805031" width="20.1932203" height="14.2400419"></rect>
                                            <rect fill="#1A1D23" x="2.52415254" y="7.49475891" width="15.6224576" height="1.77148847"></rect>
                                            <rect fill="#1A1D23" x="12.3478814" y="10.28826" width="5.79872881" height="1.77148847"></rect>
                                        </g>
                                    </g>
                                </g>
                                <g transform="translate(69.584746, 20.517820)">
                                    <polygon id="Shape" fill="#F7E6C4" points="251.733051 243.98847 149.402542 143.218029 106.287288 182.531447 194.018644 285.48218 251.733051 285.48218"></polygon>
                                    <path d="M218.236864,285.48218 C202.000424,267.562893 175.872034,238.333333 163.114831,222.049266 C147.560593,202.085954 152.88178,185.938155 155.474153,180.487421 C155.815254,179.80608 156.224576,179.192872 156.565678,178.51153 C161.613983,168.836478 162.841949,160.524109 163.114831,156.77673 L149.402542,143.218029 L106.287288,182.531447 L127.299153,208.081761 C127.503814,207.945493 127.640254,207.877358 127.844915,207.74109 L194.086864,285.414046 L218.236864,285.414046 L218.236864,285.48218 Z" id="Shape" fill="#DBB87F" opacity="0.71"></path>
                                    <path d="M21.4894068,37.6100629 C16.8504237,33.4538784 9.68728814,33.8626834 5.52584746,38.4958071 C1.36440678,43.1289308 1.77372881,50.2830189 6.41271186,54.4392034 L30.4262712,75.9014675 L45.5029661,59.072327 L21.4894068,37.6100629 Z" id="Shape" stroke="#EBB781" fill="#FDD5AE"></path>
                                    <g transform="translate(23.877119, 0.000000)">
                                        <path d="M101.852966,9.53878407 L12.7572034,9.53878407 C5.79872881,9.53878407 0.136440678,15.1939203 0.136440678,22.1436059 L0.136440678,189.27673 C0.136440678,196.226415 5.79872881,201.881551 12.7572034,201.881551 L101.852966,201.881551 C108.811441,201.881551 114.473729,196.226415 114.473729,189.27673 L114.473729,22.1436059 C114.473729,15.1939203 108.811441,9.53878407 101.852966,9.53878407 Z" id="Shape" fill="#1A1D23"></path>
                                        <path d="M101.852966,0 L12.7572034,0 C5.79872881,0 0.136440678,5.65513627 0.136440678,12.6048218 L0.136440678,179.737945 C0.136440678,186.687631 5.79872881,192.342767 12.7572034,192.342767 L101.852966,192.342767 C108.811441,192.342767 114.473729,186.687631 114.473729,179.737945 L114.473729,12.6048218 C114.473729,5.65513627 108.811441,0 101.852966,0 Z" id="Shape" fill="#2C303B"></path>
                                        <path d="M101.852966,0 L56.35,0 L56.35,192.410901 L101.852966,192.410901 C108.811441,192.410901 114.473729,186.755765 114.473729,179.80608 L114.473729,12.6048218 C114.473729,5.65513627 108.811441,0 101.852966,0 Z" id="Shape" fill="#373C45"></path>
                                        <path d="M95.6449153,11.5828092 L18.9652542,11.5828092 C14.9402542,11.5828092 11.665678,14.8532495 11.665678,18.8731656 L11.665678,157.458071 C11.665678,161.477987 14.9402542,164.748428 18.9652542,164.748428 L95.5766949,164.748428 C99.6016949,164.748428 102.876271,161.477987 102.876271,157.458071 L102.876271,18.8731656 C102.876271,14.8532495 99.6699153,11.5828092 95.6449153,11.5828092 Z" id="Shape" fill="#D4D5D6"></path>
                                        <path d="M102.876271,152.21174 L102.876271,18.8731656 C102.876271,14.8532495 99.6016949,11.5828092 95.5766949,11.5828092 L56.35,11.5828092 L56.35,164.748428 L95.5766949,164.748428 C99.6016949,164.748428 102.876271,161.477987 102.876271,157.458071 L102.876271,152.21174" id="Shape" fill="#FAFAFA"></path>
                                        <path d="M95.6449153,10.9014675 L18.9652542,10.9014675 C14.9402542,10.9014675 11.665678,11.6509434 11.665678,15.6708595 L11.665678,22.4842767 C11.665678,18.4643606 14.9402542,15.1939203 18.9652542,15.1939203 L95.5766949,15.1939203 C99.6016949,15.1939203 102.876271,18.4643606 102.876271,22.4842767 L102.876271,18.1236897 C102.876271,14.1719078 99.6699153,10.9014675 95.6449153,10.9014675 Z" id="Shape" fill="#1A1D23"></path>
                                        <ellipse id="Oval" fill="#E5E7E9" cx="56.35" cy="177.69392" rx="9.14152542" ry="9.12997904"></ellipse>
                                        <ellipse id="Oval" fill="#B3B3B3" cx="56.35" cy="177.69392" rx="5.5940678" ry="5.5870021"></ellipse>
                                    </g>
                                    <path d="M119.522034,15.3301887 L42.8423729,15.3301887 C38.8173729,15.3301887 35.5427966,18.6006289 35.5427966,22.6205451 L35.5427966,30.3197065 L126.75339,30.3197065 L126.75339,22.6205451 C126.75339,18.6006289 123.547034,15.3301887 119.522034,15.3301887 Z" id="Shape" fill="#FFCF00"></path>
                                    <rect id="Rectangle-path" fill="#FFCF00" x="85.8211864" y="38.4958071" width="37.1118644" height="6.26834382"></rect>
                                    <rect id="Rectangle-path" fill="#FFCF00" x="85.8211864" y="48.9884696" width="15.3495763" height="6.26834382"></rect>
                                    <rect id="Rectangle-path" fill="#FFCF00" x="85.8211864" y="83.1918239" width="37.1118644" height="6.26834382"></rect>
                                    <rect id="Rectangle-path" fill="#FFCF00" x="85.8211864" y="93.6844864" width="15.3495763" height="6.26834382"></rect>
                                    <rect id="Rectangle-path" fill="#FFCF00" x="85.8211864" y="127.819706" width="37.1118644" height="6.26834382"></rect>
                                    <rect id="Rectangle-path" fill="#FFCF00" x="85.8211864" y="138.380503" width="15.3495763" height="6.26834382"></rect>
                                    <g transform="translate(39.567797, 83.123690)">
                                        <path d="M31.5177966,0 L6.13983051,0 C3.06991525,0 0.545762712,2.52096436 0.545762712,5.5870021 L0.545762712,19.3501048 C0.545762712,22.4161426 3.06991525,24.9371069 6.13983051,24.9371069 L31.4495763,24.9371069 C34.5194915,24.9371069 37.0436441,22.4161426 37.0436441,19.3501048 L37.0436441,5.5870021 C37.0436441,2.45283019 34.5877119,0 31.5177966,0 Z" id="Shape" fill="#F2F2F2"></path>
                                        <path d="M6.13983051,24.8689727 L29.8805085,24.8689727 L15.0084746,9.87945493 L0.955084746,21.3259958 C1.77372881,23.370021 3.82033898,24.8689727 6.13983051,24.8689727 Z" id="Shape" fill="#B9D3EF"></path>
                                        <path d="M36.429661,21.802935 L26.4012712,11.7190776 L10.3694915,24.7327044 L10.4377119,24.8008386 L31.4495763,24.8008386 C33.6326271,24.8689727 35.5427966,23.6425577 36.429661,21.802935 Z" id="Shape" fill="#CADEF9"></path>
                                        <ellipse id="Oval" fill="#F7931E" transform="translate(6.938534, 7.831158) rotate(-45.000000) translate(-6.938534, -7.831158) " cx="6.93853377" cy="7.83115776" rx="3.34276455" ry="3.33854241"></ellipse>
                                    </g>
                                    <g transform="translate(39.567797, 127.410901)">
                                        <path d="M31.5177966,0.408805031 L6.13983051,0.408805031 C3.06991525,0.408805031 0.545762712,2.92976939 0.545762712,5.99580713 L0.545762712,19.7589099 C0.545762712,22.8249476 3.06991525,25.3459119 6.13983051,25.3459119 L31.4495763,25.3459119 C34.5194915,25.3459119 37.0436441,22.8249476 37.0436441,19.7589099 L37.0436441,5.99580713 C37.0436441,2.86163522 34.5877119,0.408805031 31.5177966,0.408805031 Z" id="Shape" fill="#F2F2F2"></path>
                                        <path d="M6.13983051,25.2777778 L29.8805085,25.2777778 L15.0084746,10.28826 L0.955084746,21.7348008 C1.77372881,23.778826 3.82033898,25.2777778 6.13983051,25.2777778 Z" id="Shape" fill="#B9D3EF"></path>
                                        <path d="M36.429661,22.21174 L26.4012712,12.1278826 L10.3694915,25.1415094 L10.4377119,25.2096436 L31.4495763,25.2096436 C33.6326271,25.2777778 35.5427966,24.0513627 36.429661,22.21174 Z" id="Shape" fill="#CADEF9"></path>
                                        <ellipse id="Oval" fill="#F7931E" transform="translate(6.952287, 8.233803) rotate(-45.000000) translate(-6.952287, -8.233803) " cx="6.95228699" cy="8.23380346" rx="3.34276455" ry="3.33854241"></ellipse>
                                    </g>
                                    <g transform="translate(0.000000, 63.364780)" fill="#FDD5AE" id="Shape" stroke="#EBB781">
                                        <path d="M29.7440678,8.85744235 L24.0135593,12.9454927 L24.0135593,96.7505241 C26.5377119,96.8867925 29.1300847,96.2735849 31.3131356,94.6383648 L37.4529661,89.5964361 C42.5012712,85.9853249 43.7292373,78.8993711 40.045339,73.8574423 C38.4080508,71.5408805 36.020339,70.0419287 33.4279661,69.4287212 L39.2949153,65.2725367 C44.3432203,61.6614256 45.5711864,54.5754717 41.8872881,49.533543 C41.3415254,48.7840671 40.7275424,48.1708595 40.045339,47.557652 C44.4114407,43.8102725 45.2983051,37.269392 41.8872881,32.4318658 C41.1368644,31.3417191 40.1817797,30.4559748 39.1584746,29.706499 L42.9105932,27.0492662 C47.9588983,23.4381551 49.1868644,16.3522013 45.5029661,11.3102725 C41.8190678,6.40461216 34.7923729,5.24633124 29.7440678,8.85744235 Z"></path>
                                        <path d="M41.6826271,5.24633124 C38.0669492,0.204402516 30.9720339,-1.02201258 25.9237288,2.6572327 L8.86864407,14.8532495 C3.82033898,18.4643606 2.59237288,25.5503145 6.27627119,30.5922432 C9.89194915,35.6341719 16.9868644,36.860587 22.0351695,33.1813417 L39.0902542,20.9853249 C44.1385593,17.3060797 45.2983051,10.28826 41.6826271,5.24633124 Z"></path>
                                        <path d="M38.0669492,26.2997904 C34.4512712,21.2578616 27.3563559,20.0314465 22.3080508,23.7106918 L5.2529661,35.9067086 C0.204661017,39.5178197 -1.02330508,46.6037736 2.66059322,51.6457023 C6.27627119,56.687631 13.3711864,57.9140461 18.4194915,54.2348008 L35.4745763,42.0387841 C40.5228814,38.427673 41.6826271,31.4098532 38.0669492,26.2997904 Z"></path>
                                        <path d="M38.0669492,43.4014675 C34.4512712,38.3595388 27.3563559,37.1331237 22.3080508,40.812369 L5.2529661,53.0083857 C0.204661017,56.6194969 -1.02330508,63.7054507 2.66059322,68.7473795 C6.27627119,73.7893082 13.3711864,75.0157233 18.4194915,71.336478 L35.4745763,59.1404612 C40.5228814,55.5293501 41.6826271,48.4433962 38.0669492,43.4014675 Z"></path>
                                        <path d="M36.225,67.7253669 C32.609322,62.6834382 25.5144068,61.4570231 20.4661017,65.1362683 L14.3262712,70.1781971 C9.2779661,73.7893082 8.05,80.8752621 11.7338983,85.9171908 C15.3495763,90.9591195 22.4444915,92.1855346 27.4927966,88.5062893 L33.6326271,83.4643606 C38.6809322,79.7851153 39.840678,72.7672956 36.225,67.7253669 Z"></path>
                                    </g>
                                    <path d="M138.350847,98.8626834 L128.936441,85.5083857 C127.435593,83.4643606 124.775,83.1918239 123.001271,85.0314465 C114.67839,93.3438155 113.382203,108.060797 120.204237,117.667715 L138.419068,141.991614 L138.419068,98.8626834 L138.350847,98.8626834 Z" id="Shape" fill="#CCCCCC"></path>
                                    <g transform="translate(113.881356, 138.312369)" fill="#FFFFFF" id="Shape">
                                        <path d="M6.25466102,1.77148847 L4.54915254,1.77148847 L5.50423729,1.15828092 C5.64067797,1.09014675 5.64067797,0.953878407 5.57245763,0.817610063 C5.50423729,0.681341719 5.36779661,0.681341719 5.23135593,0.749475891 L3.79872881,1.63522013 C3.73050847,1.56708595 3.66228814,1.56708595 3.52584746,1.56708595 C3.38940678,1.56708595 3.2529661,1.63522013 3.18474576,1.7033543 L0.865254237,1.7033543 C0.66059322,1.7033543 0.524152542,1.83962264 0.524152542,2.04402516 C0.524152542,2.24842767 0.66059322,2.38469602 0.865254237,2.38469602 L1.47923729,4.97379455 L5.64067797,4.97379455 L6.25466102,2.38469602 C6.45932203,2.38469602 6.59576271,2.24842767 6.59576271,2.04402516 C6.59576271,1.90775681 6.45932203,1.77148847 6.25466102,1.77148847 Z M2.29788136,4.360587 C2.29788136,4.49685535 2.16144068,4.63312369 2.025,4.63312369 C1.88855932,4.63312369 1.75211864,4.49685535 1.75211864,4.360587 L1.75211864,2.99790356 C1.75211864,2.86163522 1.88855932,2.72536688 2.025,2.72536688 C2.16144068,2.72536688 2.29788136,2.86163522 2.29788136,2.99790356 L2.29788136,4.360587 Z M3.2529661,4.360587 C3.2529661,4.49685535 3.11652542,4.63312369 2.98008475,4.63312369 C2.84364407,4.63312369 2.70720339,4.49685535 2.70720339,4.360587 L2.70720339,2.99790356 C2.70720339,2.86163522 2.84364407,2.72536688 2.98008475,2.72536688 C3.11652542,2.72536688 3.2529661,2.86163522 3.2529661,2.99790356 L3.2529661,4.360587 Z M4.27627119,4.360587 C4.27627119,4.49685535 4.13983051,4.63312369 4.00338983,4.63312369 C3.86694915,4.63312369 3.73050847,4.49685535 3.73050847,4.360587 L3.73050847,2.99790356 C3.73050847,2.86163522 3.86694915,2.72536688 4.00338983,2.72536688 C4.13983051,2.72536688 4.27627119,2.86163522 4.27627119,2.99790356 L4.27627119,4.360587 Z M5.29957627,4.360587 C5.29957627,4.49685535 5.16313559,4.63312369 5.02669492,4.63312369 C4.89025424,4.63312369 4.75381356,4.49685535 4.75381356,4.360587 L4.75381356,2.99790356 C4.75381356,2.86163522 4.89025424,2.72536688 5.02669492,2.72536688 C5.16313559,2.72536688 5.29957627,2.86163522 5.29957627,2.99790356 L5.29957627,4.360587 Z"></path>
                                    </g>
                                    <g transform="translate(120.750000, 75.628931)" id="Shape">
                                        <path d="M36.634322,34.6802935 L13.5076271,2.04402516 C12.0067797,-7.82707232e-15 9.34618644,-0.272536688 7.57245763,1.56708595 C-0.750423729,9.87945493 -2.04661017,24.5964361 4.77542373,34.2033543 L17.6008475,52.327044 L17.6008475,104.109015 C31.4495763,98.2494759 38.7491525,88.7106918 42.5012712,79.0356394 C48.1635593,64.2505241 45.7758475,47.6257862 36.634322,34.6802935 Z" stroke="#EBB781" fill="#FDD5AE"></path>
                                        <path d="M17.6008475,52.327044 C17.6008475,52.327044 31.7224576,66.0901468 17.6008475,76.7190776 L17.6008475,52.327044 Z" fill="#EFCC8F" opacity="0.45"></path>
                                    </g>
                                    <rect id="Rectangle-path" fill="#0F7EDF" x="41.6826271" y="20.6446541" width="18.6241525" height="6.26834382"></rect>
                                    <g transform="translate(39.567797, 38.155136)">
                                        <path d="M31.5177966,0.272536688 L6.13983051,0.272536688 C3.06991525,0.272536688 0.545762712,2.79350105 0.545762712,5.85953878 L0.545762712,19.6226415 C0.545762712,22.6886792 3.06991525,25.2096436 6.13983051,25.2096436 L31.4495763,25.2096436 C34.5194915,25.2096436 37.0436441,22.6886792 37.0436441,19.6226415 L37.0436441,5.85953878 C37.0436441,2.79350105 34.5877119,0.272536688 31.5177966,0.272536688 Z" id="Shape" fill="#F2F2F2"></path>
                                        <path d="M6.13983051,25.1415094 L29.8805085,25.1415094 L15.0084746,10.1519916 L0.955084746,21.5985325 C1.77372881,23.7106918 3.82033898,25.1415094 6.13983051,25.1415094 Z" id="Shape" fill="#B9D3EF"></path>
                                        <path d="M36.429661,22.1436059 L26.4012712,12.0597484 L10.3694915,25.0733753 L10.4377119,25.1415094 L31.4495763,25.1415094 C33.6326271,25.1415094 35.5427966,23.9150943 36.429661,22.1436059 Z" id="Shape" fill="#CADEF9"></path>
                                        <ellipse id="Oval" fill="#F7931E" transform="translate(6.973087, 8.157963) rotate(-45.000000) translate(-6.973087, -8.157963) " cx="6.97308737" cy="8.15796331" rx="3.34276455" ry="3.33854241"></ellipse>
                                    </g>
                                    <g transform="translate(126.207627, 164.884696)" id="Shape">
                                        <polygon fill="#F2F2F2" points="0.545762712 49.942348 51.5745763 0.34067086 68.834322 19.418239 19.3745763 68.6111111"></polygon>
                                        <polygon fill="#0F7EDF" points="125.525424 65.3406709 67.9474576 6.40461216 6.8220339 67.4528302 50.2783898 120.597484 125.525424 120.597484"></polygon>
                                    </g>
                                    <polygon id="Shape" fill="#0F7EDF" points="143.467373 198.611111 126.75339 214.827044 138.691949 226.614256 133.029661 232.337526 176.486017 285.48218 218.782627 285.48218"></polygon>
                                    <polygon id="Shape" fill="#7CC2FF" opacity="0.28" points="188.424576 176.944444 177.782203 165.225367 168.504237 174.287212 251.733051 257.410901 251.733051 230.225367 194.155085 171.289308"></polygon>
                                    <g transform="translate(71.894068, 96.628931)">
                                        <rect id="Rectangle-path" fill="#FFFFFF" transform="translate(3.846922, 3.865358) rotate(144.421692) translate(-3.846922, -3.865358) " x="2.34611376" y="1.03786343" width="3.00161707" height="5.6549896"></rect>
                                        <path d="M7.03686441,3.80083857 L18.020339,19.1991614 C18.8389831,20.3574423 18.5661017,21.9245283 17.4063559,22.7421384 C16.2466102,23.5597484 14.6775424,23.2872117 13.8588983,22.1289308 L2.87542373,6.73060797 L7.03686441,3.80083857 Z" id="Shape" fill="#0F7EDF"></path>
                                        <path d="M7.03686441,3.80083857 L18.020339,19.1991614 C18.8389831,20.3574423 18.5661017,21.9245283 17.4063559,22.7421384 L4.9220339,5.29979036 L7.03686441,3.80083857 Z" id="Shape" fill="#6D97E2"></path>
                                    </g>
                                    <g opacity="0.71" transform="translate(53.847458, 75.628931)">
                                        <g transform="translate(0.000000, 3.000000)" fill="#F7931E" id="Oval">
                                            <ellipse transform="translate(6.326463, 6.763497) rotate(-45.000000) translate(-6.326463, -6.763497) " cx="6.32646292" cy="6.76349738" rx="4.09318108" ry="4.08801111"></ellipse>
                                        </g>
                                        <g transform="translate(0.046610, 0.000000)">
                                            <ellipse id="Oval" fill="#FFFFFF" transform="translate(14.170592, 14.107024) rotate(-35.578308) translate(-14.170592, -14.107024) " cx="14.1705924" cy="14.1070236" rx="9.95991117" ry="9.9473311"></ellipse>
                                            <path d="M2.72881356,22.3480084 C7.23135593,28.6844864 16.0317797,30.115304 22.3762712,25.6184486 C28.7207627,21.1215933 30.1533898,12.3322851 25.6508475,5.99580713 C21.1483051,-0.34067086 12.3478814,-1.77148847 6.00338983,2.72536688 C-0.341101695,7.22222222 -1.77372881,16.0115304 2.72881356,22.3480084 Z M6.07161017,19.8951782 C2.86525424,15.3983229 3.88855932,9.19811321 8.39110169,5.99580713 C12.8936441,2.79350105 19.1016949,3.81551363 22.3080508,8.31236897 C25.5144068,12.8092243 24.4911017,19.009434 19.9885593,22.21174 C15.5542373,25.4140461 9.2779661,24.3920335 6.07161017,19.8951782 Z" id="Shape" fill="#1A609E"></path>
                                            <path d="M3.95677966,21.4622642 C7.98177966,27.1174004 15.895339,28.4119497 21.4894068,24.3920335 C27.1516949,20.3721174 28.4478814,12.4685535 24.4228814,6.88155136 C20.3978814,1.22641509 12.484322,-0.0681341719 6.89025424,3.95178197 C1.2279661,7.97169811 -0.068220339,15.8071279 3.95677966,21.4622642 Z M6.07161017,19.8951782 C2.86525424,15.3983229 3.88855932,9.19811321 8.39110169,5.99580713 C12.8936441,2.79350105 19.1016949,3.81551363 22.3080508,8.31236897 C25.5144068,12.8092243 24.4911017,19.009434 19.9885593,22.21174 C15.5542373,25.4140461 9.2779661,24.3920335 6.07161017,19.8951782 Z" id="Shape" fill="#0F7EDF"></path>
                                            <path d="M10.3694915,4.97379455 C12.6207627,4.01991614 15.1449153,3.95178197 17.3961864,4.70125786 L14.1898305,24.0513627 C11.8021186,24.0513627 9.48262712,23.1656184 7.64067797,21.5303983 L10.3694915,4.97379455 Z" id="Shape" fill="#FFFFFF"></path>
                                            <path d="M22.1033898,8.10796646 L19.715678,22.3480084 C18.8970339,22.8930818 18.0783898,23.3018868 17.1233051,23.5744235 L20.0567797,6.0639413 C20.8754237,6.67714885 21.5576271,7.35849057 22.1033898,8.10796646 Z" id="Shape" fill="#FFFFFF"></path>
                                        </g>
                                    </g>
                                </g>
                                <g transform="translate(32.000000, 0.000000)" id="Shape">
                                    <path d="M233.423963,109.352228 L229,131.885942 L250.824885,138.955343 L293,114.212441 L275.599078,84.756605 L233.423963,109.352228 Z M238.142857,126.436613 C236.815668,124.080146 237.552995,121.134562 239.912442,119.66177 C242.271889,118.336258 245.221198,119.072654 246.695853,121.42912 C248.023041,123.785587 247.285714,126.731171 244.926267,128.203963 C242.56682,129.676754 239.470046,128.793079 238.142857,126.436613 Z M271.764977,100.220919 C273.387097,100.515477 274.714286,101.399152 275.746544,102.871944 L278.400922,101.251873 L279.285714,102.577386 L276.631336,104.197457 C277.663594,106.112086 277.958525,108.026715 277.368664,109.646786 C276.778802,111.266857 275.304147,112.739649 272.9447,114.212441 L269.847926,110.383182 C271.175115,109.499507 272.207373,108.763111 272.64977,108.026715 C273.092166,107.290319 273.092166,106.701203 272.797235,105.964807 C272.354839,105.081132 271.470046,105.081132 270.437788,105.670248 C269.847926,105.964807 269.40553,106.406644 268.963134,106.995761 C268.520737,107.584878 268.373272,108.026715 268.078341,108.615832 C267.930876,109.204949 267.78341,109.794065 267.635945,110.67774 L267.046083,113.623324 C266.898618,114.35972 266.751152,114.948837 266.603687,115.537953 C266.456221,116.12707 266.16129,116.568908 265.866359,117.158024 C265.571429,117.747141 265.129032,118.336258 264.686636,118.778095 C264.24424,119.219933 263.654378,119.66177 262.917051,120.103608 C261.147465,121.134562 259.525346,121.42912 257.903226,120.987283 C256.281106,120.545445 254.953917,119.514491 253.774194,117.89442 L251.267281,119.367212 L250.382488,117.89442 L252.889401,116.421628 C252.59447,115.832512 252.299539,115.243395 252.299539,114.654278 C252.152074,114.065162 252.152074,113.476045 252.152074,113.034207 C252.152074,112.59237 252.299539,112.150532 252.59447,111.708695 C252.741935,111.266857 253.036866,110.82502 253.331797,110.530461 C253.626728,110.235903 253.921659,109.794065 254.364055,109.499507 C254.806452,109.204949 255.101382,108.91039 255.396313,108.615832 C255.691244,108.321274 256.133641,108.173994 256.428571,107.879436 L259.525346,111.855974 C259.082949,112.150532 258.788018,112.297811 258.640553,112.445091 C258.345622,112.59237 258.198157,112.739649 257.903226,113.034207 C257.608295,113.181486 257.460829,113.476045 257.313364,113.623324 C257.165899,113.770603 257.018433,113.917882 257.018433,114.212441 C256.870968,114.35972 256.870968,114.654278 256.870968,114.801557 C256.870968,114.948837 257.018433,115.243395 257.165899,115.390674 C257.460829,115.832512 257.75576,115.979791 258.345622,116.12707 C258.788018,116.12707 259.37788,115.979791 259.820276,115.832512 C260.262673,115.537953 260.557604,115.243395 260.852535,114.948837 C261.147465,114.654278 261.442396,114.212441 261.589862,113.770603 C261.737327,113.328766 261.884793,113.034207 261.884793,112.739649 C261.884793,112.445091 262.032258,112.003253 262.179724,111.414136 L262.769585,108.468553 C262.917051,107.732157 263.064516,106.995761 263.359447,106.259365 C263.506912,105.670248 263.801843,104.933852 264.24424,104.344736 C264.539171,103.60834 264.981567,103.019223 265.571429,102.577386 C266.16129,101.988269 266.751152,101.546431 267.488479,101.104594 C268.668203,100.220919 270.142857,99.9263604 271.764977,100.220919 Z" fill="#0F7EDF"></path>
                                    <path d="M8.02657731,35.4630794 C12.0379332,42.2886094 16.1978579,48.0754717 16.1978579,48.0754717 C16.1978579,48.0754717 32.3918504,25.0764034 32.3918504,16.1735383 C32.3918504,7.27067319 25.1119822,0 16.1978579,0 C7.28373362,0 0.00386544971,7.27067319 0.00386544971,16.1735383 C-0.144703289,20.6249709 4.01522138,28.6375495 8.02657731,35.4630794 Z M16.1978579,23.8893548 C11.8893645,23.8893548 8.32371479,20.3282087 8.32371479,16.0251572 C8.32371479,11.7221058 11.8893645,8.1609597 16.1978579,8.1609597 C20.5063513,8.1609597 24.072001,11.7221058 24.072001,16.0251572 C24.072001,20.3282087 20.5063513,23.8893548 16.1978579,23.8893548 Z" fill="#0F7EDF"></path>
                                    <g transform="translate(153.186441, 48.320755)">
                                        <polygon fill="#726600" points="19.3745763 23.9150943 22.3080508 43.3333333 67.6063559 0"></polygon>
                                        <polygon fill="#9A7D00" points="24.9004237 26.4360587 22.3080508 43.3333333 34.6559322 34.7484277"></polygon>
                                        <polygon fill="#FFCF00" points="24.9004237 26.4360587 36.5661017 51.2368973 67.6063559 0"></polygon>
                                        <polygon fill="#FFCF00" points="19.3745763 23.9150943 0.068220339 20.5765199 67.6063559 0"></polygon>
                                    </g>
                                </g>
                            </g>
                        </g>
                        <path d="M260,36.1920921 C261.941176,36.1920921 263.529412,34.5906073 263.529412,32.6332369 L256.470588,32.6332369 C256.470588,34.5906073 258.058824,36.1920921 260,36.1920921 Z M271.470588,25.5155265 L271.470588,15.7286747 C271.470588,10.2124491 267.764706,5.76388014 262.647059,4.51828082 L262.647059,3.2726815 C262.647059,1.84913942 261.411765,0.603540102 260,0.603540102 C258.588235,0.603540102 257.352941,1.84913942 257.352941,3.2726815 L257.352941,4.51828082 C252.235294,5.76388014 248.529412,10.2124491 248.529412,15.7286747 L248.529412,25.5155265 L245,29.0743817 L245,30.8538093 L275,30.8538093 L275,29.0743817 L271.470588,25.5155265 Z" id="Shape" fill="#0F7EDF"></path>
                        <path d="M50.63173,117.107357 L41.9798624,106.840393 C41.6976872,106.505737 41.2903759,106.313575 40.862233,106.313575 L33.6578061,106.313575 L33.6578061,99.9729848 C33.6578061,99.1199913 32.9925019,98.4285714 32.1720524,98.4285714 L1.4857537,98.4285714 C0.665304164,98.4285714 -9.23705556e-14,99.1199913 -9.23705556e-14,99.9729848 L-9.23705556e-14,102.056936 L-9.23705556e-14,105.145763 L-9.23705556e-14,125.166049 L-9.23705556e-14,128.254875 L-9.23705556e-14,129.824426 C-9.23705556e-14,130.677419 0.665304164,131.368839 1.4857537,131.368839 L4.58691312,131.368839 C5.24027182,133.84302 7.42163038,135.666667 10.0065126,135.666667 C12.5913948,135.666667 14.7727534,133.84302 15.4262577,131.368839 L35.2512147,131.368839 C35.9045734,133.842869 38.0859319,135.666515 40.6708142,135.666515 C43.2556964,135.666515 45.4370549,133.842869 46.0905593,131.368688 L49.5142463,131.368688 C50.3346958,131.368688 51,130.677268 51,129.824274 L51,118.124802 C50.9998543,117.750623 50.8688912,117.388862 50.63173,117.107357 Z M10.0067425,132.57784 C8.54615727,132.57784 7.35799317,131.342642 7.35799317,129.824426 C7.35799317,128.30621 8.54615727,127.071012 10.0067425,127.071012 C11.4673278,127.071012 12.6556375,128.30621 12.6556375,129.824426 C12.6556375,131.342642 11.4673278,132.57784 10.0067425,132.57784 Z M40.6714573,132.57784 C39.2108721,132.57784 38.022708,131.342642 38.022708,129.824426 C38.022708,128.30621 39.2108721,127.071012 40.6714573,127.071012 C42.1320425,127.071012 43.3203523,128.30621 43.3203523,129.824426 C43.3203523,131.342642 42.1321882,132.57784 40.6714573,132.57784 Z M48.0294505,128.280013 L46.091327,128.280013 C45.4379533,125.805832 43.2563989,123.982185 40.6714573,123.982185 C38.0865157,123.982185 35.9052527,125.805832 35.2517333,128.280013 L33.6581424,128.280013 L33.6581424,109.402402 L40.1891116,109.402402 L48.0293048,118.705679 L48.0293048,128.280013 L48.0294505,128.280013 Z" id="Shape" fill="#0F7EDF"></path>
                    </g>
                </g>
                <mask id="mask-2" fill="white">
                    <use xlink:href="#path-1"></use>
                </mask>
                <g id="Mask">
                    <use fill="black" fill-opacity="1" filter="url(#filter-3)" xlink:href="#path-1"></use>
                    <use fill-opacity="0.0156862745" fill="#EFEEF4" fill-rule="evenodd" xlink:href="#path-1"></use>
                </g>
            </g>
        </g>
    </g>
</svg>