<?xml version="1.0" encoding="UTF-8"?>
<svg width="414px" height="414px" viewBox="0 0 414 414" version="1.1" xmlns="http://www.w3.org/2000/svg" xmlns:xlink="http://www.w3.org/1999/xlink">
    <!-- Generator: Sketch 51 (57462) - http://www.bohemiancoding.com/sketch -->
    <title>img4</title>
    <desc>Created with Sketch.</desc>
    <defs>
        <circle id="path-1" cx="190" cy="190" r="190"></circle>
        <filter x="-6.7%" y="-6.7%" width="113.4%" height="113.4%" filterUnits="objectBoundingBox" id="filter-3">
            <feOffset dx="0" dy="0" in="SourceAlpha" result="shadowOffsetOuter1"></feOffset>
            <feGaussianBlur stdDeviation="8.5" in="shadowOffsetOuter1" result="shadowBlurOuter1"></feGaussianBlur>
            <feComposite in="shadowBlurOuter1" in2="SourceAlpha" operator="out" result="shadowBlurOuter1"></feComposite>
            <feColorMatrix values="0 0 0 0 0.592156863   0 0 0 0 0.592156863   0 0 0 0 0.592156863  0 0 0 0.443137255 0" type="matrix" in="shadowBlurOuter1"></feColorMatrix>
        </filter>
        <linearGradient x1="34.7747955%" y1="140.624712%" x2="57.9553681%" y2="2.68237378%" id="linearGradient-4">
            <stop stop-color="#FFFFFF" stop-opacity="0" offset="0%"></stop>
            <stop stop-color="#5BB56A" offset="100%"></stop>
        </linearGradient>
        <linearGradient x1="41.793456%" y1="68.4246236%" x2="74.7165644%" y2="-5.4938884%" id="linearGradient-5">
            <stop stop-color="#FFFFFF" stop-opacity="0" offset="0%"></stop>
            <stop stop-color="#5BB56A" offset="100%"></stop>
        </linearGradient>
        <linearGradient x1="50.0147417%" y1="-131.142693%" x2="50.0147417%" y2="137.48977%" id="linearGradient-6">
            <stop stop-color="#FFFFFF" stop-opacity="0" offset="6.08247%"></stop>
            <stop stop-color="#DFE1E3" stop-opacity="0.1278" offset="12.03%"></stop>
            <stop stop-color="#B3B8BD" stop-opacity="0.3251" offset="21.21%"></stop>
            <stop stop-color="#9198A0" stop-opacity="0.5164" offset="30.1%"></stop>
            <stop stop-color="#79818A" stop-opacity="0.697" offset="38.5%"></stop>
            <stop stop-color="#6A737D" stop-opacity="0.8628" offset="46.22%"></stop>
            <stop stop-color="#656E79" offset="52.6%"></stop>
        </linearGradient>
        <linearGradient x1="73.3891892%" y1="0.81348637%" x2="40.8523524%" y2="69.6549498%" id="linearGradient-7">
            <stop stop-color="#FFFFFF" stop-opacity="0" offset="0%"></stop>
            <stop stop-color="#5BB56A" offset="100%"></stop>
        </linearGradient>
        <linearGradient x1="49.790625%" y1="-99.6424272%" x2="49.790625%" y2="369.086893%" id="linearGradient-8">
            <stop stop-color="#FFFFFF" stop-opacity="0" offset="6.08247%"></stop>
            <stop stop-color="#D5CCC3" stop-opacity="0.157" offset="20.82%"></stop>
            <stop stop-color="#B1A08F" stop-opacity="0.316" offset="35.76%"></stop>
            <stop stop-color="#927B63" stop-opacity="0.4722" offset="50.43%"></stop>
            <stop stop-color="#7A5E40" stop-opacity="0.6218" offset="64.48%"></stop>
            <stop stop-color="#694928" stop-opacity="0.7631" offset="77.75%"></stop>
            <stop stop-color="#5F3C19" stop-opacity="0.8927" offset="89.93%"></stop>
            <stop stop-color="#5B3814" offset="100%"></stop>
        </linearGradient>
        <linearGradient x1="21.244592%" y1="134.744%" x2="64.2366224%" y2="8.41527273%" id="linearGradient-9">
            <stop stop-color="#FFFFFF" stop-opacity="0" offset="6.08247%"></stop>
            <stop stop-color="#DFE1E3" stop-opacity="0.1278" offset="12.03%"></stop>
            <stop stop-color="#B3B8BD" stop-opacity="0.3251" offset="21.21%"></stop>
            <stop stop-color="#9198A0" stop-opacity="0.5164" offset="30.1%"></stop>
            <stop stop-color="#79818A" stop-opacity="0.697" offset="38.5%"></stop>
            <stop stop-color="#6A737D" stop-opacity="0.8628" offset="46.22%"></stop>
            <stop stop-color="#656E79" offset="52.6%"></stop>
        </linearGradient>
        <linearGradient x1="82.8564516%" y1="49.9480565%" x2="-25.5498208%" y2="49.9480565%" id="linearGradient-10">
            <stop stop-color="#FFFFFF" stop-opacity="0" offset="0%"></stop>
            <stop stop-color="#E2AF0E" offset="100%"></stop>
        </linearGradient>
        <linearGradient x1="21.1629981%" y1="134.777455%" x2="64.1550285%" y2="8.44872727%" id="linearGradient-11">
            <stop stop-color="#FFFFFF" stop-opacity="0" offset="6.08247%"></stop>
            <stop stop-color="#DFE1E3" stop-opacity="0.1278" offset="12.03%"></stop>
            <stop stop-color="#B3B8BD" stop-opacity="0.3251" offset="21.21%"></stop>
            <stop stop-color="#9198A0" stop-opacity="0.5164" offset="30.1%"></stop>
            <stop stop-color="#79818A" stop-opacity="0.697" offset="38.5%"></stop>
            <stop stop-color="#6A737D" stop-opacity="0.8628" offset="46.22%"></stop>
            <stop stop-color="#656E79" offset="52.6%"></stop>
        </linearGradient>
        <linearGradient x1="17.1120072%" y1="49.9558304%" x2="125.51828%" y2="49.9558304%" id="linearGradient-12">
            <stop stop-color="#FFFFFF" stop-opacity="0" offset="0%"></stop>
            <stop stop-color="#E2AF0E" offset="100%"></stop>
        </linearGradient>
        <linearGradient x1="21.2794872%" y1="133.808014%" x2="64.2804029%" y2="8.37038328%" id="linearGradient-13">
            <stop stop-color="#FFFFFF" stop-opacity="0" offset="6.08247%"></stop>
            <stop stop-color="#DFE1E3" stop-opacity="0.1278" offset="12.03%"></stop>
            <stop stop-color="#B3B8BD" stop-opacity="0.3251" offset="21.21%"></stop>
            <stop stop-color="#9198A0" stop-opacity="0.5164" offset="30.1%"></stop>
            <stop stop-color="#79818A" stop-opacity="0.697" offset="38.5%"></stop>
            <stop stop-color="#6A737D" stop-opacity="0.8628" offset="46.22%"></stop>
            <stop stop-color="#656E79" offset="52.6%"></stop>
        </linearGradient>
        <linearGradient x1="40.25%" y1="49.964311%" x2="127.501971%" y2="49.964311%" id="linearGradient-14">
            <stop stop-color="#FFFFFF" stop-opacity="0" offset="0%"></stop>
            <stop stop-color="#E2AF0E" offset="100%"></stop>
        </linearGradient>
        <linearGradient x1="21.172296%" y1="134.452%" x2="64.1643264%" y2="8.12327273%" id="linearGradient-15">
            <stop stop-color="#FFFFFF" stop-opacity="0" offset="6.08247%"></stop>
            <stop stop-color="#DFE1E3" stop-opacity="0.1278" offset="12.03%"></stop>
            <stop stop-color="#B3B8BD" stop-opacity="0.3251" offset="21.21%"></stop>
            <stop stop-color="#9198A0" stop-opacity="0.5164" offset="30.1%"></stop>
            <stop stop-color="#79818A" stop-opacity="0.697" offset="38.5%"></stop>
            <stop stop-color="#6A737D" stop-opacity="0.8628" offset="46.22%"></stop>
            <stop stop-color="#656E79" offset="52.6%"></stop>
        </linearGradient>
        <linearGradient x1="13.497491%" y1="49.9780919%" x2="113.780645%" y2="49.9780919%" id="linearGradient-16">
            <stop stop-color="#FFFFFF" stop-opacity="0" offset="0%"></stop>
            <stop stop-color="#E2AF0E" offset="100%"></stop>
        </linearGradient>
        <linearGradient x1="21.2375712%" y1="134.524364%" x2="64.2294118%" y2="8.19563636%" id="linearGradient-17">
            <stop stop-color="#FFFFFF" stop-opacity="0" offset="6.08247%"></stop>
            <stop stop-color="#DFE1E3" stop-opacity="0.1278" offset="12.03%"></stop>
            <stop stop-color="#B3B8BD" stop-opacity="0.3251" offset="21.21%"></stop>
            <stop stop-color="#9198A0" stop-opacity="0.5164" offset="30.1%"></stop>
            <stop stop-color="#79818A" stop-opacity="0.697" offset="38.5%"></stop>
            <stop stop-color="#6A737D" stop-opacity="0.8628" offset="46.22%"></stop>
            <stop stop-color="#656E79" offset="52.6%"></stop>
        </linearGradient>
        <linearGradient x1="28.7467742%" y1="50.0402827%" x2="120.459498%" y2="50.0402827%" id="linearGradient-18">
            <stop stop-color="#FFFFFF" stop-opacity="0" offset="0%"></stop>
            <stop stop-color="#E2AF0E" offset="100%"></stop>
        </linearGradient>
        <linearGradient x1="21.5907021%" y1="136.622656%" x2="63.6017078%" y2="4.01367188%" id="linearGradient-19">
            <stop stop-color="#FFFFFF" stop-opacity="0" offset="6.08247%"></stop>
            <stop stop-color="#DFE1E3" stop-opacity="0.1278" offset="12.03%"></stop>
            <stop stop-color="#B3B8BD" stop-opacity="0.3251" offset="21.21%"></stop>
            <stop stop-color="#9198A0" stop-opacity="0.5164" offset="30.1%"></stop>
            <stop stop-color="#79818A" stop-opacity="0.697" offset="38.5%"></stop>
            <stop stop-color="#6A737D" stop-opacity="0.8628" offset="46.22%"></stop>
            <stop stop-color="#656E79" offset="52.6%"></stop>
        </linearGradient>
        <linearGradient x1="16.9792115%" y1="50.0120141%" x2="125.385305%" y2="50.0120141%" id="linearGradient-20">
            <stop stop-color="#FFFFFF" stop-opacity="0" offset="0%"></stop>
            <stop stop-color="#E2AF0E" offset="100%"></stop>
        </linearGradient>
        <linearGradient x1="86.3170389%" y1="178.753611%" x2="14.1934269%" y2="-76.9982495%" id="linearGradient-21">
            <stop stop-color="#FFFFFF" stop-opacity="0" offset="6.08247%"></stop>
            <stop stop-color="#DFE1E3" stop-opacity="0.1278" offset="12.03%"></stop>
            <stop stop-color="#B3B8BD" stop-opacity="0.3251" offset="21.21%"></stop>
            <stop stop-color="#9198A0" stop-opacity="0.5164" offset="30.1%"></stop>
            <stop stop-color="#79818A" stop-opacity="0.697" offset="38.5%"></stop>
            <stop stop-color="#6A737D" stop-opacity="0.8628" offset="46.22%"></stop>
            <stop stop-color="#656E79" offset="52.6%"></stop>
        </linearGradient>
        <linearGradient x1="99.9705169%" y1="49.9351204%" x2="0.00950861519%" y2="49.9351204%" id="linearGradient-22">
            <stop stop-color="#FFFFFF" stop-opacity="0" offset="0%"></stop>
            <stop stop-color="#42A1A8" offset="100%"></stop>
        </linearGradient>
        <linearGradient x1="91.244799%" y1="49.9369803%" x2="-39.8510331%" y2="49.9369803%" id="linearGradient-23">
            <stop stop-color="#DDDDDD" stop-opacity="0" offset="0%"></stop>
            <stop stop-color="#215FFE" offset="100%"></stop>
        </linearGradient>
    </defs>
    <g id="DRIVER" stroke="none" stroke-width="1" fill="none" fill-rule="evenodd">
        <g id="main_driver" transform="translate(-243.000000, -2920.000000)">
            <rect fill="#FFFFFF" x="0" y="0" width="1440" height="4831"></rect>
            <g id="img4" transform="translate(260.000000, 2937.000000)">
                <mask id="mask-2" fill="white">
                    <use xlink:href="#path-1"></use>
                </mask>
                <g id="Mask">
                    <use fill="black" fill-opacity="1" filter="url(#filter-3)" xlink:href="#path-1"></use>
                    <use fill-opacity="0.0156862745" fill="#EFEEF4" fill-rule="evenodd" xlink:href="#path-1"></use>
                </g>
                <g id="Objects" mask="url(#mask-2)">
                    <g transform="translate(60.000000, 48.000000)" id="XMLID_2181_">
                        <g>
                            <g id="XMLID_1016_">
                                <g id="XMLID_678_">
                                    <g id="XMLID_1378_" transform="translate(44.561462, 134.750000)" fill-rule="nonzero">
                                        <polygon id="XMLID_1389_" fill="#5BB56A" points="114.811296 99.225 0.349501661 33.075 56.7940199 0.4375 171.255814 66.5875"></polygon>
                                        <g id="XMLID_1385_" transform="translate(6.990033, 4.375000)" fill="#318C3A">
                                            <path d="M107.471761,90.7375 L0.524252492,28.875 L49.7166113,0.4375 L156.66412,62.2125 L107.471761,90.7375 Z M4.19401993,28.875 L107.471761,88.55 L152.994352,62.2125 L49.7166113,2.625 L4.19401993,28.875 Z" id="XMLID_1386_"></path>
                                        </g>
                                        <g id="XMLID_1379_" transform="translate(59.415282, 34.125000)" fill="#318C3A">
                                            <path d="M29.0960133,15.4 C27.4358804,13.0375 27.348505,12.1625 28.7465116,11.375 C29.882392,10.7625 31.979402,10.4125 34.1637874,11.725 C36.0860465,12.8625 36.610299,13.9125 36.8724252,14.525 L36.9598007,14.7875 L40.3674419,13.9125 L40.2800664,13.7375 C39.755814,12.6875 38.8820598,11.725 37.4840532,10.85 L40.4548173,9.1 L38.0083056,7.7 L34.9501661,9.45 C31.6299003,8.1375 27.8727575,8.225 25.251495,9.8 C22.1933555,11.55 23.2418605,13.825 24.9019934,16.0125 C26.3,17.9375 26.3,19.075 24.8146179,19.8625 C23.154485,20.825 20.7079734,20.65 18.6983389,19.5125 C16.6013289,18.2875 15.9023256,16.8875 15.7275748,16.3625 L15.6401993,16.1 L12.2325581,17.0625 L12.2325581,17.2375 C12.5820598,18.2875 13.8053156,19.6 15.3780731,20.65 L12.3199336,22.4 L14.7664452,23.8 L17.9993355,21.9625 C21.4069767,23.3625 25.5136213,23.1875 28.2222591,21.6125 C30.8435216,20.0375 31.1056478,18.2 29.0960133,15.4 Z" id="XMLID_1384_"></path>
                                            <g id="XMLID_1380_">
                                                <path d="M7.86378738,26.425 C-2.35913621,20.475 -2.35913621,10.85 7.86378738,4.9875 C18.086711,-0.9625 34.7754153,-0.9625 44.9983389,4.9875 C55.2212625,10.9375 55.2212625,20.5625 44.9983389,26.425 C34.6880399,32.375 18.086711,32.375 7.86378738,26.425 Z M43.0760797,6.0375 C33.9016611,0.7 18.8730897,0.7 9.61129568,6.0375 C0.436877076,11.375 0.436877076,20.0375 9.61129568,25.375 C18.7857143,30.7125 33.8142857,30.7125 43.0760797,25.375 C52.3378738,20.0375 52.3378738,11.375 43.0760797,6.0375 Z" id="XMLID_1381_"></path>
                                            </g>
                                        </g>
                                        <polygon id="XMLID_633_" fill="url(#linearGradient-4)" points="114.811296 99.225 0.349501661 33.075 56.7940199 0.4375 171.255814 66.5875"></polygon>
                                    </g>
                                    <g id="XMLID_1366_" transform="translate(50.677741, 112.875000)" fill-rule="nonzero">
                                        <polygon id="XMLID_1377_" fill="#5BB56A" points="114.636545 99.225 0.174750831 33.075 56.6192691 0.4375 171.081063 66.5875"></polygon>
                                        <g id="XMLID_1373_" transform="translate(6.990033, 4.375000)" fill="#318C3A">
                                            <path d="M107.209635,90.7375 L0.262126246,28.9625 L49.454485,0.525 L156.401993,62.3 L107.209635,90.7375 Z M4.0192691,28.9625 L107.209635,88.6375 L152.732226,62.3 L49.5418605,2.625 L4.0192691,28.9625 Z" id="XMLID_1374_"></path>
                                        </g>
                                        <g id="XMLID_1367_" transform="translate(58.541528, 34.125000)" fill="#318C3A">
                                            <path d="M29.7950166,15.4 C28.1348837,13.0375 28.0475083,12.1625 29.445515,11.375 C30.5813953,10.7625 32.6784053,10.4125 34.8627907,11.725 C36.7850498,12.8625 37.3093023,13.9125 37.5714286,14.525 L37.658804,14.7875 L41.0664452,13.9125 L40.9790698,13.7375 C40.4548173,12.6875 39.5810631,11.725 38.1830565,10.85 L41.1538206,9.1 L38.707309,7.7 L35.6491694,9.45 C32.3289037,8.1375 28.5717608,8.225 25.9504983,9.8 C22.8923588,11.55 23.9408638,13.825 25.6009967,16.0125 C26.9990033,17.9375 26.9990033,19.075 25.5136213,19.8625 C23.8534884,20.825 21.4069767,20.65 19.3973422,19.5125 C17.3003322,18.2875 16.6013289,16.8875 16.4265781,16.3625 L16.3392027,16.1 L12.9315615,17.0625 L12.9315615,17.2375 C13.2810631,18.2875 14.5043189,19.6 16.0770764,20.65 L13.0189369,22.4 L15.4654485,23.8 L18.6983389,21.9625 C22.1059801,23.3625 26.2126246,23.1875 28.9212625,21.6125 C31.5425249,20.0375 31.8046512,18.2 29.7950166,15.4 Z" id="XMLID_1372_"></path>
                                            <g id="XMLID_1368_">
                                                <path d="M8.47541528,26.425 C-1.74750831,20.475 -1.74750831,10.85 8.47541528,4.9875 C18.6983389,-0.9625 35.3870432,-0.9625 45.6099668,4.9875 C55.8328904,10.9375 55.8328904,20.5625 45.6099668,26.425 C35.3870432,32.375 18.7857143,32.375 8.47541528,26.425 Z M43.7750831,6.0375 C34.6006645,0.7 19.572093,0.7 10.310299,6.0375 C1.04850498,11.375 1.1358804,20.0375 10.310299,25.375 C19.4847176,30.7125 34.513289,30.7125 43.7750831,25.375 C53.0368771,20.0375 53.0368771,11.375 43.7750831,6.0375 Z" id="XMLID_1369_"></path>
                                            </g>
                                        </g>
                                        <polygon id="XMLID_585_" fill="url(#linearGradient-5)" points="114.636545 99.225 0.174750831 33.075 56.6192691 0.4375 171.081063 66.5875"></polygon>
                                    </g>
                                    <path d="M8.5627907,163.0125 L33.6395349,163.0125 C37.1345515,163.0125 40.5421927,162.1375 43.6003322,160.3875 L125.645847,114.1875 L210.050498,163.0125 L216.516279,160.9125 L236.612625,148.8375 C238.884385,147.4375 238.884385,144.2 236.525249,142.8 L126.869103,79.1875 L8.5627907,163.0125 Z" id="XMLID_163_" fill="url(#linearGradient-6)" fill-rule="nonzero" opacity="0.5"></path>
                                    <g id="XMLID_141_">
                                        <path d="M213.545515,54.95 L123.374086,2.8 C120.228571,0.9625 116.646179,0 112.976412,0 L105.811628,0 C102.14186,0 98.5594684,0.9625 95.4139535,2.8 L5.24252492,54.95 C2.44651163,56.6125 0.699003322,59.5875 0.699003322,62.825 L0.699003322,158.375 C0.699003322,159.5125 1.31063123,160.475 2.18438538,160.9125 L5.67940199,162.925 L5.06777409,160.9125 L100.219601,105.875 L118.568439,105.875 L213.720266,160.9125 L213.108638,162.925 L216.603654,160.9125 C217.477409,160.3875 218.089037,159.5125 218.089037,158.375 L218.089037,62.825 C218.089037,59.5875 216.341528,56.525 213.545515,54.95 Z" id="XMLID_213_" fill="#0D4576" fill-rule="nonzero"></path>
                                        <path d="M209.963123,57.05 L119.791694,4.9 C116.646179,3.0625 113.063787,2.1 109.39402,2.1 C105.724252,2.1 102.14186,3.0625 98.9963455,4.9 L8.82491694,57.05 C6.02890365,58.7125 4.28139535,61.6875 4.28139535,64.925 L4.28139535,160.475 C4.28139535,162.75 6.72790698,164.15 8.65016611,163.0125 L100.656478,109.8125 C102.753488,108.5875 105.025249,107.975 107.384385,107.975 L111.316279,107.975 C113.675415,107.975 116.034551,108.5875 118.044186,109.8125 L210.050498,163.0125 C211.972757,164.15 214.419269,162.75 214.419269,160.475 L214.419269,64.925 C214.506645,61.6875 212.759136,58.625 209.963123,57.05 Z" id="XMLID_211_" fill="#0558A1" fill-rule="nonzero"></path>
                                        <polygon id="XMLID_1075_" fill="#5BB56A" fill-rule="nonzero" points="111.665781 12.6875 198.691694 30.275 198.691694 73.675 111.403654 24.4125"></polygon>
                                        <polygon id="XMLID_1084_" fill="url(#linearGradient-7)" fill-rule="nonzero" points="111.665781 12.6875 198.691694 30.275 198.691694 73.675 111.403654 24.4125"></polygon>
                                        <polygon id="XMLID_1094_" fill="#318C3A" fill-rule="nonzero" points="105.724252 18.2875 105.724252 19.775 191.002658 37.1 191.002658 77.7 192.750166 79.1875 192.750166 35.875"></polygon>
                                        <path d="M119.791694,12.075 C116.646179,10.2375 113.063787,9.275 109.39402,9.275 C105.724252,9.275 102.14186,10.2375 98.9963455,12.075 L39.3189369,46.4625 L39.3189369,121.975 L39.4936877,121.975 L98.9089701,87.5875 C102.054485,85.75 105.636877,84.7875 109.306645,84.7875 C112.976412,84.7875 116.558804,85.75 119.704319,87.5875 L179.119601,121.975 L179.294352,121.975 L179.294352,46.4625 L119.791694,12.075 Z" id="XMLID_1085_" fill="#5BB56A" fill-rule="nonzero"></path>
                                        <path d="M109.39402,18.9 C105.724252,18.9 102.14186,19.8625 98.9963455,21.7 L4.28139535,76.475 L4.28139535,160.475 C4.28139535,162.75 6.72790698,164.15 8.65016611,163.0125 L100.656478,109.8125 C102.753488,108.5875 105.025249,107.975 107.384385,107.975 L111.316279,107.975 C113.675415,107.975 116.034551,108.5875 118.044186,109.8125 L210.050498,163.0125 C211.972757,164.15 214.419269,162.75 214.419269,160.475 L214.419269,76.475 L119.791694,21.7 C116.646179,19.8625 113.063787,18.9 109.39402,18.9 Z" id="XMLID_1078_" fill="#0E70C6" fill-rule="nonzero"></path>
                                        <g id="XMLID_924_" transform="translate(125.820598, 39.375000)" fill-rule="nonzero">
                                            <path d="M68.2401993,96.95 L3.93189369,59.7625 C2.18438538,58.7125 1.1358804,56.875 1.1358804,54.8625 L1.1358804,2.8 C1.1358804,1.225 2.8833887,0.175 4.28139535,0.9625 L69.4634551,38.675 C71.2109635,39.6375 72.2594684,41.475 72.2594684,43.4875 L72.2594684,94.675 C72.172093,96.6875 69.9877076,98 68.2401993,96.95 Z" id="XMLID_925_" fill="#FFCF00"></path>
                                            <path d="M67.1043189,97.825 L2.79601329,60.6375 C1.04850498,59.5875 5.68434189e-14,57.75 5.68434189e-14,55.7375 L5.68434189e-14,3.675 C5.68434189e-14,2.1 1.74750831,1.05 3.14551495,1.8375 L68.3275748,39.55 C70.0750831,40.5125 71.123588,42.35 71.123588,44.3625 L71.123588,95.55 C70.9488372,97.5625 68.8518272,98.7875 67.1043189,97.825 Z" id="XMLID_635_" fill="#FFE500"></path>
                                            <polygon id="XMLID_926_" fill="#F2C724" points="64.4830565 55.125 55.3086379 49.875 55.3086379 42.0875 64.4830565 47.425"></polygon>
                                        </g>
                                        <g id="XMLID_155_" transform="translate(19.222591, 39.375000)" fill-rule="nonzero">
                                            <path d="M4.28139535,96.95 L68.589701,59.7625 C70.3372093,58.7125 71.3857143,56.875 71.3857143,54.8625 L71.3857143,2.8 C71.3857143,1.225 69.638206,0.175 68.2401993,0.9625 L3.05813953,38.675 C1.31063123,39.6375 0.262126246,41.475 0.262126246,43.4875 L0.262126246,94.675 C0.349501661,96.6875 2.53388704,98 4.28139535,96.95 Z" id="XMLID_156_" fill="#84A3AA"></path>
                                            <path d="M5.41727575,97.825 L69.7255814,60.6375 C71.4730897,59.5875 72.5215947,57.75 72.5215947,55.7375 L72.5215947,3.675 C72.5215947,2.1 70.7740864,1.05 69.3760797,1.8375 L4.36877076,39.55 C2.62126246,40.5125 1.57275748,42.35 1.57275748,44.3625 L1.57275748,95.55 C1.57275748,97.5625 3.75714286,98.7875 5.41727575,97.825 Z" id="XMLID_157_" fill="#D8B10A"></path>
                                            <polygon id="XMLID_158_" fill="#F2C724" points="8.12591362 55.125 17.2129568 49.875 17.2129568 42.0875 8.12591362 47.425"></polygon>
                                        </g>
                                        <path d="M207.866113,100.625 L119.791694,49.7 C116.646179,47.8625 113.063787,46.9 109.39402,46.9 C105.724252,46.9 102.14186,47.8625 98.9963455,49.7 L10.9219269,100.625 L10.9219269,150.0625 C10.9219269,151.725 12.7568106,152.775 14.1548173,151.9875 L98.9089701,102.9875 C102.054485,101.15 105.636877,100.1875 109.306645,100.1875 C112.976412,100.1875 116.558804,101.15 119.704319,102.9875 L204.458472,151.9875 C205.943854,152.8625 207.691362,151.8125 207.691362,150.0625 L207.691362,100.625 L207.866113,100.625 Z" id="XMLID_197_" fill="#0F7EDF" fill-rule="nonzero"></path>
                                        <path d="M114.549169,19.1625 C112.889037,18.725 111.141528,18.55 109.39402,18.55 C107.384385,18.55 105.287375,18.9 103.365116,19.425 L103.365116,108.675 C104.675748,108.2375 106.073754,108.0625 107.384385,108.0625 L111.316279,108.0625 C112.364784,108.0625 113.500664,108.2375 114.549169,108.4125 L114.549169,19.1625 Z" id="XMLID_203_" fill="url(#linearGradient-8)" fill-rule="nonzero"></path>
                                        <g id="XMLID_1076_" transform="translate(6.990033, 63.875000)" stroke="#FFFFFF" stroke-linecap="round">
                                            <g id="XMLID_2186_">
                                                <path d="M0.436877076,0.7 L0.436877076,2.0125" id="XMLID_2189_"></path>
                                                <path d="M0.436877076,4.6375 L0.436877076,90.9125" id="XMLID_2188_" stroke-dasharray="2.9436,2.9436"></path>
                                                <path d="M0.436877076,92.225 L0.436877076,93.5375" id="XMLID_2187_"></path>
                                            </g>
                                        </g>
                                        <g id="XMLID_1077_" transform="translate(211.448505, 64.750000)" stroke="#FFFFFF" stroke-linecap="round">
                                            <g id="XMLID_2159_">
                                                <path d="M0.349501661,0.2625 L0.349501661,1.575" id="XMLID_2163_"></path>
                                                <path d="M0.349501661,4.2 L0.349501661,90.475" id="XMLID_2161_" stroke-dasharray="2.9436,2.9436"></path>
                                                <path d="M0.349501661,91.7875 L0.349501661,93.1" id="XMLID_2160_"></path>
                                            </g>
                                        </g>
                                    </g>
                                    <g id="XMLID_581_" transform="translate(88.249169, 194.250000)" fill-rule="nonzero">
                                        <path d="M51.8136213,20.5625 C51.8136213,13.7375 40.8916944,8.225 27.4358804,8.225 C24.5524917,8.225 21.7564784,8.4875 19.2225914,8.925 C11.2714286,10.9375 5.76677741,15.1375 5.76677741,19.95 C5.76677741,26.775 16.6887043,32.2875 30.1445183,32.2875 C33.027907,32.2875 35.8239203,32.025 38.3578073,31.5875 C46.3963455,29.575 51.8136213,25.4625 51.8136213,20.5625 Z" id="XMLID_242_" fill="url(#linearGradient-9)" opacity="0.5"></path>
                                        <g id="XMLID_1342_">
                                            <path d="M2.8833887,12.5125 C6.72790698,8.225 15.2033223,5.1625 25.1641196,5.1625 C35.1249169,5.1625 43.6003322,8.1375 47.4448505,12.5125 L49.5418605,12.5125 L49.5418605,17.5875 C49.5418605,24.4125 38.6199336,29.925 25.1641196,29.925 C11.7083056,29.925 0.786378738,24.4125 0.786378738,17.5875 L0.786378738,12.5125 L2.8833887,12.5125 Z" id="XMLID_1353_" fill="#E2AF0E"></path>
                                            <path d="M2.8833887,12.5125 C6.72790698,8.225 15.2033223,5.1625 25.1641196,5.1625 C35.1249169,5.1625 43.6003322,8.1375 47.4448505,12.5125 L49.5418605,12.5125 L49.5418605,17.5875 C49.5418605,24.4125 38.6199336,29.925 25.1641196,29.925 C11.7083056,29.925 0.786378738,24.4125 0.786378738,17.5875 L0.786378738,12.5125 L2.8833887,12.5125 Z" id="XMLID_1352_" fill="url(#linearGradient-10)"></path>
                                            <ellipse id="XMLID_1349_" fill="#FFCF00" cx="25.0767442" cy="12.5125" rx="24.3777409" ry="12.3375"></ellipse>
                                            <ellipse id="XMLID_1346_" fill="#E0AD0B" cx="25.0767442" cy="11.9" rx="18.8730897" ry="8.4"></ellipse>
                                            <path d="M27.0863787,11.6375 C25.9504983,9.975 25.8631229,9.3625 26.8242525,8.8375 C27.6106312,8.4 29.0960133,8.1375 30.6687708,9.1 C32.0667774,9.8875 32.4162791,10.675 32.5910299,11.025 L32.6784053,11.2 L35.1249169,10.5875 L35.0375415,10.5 C34.6880399,9.8 34.076412,9.1 33.1152824,8.4875 L35.2122924,7.2625 L33.4647841,6.3 L31.2803987,7.525 C28.9212625,6.5625 26.2126246,6.65 24.3777409,7.7875 C22.1933555,9.0125 22.9797342,10.675 24.1156146,12.1625 C25.0767442,13.475 25.0767442,14.35 24.0282392,14.875 C22.8923588,15.575 21.0574751,15.4 19.6594684,14.6125 C18.1740864,13.7375 17.7372093,12.775 17.5624585,12.3375 L17.4750831,12.1625 L15.0285714,12.8625 L15.0285714,12.95 C15.2906977,13.7375 16.0770764,14.6125 17.3003322,15.4 L15.1159468,16.625 L16.8634551,17.5875 L19.1352159,16.275 C21.5817276,17.2375 24.4651163,17.15 26.3873754,16.0125 C28.3096346,14.9625 28.4843854,13.65 27.0863787,11.6375 Z" id="XMLID_1343_" fill="#F2C724"></path>
                                        </g>
                                    </g>
                                    <g id="XMLID_253_" transform="translate(14.853821, 173.250000)" fill-rule="nonzero">
                                        <path d="M53.1242525,19.425 C53.1242525,12.6 42.2023256,7.0875 28.7465116,7.0875 C25.8631229,7.0875 23.0671096,7.35 20.5332226,7.7875 C12.5820598,9.8 7.07740864,14 7.07740864,18.8125 C7.07740864,25.6375 17.9993355,31.15 31.4551495,31.15 C34.3385382,31.15 37.1345515,30.8875 39.6684385,30.45 C47.6196013,28.4375 53.1242525,24.325 53.1242525,19.425 Z" id="XMLID_330_" fill="url(#linearGradient-11)" opacity="0.5"></path>
                                        <g id="XMLID_362_">
                                            <path d="M46.7458472,12.8625 C42.9013289,8.575 34.4259136,5.5125 24.4651163,5.5125 C14.5043189,5.5125 6.02890365,8.4875 2.18438538,12.8625 L0.0873754153,12.8625 L0.0873754153,17.9375 C0.0873754153,24.7625 11.0093023,30.275 24.4651163,30.275 C37.9209302,30.275 48.8428571,24.7625 48.8428571,17.9375 L48.8428571,12.8625 L46.7458472,12.8625 Z" id="XMLID_1399_" fill="#E2AF0E"></path>
                                            <path d="M46.7458472,12.8625 C42.9013289,8.575 34.4259136,5.5125 24.4651163,5.5125 C14.5043189,5.5125 6.02890365,8.4875 2.18438538,12.8625 L0.0873754153,12.8625 L0.0873754153,17.9375 C0.0873754153,24.7625 11.0093023,30.275 24.4651163,30.275 C37.9209302,30.275 48.8428571,24.7625 48.8428571,17.9375 L48.8428571,12.8625 L46.7458472,12.8625 Z" id="XMLID_1398_" fill="url(#linearGradient-12)"></path>
                                            <ellipse id="XMLID_1394_" fill="#FFCF00" cx="24.4651163" cy="12.8625" rx="24.3777409" ry="12.3375"></ellipse>
                                            <ellipse id="XMLID_830_" fill="#E0AD0B" cx="24.4651163" cy="12.25" rx="18.8730897" ry="8.4"></ellipse>
                                            <path d="M22.5428571,11.9875 C23.6787375,10.325 23.766113,9.7125 22.8049834,9.1875 C22.0186047,8.75 20.5332226,8.4875 18.9604651,9.45 C17.5624585,10.2375 17.2129568,11.025 17.038206,11.375 L16.9508306,11.55 L14.5043189,10.9375 L14.5916944,10.85 C14.941196,10.15 15.5528239,9.45 16.5139535,8.8375 L14.4169435,7.6125 L16.1644518,6.65 L18.3488372,7.875 C20.7079734,6.9125 23.4166113,7 25.251495,8.1375 C27.4358804,9.3625 26.6495017,11.025 25.5136213,12.5125 C24.5524917,13.825 24.5524917,14.7 25.6009967,15.225 C26.7368771,15.925 28.5717608,15.75 29.9697674,14.9625 C31.4551495,14.0875 31.8920266,13.125 32.0667774,12.6875 L32.1541528,12.5125 L34.6006645,13.2125 L34.6006645,13.3 C34.3385382,14.0875 33.5521595,14.9625 32.3289037,15.75 L34.513289,16.975 L32.7657807,17.9375 L30.4940199,16.625 C28.0475083,17.5875 25.1641196,17.5 23.2418605,16.3625 C21.3196013,15.3125 21.1448505,14 22.5428571,11.9875 Z" id="XMLID_577_" fill="#F2C724"></path>
                                        </g>
                                    </g>
                                    <g id="XMLID_656_" transform="translate(144.169435, 122.500000)" fill-rule="nonzero">
                                        <path d="M58.5415282,43.8375 C58.5415282,36.75 47.1827243,30.975 33.2900332,30.975 C30.3192691,30.975 27.4358804,31.2375 24.7272425,31.7625 C16.5139535,33.8625 10.8345515,38.2375 10.8345515,43.225 C10.8345515,50.3125 22.1933555,56.0875 36.0860465,56.0875 C39.0568106,56.0875 41.9401993,55.825 44.6488372,55.3 C52.9495017,53.1125 58.5415282,48.825 58.5415282,43.8375 Z" id="XMLID_634_" fill="url(#linearGradient-13)" opacity="0.5"></path>
                                        <g id="XMLID_2853_">
                                            <g id="XMLID_345_" transform="translate(1.747508, 22.750000)">
                                                <path d="M46.8332226,12.95 C42.9887043,8.6625 34.513289,5.6 24.5524917,5.6 C14.5916944,5.6 6.11627907,8.575 2.2717608,12.95 L0.174750831,12.95 L0.174750831,18.025 C0.174750831,24.85 11.0966777,30.3625 24.5524917,30.3625 C38.0083056,30.3625 48.9302326,24.85 48.9302326,18.025 L48.9302326,12.95 L46.8332226,12.95 Z" id="XMLID_648_" fill="#E2AF0E"></path>
                                                <path d="M46.8332226,12.95 C42.9887043,8.6625 34.513289,5.6 24.5524917,5.6 C14.5916944,5.6 6.11627907,8.575 2.2717608,12.95 L0.174750831,12.95 L0.174750831,18.025 C0.174750831,24.85 11.0966777,30.3625 24.5524917,30.3625 C38.0083056,30.3625 48.9302326,24.85 48.9302326,18.025 L48.9302326,12.95 L46.8332226,12.95 Z" id="XMLID_360_" fill="url(#linearGradient-14)"></path>
                                                <ellipse id="XMLID_584_" fill="#F2C724" cx="24.6398671" cy="12.95" rx="24.3777409" ry="12.3375"></ellipse>
                                                <ellipse id="XMLID_359_" fill="#E0AD0B" cx="24.6398671" cy="12.3375" rx="18.8730897" ry="8.4"></ellipse>
                                                <path d="M22.6302326,12.075 C23.766113,10.4125 23.8534884,9.8 22.8923588,9.275 C22.1059801,8.8375 20.620598,8.575 19.0478405,9.5375 C17.6498339,10.325 17.3003322,11.1125 17.1255814,11.4625 L17.038206,11.6375 L14.5916944,11.025 L14.6790698,10.9375 C15.0285714,10.2375 15.6401993,9.5375 16.6013289,8.925 L14.5043189,7.7 L16.2518272,6.7375 L18.4362126,7.9625 C20.7953488,7 23.5039867,7.0875 25.3388704,8.225 C27.5232558,9.45 26.7368771,11.1125 25.6009967,12.6 C24.6398671,13.9125 24.6398671,14.7875 25.6883721,15.3125 C26.8242525,16.0125 28.6591362,15.8375 30.0571429,15.05 C31.5425249,14.175 31.979402,13.2125 32.1541528,12.775 L32.2415282,12.6 L34.6880399,13.3 L34.6880399,13.3875 C34.4259136,14.175 33.6395349,15.05 32.4162791,15.8375 L34.6006645,17.0625 L32.8531561,18.025 L30.5813953,16.7125 C28.1348837,17.675 25.251495,17.5875 23.3292359,16.45 C21.4069767,15.4 21.2322259,14.0875 22.6302326,12.075 Z" id="XMLID_347_" fill="#F2C724"></path>
                                            </g>
                                            <path d="M49.6292359,34.0375 C49.6292359,27.2125 38.707309,21.7 25.251495,21.7 C22.3681063,21.7 19.572093,21.9625 17.038206,22.4 C9.08704319,24.4125 3.58239203,28.6125 3.58239203,33.425 C3.58239203,40.25 14.5043189,45.7625 27.9601329,45.7625 C30.8435216,45.7625 33.6395349,45.5 36.1734219,45.0625 C44.1245847,43.05 49.6292359,38.85 49.6292359,34.0375 Z" id="XMLID_19683_" fill="url(#linearGradient-15)" opacity="0.5"></path>
                                            <g id="XMLID_337_" transform="translate(0.000000, 14.000000)">
                                                <path d="M47.2700997,13.0375 C43.4255814,8.75 34.9501661,5.6875 24.9893688,5.6875 C15.0285714,5.6875 6.55315615,8.6625 2.70863787,13.0375 L0.611627907,13.0375 L0.611627907,18.1125 C0.611627907,24.9375 11.5335548,30.45 24.9893688,30.45 C38.4451827,30.45 49.3671096,24.9375 49.3671096,18.1125 L49.3671096,13.0375 L47.2700997,13.0375 Z" id="XMLID_361_" fill="#E2AF0E"></path>
                                                <path d="M47.2700997,13.0375 C43.4255814,8.75 34.9501661,5.6875 24.9893688,5.6875 C15.0285714,5.6875 6.55315615,8.6625 2.70863787,13.0375 L0.611627907,13.0375 L0.611627907,18.1125 C0.611627907,24.9375 11.5335548,30.45 24.9893688,30.45 C38.4451827,30.45 49.3671096,24.9375 49.3671096,18.1125 L49.3671096,13.0375 L47.2700997,13.0375 Z" id="XMLID_357_" fill="url(#linearGradient-16)"></path>
                                                <ellipse id="XMLID_358_" fill="#F2C724" cx="24.9893688" cy="13.0375" rx="24.3777409" ry="12.3375"></ellipse>
                                                <ellipse id="XMLID_348_" fill="#E0AD0B" cx="24.9893688" cy="12.425" rx="18.8730897" ry="8.4"></ellipse>
                                                <path d="M23.0671096,12.1625 C24.20299,10.5 24.2903654,9.8875 23.3292359,9.3625 C22.5428571,8.925 21.0574751,8.6625 19.4847176,9.625 C18.086711,10.4125 17.7372093,11.2 17.5624585,11.55 L17.4750831,11.725 L15.0285714,11.1125 L15.1159468,11.025 C15.4654485,10.325 16.0770764,9.625 17.038206,9.0125 L14.941196,7.7875 L16.6887043,6.825 L18.8730897,8.05 C21.2322259,7.0875 23.9408638,7.175 25.7757475,8.3125 C27.9601329,9.5375 27.1737542,11.2 26.0378738,12.6875 C25.0767442,14 25.0767442,14.875 26.1252492,15.4 C27.2611296,16.1 29.0960133,15.925 30.4940199,15.1375 C31.979402,14.2625 32.4162791,13.3 32.5910299,12.8625 L32.6784053,12.6875 L35.1249169,13.3875 L35.1249169,13.475 C34.8627907,14.2625 34.076412,15.1375 32.8531561,15.925 L35.0375415,17.15 L33.2900332,18.1125 L31.0182724,16.8 C28.5717608,17.7625 25.6883721,17.675 23.766113,16.5375 C21.7564784,15.4875 21.5817276,14.175 23.0671096,12.1625 Z" id="XMLID_338_" fill="#F2C724"></path>
                                            </g>
                                            <path d="M49.3671096,27.0375 C49.3671096,20.2125 38.4451827,14.7 24.9893688,14.7 C22.1059801,14.7 19.3099668,14.9625 16.7760797,15.4 C8.82491694,17.4125 3.32026578,21.6125 3.32026578,26.425 C3.32026578,33.25 14.2421927,38.7625 27.6980066,38.7625 C30.5813953,38.7625 33.3774086,38.5 35.9112957,38.0625 C43.9498339,36.05 49.3671096,31.85 49.3671096,27.0375 Z" id="XMLID_15356_" fill="url(#linearGradient-17)" opacity="0.5"></path>
                                            <g id="XMLID_1391_" transform="translate(2.621262, 7.875000)">
                                                <path d="M47.3574751,12.5125 C43.5129568,8.225 35.0375415,5.1625 25.0767442,5.1625 C15.1159468,5.1625 6.64053156,8.1375 2.79601329,12.5125 L0.699003322,12.5125 L0.699003322,17.5875 C0.699003322,24.4125 11.6209302,29.925 25.0767442,29.925 C38.5325581,29.925 49.454485,24.4125 49.454485,17.5875 L49.454485,12.5125 L47.3574751,12.5125 Z" id="XMLID_1427_" fill="#E2AF0E"></path>
                                                <path d="M47.3574751,12.5125 C43.5129568,8.225 35.0375415,5.1625 25.0767442,5.1625 C15.1159468,5.1625 6.64053156,8.1375 2.79601329,12.5125 L0.699003322,12.5125 L0.699003322,17.5875 C0.699003322,24.4125 11.6209302,29.925 25.0767442,29.925 C38.5325581,29.925 49.454485,24.4125 49.454485,17.5875 L49.454485,12.5125 L47.3574751,12.5125 Z" id="XMLID_350_" fill="url(#linearGradient-18)"></path>
                                                <ellipse id="XMLID_1423_" fill="#F2C724" cx="25.0767442" cy="12.5125" rx="24.3777409" ry="12.3375"></ellipse>
                                                <ellipse id="XMLID_1395_" fill="#E0AD0B" cx="25.0767442" cy="11.9" rx="18.8730897" ry="8.4"></ellipse>
                                                <path d="M23.154485,11.6375 C24.2903654,9.975 24.3777409,9.3625 23.4166113,8.8375 C22.6302326,8.4 21.1448505,8.1375 19.572093,9.1 C18.1740864,9.8875 17.8245847,10.675 17.6498339,11.025 L17.5624585,11.2 L15.1159468,10.5875 L15.2033223,10.5 C15.5528239,9.8 16.1644518,9.1 17.1255814,8.4875 L15.0285714,7.2625 L16.7760797,6.3 L18.9604651,7.525 C21.3196013,6.5625 24.0282392,6.65 25.8631229,7.7875 C28.0475083,9.0125 27.2611296,10.675 26.1252492,12.1625 C25.1641196,13.475 25.1641196,14.35 26.2126246,14.875 C27.348505,15.575 29.1833887,15.4 30.5813953,14.6125 C32.0667774,13.7375 32.5036545,12.775 32.6784053,12.3375 L32.7657807,12.1625 L35.2122924,12.8625 L35.2122924,12.95 C34.9501661,13.7375 34.1637874,14.6125 32.9405316,15.4 L35.1249169,16.625 L33.3774086,17.5875 L31.1056478,16.275 C28.6591362,17.2375 25.7757475,17.15 23.8534884,16.0125 C21.9312292,14.9625 21.7564784,13.65 23.154485,11.6375 Z" id="XMLID_1392_" fill="#F2C724"></path>
                                            </g>
                                            <path d="M49.6292359,14.9625 C45.6973422,10.85 37.3093023,7.9625 27.6980066,7.9625 C17.4750831,7.9625 8.73754153,11.1125 5.1551495,15.6625 C4.89302326,16.45 4.71827243,17.2375 4.71827243,18.025 C4.71827243,24.85 15.6401993,30.3625 29.0960133,30.3625 C31.979402,30.3625 34.7754153,30.1 37.3093023,29.6625 C45.2604651,27.65 50.7651163,23.45 50.7651163,18.6375 C50.7651163,17.325 50.3282392,16.1 49.6292359,14.9625 Z" id="XMLID_828_" fill="url(#linearGradient-19)" opacity="0.5"></path>
                                            <g id="XMLID_2205_">
                                                <path d="M47.0079734,12.425 C43.1634551,8.1375 34.6880399,5.075 24.7272425,5.075 C14.7664452,5.075 6.2910299,8.05 2.44651163,12.425 L0.349501661,12.425 L0.349501661,17.5 C0.349501661,24.325 11.2714286,29.8375 24.7272425,29.8375 C38.1830565,29.8375 49.1049834,24.325 49.1049834,17.5 L49.1049834,12.425 L47.0079734,12.425 Z" id="XMLID_2201_" fill="#E2AF0E"></path>
                                                <path d="M47.0079734,12.425 C43.1634551,8.1375 34.6880399,5.075 24.7272425,5.075 C14.7664452,5.075 6.2910299,8.05 2.44651163,12.425 L0.349501661,12.425 L0.349501661,17.5 C0.349501661,24.325 11.2714286,29.8375 24.7272425,29.8375 C38.1830565,29.8375 49.1049834,24.325 49.1049834,17.5 L49.1049834,12.425 L47.0079734,12.425 Z" id="XMLID_578_" fill="url(#linearGradient-20)"></path>
                                                <ellipse id="XMLID_2193_" fill="#FFCF00" cx="24.7272425" cy="12.425" rx="24.3777409" ry="12.3375"></ellipse>
                                                <ellipse id="XMLID_2200_" fill="#E0AD0B" cx="24.7272425" cy="11.8125" rx="18.8730897" ry="8.4"></ellipse>
                                                <path d="M22.717608,11.55 C23.8534884,9.8875 23.9408638,9.275 22.9797342,8.75 C22.1933555,8.3125 20.7079734,8.05 19.1352159,9.0125 C17.7372093,9.8 17.3877076,10.5875 17.2129568,10.9375 L17.1255814,11.1125 L14.6790698,10.5 L14.7664452,10.4125 C15.1159468,9.7125 15.7275748,9.0125 16.6887043,8.4 L14.5916944,7.175 L16.3392027,6.2125 L18.523588,7.4375 C20.8827243,6.475 23.5913621,6.5625 25.4262458,7.7 C27.6106312,8.925 26.8242525,10.5875 25.6883721,12.075 C24.7272425,13.3875 24.7272425,14.2625 25.7757475,14.7875 C26.9116279,15.4875 28.7465116,15.3125 30.1445183,14.525 C31.6299003,13.65 32.0667774,12.6875 32.2415282,12.25 L32.3289037,12.075 L34.7754153,12.775 L34.7754153,12.8625 C34.513289,13.65 33.7269103,14.525 32.5036545,15.3125 L34.6880399,16.5375 L32.9405316,17.5 L30.6687708,16.1875 C28.2222591,17.15 25.3388704,17.0625 23.4166113,15.925 C21.4943522,14.875 21.3196013,13.5625 22.717608,11.55 Z" id="XMLID_1365_" fill="#F2C724"></path>
                                            </g>
                                        </g>
                                    </g>
                                </g>
                                <g id="XMLID_1909_" transform="translate(117.956811, 218.750000)">
                                    <path d="M62.910299,81.025 L143.645183,34.3875 C145.392691,33.3375 145.392691,30.8 143.645183,29.8375 L97.0740864,2.8875 C94.889701,1.6625 92.2684385,1.6625 90.0840532,2.8875 L9.34916944,49.525 C7.60166113,50.575 7.60166113,53.1125 9.34916944,54.075 L55.9202658,81.025 C58.1046512,82.25 60.7259136,82.25 62.910299,81.025 Z" id="XMLID_2086_" fill="url(#linearGradient-21)" fill-rule="nonzero" opacity="0.5"></path>
                                    <g id="XMLID_1910_">
                                        <path d="M55.5707641,81.025 L136.305648,34.3875 C138.053156,33.3375 138.053156,30.8 136.305648,29.8375 L89.7345515,2.8875 C87.5501661,1.6625 84.9289037,1.6625 82.7445183,2.8875 L2.00963455,49.525 C0.262126246,50.575 0.262126246,53.1125 2.00963455,54.075 L48.5807309,81.025 C50.7651163,82.25 53.3863787,82.25 55.5707641,81.025 Z" id="XMLID_2085_" fill="#32879B" fill-rule="nonzero"></path>
                                        <path d="M55.5707641,81.025 L136.305648,34.3875 C138.053156,33.3375 138.053156,30.8 136.305648,29.8375 L89.7345515,2.8875 C87.5501661,1.6625 84.9289037,1.6625 82.7445183,2.8875 L2.00963455,49.525 C0.262126246,50.575 0.262126246,53.1125 2.00963455,54.075 L48.5807309,81.025 C50.7651163,82.25 53.3863787,82.25 55.5707641,81.025 Z" id="XMLID_2084_" fill="url(#linearGradient-22)" fill-rule="nonzero"></path>
                                        <path d="M55.5707641,79.5375 L136.305648,32.9 C138.053156,31.85 138.053156,29.3125 136.305648,28.35 L89.7345515,1.4 C87.5501661,0.175 84.9289037,0.175 82.7445183,1.4 L2.00963455,48.0375 C0.262126246,49.0875 0.262126246,51.625 2.00963455,52.5875 L48.5807309,79.5375 C50.7651163,80.7625 53.3863787,80.7625 55.5707641,79.5375 Z" id="XMLID_4019_" fill="#42A1A8" fill-rule="nonzero"></path>
                                        <polygon id="XMLID_4044_" fill="#FFD45A" fill-rule="nonzero" points="82.1328904 16.0125 92.4431894 10.0625 84.9289037 5.8625 74.7059801 11.8125"></polygon>
                                        <path d="M61.1627907,63.7 L66.492691,60.6375 C67.6285714,59.9375 67.6285714,58.275 66.492691,57.575 L64.0461794,56.175 C62.6481728,55.3875 60.9006645,55.3875 59.4152824,56.175 L54.0853821,59.2375 C52.9495017,59.9375 52.9495017,61.6 54.0853821,62.3 L56.5318937,63.7 C58.0172757,64.4875 59.7647841,64.4875 61.1627907,63.7 Z" id="XMLID_4047_" fill="#F7CE4D" fill-rule="nonzero"></path>
                                        <path d="M59.8521595,67.025 L63.6093023,64.8375 C65.1820598,63.875 65.1820598,61.6 63.6093023,60.725 L62.7355482,60.2 C60.9880399,59.15 58.7162791,59.2375 56.9687708,60.2 L53.2116279,62.3875 C51.6388704,63.35 51.6388704,65.625 53.2116279,66.5 L54.0853821,67.025 C55.8328904,68.075 58.0172757,68.075 59.8521595,67.025 Z" id="XMLID_4054_" fill="#D3514A" fill-rule="nonzero"></path>
                                        <g id="XMLID_2082_" transform="translate(13.980066, 20.125000)" stroke="#F5F5F5" stroke-linecap="round">
                                            <path d="M42.8139535,27.475 L21.4069767,39.8125" id="XMLID_4051_"></path>
                                            <path d="M69.5508306,11.9875 L48.5807309,24.0625" id="XMLID_4049_"></path>
                                            <path d="M88.9481728,0.7875 L74.0943522,9.3625" id="XMLID_4046_"></path>
                                            <path d="M107.29701,9.3625 L92.355814,17.9375" id="XMLID_2083_"></path>
                                            <path d="M20.1837209,18.375 L0.349501661,29.8375" id="XMLID_4048_"></path>
                                        </g>
                                        <path d="M55.5707641,79.5375 L136.305648,32.9 C138.053156,31.85 138.053156,29.3125 136.305648,28.35 L89.7345515,1.4 C87.5501661,0.175 84.9289037,0.175 82.7445183,1.4 L2.00963455,48.0375 C0.262126246,49.0875 0.262126246,51.625 2.00963455,52.5875 L48.5807309,79.5375 C50.7651163,80.7625 53.3863787,80.7625 55.5707641,79.5375 Z" id="XMLID_2897_" fill="url(#linearGradient-23)" fill-rule="nonzero"></path>
                                    </g>
                                </g>
                            </g>
                        </g>
                    </g>
                </g>
            </g>
        </g>
    </g>
</svg>