<?xml version="1.0" encoding="UTF-8"?>
<svg width="1440px" height="190px" viewBox="0 0 1440 190" version="1.1" xmlns="http://www.w3.org/2000/svg" xmlns:xlink="http://www.w3.org/1999/xlink">
    <!-- Generator: Sketch 50.2 (55047) - http://www.bohemiancoding.com/sketch -->
    <title>city</title>
    <desc>Created with Sketch.</desc>
    <defs></defs>
    <g id="USER" stroke="none" stroke-width="1" fill="none" fill-rule="evenodd">
        <g id="main_black" transform="translate(0.000000, -289.000000)">
            <g id="city">
                <g id="city_bg" fill-rule="nonzero">
                    <g transform="translate(-132.000000, 289.000000)" id="Group">
                        <g transform="translate(0.000000, 42.000000)">
                            <rect id="Rectangle-path" fill="#242424" x="31.0240172" y="25.0087142" width="108.583462" height="125.796697"></rect>
                            <rect id="Rectangle-path" fill="#181818" x="89.6806122" y="71.3453392" width="49.9268673" height="79.4600717"></rect>
                        </g>
                        <g transform="translate(128.000000, 1.000000)">
                            <rect id="Rectangle-path" fill="#171717" opacity="0.25" x="175.627584" y="89.0885136" width="52.0913946" height="101.461918"></rect>
                            <polygon id="Shape" fill="#171717" opacity="0.25" points="149.642177 50.640422 149.642177 40.500266 124.983172 40.500266 124.983172 50.640422 115.758655 50.640422 115.758655 164.294671 158.806404 164.294671 158.806404 50.640422"></polygon>
                            <rect id="Rectangle-path" fill="#1E1E1E" x="12.7213938" y="93.0721463" width="55.4073977" height="97.4782855"></rect>
                            <polygon id="Shape" fill="#1E1E1E" points="175.757709 51.0267749 164.668224 51.0267749 164.668224 164.681024 216.759619 164.681024 216.759619 27.6078431"></polygon>
                            <polygon id="Shape" fill="#1E1E1E" points="227.295092 77.3797161 216.205607 77.3797161 216.205607 191.033965 268.297002 191.033965 268.297002 53.9607843"></polygon>
                            <polygon id="Shape" fill="#222222" points="136.576621 41.345279 136.576621 19.9181636 121.974154 19.9181636 121.974154 0.422506501 86.5742341 0.422506501 86.5742341 19.9181636 71.9717672 19.9181636 71.9717672 41.345279 51.9708126 41.345279 51.9708126 190.550432 156.666075 190.550432 156.666075 41.345279"></polygon>
                            <rect id="Rectangle-path" fill="#242424" x="135.232637" y="64.7038527" width="42.8668768" height="125.846579"></rect>
                            <rect id="Rectangle-path" fill="#181818" x="173.396818" y="111.058852" width="71.3242127" height="79.4915802"></rect>
                            <polygon id="Shape" fill="#171717" points="49.559174 127.476247 0.0602909659 127.476247 0.0602909659 131.822028 1.26611028 131.822028 1.26611028 190.550432 47.9313179 190.550432 47.9313179 131.822028 49.559174 131.822028"></polygon>
                            <polygon id="Shape" fill="#171717" opacity="0.75" points="90.6173218 179.685979 21.3430019 179.685979 21.3430019 184.03176 23.031149 184.03176 23.031149 190.550432 88.0851012 190.550432 88.0851012 184.03176 90.6173218 184.03176"></polygon>
                            <polygon id="Shape" fill="#171717" opacity="0.5" points="167.729467 154.516663 167.729467 114.982126 123.114152 114.982126 123.114152 154.516663 104.725408 154.516663 104.725408 190.550432 186.118212 190.550432 186.118212 154.516663"></polygon>
                        </g>
                        <g transform="translate(368.000000, 2.000000)">
                            <rect id="Rectangle-path" fill="#171717" opacity="0.25" x="174.827374" y="89.2075669" width="51.8540513" height="101.597507"></rect>
                            <polygon id="Shape" fill="#171717" opacity="0.25" points="148.960365 50.7080953 148.960365 40.5543885 124.413713 40.5543885 124.413713 50.7080953 115.231225 50.7080953 115.231225 164.514226 158.082837 164.514226 158.082837 50.7080953"></polygon>
                            <rect id="Rectangle-path" fill="#1E1E1E" x="12.6634315" y="93.1965231" width="55.1549457" height="97.6085505"></rect>
                            <polygon id="Shape" fill="#1E1E1E" points="173.026886 50.7080953 163.904414 50.7080953 163.904414 164.514226 206.756026 164.514226 206.756026 27.2578677"></polygon>
                            <polygon id="Shape" fill="#222222" points="109.109566 41.4005307 109.109566 19.9447812 99.2068828 19.9447812 99.2068828 0.423071117 75.2003776 0.423071117 75.2003776 19.9447812 65.2976942 19.9447812 65.2976942 41.4005307 51.7340187 41.4005307 51.7340187 190.805074 122.733258 190.805074 122.733258 41.4005307"></polygon>
                            <rect id="Rectangle-path" fill="#242424" x="115.423733" y="64.7903196" width="51.8540513" height="126.014754"></rect>
                            <rect id="Rectangle-path" fill="#181818" x="122.733258" y="111.207265" width="120.872754" height="79.5978087"></rect>
                            <polygon id="Shape" fill="#171717" points="49.3333682 127.6466 0.060016263 127.6466 0.060016263 131.998188 1.26034152 131.998188 1.26034152 190.805074 47.7129291 190.805074 47.7129291 131.998188 49.3333682 131.998188"></polygon>
                            <polygon id="Shape" fill="#171717" opacity="0.75" points="90.2044433 179.926102 21.2457571 179.926102 21.2457571 184.277691 22.9262125 184.277691 22.9262125 190.805074 87.6837603 190.805074 87.6837603 184.277691 90.2044433 184.277691"></polygon>
                            <polygon id="Shape" fill="#171717" opacity="0.5" points="166.965244 154.723151 166.965244 115.135782 122.553209 115.135782 122.553209 154.723151 104.248249 154.723151 104.248249 190.805074 185.270204 190.805074 185.270204 154.723151"></polygon>
                        </g>
                        <g transform="translate(610.000000, 1.000000)">
                            <rect id="Rectangle-path" fill="#171717" opacity="0.25" x="177.687786" y="89.0885136" width="51.9586914" height="101.461918"></rect>
                            <polygon id="Shape" fill="#171717" opacity="0.25" points="151.768577 50.640422 151.768577 40.500266 127.172391 40.500266 127.172391 50.640422 117.971373 50.640422 117.971373 164.294671 160.909458 164.294671 160.909458 50.640422"></polygon>
                            <rect id="Rectangle-path" fill="#1E1E1E" x="15.1966002" y="93.0721463" width="55.266247" height="97.4782855"></rect>
                            <polygon id="Shape" fill="#1E1E1E" points="175.883664 50.640422 166.742783 50.640422 166.742783 164.294671 209.680869 164.294671 209.680869 27.2214903"></polygon>
                            <polygon id="Shape" fill="#222222" points="111.837361 41.345279 111.837361 19.9181636 101.914694 19.9181636 101.914694 0.422506501 77.8597442 0.422506501 77.8597442 19.9181636 67.9370775 19.9181636 67.9370775 41.345279 54.3460309 41.345279 54.3460309 190.550432 125.488545 190.550432 125.488545 41.345279"></polygon>
                            <rect id="Rectangle-path" fill="#242424" x="137.918782" y="65.254902" width="42.7576731" height="125.846579"></rect>
                            <rect id="Rectangle-path" fill="#242424" x="116.604061" y="89.6395629" width="42.7576731" height="101.461918"></rect>
                            <rect id="Rectangle-path" fill="#181818" x="175.462703" y="111.058852" width="71.1425138" height="79.4915802"></rect>
                            <polygon id="Shape" fill="#171717" points="49.4329217 127.476247 0.0601373743 127.476247 0.0601373743 131.822028 1.26288486 131.822028 1.26288486 190.550432 47.8092126 190.550432 47.8092126 131.822028 49.4329217 131.822028"></polygon>
                            <polygon id="Shape" fill="#171717" opacity="0.75" points="92.8940878 179.685979 23.7962447 179.685979 23.7962447 184.03176 25.4800912 184.03176 25.4800912 190.550432 90.3683181 190.550432 90.3683181 184.03176 92.8940878 184.03176"></polygon>
                            <polygon id="Shape" fill="#171717" opacity="0.5" points="169.80979 154.516663 169.80979 114.982126 125.308133 114.982126 125.308133 154.516663 106.966233 154.516663 106.966233 190.550432 188.151689 190.550432 188.151689 154.516663"></polygon>
                        </g>
                        <g transform="translate(854.000000, 1.000000)">
                            <rect id="Rectangle-path" fill="#171717" opacity="0.25" x="174.827374" y="89.0885136" width="51.8540513" height="101.461918"></rect>
                            <polygon id="Shape" fill="#171717" opacity="0.25" points="148.960365 50.640422 148.960365 40.500266 124.413713 40.500266 124.413713 50.640422 115.231225 50.640422 115.231225 164.294671 158.082837 164.294671 158.082837 50.640422"></polygon>
                            <rect id="Rectangle-path" fill="#1E1E1E" x="12.6634315" y="93.0721463" width="55.1549457" height="97.4782855"></rect>
                            <polygon id="Shape" fill="#1E1E1E" points="173.040421 51.0267749 163.917949 51.0267749 163.917949 164.681024 206.769561 164.681024 206.769561 27.6078431"></polygon>
                            <polygon id="Shape" fill="#1E1E1E" points="132.999395 51.0267749 123.876923 51.0267749 123.876923 164.681024 166.728535 164.681024 166.728535 27.6078431"></polygon>
                            <polygon id="Shape" fill="#222222" points="109.109566 41.345279 109.109566 19.9181636 99.2068828 19.9181636 99.2068828 0.422506501 75.2003776 0.422506501 75.2003776 19.9181636 65.2976942 19.9181636 65.2976942 41.345279 51.7340187 41.345279 51.7340187 190.550432 122.733258 190.550432 122.733258 41.345279"></polygon>
                            <rect id="Rectangle-path" fill="#242424" x="135.138462" y="65.254902" width="42.671563" height="125.846579"></rect>
                            <rect id="Rectangle-path" fill="#242424" x="93.8461538" y="65.254902" width="42.671563" height="125.846579"></rect>
                            <rect id="Rectangle-path" fill="#181818" x="162.584057" y="111.058852" width="81.0219551" height="79.4915802"></rect>
                            <polygon id="Shape" fill="#171717" points="49.3333682 127.476247 0.060016263 127.476247 0.060016263 131.822028 1.26034152 131.822028 1.26034152 190.550432 47.7129291 190.550432 47.7129291 131.822028 49.3333682 131.822028"></polygon>
                            <polygon id="Shape" fill="#171717" opacity="0.75" points="90.2044433 179.685979 21.2457571 179.685979 21.2457571 184.03176 22.9262125 184.03176 22.9262125 190.550432 87.6837603 190.550432 87.6837603 184.03176 90.2044433 184.03176"></polygon>
                            <polygon id="Shape" fill="#171717" opacity="0.5" points="166.965244 154.516663 166.965244 114.982126 122.553209 114.982126 122.553209 154.516663 104.248249 154.516663 104.248249 190.550432 185.270204 190.550432 185.270204 154.516663"></polygon>
                        </g>
                        <g transform="translate(1082.000000, 0.000000)">
                            <rect id="Rectangle-path" fill="#171717" opacity="0.25" x="190.564423" y="91.4774999" width="52.0511681" height="101.328091"></rect>
                            <polygon id="Shape" fill="#171717" opacity="0.25" points="164.599083 53.0801211 164.599083 42.9533399 139.959121 42.9533399 139.959121 53.0801211 130.741726 53.0801211 130.741726 166.584461 173.756233 166.584461 173.756233 53.0801211"></polygon>
                            <rect id="Rectangle-path" fill="#1E1E1E" x="12.71157" y="95.4558782" width="55.3646105" height="97.3497123"></rect>
                            <polygon id="Shape" fill="#1E1E1E" points="188.757091 53.0801211 179.599941 53.0801211 179.599941 166.584461 222.614448 166.584461 222.614448 29.6920788"></polygon>
                            <polygon id="Shape" fill="#222222" points="124.163702 43.3752891 124.163702 21.976436 114.223375 21.976436 114.223375 2.50649351 90.1256117 2.50649351 90.1256117 21.976436 80.1852844 21.976436 80.1852844 43.3752891 66.5700483 43.3752891 66.5700483 192.383641 137.839182 192.383641 137.839182 43.3752891"></polygon>
                            <polygon id="Shape" fill="#222222" points="153.052591 40.8687956 153.052591 19.4699425 143.112264 19.4699425 143.112264 0 119.014501 0 119.014501 19.4699425 109.074173 19.4699425 109.074173 40.8687956 95.4589372 40.8687956 95.4589372 189.877148 166.728071 189.877148 166.728071 40.8687956"></polygon>
                            <rect id="Rectangle-path" fill="#242424" x="150.20067" y="67.1250022" width="42.8337738" height="125.680588"></rect>
                            <rect id="Rectangle-path" fill="#181818" x="188.33538" y="113.418859" width="71.2691341" height="79.3867313"></rect>
                            <polygon id="Shape" fill="#171717" points="49.520903 129.8146 0.0602444075 129.8146 0.0602444075 134.154649 1.26513256 134.154649 1.26513256 192.805591 47.894304 192.805591 47.894304 134.154649 49.520903 134.154649"></polygon>
                            <polygon id="Shape" fill="#171717" opacity="0.75" points="105.619808 181.955468 36.398984 181.955468 36.398984 186.295517 38.0858274 186.295517 38.0858274 192.805591 103.089543 192.805591 103.089543 186.295517 105.619808 186.295517"></polygon>
                            <polygon id="Shape" fill="#171717" opacity="0.5" points="182.672406 156.81935 182.672406 117.336959 138.091544 117.336959 138.091544 156.81935 119.717 156.81935 119.717 192.805591 201.04695 192.805591 201.04695 156.81935"></polygon>
                        </g>
                        <g transform="translate(1342.000000, 2.000000)">
                            <rect id="Rectangle-path" fill="#171717" opacity="0.25" x="174.827374" y="89.2075669" width="51.8540513" height="101.597507"></rect>
                            <polygon id="Shape" fill="#171717" opacity="0.25" points="148.960365 50.7080953 148.960365 40.5543885 124.413713 40.5543885 124.413713 50.7080953 115.231225 50.7080953 115.231225 164.514226 158.082837 164.514226 158.082837 50.7080953"></polygon>
                            <rect id="Rectangle-path" fill="#1E1E1E" x="12.6634315" y="93.1965231" width="55.1549457" height="97.6085505"></rect>
                            <polygon id="Shape" fill="#1E1E1E" points="173.026886 50.7080953 163.904414 50.7080953 163.904414 164.514226 206.756026 164.514226 206.756026 27.2578677"></polygon>
                            <polygon id="Shape" fill="#222222" points="109.109566 41.4005307 109.109566 19.9447812 99.2068828 19.9447812 99.2068828 0.423071117 75.2003776 0.423071117 75.2003776 19.9447812 65.2976942 19.9447812 65.2976942 41.4005307 51.7340187 41.4005307 51.7340187 190.805074 122.733258 190.805074 122.733258 41.4005307"></polygon>
                            <rect id="Rectangle-path" fill="#242424" x="106.288802" y="64.7903196" width="70.9992392" height="126.014754"></rect>
                            <rect id="Rectangle-path" fill="#181818" x="193.492432" y="111.207265" width="50.1135796" height="79.5978087"></rect>
                            <polygon id="Shape" fill="#171717" points="49.3333682 127.6466 0.060016263 127.6466 0.060016263 131.998188 1.26034152 131.998188 1.26034152 190.805074 47.7129291 190.805074 47.7129291 131.998188 49.3333682 131.998188"></polygon>
                            <polygon id="Shape" fill="#171717" opacity="0.75" points="90.2044433 179.926102 21.2457571 179.926102 21.2457571 184.277691 22.9262125 184.277691 22.9262125 190.805074 87.6837603 190.805074 87.6837603 184.277691 90.2044433 184.277691"></polygon>
                            <polygon id="Shape" fill="#171717" opacity="0.5" points="166.965244 154.723151 166.965244 115.135782 122.553209 115.135782 122.553209 154.723151 104.248249 154.723151 104.248249 190.805074 185.270204 190.805074 185.270204 154.723151"></polygon>
                        </g>
                        <g transform="translate(1509.000000, 2.000000)">
                            <rect id="Rectangle-path" fill="#1E1E1E" x="12.6634315" y="93.1965231" width="55.1549457" height="97.6085505"></rect>
                            <polygon id="Shape" fill="#222222" points="109.109566 41.4005307 109.109566 19.9447812 99.2068828 19.9447812 99.2068828 0.423071117 75.2003776 0.423071117 75.2003776 19.9447812 65.2976942 19.9447812 65.2976942 41.4005307 51.7340187 41.4005307 51.7340187 190.805074 122.733258 190.805074 122.733258 41.4005307"></polygon>
                            <polygon id="Shape" fill="#171717" points="49.3333682 127.6466 0.060016263 127.6466 0.060016263 131.998188 1.26034152 131.998188 1.26034152 190.805074 47.7129291 190.805074 47.7129291 131.998188 49.3333682 131.998188"></polygon>
                            <polygon id="Shape" fill="#171717" opacity="0.75" points="90.2044433 179.926102 21.2457571 179.926102 21.2457571 184.277691 22.9262125 184.277691 22.9262125 190.805074 87.6837603 190.805074 87.6837603 184.277691 90.2044433 184.277691"></polygon>
                        </g>
                    </g>
                </g>
                <g id="Group-3" transform="translate(91.000000, 408.000000)">
                    <g id="cars" transform="translate(109.000000, 0.000000)">
                        <g id="truck" transform="translate(645.000000, 12.000000)" fill-rule="nonzero">
                            <path d="M62.1473354,42 L2.85266458,42 C1.27351097,42 0,40.7068966 0,39.1034483 L0,2.89655172 C0,1.29310345 1.27351097,0 2.85266458,0 L62.1473354,0 C63.726489,0 65,1.29310345 65,2.89655172 L65,39.1034483 C65,40.6810345 63.7010188,42 62.1473354,42 Z" id="Shape" fill="#FED100"></path>
                            <path d="M62.1473354,40.8176101 L2.85266458,40.8176101 C1.27351097,40.8176101 0,39.5597484 0,38 L0,39.1823899 C0,40.7421384 1.27351097,42 2.85266458,42 L62.1473354,42 C63.726489,42 65,40.7421384 65,39.1823899 L65,38 C65,39.5597484 63.7010188,40.8176101 62.1473354,40.8176101 Z" id="Shape" fill="#D6B31E"></path>
                            <path d="M64.0561785,42 L0.942752031,42 C0.433156339,42 0,42.3777778 0,42.8222222 L0,45.1777778 C0,45.6222222 0.433156339,46 0.942752031,46 L64.0561785,46 C64.5657742,46 64.9989306,45.6222222 64.9989306,45.1777778 L64.9989306,42.8222222 C65.0244104,42.3555556 64.591254,42 64.0561785,42 Z" id="Shape" fill="#675400"></path>
                            <path d="M64.0561785,44.7789474 L0.942752031,44.7789474 C0.433156339,44.7789474 0,44.4210526 0,44 L0,45.2210526 C0,45.6421053 0.433156339,46 0.942752031,46 L64.0561785,46 C64.5657742,46 64.9989306,45.6421053 64.9989306,45.2210526 L64.9989306,44 C65.0244104,44.4210526 64.591254,44.7789474 64.0561785,44.7789474 Z" id="Shape" fill="#504300"></path>
                            <polygon id="Shape" fill="#786A30" points="9 47 13.2505855 39 26.852459 39 31 47"></polygon>
                            <g id="Group" transform="translate(12.000000, 40.000000)">
                                <ellipse id="Oval" fill="#4F4F4F" cx="8.89334118" cy="9.04973597" rx="8.86785882" ry="8.84637112"></ellipse>
                                <ellipse id="Oval" fill="#E0DADA" cx="8.89334118" cy="9.04973597" rx="4.81616471" ry="4.80449466"></ellipse>
                                <ellipse id="Oval" fill="#FFFFFF" cx="8.89334118" cy="9.04973597" rx="4.17910588" ry="4.16897949"></ellipse>
                            </g>
                            <g id="Group" transform="translate(8.000000, 10.000000)" fill="#F4B400">
                                <path d="M51.9287597,19.7401995 L1.07863893,19.7401995 C0.565001342,19.7401995 0.154091275,19.3133844 0.154091275,18.7798655 C0.154091275,18.2463466 0.565001342,17.8195314 1.07863893,17.8195314 L51.9287597,17.8195314 C52.4423973,17.8195314 52.8533074,18.2463466 52.8533074,18.7798655 C52.8789893,19.3133844 52.4423973,19.7401995 51.9287597,19.7401995 Z" id="Shape"></path>
                                <path d="M51.9287597,13.8448156 L12.121847,13.8448156 C11.6082094,13.8448156 11.1972993,13.4180005 11.1972993,12.8844816 C11.1972993,12.3509627 11.6082094,11.9241475 12.121847,11.9241475 L51.9287597,11.9241475 C52.4423973,11.9241475 52.8533074,12.3509627 52.8533074,12.8844816 C52.8789893,13.3913245 52.4423973,13.8448156 51.9287597,13.8448156 Z" id="Shape"></path>
                                <path d="M51.9287597,7.92275574 L24.1923302,7.92275574 C23.6786926,7.92275574 23.2677826,7.49594062 23.2677826,6.96242171 C23.2677826,6.42890281 23.6786926,6.00208768 24.1923302,6.00208768 L51.9287597,6.00208768 C52.4423973,6.00208768 52.8533074,6.42890281 52.8533074,6.96242171 C52.8789893,7.49594062 52.4423973,7.92275574 51.9287597,7.92275574 Z" id="Shape"></path>
                                <path d="M51.9287597,2.00069589 L35.8262215,2.00069589 C35.3125839,2.00069589 34.9016738,1.57388077 34.9016738,1.04036186 C34.9016738,0.50684296 35.3125839,0.0800278358 35.8262215,0.0800278358 L51.9287597,0.0800278358 C52.4423973,0.0800278358 52.8533074,0.50684296 52.8533074,1.04036186 C52.8789893,1.57388077 52.4423973,2.00069589 51.9287597,2.00069589 Z" id="Shape"></path>
                            </g>
                            <path d="M68.7976728,12 L84.5251309,12 C85.4576885,12 86.3398376,12.490413 86.8691271,13.2905605 L100.429019,33.0619469 C100.73147,33.5265487 100.882696,34.0685841 100.882696,34.6364307 L100.882696,44.1349558 C100.882696,45.7094395 101.487598,47 99.9501379,47 L68.7976728,47 C67.260213,47 66,45.7094395 66,44.1349558 L66,14.8650442 C66.0252043,13.2905605 67.260213,12 68.7976728,12 Z" id="Shape" fill="#EFCC2A"></path>
                            <path d="M73.4902913,30 L69.5097087,30 C69.2427184,30 69,29.7857143 69,29.5 C69,29.2380952 69.2184466,29 69.5097087,29 L73.4902913,29 C73.7572816,29 74,29.2142857 74,29.5 C74,29.7619048 73.7572816,30 73.4902913,30 Z" id="Shape" fill="#8E8355"></path>
                            <path d="M101,37 C101,37 97.4539007,35.2608696 97,33 L100.659574,33 C100.829787,33 101,33.1086957 101,33.2608696 L101,37 Z" id="Shape" fill="#FFFFFF"></path>
                            <rect id="Rectangle-path" fill="#B3B3B3" x="66" y="39" width="35" height="1"></rect>
                            <polygon id="Shape" fill="#786A30" points="72 47 76.271345 39 89.8315789 39 94 47"></polygon>
                            <g id="Group" transform="translate(74.000000, 40.000000)">
                                <ellipse id="Oval" fill="#4F4F4F" cx="9.04623529" cy="9.04973597" rx="8.86785882" ry="8.84637112"></ellipse>
                                <ellipse id="Oval" fill="#E0DADA" cx="9.04623529" cy="9.04973597" rx="4.81616471" ry="4.80449466"></ellipse>
                                <ellipse id="Oval" fill="#FFFFFF" cx="9.04623529" cy="9.04973597" rx="4.17910588" ry="4.16897949"></ellipse>
                            </g>
                            <g id="Group" transform="translate(69.000000, 15.000000)" fill="#CAE8E8">
                                <polygon id="Shape" points="0.159264706 0.227754895 15.5548529 0.227754895 24.8718382 12.8554985 0.159264706 12.8554985"></polygon>
                            </g>
                        </g>
                        <g id="blue-car" transform="translate(355.000000, 35.000000)" fill-rule="nonzero">
                            <path d="M2.02655726,24 C2.02655726,24 1.81409916,21.4123581 2.63737433,20.186633 C3.4606495,18.9609079 2,15.6923077 2,15.6923077 L10.365538,2.34552333 C10.365538,2.34552333 10.0734081,1.25598991 10.7373397,0.84741488 C10.7373397,0.84741488 20.5900845,-1.0592686 43.4824457,0.84741488 C43.4824457,0.84741488 48.5814403,3.84363178 55.4863288,10.3808323 C55.4863288,10.3808323 67.1715248,13.3498108 69.6944648,14.5210593 C72.2174049,15.6923077 72.2705194,18.9336696 71.7128168,23.0738966 L2.02655726,24 Z" id="Shape" fill="#4A82D3"></path>
                            <path d="M74,25 C74,26.1052632 73.088736,27 71.9630569,27 L2.03694314,27 C0.911264035,27 0,26.1052632 0,25 C0,23.8947368 0.911264035,23 2.03694314,23 L71.9630569,23 C73.088736,23 74,23.8947368 74,25 Z" id="Shape" fill="#3C66A5"></path>
                            <g id="Group" transform="translate(6.000000, 19.000000)">
                                <ellipse id="Oval" fill="#3E2C38" cx="8.5" cy="8.02622951" rx="8.33548387" ry="7.97377049"></ellipse>
                                <ellipse id="Oval" fill="#6D6D6D" cx="8.5" cy="8.02622951" rx="5.95" ry="5.69180328"></ellipse>
                                <ellipse id="Oval" fill="#FFFFFF" cx="8.5" cy="8.02622951" rx="4.27741935" ry="4.09180328"></ellipse>
                            </g>
                            <g id="Group" transform="translate(52.000000, 19.000000)">
                                <circle id="Oval" fill="#3E2C38" cx="8" cy="8.02622951" r="7.97377049"></circle>
                                <circle id="Oval" fill="#6D6D6D" cx="8" cy="8.02622951" r="5.69180328"></circle>
                                <circle id="Oval" fill="#FFFFFF" cx="8" cy="8.02622951" r="4.09180328"></circle>
                            </g>
                            <path d="M3,17.9350649 C3,18.5324675 2.56097561,19 2,19 C1.43902439,19 1,18.5324675 1,17.9350649 L1,16.0649351 C1,15.4675325 1.43902439,15 2,15 C2.56097561,15 3,15.4675325 3,16.0649351 L3,17.9350649 Z" id="Shape" fill="#B63F15"></path>
                            <path d="M71.8981857,16.4176795 C72.1588643,16.9666296 71.8981857,17.6349168 71.3531302,17.8974581 C70.8080748,18.1599995 70.1445291,17.8974581 69.8838504,17.348508 L69.1018143,15.5823205 C68.8411357,15.0333704 69.1018143,14.3650832 69.6468698,14.1025419 C70.1919252,13.8400005 70.8554709,14.1025419 71.1161496,14.651492 L71.8981857,16.4176795 Z" id="Shape" fill="#FBCC48"></path>
                            <path d="M34,14 C34,14.5428571 33.6033058,15 33.1322314,15 L28.8677686,15 C28.3966942,15 28,14.5428571 28,14 C28,13.4571429 28.3966942,13 28.8677686,13 L33.1322314,13 C33.6280992,13 34,13.4285714 34,14 Z" id="Shape" fill="#3C66A5"></path>
                            <g id="Group" transform="translate(13.000000, 2.000000)" fill="#FFFFFF">
                                <path d="M9.65586207,0.153846154 C4.16896552,0.256410256 -0.16137931,0.794871795 0.0537931034,2.15384615 C0.0537931034,2.15384615 1.18344828,8.43589744 8.01517241,9.07692308 C9.25241379,9.20512821 11.0275862,9.30769231 13.1255172,9.38461538 L9.65586207,0.153846154 Z" id="Shape"></path>
                                <path d="M38.5158621,7.25641026 C37.2248276,5.33333333 31.8455172,1.66666667 30.9310345,1.15384615 C30.3931034,0.871794872 20.6027586,0.102564103 12.1841379,0.102564103 C12.3724138,1.15384615 12.722069,3 13.3675862,5.53846154 C13.8517241,7.43589744 14.5510345,8.66666667 15.1427586,9.43589744 C24.5565517,9.79487179 37.977931,9.92307692 37.977931,9.92307692 C37.977931,9.92307692 39.78,9.17948718 38.5158621,7.25641026 Z" id="Shape"></path>
                            </g>
                        </g>
                        <g id="red-car" transform="translate(1062.000000, 52.000000) scale(-1, 1) translate(-1062.000000, -52.000000) translate(1030.000000, 34.000000)">
                            <polygon id="Shape" fill="#808184" fill-rule="nonzero" points="2 25.3934426 2 29 61 29 61 21 49.4215017 21 44.8572241 25.3934426"></polygon>
                            <path d="M1.74146341,25.9664948 C1.74146341,25.9664948 0,26.3350515 0,24.1572165 C0,21.9793814 0,19.7345361 0,17.1881443 C0,14.6417526 4.88292683,10.4871134 9.18536585,10.185567 C9.18536585,10.185567 13.2829268,0 15.1268293,0 C16.9707317,0 26.3609756,0 27.0097561,0 C27.6585366,0 28,0.837628866 28,1.90979381 C28,2.98195876 28,26 28,26 L1.74146341,25.9664948 Z" id="Shape" fill="#EE4036" fill-rule="nonzero"></path>
                            <path d="M5.6272838,23.2222222 C5.6272838,23.2222222 5.2862363,21 3.88794153,21 C3.03532278,21 1.29598051,21 0,21 C0,22.1111111 0,23.1568627 0,24.2026144 C0,26.3267974 1.73934227,25.9673203 1.73934227,25.9673203 L28,26 C28,26 28,24.9215686 28,23.1895425 L5.6272838,23.1895425 L5.6272838,23.2222222 Z" id="Shape" fill="#CE372E" fill-rule="nonzero"></path>
                            <path d="M16.9668508,2 L14.9779006,2 C14.9779006,2 12.2596685,6.45901639 11,10 L17,10 L17,2 L16.9668508,2 Z" id="Shape" fill="#53C9F4" fill-rule="nonzero"></path>
                            <rect id="Rectangle-path" fill="#53C9F4" fill-rule="nonzero" x="18" y="2" width="8" height="8"></rect>
                            <path d="M25.534905,13 L23.4608918,13 C23.1920383,13 23,12.8064516 23,12.6129032 L23,12.3870968 C23,12.1612903 23.2304459,12 23.4608918,12 L25.534905,12 C25.8037585,12 25.9957968,12.1935484 25.9957968,12.3870968 L25.9957968,12.6129032 C26.0342045,12.8064516 25.8037585,13 25.534905,13 Z" id="Shape" fill="#F1F1F2" fill-rule="nonzero"></path>
                            <path d="M0,21 L1.98494446,21 C2.15316009,18.92 0.874721286,18.24 0,18 C0,19.04 0,20.04 0,21 Z" id="Shape" fill="#FFF100" fill-rule="nonzero"></path>
                            <path d="M0,24 C0.0333333333,24 0.0333333333,24 0.0666666667,24 L1,24 C1.56666667,24 2,23.5333333 2,23 C2,22.4666667 1.53333333,22 1,22 L0.0666666667,22 C0.0333333333,22 0.0333333333,22 0,22 C0,22.6666667 0,23.3333333 0,24 Z" id="Shape" fill="#404041" fill-rule="nonzero"></path>
                            <rect id="Rectangle-path" fill="#EE4036" fill-rule="nonzero" x="29" y="11" width="35" height="12"></rect>
                            <g id="Group" transform="translate(31.000000, 24.000000)" fill-rule="nonzero">
                                <path d="M1.66666667,5 L10.0666667,5 C10.7,5 11.2666667,4.53846154 11.5333333,3.84615385 L0.166666667,3.84615385 C0.466666667,4.53846154 1.03333333,5 1.66666667,5 Z" id="Shape" fill="#929497"></path>
                                <path d="M10.0666667,0.269230769 L1.66666667,0.269230769 C0.933333333,0.269230769 0.3,0.884615385 0.1,1.73076923 L11.6666667,1.73076923 C11.4333333,0.884615385 10.8333333,0.269230769 10.0666667,0.269230769 Z" id="Shape" fill="#FF3F32"></path>
                                <path d="M11.7333333,2.34615385 C11.7333333,2.15384615 11.7,1.92307692 11.6666667,1.73076923 L0.1,1.73076923 C0.0666666667,1.92307692 0.0333333333,2.11538462 0.0333333333,2.34615385 L0.0333333333,2.96153846 C0.0333333333,3.30769231 0.1,3.61538462 0.2,3.88461538 L11.5666667,3.88461538 C11.6666667,3.61538462 11.7333333,3.30769231 11.7333333,2.96153846 L11.7333333,2.34615385 Z" id="Shape" fill="#CE372E"></path>
                            </g>
                            <path d="M62,25 L60.3150685,25 C59.5753425,25 59,25.4375 59,26 C59,26.5625 59.5753425,27 60.3150685,27 L62,27 L62,25 Z" id="Shape" fill="#EE4036" fill-rule="nonzero"></path>
                            <path d="M4,27 L22,27 C21.4226415,22.4678112 17.6188679,19 13,19 C8.34716981,19 4.57735849,22.5021459 4,27 Z" id="Shape" fill="#808184" fill-rule="nonzero"></path>
                            <g id="Group" transform="translate(5.000000, 19.000000)" fill-rule="nonzero">
                                <circle id="Oval" fill="#404041" cx="8.56666667" cy="8.5" r="8.26666667"></circle>
                                <circle id="Oval" fill="#D0D2D3" cx="8.56666667" cy="8.5" r="4.36666667"></circle>
                            </g>
                            <g id="Group" transform="translate(43.000000, 19.000000)" fill-rule="nonzero">
                                <ellipse id="Oval" fill="#404041" cx="8.432" cy="8.5" rx="8.432" ry="8.26666667"></ellipse>
                                <ellipse id="Oval" fill="#D0D2D3" cx="8.432" cy="8.5" rx="4.454" ry="4.36666667"></ellipse>
                            </g>
                            <g id="Group" transform="translate(18.000000, 2.000000)">
                                <polygon id="Shape" points="3.06 9 8.784 9 8.784 2.124"></polygon>
                                <polygon id="Shape" points="8.784 0.216 8.676 0.216 1.368 9 2.196 9 8.784 1.116"></polygon>
                                <polygon id="Shape" points="0.108 0.216 0.108 6.624 5.472 0.216"></polygon>
                                <polygon id="Shape" points="6.3 0.216 0.108 7.668 0.108 8.496 6.948 0.216"></polygon>
                            </g>
                            <g id="Group" transform="translate(11.000000, 2.000000)">
                                <path d="M6.81578947,0.72 L0.515789474,8.1 C0.405263158,8.388 0.294736842,8.676 0.184210526,9 L0.478947368,9 L6.81578947,1.476 L6.81578947,0.72 Z" id="Shape"></path>
                                <polygon id="Shape" points="6.81578947 3.564 2.13684211 9 3.02105263 9 6.81578947 4.572"></polygon>
                                <path d="M4.56842105,0.216 C4.56842105,0.216 2.87368421,2.952 1.43684211,5.976 L6.37368421,0.216 L4.56842105,0.216 Z" id="Shape"></path>
                                <polygon id="Shape" points="3.86842105 9 6.81578947 9 6.81578947 5.58"></polygon>
                            </g>
                        </g>
                        <g id="big_truck" fill-rule="nonzero">
                            <polygon id="Shape" fill="#4D525B" points="221 45 221 55 110.379927 55 107.650993 50.0627615 64.9268004 50.0627615 62.1978662 55 0 55 0 45"></polygon>
                            <polygon id="Shape" fill="#5B606B" points="0 49 0 56 62.1978662 56 64.9268004 50.7051282 107.650993 50.7051282 110.379927 56 221 56 221 49"></polygon>
                            <path d="M223,41.8566793 L223,57 L215.366265,57 L215.366265,52.95457 C215.366265,48.9091401 212.06988,45.6208761 208.014458,45.6208761 L178,45.6208761 L178,17 L207.710843,17 L211.180723,30.6938886 L220.26747,36.4699838 C220.831325,36.8810168 221.33012,37.378583 221.720482,37.9410492 C221.915663,38.2222823 222.110843,38.5251487 222.262651,38.8280151 C222.739759,39.779881 223,40.7966468 223,41.8566793 Z" id="Shape" fill="#FED100"></path>
                            <path d="M224,49.6027714 L224,54.8406467 C224,56.5866051 223.547958,58 222.989554,58 L217.319088,58 L217.319088,52.595843 C217.319088,51.2863741 217.206078,50.0600462 217,49 L223.807217,49 C223.920228,49 224,49.2702079 224,49.6027714 Z" id="Shape" fill="#A38700"></path>
                            <path d="M222,49.6027714 L222,54.8406467 C222,56.5866051 221.677113,58 221.278253,58 L217.22792,58 L217.22792,52.595843 C217.22792,51.2863741 217.147198,50.0600462 217,49 L221.862298,49 C221.94302,49 222,49.2702079 222,49.6027714 Z" id="Shape" fill="#A38700"></path>
                            <path d="M204.343066,12 L180.29927,12 C179.029197,12 178,12.9591837 178,14.1428571 L178,16 L208,16 L207.562044,14.3673469 C207.189781,12.9795918 205.875912,12 204.343066,12 Z" id="Shape" fill="#A38700"></path>
                            <polygon id="Shape" fill="#231F20" points="194 31 210 31 206.427184 18 194 18"></polygon>
                            <rect id="Rectangle-path" fill="#231F20" x="180" y="18" width="9" height="13"></rect>
                            <path d="M215,56 L192,56 C193.490141,50.7954545 198.068545,47 203.510798,47 C208.931455,47 213.509859,50.7954545 215,56 Z" id="Shape" fill="#232736"></path>
                            <rect id="Rectangle-path" fill="#A38700" x="191" y="13" width="1" height="32"></rect>
                            <path d="M203.338617,35 L197.660273,35 C197.286118,35 197,35.3043478 197,35.6521739 L197,36.3478261 C197,36.7173913 197.308127,37 197.660273,37 L203.338617,37 C203.712771,37 203.99889,36.6956522 203.99889,36.3478261 L203.99889,35.6521739 C204.020899,35.3043478 203.712771,35 203.338617,35 Z" id="Shape" fill="#231F20"></path>
                            <g id="Group" transform="translate(194.000000, 50.000000)">
                                <ellipse id="Oval" fill="#323948" cx="9.5" cy="9.52134831" rx="9.47840909" ry="9.37191011"></ellipse>
                                <ellipse id="Oval" fill="#FFFFFF" cx="9.5" cy="9.52134831" rx="5.7" ry="5.63595506"></ellipse>
                                <ellipse id="Oval" fill="#323948" cx="9.5" cy="9.52134831" rx="3.5625" ry="3.52247191"></ellipse>
                            </g>
                            <path d="M164,56 L141,56 C142.490141,50.7954545 147.068545,47 152.510798,47 C157.931455,47 162.509859,50.7954545 164,56 Z" id="Shape" fill="#232736"></path>
                            <g id="Group" transform="translate(143.000000, 50.000000)">
                                <circle id="Oval" fill="#323948" cx="9.45730337" cy="9.52134831" r="9.37191011"></circle>
                                <circle id="Oval" fill="#FFFFFF" cx="9.45730337" cy="9.52134831" r="5.63595506"></circle>
                                <circle id="Oval" fill="#323948" cx="9.45730337" cy="9.52134831" r="3.52247191"></circle>
                            </g>
                            <g id="Group" transform="translate(113.000000, 47.000000)">
                                <path d="M23.8,8.82178218 L0.133333333,8.82178218 C1.66666667,3.83366337 6.37777778,0.196039604 11.9777778,0.196039604 C17.5555556,0.196039604 22.2666667,3.83366337 23.8,8.82178218 Z" id="Shape" fill="#232736"></path>
                                <g transform="translate(2.000000, 2.613861)" id="Oval">
                                    <ellipse fill="#323948" cx="9.95555556" cy="9.71485149" rx="9.75555556" ry="9.56237624"></ellipse>
                                    <ellipse fill="#FFFFFF" cx="9.95555556" cy="9.71485149" rx="5.86666667" ry="5.75049505"></ellipse>
                                    <ellipse fill="#323948" cx="9.95555556" cy="9.71485149" rx="3.66666667" ry="3.59405941"></ellipse>
                                </g>
                            </g>
                            <path d="M60,56 L37,56 C38.4901408,50.7954545 43.0685446,47 48.5107981,47 C53.9314554,47 58.5098592,50.7954545 60,56 Z" id="Shape" fill="#232736"></path>
                            <g id="Group" transform="translate(39.000000, 50.000000)">
                                <circle id="Oval" fill="#323948" cx="9.45730337" cy="9.52134831" r="9.37191011"></circle>
                                <circle id="Oval" fill="#FFFFFF" cx="9.45730337" cy="9.52134831" r="5.63595506"></circle>
                                <circle id="Oval" fill="#323948" cx="9.45730337" cy="9.52134831" r="3.52247191"></circle>
                            </g>
                            <g id="Group" transform="translate(10.000000, 47.000000)">
                                <path d="M23,8.82178218 L0.107476636,8.82178218 C1.59065421,3.83366337 6.14766355,0.196039604 11.564486,0.196039604 C16.9598131,0.196039604 21.5168224,3.83366337 23,8.82178218 Z" id="Shape" fill="#232736"></path>
                                <g transform="translate(1.934579, 2.613861)" id="Oval">
                                    <ellipse fill="#323948" cx="9.62990654" cy="9.71485149" rx="9.4364486" ry="9.56237624"></ellipse>
                                    <ellipse fill="#FFFFFF" cx="9.62990654" cy="9.71485149" rx="5.67476636" ry="5.75049505"></ellipse>
                                    <ellipse fill="#323948" cx="9.62990654" cy="9.71485149" rx="3.54672897" ry="3.59405941"></ellipse>
                                </g>
                            </g>
                            <polyline id="Shape" fill="#FED100" points="197 11.9356568 180 4 180 12 197 12"></polyline>
                            <path d="M176,23.32282 L176,45 L179,45 L179,22 L177.563025,22 C176.705882,22 176,22.5760668 176,23.32282 Z" id="Shape" fill="#4D525B"></path>
                            <rect id="Rectangle-path" fill="#FFE982" x="3" y="0" width="167" height="45"></rect>
                            <g id="Group" transform="translate(166.000000, 50.000000)">
                                <g id="Rectangle-path">
                                    <rect fill="#5B606B" x="0.0647058824" y="0.179591837" width="21.7411765" height="10.6857143"></rect>
                                    <rect fill="#4D525B" x="0.0647058824" y="7.65510204" width="21.7411765" height="3.21020408"></rect>
                                    <rect fill="#6E757F" x="0.0647058824" y="0.179591837" width="21.7411765" height="3.21020408"></rect>
                                </g>
                                <polygon id="Shape" fill="#323948" points="2.58823529 0.179591837 2.58823529 3.38979592 2.58823529 7.65510204 2.58823529 10.8653061 4.35686275 10.8653061 4.35686275 7.65510204 4.35686275 3.38979592 4.35686275 0.179591837"></polygon>
                                <polygon id="Shape" fill="#323948" points="15.8098039 0.179591837 15.8098039 3.38979592 15.8098039 7.65510204 15.8098039 10.8653061 17.5784314 10.8653061 17.5784314 7.65510204 17.5784314 3.38979592 17.5784314 0.179591837"></polygon>
                            </g>
                            <path d="M223,40.8543897 L223,47 L219.680412,47 C218.195876,47 217,45.75803 217,44.2162741 L217,37 L221.804124,37 C221.989691,37.2783726 222.175258,37.5781585 222.319588,37.8779443 C222.752577,38.7987152 223,39.8051392 223,40.8543897 Z" id="Shape" fill="#F08E30"></path>
                            <g id="Group" transform="translate(5.000000, 2.000000)" fill="#F0C912">
                                <rect id="Rectangle-path" x="0.10916442" y="0" width="1.7902965" height="41.8900524"></rect>
                                <rect id="Rectangle-path" x="4.32291105" y="0" width="1.7902965" height="41.8900524"></rect>
                                <rect id="Rectangle-path" x="8.53665768" y="0" width="1.7902965" height="41.8900524"></rect>
                                <rect id="Rectangle-path" x="12.7504043" y="0" width="1.7902965" height="41.8900524"></rect>
                                <rect id="Rectangle-path" x="16.9641509" y="0" width="1.7902965" height="41.8900524"></rect>
                                <rect id="Rectangle-path" x="21.1560647" y="0" width="1.7902965" height="41.8900524"></rect>
                                <rect id="Rectangle-path" x="25.3698113" y="0" width="1.7902965" height="41.8900524"></rect>
                                <rect id="Rectangle-path" x="29.583558" y="0" width="1.7902965" height="41.8900524"></rect>
                                <rect id="Rectangle-path" x="33.7973046" y="0" width="1.7902965" height="41.8900524"></rect>
                                <rect id="Rectangle-path" x="38.0110512" y="0" width="1.7902965" height="41.8900524"></rect>
                                <rect id="Rectangle-path" x="42.2247978" y="0" width="1.7902965" height="41.8900524"></rect>
                                <rect id="Rectangle-path" x="46.4385445" y="0" width="1.7902965" height="41.8900524"></rect>
                                <rect id="Rectangle-path" x="50.6522911" y="0" width="1.7902965" height="41.8900524"></rect>
                                <rect id="Rectangle-path" x="54.8660377" y="0" width="1.7902965" height="41.8900524"></rect>
                                <rect id="Rectangle-path" x="59.0797844" y="0" width="1.7902965" height="41.8900524"></rect>
                                <rect id="Rectangle-path" x="63.2716981" y="0" width="1.7902965" height="41.8900524"></rect>
                                <rect id="Rectangle-path" x="67.4854447" y="0" width="1.7902965" height="41.8900524"></rect>
                                <rect id="Rectangle-path" x="71.6991914" y="0" width="1.7902965" height="41.8900524"></rect>
                                <rect id="Rectangle-path" x="75.912938" y="0" width="1.7902965" height="41.8900524"></rect>
                                <rect id="Rectangle-path" x="80.1266846" y="0" width="1.7902965" height="41.8900524"></rect>
                                <rect id="Rectangle-path" x="84.3404313" y="0" width="1.7902965" height="41.8900524"></rect>
                                <rect id="Rectangle-path" x="88.5541779" y="0" width="1.7902965" height="41.8900524"></rect>
                                <rect id="Rectangle-path" x="92.7679245" y="0" width="1.7902965" height="41.8900524"></rect>
                                <rect id="Rectangle-path" x="96.9816712" y="0" width="1.7902965" height="41.8900524"></rect>
                                <rect id="Rectangle-path" x="101.173585" y="0" width="1.7902965" height="41.8900524"></rect>
                                <rect id="Rectangle-path" x="105.387332" y="0" width="1.7902965" height="41.8900524"></rect>
                                <rect id="Rectangle-path" x="109.601078" y="0" width="1.7902965" height="41.8900524"></rect>
                                <rect id="Rectangle-path" x="113.814825" y="0" width="1.7902965" height="41.8900524"></rect>
                                <rect id="Rectangle-path" x="118.028571" y="0" width="1.7902965" height="41.8900524"></rect>
                                <rect id="Rectangle-path" x="122.242318" y="0" width="1.7902965" height="41.8900524"></rect>
                                <rect id="Rectangle-path" x="126.456065" y="0" width="1.7902965" height="41.8900524"></rect>
                                <rect id="Rectangle-path" x="130.669811" y="0" width="1.7902965" height="41.8900524"></rect>
                                <rect id="Rectangle-path" x="134.883558" y="0" width="1.7902965" height="41.8900524"></rect>
                                <rect id="Rectangle-path" x="139.097305" y="0" width="1.7902965" height="41.8900524"></rect>
                                <rect id="Rectangle-path" x="143.289218" y="0" width="1.7902965" height="41.8900524"></rect>
                                <rect id="Rectangle-path" x="147.502965" y="0" width="1.7902965" height="41.8900524"></rect>
                                <rect id="Rectangle-path" x="151.716712" y="0" width="1.7902965" height="41.8900524"></rect>
                                <rect id="Rectangle-path" x="155.930458" y="0" width="1.7902965" height="41.8900524"></rect>
                                <rect id="Rectangle-path" x="160.144205" y="0" width="1.7902965" height="41.8900524"></rect>
                            </g>
                        </g>
                    </g>
                    <g id="objects" transform="translate(0.000000, 33.000000)">
                        <g id="sofa" transform="translate(13.000000, 11.000000)" fill-rule="nonzero">
                            <rect id="Rectangle-path" fill="#C1272D" x="32" y="1" width="7" height="19"></rect>
                            <path d="M36,17.0526316 C36,17.5804511 36.4497969,18 37.0156703,18 L59.9843297,18 C60.5356936,18 61,17.5804511 61,17.0526316 L61,0.947368421 C61,0.419548872 60.5502031,0 59.9843297,0 L37.0156703,0 C36.4643064,0 36,0.419548872 36,0.947368421 L36,17.0526316 Z" id="Shape" fill="#D94147"></path>
                            <g id="Group" transform="translate(42.000000, 4.000000)">
                                <g>
                                    <g>
                                        <ellipse id="Oval" fill="#C1272D" cx="0.442282176" cy="0.403292181" rx="1" ry="1"></ellipse>
                                        <path d="M0.412796698,0.5610737 C0.294854784,0.5610737 0.19165561,0.531612421 0.103199174,0.487420501 C0.147427392,0.649457538 0.280112045,0.752572016 0.457024915,0.752572016 C0.648680525,0.752572016 0.796107917,0.619996259 0.810850656,0.428497942 C0.707651482,0.516881781 0.574966829,0.5610737 0.412796698,0.5610737 Z" id="Shape" fill="#F26167"></path>
                                    </g>
                                    <g transform="translate(6.634233, 0.000000)">
                                        <ellipse id="Oval" fill="#C1272D" cx="0.398053958" cy="0.403292181" rx="1" ry="1"></ellipse>
                                        <path d="M0.36856848,0.5610737 C0.250626566,0.5610737 0.147427392,0.531612421 0.0589709568,0.487420501 C0.103199174,0.649457538 0.235883827,0.752572016 0.412796698,0.752572016 C0.604452307,0.752572016 0.751879699,0.619996259 0.766622438,0.428497942 C0.663423264,0.516881781 0.530738611,0.5610737 0.36856848,0.5610737 Z" id="Shape" fill="#F26167"></path>
                                    </g>
                                    <g transform="translate(13.268465, 0.000000)">
                                        <ellipse id="Oval" fill="#C1272D" cx="0.36856848" cy="0.403292181" rx="1" ry="1"></ellipse>
                                        <path d="M0.324340262,0.5610737 C0.206398349,0.5610737 0.103199174,0.531612421 0.0147427392,0.487420501 C0.0589709568,0.649457538 0.19165561,0.752572016 0.36856848,0.752572016 C0.56022409,0.752572016 0.707651482,0.619996259 0.722394221,0.428497942 C0.619195046,0.516881781 0.486510394,0.5610737 0.324340262,0.5610737 Z" id="Shape" fill="#F26167"></path>
                                    </g>
                                </g>
                                <g transform="translate(0.000000, 3.906893)">
                                    <g>
                                        <ellipse id="Oval" fill="#C1272D" cx="0.442282176" cy="0.315072016" rx="1" ry="1"></ellipse>
                                        <path d="M0.412796698,0.472853535 C0.294854784,0.472853535 0.19165561,0.443392256 0.103199174,0.399200337 C0.147427392,0.561237374 0.280112045,0.664351852 0.457024915,0.664351852 C0.648680525,0.664351852 0.796107917,0.531776094 0.810850656,0.340277778 C0.707651482,0.428661616 0.574966829,0.472853535 0.412796698,0.472853535 Z" id="Shape" fill="#F26167"></path>
                                    </g>
                                    <g transform="translate(6.634233, 0.000000)">
                                        <ellipse id="Oval" fill="#C1272D" cx="0.398053958" cy="0.315072016" rx="1" ry="1"></ellipse>
                                        <path d="M0.36856848,0.472853535 C0.250626566,0.472853535 0.147427392,0.443392256 0.0589709568,0.399200337 C0.103199174,0.561237374 0.235883827,0.664351852 0.412796698,0.664351852 C0.604452307,0.664351852 0.751879699,0.531776094 0.766622438,0.340277778 C0.663423264,0.428661616 0.530738611,0.472853535 0.36856848,0.472853535 Z" id="Shape" fill="#F26167"></path>
                                    </g>
                                    <g transform="translate(13.268465, 0.000000)">
                                        <ellipse id="Oval" fill="#C1272D" cx="0.36856848" cy="0.315072016" rx="1" ry="1"></ellipse>
                                        <path d="M0.324340262,0.472853535 C0.206398349,0.472853535 0.103199174,0.443392256 0.0147427392,0.399200337 C0.0589709568,0.561237374 0.19165561,0.664351852 0.36856848,0.664351852 C0.56022409,0.664351852 0.707651482,0.531776094 0.722394221,0.340277778 C0.619195046,0.428661616 0.486510394,0.472853535 0.324340262,0.472853535 Z" id="Shape" fill="#F26167"></path>
                                    </g>
                                </g>
                            </g>
                            <path d="M6,25.0909091 C6,25.5944056 5.55384615,26 5,26 C4.44615385,26 4,25.5944056 4,25.0909091 L4,22.9090909 C4,22.4055944 4.44615385,22 5,22 C5.55384615,22 6,22.4055944 6,22.9090909 L6,25.0909091 Z" id="Shape" fill="#666666"></path>
                            <path d="M67,25.0909091 C67,25.5944056 66.5538462,26 66,26 C65.4461538,26 65,25.5944056 65,25.0909091 L65,22.9090909 C65,22.4055944 65.4461538,22 66,22 C66.5538462,22 67,22.4055944 67,22.9090909 L67,25.0909091 Z" id="Shape" fill="#666666"></path>
                            <rect id="Rectangle-path" fill="#C1272D" x="6" y="17" width="62" height="6"></rect>
                            <path d="M35,17.0526316 C35,17.5804511 34.5502031,18 33.9843297,18 L11.0156703,18 C10.4643064,18 10,17.5804511 10,17.0526316 L10,0.947368421 C10,0.419548872 10.4497969,0 11.0156703,0 L33.9843297,0 C34.5356936,0 35,0.419548872 35,0.947368421 L35,17.0526316 Z" id="Shape" fill="#D94147"></path>
                            <path d="M1,9.72091047 C1,9.72091047 2.97452254,8.28115934 4.66887634,8.14660315 C6.36323015,8.01204697 9.53847585,7.85057956 10.3522993,8.26770372 C11.1661228,8.68482788 11.1127573,10.6089813 10.739199,12.6811464 C10.739199,12.6811464 8.73799374,18.1710386 6.69676436,16.7716543 C4.64219361,15.3991813 1,9.72091047 1,9.72091047 Z" id="Shape" fill="#FF8085"></path>
                            <path d="M70,9.72091047 C70,9.72091047 68.0254775,8.28115934 66.3311237,8.14660315 C64.6367699,8.01204697 61.4615241,7.85057956 60.6477007,8.26770372 C59.8338772,8.68482788 59.8872427,10.6089813 60.260801,12.6811464 C60.260801,12.6811464 62.2620063,18.1710386 64.3032356,16.7716543 C66.344465,15.3991813 70,9.72091047 70,9.72091047 Z" id="Shape" fill="#FF8085"></path>
                            <path d="M8,15.2950242 C8,15.2950242 10.8131934,13.1704123 13.2014773,13.1704123 C15.5897612,13.1704123 24.4542507,13.1973061 25.728979,13.062837 C27.0037072,12.9283679 33.9341262,12.9283679 35.062334,13.9099924 C36.1905418,14.8916169 35.9854131,17.0027818 35.9854131,17.0027818 C35.9854131,17.0027818 9.21612004,20.135912 8,15.2950242 Z" id="Shape" fill="#F26167"></path>
                            <path d="M7.74587609,14.225951 C7.08949404,14.6880118 6.46165035,18.9543735 7.74587609,19.6782688 C9.03010182,20.4021641 33.1878148,19.6782688 33.1878148,19.6782688 C33.1878148,19.6782688 35,20.0941235 35,16.5978632 C35,13.1016029 33.6729667,14.6110017 24.9687701,14.6110017 C16.2645735,14.6110017 8.68764162,13.5482617 7.74587609,14.225951 Z" id="Shape" fill="#D94147"></path>
                            <path d="M64,15.2950242 C64,15.2950242 61.1868066,13.1704123 58.7985227,13.1704123 C56.4102388,13.1704123 47.5457493,13.1973061 46.271021,13.062837 C44.9962928,12.9283679 38.0658738,12.9283679 36.937666,13.9099924 C35.8094582,14.8916169 36.0145869,17.0027818 36.0145869,17.0027818 C36.0145869,17.0027818 62.7692279,20.135912 64,15.2950242 Z" id="Shape" fill="#F26167"></path>
                            <path d="M70.7135025,10 L68.008934,10 L65.9476142,10 C65.2897462,10 64.7488325,10.4568138 64.6903553,11.0479846 C64.6903553,11.0882917 64.6903553,11.1285988 64.6903553,11.168906 L64.6903553,13.0633397 L64.6903553,19.7677543 L35.9926904,19.7677543 L7.30964467,19.7677543 L7.30964467,13.0633397 L7.30964467,11.168906 C7.30964467,11.1285988 7.30964467,11.0882917 7.30964467,11.0479846 C7.25116751,10.4568138 6.71025381,10 6.05238579,10 L3.99106599,10 L1.27187817,10 C0.570152284,10 0,10.5239923 0,11.168906 L0,13.0633397 C0,13.7082534 0.570152284,14.2322457 1.27187817,14.2322457 L2.71918782,14.2322457 L2.71918782,20.7082534 L2.71918782,22.831094 L2.71918782,23.059501 C2.71918782,23.5834933 3.17238579,24 3.74253807,24 L3.99106599,24 L6.0377665,24 L35.9926904,24 L65.9476142,24 L68.008934,24 L68.2574619,24 C68.8276142,24 69.2808122,23.5834933 69.2808122,23.059501 L69.2808122,22.831094 L69.2808122,20.6948177 L69.2808122,14.21881 L70.7281218,14.21881 C71.4298477,14.21881 72,13.6948177 72,13.049904 L72,11.1554702 C71.9853807,10.5105566 71.4152284,10 70.7135025,10 Z" id="Shape" fill="#D94147"></path>
                            <path d="M63.2541239,14.225951 C63.910506,14.6880118 64.5383496,18.9543735 63.2541239,19.6782688 C61.9698982,20.4021641 37.8121852,19.6782688 37.8121852,19.6782688 C37.8121852,19.6782688 36,20.0941235 36,16.5978632 C36,13.1016029 37.3270333,14.6110017 46.0312299,14.6110017 C54.7354265,14.6110017 62.2980892,13.5482617 63.2541239,14.225951 Z" id="Shape" fill="#D94147"></path>
                            <g id="Group" transform="translate(16.000000, 4.000000)">
                                <g>
                                    <ellipse id="Oval" fill="#C1272D" cx="0.510295139" cy="0.8" rx="1" ry="1"></ellipse>
                                    <path d="M0.479368161,1.15681818 C0.355660248,1.15681818 0.247415825,1.08863636 0.154634891,0.986363636 C0.201025358,1.36136364 0.340196759,1.6 0.525758628,1.6 C0.726783986,1.6 0.881418876,1.29318182 0.896882365,0.85 C0.773174453,1.05454545 0.634003051,1.15681818 0.479368161,1.15681818 Z" id="Shape" fill="#F26167"></path>
                                </g>
                                <g transform="translate(6.958570, 0.000000)">
                                    <ellipse id="Oval" fill="#C1272D" cx="0.463904672" cy="0.8" rx="1" ry="1"></ellipse>
                                    <path d="M0.432977694,1.15681818 C0.309269781,1.15681818 0.201025358,1.08863636 0.108244423,0.986363636 C0.154634891,1.36136364 0.293806292,1.6 0.479368161,1.6 C0.680393519,1.6 0.835028409,1.29318182 0.850491898,0.85 C0.726783986,1.05454545 0.587612584,1.15681818 0.432977694,1.15681818 Z" id="Shape" fill="#F26167"></path>
                                </g>
                                <g transform="translate(13.917140, 0.000000)">
                                    <ellipse id="Oval" fill="#C1272D" cx="0.417514205" cy="0.8" rx="1" ry="1"></ellipse>
                                    <path d="M0.386587226,1.15681818 C0.262879314,1.15681818 0.154634891,1.08863636 0.0618539562,0.986363636 C0.108244423,1.36136364 0.247415825,1.6 0.432977694,1.6 C0.634003051,1.6 0.788637942,1.29318182 0.804101431,0.85 C0.680393519,1.05454545 0.541222117,1.15681818 0.386587226,1.15681818 Z" id="Shape" fill="#F26167"></path>
                                </g>
                            </g>
                            <g id="Group" transform="translate(16.000000, 9.000000)">
                                <g>
                                    <ellipse id="Oval" fill="#C1272D" cx="0.510295139" cy="0.75" rx="1" ry="1"></ellipse>
                                    <path d="M0.479368161,1.11681818 C0.355660248,1.11681818 0.247415825,1.04863636 0.154634891,0.946363636 C0.201025358,1.32136364 0.340196759,1.56 0.525758628,1.56 C0.726783986,1.56 0.881418876,1.25318182 0.896882365,0.81 C0.773174453,1.01454545 0.634003051,1.11681818 0.479368161,1.11681818 Z" id="Shape" fill="#F26167"></path>
                                </g>
                                <g transform="translate(6.958570, 0.000000)">
                                    <ellipse id="Oval" fill="#C1272D" cx="0.463904672" cy="0.75" rx="1" ry="1"></ellipse>
                                    <path d="M0.432977694,1.11681818 C0.309269781,1.11681818 0.201025358,1.04863636 0.108244423,0.946363636 C0.154634891,1.32136364 0.293806292,1.56 0.479368161,1.56 C0.680393519,1.56 0.835028409,1.25318182 0.850491898,0.81 C0.726783986,1.01454545 0.587612584,1.11681818 0.432977694,1.11681818 Z" id="Shape" fill="#F26167"></path>
                                </g>
                                <g transform="translate(13.917140, 0.000000)">
                                    <ellipse id="Oval" fill="#C1272D" cx="0.417514205" cy="0.75" rx="1" ry="1"></ellipse>
                                    <path d="M0.386587226,1.11681818 C0.262879314,1.11681818 0.154634891,1.04863636 0.0618539562,0.946363636 C0.108244423,1.32136364 0.247415825,1.56 0.432977694,1.56 C0.634003051,1.56 0.788637942,1.25318182 0.804101431,0.81 C0.680393519,1.01454545 0.541222117,1.11681818 0.386587226,1.11681818 Z" id="Shape" fill="#F26167"></path>
                                </g>
                            </g>
                        </g>
                        <g id="wash-machine">
                            <g id="Group" fill-rule="nonzero">
                                <rect id="Rectangle-path" fill="#405F79" x="0.00153061224" y="0" width="26.9877551" height="7.03036723"></rect>
                                <polygon id="Shape" fill="#809FA3" points="0.00153061224 7.03036723 0.00153061224 7.1970339 0.00153061224 7.36370056 26.9877551 7.36370056 26.9877551 7.1970339 26.9877551 7.03036723"></polygon>
                            </g>
                            <circle id="Oval" fill="#405F79" fill-rule="nonzero" cx="13" cy="17" r="6"></circle>
                            <path d="M20.3639912,10.6360088 C19.5377567,9.80977431 18.5755982,9.16069913 17.5034787,8.70711013 C16.3931783,8.23824877 15.2156796,8 14,8 C12.7858476,8 11.6068217,8.23824877 10.4965213,8.70711013 C9.42440183,9.16069913 8.46224334,9.80977431 7.63600882,10.6360088 C6.80977431,11.4622433 6.16069913,12.4244018 5.70711013,13.4965213 C5.23824877,14.6068217 5,15.7843204 5,17 C5,18.2156796 5.23824877,19.3931783 5.70711013,20.5034787 C6.16069913,21.5755982 6.80977431,22.5377567 7.63600882,23.3639912 C8.46224334,24.1902257 9.42440183,24.8393009 10.4965213,25.2928899 C11.6068217,25.7617512 12.7843204,26 14,26 C15.2141524,26 16.3931783,25.7617512 17.5034787,25.2928899 C18.5755982,24.8393009 19.5377567,24.1902257 20.3639912,23.3639912 C21.1902257,22.5377567 21.8393009,21.5755982 22.2928899,20.5034787 C22.7617512,19.3931783 23,18.2156796 23,17 C23,15.7858476 22.7617512,14.6068217 22.2928899,13.4965213 C21.8393009,12.4244018 21.1902257,11.4622433 20.3639912,10.6360088 Z M14,25.5952825 C9.26098761,25.5952825 5.40471746,21.7390124 5.40471746,17 C5.40471746,12.2609876 9.26098761,8.40471746 14,8.40471746 C18.7390124,8.40471746 22.5952825,12.2609876 22.5952825,17 C22.5952825,21.7390124 18.7390124,25.5952825 14,25.5952825 Z" id="Shape" fill="#405F79" fill-rule="nonzero"></path>
                            <g id="Group" transform="translate(0.000000, 8.000000)">
                                <path d="M21.805102,5.50785865 C21.3505102,4.43412447 20.7,3.47051688 19.8719388,2.64303797 C19.0438776,1.81555907 18.0795918,1.16550633 17.005102,0.711234177 C15.8923469,0.241666667 14.7122449,0.00305907173 13.4938776,0.00305907173 C12.2770408,0.00305907173 11.0954082,0.241666667 9.98265306,0.711234177 C8.90816327,1.16550633 7.94387755,1.81555907 7.11581633,2.64303797 C6.2877551,3.47051688 5.6372449,4.43412447 5.18265306,5.50785865 C4.7127551,6.61983122 4.47397959,7.79910338 4.47397959,9.01661392 C4.47397959,10.2341245 4.7127551,11.4133966 5.18265306,12.5253692 C5.6372449,13.5991034 6.2877551,14.562711 7.11581633,15.3901899 C7.94387755,16.2176688 8.90816327,16.8677215 9.98265306,17.3219937 C11.0954082,17.7915612 12.2755102,18.0301688 13.4938776,18.0301688 C14.7107143,18.0301688 15.8923469,17.7915612 17.005102,17.3219937 C18.0795918,16.8677215 19.0438776,16.2176688 19.8719388,15.3901899 C20.7,14.562711 21.3505102,13.5991034 21.805102,12.5253692 C22.275,11.4133966 22.5137755,10.2341245 22.5137755,9.01661392 C22.5153061,7.79910338 22.2765306,6.61983122 21.805102,5.50785865 Z" id="Shape"></path>
                                <rect id="Rectangle-path" fill="#FFFDFD" fill-rule="nonzero" x="0.00153061224" y="24.6668249" width="26.9877551" height="4.32705696"></rect>
                                <rect id="Rectangle-path" fill="#8EA5AD" fill-rule="nonzero" x="0.00153061224" y="24.5750527" width="26.9877551" height="1"></rect>
                                <rect id="Rectangle-path" fill="#8EA5AD" fill-rule="nonzero" x="0.00153061224" y="24.4832806" width="26.9877551" height="1"></rect>
                            </g>
                            <path d="M25,35.7768943 C25,35.9003742 24.8859987,36 24.7447013,36 L20.2552987,36 C20.1140013,36 20,35.9003742 20,35.7768943 L20,33.2231057 C20,33.0996258 20.1140013,33 20.2552987,33 L24.7447013,33 C24.8859987,33 25,33.0996258 25,33.2231057 L25,35.7768943 Z" id="Shape" fill="#405F79" fill-rule="nonzero"></path>
                            <path d="M8,3.76280457 C8,3.89408255 7.89922952,4 7.7743309,4 L1.2256691,4 C1.10077048,4 1,3.89408255 1,3.76280457 L1,1.23719543 C1,1.10591745 1.10077048,1 1.2256691,1 L7.7743309,1 C7.89922952,1 8,1.10591745 8,1.23719543 L8,3.76280457 Z" id="Shape" fill="#303B51" fill-rule="nonzero"></path>
                            <g id="Group" transform="translate(22.000000, 1.000000)" fill-rule="nonzero">
                                <g transform="translate(0.243161, 0.244026)">
                                    <ellipse id="Oval" fill="#466F7B" cx="1.89665653" cy="1.89883071" rx="1.75835866" ry="1.76461617"></ellipse>
                                    <path d="M1.89665653,3.79461108 C0.8556231,3.79461108 0.00759878419,2.94356889 0.00759878419,1.89883071 C0.00759878419,0.854092527 0.8556231,0.00305033045 1.89665653,0.00305033045 C2.93768997,0.00305033045 3.78571429,0.854092527 3.78571429,1.89883071 C3.78571429,2.94356889 2.93920973,3.79461108 1.89665653,3.79461108 Z M1.89665653,0.265378749 C0.998480243,0.265378749 0.26899696,0.997458058 0.26899696,1.89883071 C0.26899696,2.79867819 0.998480243,3.53228266 1.89665653,3.53228266 C2.79331307,3.53228266 3.52431611,2.80020336 3.52431611,1.89883071 C3.52431611,0.997458058 2.79483283,0.265378749 1.89665653,0.265378749 Z" id="Shape" fill="#809FA3"></path>
                                </g>
                                <g id="Shape">
                                    <path d="M4.06382979,2.00711744 L4.27051672,2.00711744 C4.24012158,1.5175394 4.04559271,1.07219115 3.74164134,0.725978648 L3.59574468,0.872394509 C3.87234043,1.19115404 4.03495441,1.58617184 4.06382979,2.00711744 Z" fill="#D22A2A"></path>
                                    <path d="M0.685410334,0.873919675 L0.539513678,0.727503813 C0.23556231,1.07371632 0.0410334347,1.51906457 0.0106382979,2.0086426 L0.217325228,2.0086426 C0.246200608,1.58617184 0.40881459,1.19115404 0.685410334,0.873919675 Z" fill="#4492CE"></path>
                                    <path d="M3.40425532,0.681748856 L3.55015198,0.535332994 C3.20516717,0.230299949 2.76139818,0.0350788002 2.27355623,0.00457549568 L2.27355623,0.211997966 C2.69452888,0.240976106 3.0881459,0.40569395 3.40425532,0.681748856 Z" fill="#D22A2A"></path>
                                    <path d="M2.00455927,0.211997966 L2.00455927,0.00457549568 C1.51671733,0.0350788002 1.07294833,0.230299949 0.727963526,0.535332994 L0.873860182,0.681748856 C1.19300912,0.40569395 1.58510638,0.240976106 2.00455927,0.211997966 Z" fill="#4492CE"></path>
                                    <path d="M2.27507599,4.07371632 L2.27507599,4.28113879 C2.76291793,4.25063549 3.20668693,4.05541434 3.55167173,3.75038129 L3.40577508,3.60396543 C3.0881459,3.88002034 2.69452888,4.04473818 2.27507599,4.07371632 Z" fill="#D22A2A"></path>
                                    <path d="M0.217325228,2.27859685 L0.0106382979,2.27859685 C0.0410334347,2.76817489 0.23556231,3.21352313 0.539513678,3.55973564 L0.685410334,3.41331978 C0.40881459,3.09303508 0.246200608,2.69954245 0.217325228,2.27859685 Z" fill="#4492CE"></path>
                                    <path d="M4.06382979,2.27859685 C4.03495441,2.69954245 3.87234043,3.09456024 3.59574468,3.41179461 L3.74164134,3.55821047 C4.04559271,3.21199797 4.24012158,2.76664972 4.27051672,2.27707168 L4.06382979,2.27707168 L4.06382979,2.27859685 Z" fill="#D22A2A"></path>
                                    <path d="M0.875379939,3.60396543 L0.729483283,3.75038129 C1.07446809,4.05541434 1.51823708,4.25063549 2.00607903,4.28113879 L2.00607903,4.07371632 C1.58510638,4.04473818 1.19300912,3.88002034 0.875379939,3.60396543 Z" fill="#4492CE"></path>
                                </g>
                            </g>
                            <g id="Group" transform="translate(18.000000, 1.000000)" fill-rule="nonzero">
                                <g transform="translate(0.231180, 0.231180)">
                                    <circle id="Oval" fill="#466F7B" cx="1.90989923" cy="1.91167753" r="1.75340842"></circle>
                                    <path d="M1.90989923,3.81802015 C0.858921162,3.81802015 0.00355660937,2.9626556 0.00355660937,1.91167753 C0.00355660937,0.860699467 0.858921162,0.00533491405 1.90989923,0.00533491405 C2.9608773,0.00533491405 3.81624185,0.860699467 3.81624185,1.91167753 C3.81802015,2.9626556 2.9626556,3.81802015 1.90989923,3.81802015 Z M1.90989923,0.31120332 C1.02786011,0.31120332 0.309425015,1.02963841 0.309425015,1.91167753 C0.309425015,2.79371666 1.02786011,3.51215175 1.90989923,3.51215175 C2.79193835,3.51215175 3.51037344,2.79371666 3.51037344,1.91167753 C3.51037344,1.02963841 2.79371666,0.31120332 1.90989923,0.31120332 Z" id="Shape" fill="#809FA3"></path>
                                </g>
                                <g id="Shape">
                                    <path d="M4.07053942,2.00770599 L4.27860107,2.00770599 C4.24836989,1.5186722 4.05275637,1.07409603 3.74866627,0.727326615 L3.60106698,0.874925904 C3.87848251,1.19324244 4.04208654,1.58624778 4.07053942,2.00770599 Z" fill="#D22A2A"></path>
                                    <path d="M0.681090694,0.874925904 L0.533491405,0.727326615 C0.229401304,1.07231772 0.033787789,1.51689389 0.00355660937,2.00770599 L0.211618257,2.00770599 C0.241849437,1.58624778 0.405453468,1.19324244 0.681090694,0.874925904 Z" fill="#4492CE"></path>
                                    <path d="M3.40901008,0.682868998 L3.55660937,0.53526971 C3.21161826,0.231179609 2.76704209,0.0355660937 2.27622999,0.00533491405 L2.27622999,0.213396562 C2.6976882,0.243627742 3.09247184,0.405453468 3.40901008,0.682868998 Z" fill="#D22A2A"></path>
                                    <path d="M2.00592768,0.213396562 L2.00592768,0.00533491405 C1.51689389,0.0355660937 1.07231772,0.231179609 0.725548311,0.53526971 L0.873147599,0.682868998 C1.19146414,0.405453468 1.58624778,0.243627742 2.00592768,0.213396562 Z" fill="#4492CE"></path>
                                    <path d="M2.27622999,4.07231772 L2.27622999,4.28037937 C2.76526378,4.25014819 3.20983995,4.05453468 3.55660937,3.75044458 L3.40901008,3.60284529 C3.09247184,3.87848251 2.6976882,4.04208654 2.27622999,4.07231772 Z" fill="#D22A2A"></path>
                                    <path d="M0.213396562,2.2780083 L0.00533491405,2.2780083 C0.0355660937,2.76704209 0.231179609,3.21161826 0.53526971,3.55838767 L0.682868998,3.41078838 C0.405453468,3.09247184 0.241849437,2.69946651 0.213396562,2.2780083 Z" fill="#4492CE"></path>
                                    <path d="M4.07053942,2.2780083 C4.04208654,2.69946651 3.87848251,3.09247184 3.60106698,3.41078838 L3.74866627,3.55838767 C4.05275637,3.21339656 4.24836989,2.76882039 4.27860107,2.2780083 L4.07053942,2.2780083 Z" fill="#D22A2A"></path>
                                    <path d="M0.873147599,3.60284529 L0.725548311,3.75044458 C1.07053942,4.05453468 1.51511559,4.25014819 2.00592768,4.28037937 L2.00592768,4.07231772 C1.58624778,4.04208654 1.19146414,3.87848251 0.873147599,3.60284529 Z" fill="#4492CE"></path>
                                </g>
                            </g>
                            <g id="Group" transform="translate(0.000000, 7.000000)">
                                <path d="M9.98418367,17.8842649 C11.0969388,18.3505468 12.2770408,18.5874848 13.4954082,18.5874848 C14.7122449,18.5874848 15.8938776,18.3505468 17.0066327,17.8842649 C18.0811224,17.4331713 19.0454082,16.7876671 19.8734694,15.9659781 C20.7015306,15.1442892 21.3520408,14.1874241 21.8066327,13.1212029 C22.2765306,12.0170109 22.5153061,10.8459903 22.5153061,9.63699878 C22.5153061,8.42952612 22.2765306,7.25698663 21.8066327,6.15279465 C21.655102,5.79586877 21.4806122,5.45261239 21.2862245,5.12150668 L8.51632653,17.1005468 C8.97704082,17.4058323 9.46836735,17.6670717 9.98418367,17.8842649 Z" id="Shape"></path>
                                <path d="M17.005102,1.38973269 C15.8923469,0.92345079 14.7122449,0.686512758 13.4938776,0.686512758 C12.2770408,0.686512758 11.0954082,0.92345079 9.98265306,1.38973269 C8.90816327,1.84082625 7.94387755,2.4863305 7.11581633,3.30801944 C6.2877551,4.12970838 5.6372449,5.08657351 5.18265306,6.15279465 C4.7127551,7.25698663 4.47397959,8.42800729 4.47397959,9.63699878 C4.47397959,10.8459903 4.7127551,12.0170109 5.18265306,13.1212029 C5.6372449,14.1874241 6.2877551,15.1442892 7.11581633,15.9659781 C7.54591837,16.3927704 8.01428571,16.7724787 8.51326531,17.1005468 L21.2831633,5.12150668 C20.8943878,4.46233293 20.4229592,3.85479951 19.8719388,3.30801944 C19.0438776,2.4863305 18.0795918,1.84082625 17.005102,1.38973269 Z" id="Shape"></path>
                                <path d="M7.11734694,15.9659781 C6.28928571,15.1442892 5.63877551,14.1874241 5.18418367,13.1212029 C4.71428571,12.0170109 4.4755102,10.8459903 4.4755102,9.63699878 C4.4755102,8.42952612 4.71428571,7.25698663 5.18418367,6.15279465 C5.63877551,5.08657351 6.28928571,4.12970838 7.11734694,3.30801944 C7.94540816,2.4863305 8.90969388,1.84082625 9.98418367,1.38973269 C11.0969388,0.92345079 12.2770408,0.686512758 13.4954082,0.686512758 C14.7122449,0.686512758 15.8938776,0.92345079 17.0066327,1.38973269 C18.0811224,1.84082625 19.0454082,2.4863305 19.8734694,3.30801944 C20.4244898,3.85479951 20.897449,4.46233293 21.2846939,5.12150668 L26.7428571,0.00151883354 L0.00153061224,0.00151883354 L0.00153061224,24.9969623 L0.0994897959,24.9969623 L8.51479592,17.1020656 C8.01428571,16.7724787 7.54744898,16.3927704 7.11734694,15.9659781 Z" id="Shape" fill="#FFFDFD" fill-rule="nonzero"></path>
                                <path d="M26.7428571,0.00151883354 L21.2846939,5.12150668 C21.4790816,5.45261239 21.6535714,5.79586877 21.805102,6.15279465 C22.275,7.25698663 22.5137755,8.42800729 22.5137755,9.63699878 C22.5137755,10.8459903 22.275,12.0170109 21.805102,13.1212029 C21.3505102,14.1874241 20.7,15.1442892 19.8719388,15.9659781 C19.0438776,16.7876671 18.0795918,17.4331713 17.005102,17.8842649 C15.8923469,18.3505468 14.7122449,18.5874848 13.4938776,18.5874848 C12.2770408,18.5874848 11.0954082,18.3505468 9.98265306,17.8842649 C9.46683673,17.6670717 8.9755102,17.4058323 8.51326531,17.1020656 L0.0979591837,24.9969623 L26.9877551,24.9969623 L26.9877551,0.00151883354 L26.7428571,0.00151883354 Z" id="Shape" fill="#E8E7E7" fill-rule="nonzero"></path>
                            </g>
                            <path d="M19.9008765,19.5712989 C19.9008765,19.5712989 18.441745,20.193714 17.7782242,19 C17.5125087,19.4765835 17.122383,19.6630074 16.7460807,19.7171304 C16.3713143,19.6645108 15.9796527,19.4765835 15.7139372,19 C15.4128953,19.5412305 14.950581,19.7081099 14.5328087,19.7306612 C14.5312727,19.7306612 14.5282009,19.7306612 14.5266649,19.7306612 C14.5159134,19.7306612 14.505162,19.7321646 14.4959464,19.7321646 C14.4882667,19.7321646 14.4805871,19.7321646 14.4729075,19.7321646 C14.4667638,19.7321646 14.46062,19.7321646 14.4544763,19.7321646 C14.4467967,19.7321646 14.440653,19.7321646 14.4329733,19.7321646 C14.4252937,19.7321646 14.41915,19.7321646 14.4114704,19.7321646 C14.4053266,19.7321646 14.3991829,19.7321646 14.3930392,19.7321646 C14.3853596,19.7321646 14.3776799,19.7321646 14.3700003,19.7321646 C14.3592488,19.7321646 14.3484973,19.7306612 14.3392817,19.7306612 C14.3377458,19.7306612 14.334674,19.7306612 14.333138,19.7306612 C13.9153657,19.7081099 13.4530514,19.5397271 13.1520095,19 C12.8509677,19.5412305 12.3855815,19.7096134 11.9678092,19.7306612 C11.5500368,19.7096134 11.0846506,19.5412305 10.7836088,19 C10.4825669,19.5412305 10.0202526,19.7081099 9.60248027,19.7306612 C9.60094434,19.7306612 9.59787249,19.7306612 9.59633656,19.7306612 C9.58558506,19.7306612 9.57483357,19.7321646 9.565618,19.7321646 C9.55793836,19.7321646 9.55025872,19.7321646 9.54257908,19.7321646 C9.53643537,19.7321646 9.53029166,19.7321646 9.52414795,19.7321646 C9.51646831,19.7321646 9.5103246,19.7321646 9.50264496,19.7321646 C9.49496532,19.7321646 9.48882161,19.7321646 9.48114197,19.7321646 C9.47499826,19.7321646 9.46885455,19.7321646 9.46271084,19.7321646 C9.4550312,19.7321646 9.44735156,19.7321646 9.43967192,19.7321646 C9.42892042,19.7321646 9.41816893,19.7306612 9.40895336,19.7306612 C9.40741743,19.7306612 9.40434558,19.7306612 9.40280965,19.7306612 C8.98503728,19.7081099 8.522723,19.5397271 8.22168114,19 C7.55816031,20.193714 6.09902886,19.5712989 6.09902886,19.5712989 C5.44779545,20.7875642 8.22168114,23.0081127 8.22168114,23.0081127 C8.22168114,23.0081127 8.37527392,24.0710294 8.98042949,23.3764502 C9.58712099,24.0710294 10.332046,23.9612798 10.332046,23.9612798 C10.332046,23.9612798 10.8542615,24.8362692 11.4317703,24.1958131 C12.0108151,24.8362692 13.0583179,24.96857 13.0583179,24.96857 C13.0583179,24.96857 13.6834406,25.1835588 14.2901321,24.4889796 C14.8968236,25.1835588 15.7369761,23.8094346 15.7369761,23.8094346 C15.7369761,23.8094346 16.249976,24.0860635 16.7767992,23.5282954 C17.3051584,24.0860635 17.781296,23.0066093 17.781296,23.0066093 C17.781296,23.0066093 20.5521099,20.7875642 19.9008765,19.5712989 Z" id="Shape" fill="#70DFEA" fill-rule="nonzero"></path>
                            <path d="M13.5,8 C8.81352168,8 5,12.0378465 5,17 C5,21.9621535 8.81352168,26 13.5,26 C18.1864783,26 22,21.9621535 22,17 C22,12.0378465 18.1864783,8 13.5,8 Z M13,24 C9.68555667,24 7,21.0890171 7,17.5 C7,13.9093531 9.68706118,11 13,11 C16.3144433,11 19,13.9109829 19,17.5 C19,21.0890171 16.3129388,24 13,24 Z" id="Shape" fill="#809FA3" fill-rule="nonzero"></path>
                            <g id="Group" transform="translate(18.000000, 16.000000)" fill-rule="nonzero">
                                <path d="M1.74747475,0.130188679 C0.875420875,0.130188679 0.17003367,0.724528302 0.17003367,1.45613208 L0.17003367,1.52830189 C0.17003367,2.26132075 0.877104377,2.85424528 1.74747475,2.85424528 L4.84006734,2.85424528 L4.84006734,0.130188679 L1.74747475,0.130188679 Z" id="Shape" fill="#809FA3"></path>
                                <path d="M4.84175084,0.130188679 L4.84175084,2.85424528 L1.74915825,2.85424528 C0.877104377,2.85424528 0.171717172,2.25990566 0.171717172,1.52830189 L0.171717172,1.45613208 C0.171717172,0.723113208 0.878787879,0.130188679 1.74915825,0.130188679 L4.84175084,0.130188679 Z M4.996633,0 L4.84006734,0 L1.74747475,0 C0.791245791,0 0.0134680135,0.653773585 0.0134680135,1.45754717 L0.0134680135,1.52971698 C0.0134680135,2.33349057 0.791245791,2.98726415 1.74747475,2.98726415 L4.84006734,2.98726415 L4.996633,2.98726415 L4.996633,2.85566038 L4.996633,0.131603774 L4.996633,0 Z" id="Shape" fill="#405F79"></path>
                            </g>
                            <circle id="Oval" fill="#70DFEA" fill-rule="nonzero" cx="11.5" cy="17.5" r="1"></circle>
                        </g>
                        <g id="lamp" transform="translate(89.000000, 2.000000)" fill-rule="nonzero">
                            <path d="M4.62383613,33.7777778 C5.48044693,33.3111111 7.11918063,33 9,33 C10.8808194,33 12.5195531,33.3111111 13.3761639,33.7777778 L14,33.7777778 L14,34.5 C14,35.3333333 11.7653631,36 9,36 C6.23463687,36 4,35.3333333 4,34.5 L4,33.7777778 L4.62383613,33.7777778 Z" id="Shape" fill="#BDBDBD"></path>
                            <ellipse id="Oval" fill="#FFFFFF" cx="9" cy="34.5" rx="5" ry="1.5"></ellipse>
                            <path d="M9.30150956,34 C9.09566928,34 8.92562731,33.8359358 8.92562731,33.6373319 C8.92562731,26.4875885 10.4828538,19.5191791 11.7357946,13.9237278 C12.8365926,8.99316804 13.7136512,5.09880298 12.9797859,3.36317687 C12.129576,1.33396226 10.5812991,0.669070661 9.41785407,0.729515352 C8.16491324,0.789960042 7.13571184,1.63618571 6.73298086,2.93142908 C6.67033382,3.1213981 6.46449354,3.23365253 6.26760284,3.17320784 C6.07071214,3.11276315 5.95436764,2.91415917 6.01701468,2.72419014 C6.50924143,1.11808836 7.79798057,0.0732587121 9.38205576,0.0041790658 C10.796089,-0.0649005805 12.6755002,0.71224544 13.6778529,3.09549324 C14.4922644,5.02972333 13.6420546,8.82910388 12.4696599,14.079157 C11.2256687,19.6400685 9.67739181,26.5653031 9.67739181,33.6459668 C9.67739181,33.8359358 9.50734984,34 9.30150956,34 Z" id="Shape" fill="#FFFFFF"></path>
                            <path d="M4.03506041,4.83938734 C3.92033622,5.16978449 4.09683497,5.53590025 4.42335765,5.64305608 L5.358801,5.96452357 C5.68532368,6.08060906 6.04714611,5.902016 6.15304536,5.57161886 L6.96493959,3.16061266 C7.07966378,2.83021551 6.90316503,2.46409975 6.57664235,2.35694392 L5.641199,2.03547643 C5.31467632,1.91939094 4.95285389,2.097984 4.84695464,2.42838114 L4.03506041,4.83938734 Z" id="Shape" fill="#F2F2F2"></path>
                            <path d="M2.67604894,4.91049672 C4.30010928,3.40385677 5.80322895,4.22148455 5.80322895,4.22148455 C5.80322895,4.22148455 7.46184377,4.54302356 7.88513609,6.79379667 C8.23068084,8.64034931 7.68644786,10 7.68644786,10 L4.32602513,8.83327271 L1.00015688,7.58386397 C0.991518264,7.5930508 1.33706302,6.15990547 2.67604894,4.91049672 Z" id="Shape" fill="#D5D5D5"></path>
                            <ellipse id="Oval" fill="#1A1A1A" transform="translate(3.500000, 8.500000) rotate(-71.222618) translate(-3.500000, -8.500000) " cx="3.5" cy="8.5" rx="1" ry="3.5"></ellipse>
                            <ellipse id="Oval" fill="#E6E6E6" transform="translate(4.500000, 8.500000) rotate(-71.217193) translate(-4.500000, -8.500000) " cx="4.5" cy="8.5" rx="1" ry="3.5"></ellipse>
                            <path d="M5,8.56406865 C4.75117433,8.92157695 4.21524211,9.08841416 3.72716098,8.95335547 C3.23907985,8.81829678 2.94240309,8.4131207 3.00939462,8 L5,8.56406865 Z" id="Shape" fill="#FFFFFF"></path>
                        </g>
                        <g id="box-(4)" transform="translate(669.000000, 7.000000)" fill-rule="nonzero">
                            <path d="M29,13.3333305 L29,28 L22.0000299,28 L7.99997005,28 L1,28 L1,13.3333305 C1,12.9651514 1.2984611,12.6666909 1.666641,12.6666909 L7.99997005,12.6666909 L7.99997005,0.666639571 C7.99997005,0.298460466 8.29843116,0 8.66661105,0 L13.0324807,0 C13.3956293,0 13.6847467,0.303970874 13.6665982,0.666639571 L16.333282,0.666639571 L16.3328627,0.6507672 C16.3239981,0.294088077 16.6107795,0 16.9676391,0 L21.3333291,0 C21.7015089,0 21.9999701,0.298460466 21.9999701,0.666639571 L21.9999701,12.666631 L28.3332991,12.666631 C28.7015389,12.666631 29,12.9650915 29,13.3333305 Z" id="Shape" fill="#BC8E50"></path>
                            <path d="M23,0.666640558 L23,13.3332903 L21.00002,13.3332903 L21.00002,0 L22.33336,0 C22.7014794,0 23,0.298460908 23,0.666640558 Z M14,26 L16.66668,26 L16.66668,12.6666498 L14,12.6666498 L14,26 Z" id="Shape" fill="#996633"></path>
                            <path d="M30,13.7273084 L30,29 L16,29 L16,13 L29.333359,13 C29.7015389,13 30,13.3255932 30,13.7273084 Z" id="Shape" fill="#D9B166"></path>
                            <path d="M28,27 L27,27 L27,13 L27.6666766,13 C27.8507682,13 28,13.2984611 28,13.666641 L28,27 Z" id="Shape" fill="#BC8E50"></path>
                            <path d="M31,27.4285348 L31,29.5714011 C31,30.3604323 30.3965898,31 29.652166,31 L1.34783398,31 C0.603410156,31.0000642 0,30.3604323 0,29.5714652 L0,27.4285989 C0,26.6395677 0.603410156,26 1.34783398,26 L29.652166,26 C30.3965898,26 31,26.6395677 31,27.4285348 Z" id="Shape" fill="#FFE473"></path>
                            <path d="M13.00002,0 L17.0000399,0 L17.0000399,4.08002199 L13.00002,2.72001466 L13.00002,0 Z M6,15.6399927 L10.00002,17 L10.00002,12.919978 L6,12.919978 L6,15.6399927 Z M19.99998,12.919978 L19.99998,15.6399927 L24,17 L24,12.919978 L19.99998,12.919978 Z" id="Shape" fill="#FFD34E"></path>
                            <path d="M19.9999965,10.5122056 C19.9999965,10.7950599 19.7761066,11.0244112 19.4999877,11.0244112 L17.5000123,11.0244112 C17.2238934,11.0244112 17.0000035,10.7950599 17.0000035,10.5122056 C17.0000035,10.2293513 17.2238934,10 17.5000123,10 L19.4999877,10 C19.7761066,10 19.9999965,10.2293513 19.9999965,10.5122056 Z M12.4999841,22.9755888 L10.5000088,22.9755888 C10.2238899,22.9755888 10,23.2049401 10,23.4877944 C10,23.7706487 10.2238899,24 10.5000088,24 L12.4999841,24 C12.776103,24 12.999993,23.7706487 12.999993,23.4877944 C12.999993,23.2049401 12.7761629,22.9755888 12.4999841,22.9755888 Z M26.4999912,22.9755888 L24.5000159,22.9755888 C24.223897,22.9755888 24.000007,23.2049401 24.000007,23.4877944 C24.000007,23.7706487 24.223897,24 24.5000159,24 L26.4999912,24 C26.7761101,24 27,23.7706487 27,23.4877944 C26.9999401,23.2049401 26.7761101,22.9755888 26.4999912,22.9755888 Z" id="Shape" fill="#4C3623"></path>
                            <path d="M31,28 L31,28.3333234 C31,28.7015363 30.3965898,29 29.652166,29 L1.34783398,29 C0.603410156,29.0000299 0,28.7015363 0,28.3333533 L0,28.0000299 L31,28.0000299 L31,28 Z" id="Shape" fill="#D9B166"></path>
                            <path d="M9.55554862,28.7500337 L9.55554862,30.2500337 C9.55554862,30.6642334 9.24465053,31 8.86112844,31 L4.69442018,31 C4.31089809,31 4,30.6642334 4,30.2500337 L4,28.7500337 C4,28.335834 4.31089809,28.0000674 4.69442018,28.0000674 L8.86112844,28.0000674 C9.24465053,28 9.55554862,28.3357666 9.55554862,28.7500337 Z M28.3055798,28 L24.1388716,28 C23.7553495,28 23.4444514,28.3357666 23.4444514,28.7499663 L23.4444514,30.2499663 C23.4444514,30.664166 23.7553495,30.9999326 24.1388716,30.9999326 L28.3055798,30.9999326 C28.6891019,30.9999326 29,30.664166 29,30.2499663 L29,28.7499663 C29.0000624,28.3357666 28.6891643,28 28.3055798,28 Z" id="Shape" fill="#996633"></path>
                            <path d="M29,28.566031 L29,29 L23.4444652,29 L23.4444652,28.566031 C23.4444652,28.2534452 23.7553626,28.0000509 24.1388837,28.0000509 L28.3055816,28.0000509 C28.6891027,28 29,28.2533944 29,28.566031 Z M8.86105392,28 L4.69441845,28 C4.31089732,28 4,28.2533944 4,28.5659802 L4,28.9999491 L9.55553476,28.9999491 L9.55553476,28.5659802 C9.55553476,28.2533944 9.24463744,28 8.86105392,28 Z" id="Shape" fill="#BC8E50"></path>
                        </g>
                        <g id="delivery-(1)" transform="translate(697.000000, 6.000000)" fill-rule="nonzero">
                            <polygon id="Shape" fill="#1D5C88" points="8 31 19 31 19 32 8 32"></polygon>
                            <circle id="Oval" fill="#8D8D8D" cx="19" cy="28" r="3"></circle>
                            <circle id="Oval" fill="#D1E3EE" cx="19" cy="28" r="1"></circle>
                            <g id="Group" transform="translate(0.000000, 11.000000)" fill="#FF3F32">
                                <polygon id="Shape" points="22.4270243 12.0487425 32.0385947 2.70742515 32.9448131 3.58815569 23.3332427 12.9294731"></polygon>
                                <path d="M14.7378641,12.929006 L3.01613592,1.53695808 L0.906058252,3.58768862 L0,2.70711377 L2.5631068,0.216095808 C2.8133301,-0.027011976 3.21894175,-0.027011976 3.46916505,0.216095808 L15.6439223,12.0484311 L14.7378641,12.929006 Z" id="Shape"></path>
                            </g>
                            <g id="Group" transform="translate(4.000000, 0.000000)" fill="#D9B166">
                                <polygon id="Shape" points="7.71319876 12.881562 16.8485652 3.79756934 25.9839317 12.8816423 16.8485652 21.965635"></polygon>
                                <polygon id="Shape" points="0.0722670807 5.50240876 5.55350311 0.0519489051 11.0346584 5.50240876 5.55342236 10.9528686"></polygon>
                            </g>
                            <g id="Group" transform="translate(4.000000, 29.000000)" fill="#1D5C88">
                                <polygon id="Shape" points="1.51418182 1.51490909 2.96872727 1.51490909 2.96872727 2.96945455 1.51418182 2.96945455"></polygon>
                                <polygon id="Shape" points="0.0596363636 0.0603636364 1.51418182 0.0603636364 1.51418182 1.51490909 0.0596363636 1.51490909 0.0596363636 0.0603636364"></polygon>
                            </g>
                            <g id="Group" transform="translate(8.000000, 3.000000)" fill="#B4833F">
                                <polygon id="Shape" points="9.79150289 9.03419355 13.0284971 5.8083871 13.9440809 6.72080645 10.7070867 9.9466129"></polygon>
                                <polygon id="Shape" points="0.0808439306 1.29104839 1.37547977 0.000887096774 2.29106358 0.913306452 0.996427746 2.20346774"></polygon>
                            </g>
                            <polygon id="Shape" fill="#FFD884" points="21 15.666713 23.666713 13 27 16.333287 24.333287 19"></polygon>
                        </g>
                    </g>
                </g>
            </g>
        </g>
    </g>
</svg>