<?xml version="1.0" encoding="UTF-8"?>
<svg width="70px" height="70px" viewBox="0 0 70 70" version="1.1" xmlns="http://www.w3.org/2000/svg" xmlns:xlink="http://www.w3.org/1999/xlink">
    <!-- Generator: Sketch 50.2 (55047) - http://www.bohemiancoding.com/sketch -->
    <title>001-email</title>
    <desc>Created with Sketch.</desc>
    <defs></defs>
    <g id="USER" stroke="none" stroke-width="1" fill="none" fill-rule="evenodd">
        <g id="main_black" transform="translate(-990.000000, -841.000000)" fill="#393939" fill-rule="nonzero">
            <g id="001-email" transform="translate(990.000000, 841.000000)">
                <path d="M68.244668,23.3419811 L46.6562305,1.75256358 C44.3195703,-0.584187859 40.5174219,-0.584187859 38.1807617,1.75256358 L4.48970703,35.4450711 C3.32144531,36.6135152 2.73724609,38.1482431 2.73724609,39.682971 C2.73724609,41.2176989 3.32144531,42.7524269 4.48970703,43.9208709 L9.90636719,49.3377427 L3.95869141,55.2856508 C3.69167969,55.552673 3.55824219,55.9025499 3.55824219,56.2524269 C3.55824219,56.6023038 3.69167969,56.9521807 3.95869141,57.2192029 C4.49257812,57.7531105 5.35828125,57.7532472 5.89216797,57.2192029 L11.8398438,51.2712948 L14.3170508,53.7487353 L0.400449219,67.6660172 C0.1334375,67.9329027 0,68.2829163 0,68.6327933 C0,68.9826702 0.1334375,69.3326839 0.400449219,69.5995693 C0.934335937,70.1334769 1.80003906,70.1334769 2.3340625,69.5995693 L16.2508008,55.6822874 L26.0781445,65.5101518 C28.4149414,67.8467665 32.2169531,67.8467665 34.5536133,65.5101518 L68.244668,31.8176442 C69.3765625,30.6858422 70,29.1806467 70,27.5798811 C70,25.9789787 69.3765625,24.4739199 68.244668,23.3419811 Z M29,65 C28.5173695,64.8444989 28.0629428,64.5759568 27.6807457,64.1892228 L5.95645629,42.2069135 C5.09919552,41.3393373 4.81963303,40.1077188 5.11199046,39 L29,39 L29,65 Z M24.60672,36 L28.6425765,31.9641612 C29.1740579,31.4326821 29.174194,30.5708829 28.6425765,30.0394038 C28.1109589,29.5079247 27.249292,29.5077886 26.7178106,30.0394038 L20.7570521,36 L16.7916969,36 L29.0962071,23.6955438 C29.6275525,23.1640646 29.6276886,22.3022654 29.0962071,21.7706502 C28.5647257,21.2391711 27.7029227,21.2391711 27.1713051,21.7706502 L12.9421651,36 L8,36 L39,5 L39,32.7560039 C39,34.5447952 37.5447888,36 35.7559896,36 L24.60672,36 Z M66.5455441,29.5681147 L32.567932,63.5482661 C32.3926852,63.7235267 32.2013063,63.8725879 32,64 L32,38.5981042 L35.5533324,38.5981042 C38.8859172,38.5981042 41.597348,35.8865977 41.597348,32.5536124 L41.597348,29 L57.4018248,29 L49.4230624,36.979529 C49.1539186,37.248694 49.0192088,37.6016973 49.0192088,37.9545626 C49.0192088,38.3075659 49.1537807,38.6602934 49.4230624,38.9295963 C49.9614879,39.4680642 50.8345506,39.4680642 51.373114,38.9295963 L61.3008249,29.0011031 C61.3011007,29.0008274 61.3013764,29.0004137 61.3016522,29.0001379 L67,29 C66.8710812,29.2032527 66.7198257,29.3939572 66.5455441,29.5681147 Z M42,27 L42,3.11199046 C43.107686,2.81963303 44.3391134,3.09919552 45.2064157,3.95645629 L67.1853121,25.6808833 C67.5655833,26.0566142 67.8413217,26.5077389 68,27 L42,27 Z" id="Shape"></path>
                <path d="M32.5605,18.4395 C32.2815,18.159 31.8945,18 31.5,18 C31.104,18 30.7185,18.159 30.4395,18.4395 C30.1605,18.7185 30,19.104 30,19.5 C30,19.8945 30.1605,20.2815 30.4395,20.5605 C30.7185,20.8395 31.104,21 31.5,21 C31.8945,21 32.2815,20.8395 32.5605,20.5605 C32.8395,20.2815 33,19.8945 33,19.5 C33,19.104 32.8395,18.7185 32.5605,18.4395 Z" id="Shape"></path>
                <path d="M2.5605,58.4395 C2.2815,58.1605 1.8945,58 1.5,58 C1.1055,58 0.7185,58.1605 0.4395,58.4395 C0.1605,58.7185 0,59.1055 0,59.5 C0,59.8945 0.1605,60.2815 0.4395,60.5605 C0.7185,60.8395 1.1055,61 1.5,61 C1.896,61 2.2815,60.8395 2.5605,60.5605 C2.841,60.2815 3,59.8945 3,59.5 C3,59.1055 2.841,58.7185 2.5605,58.4395 Z" id="Shape"></path>
                <path d="M17.5971628,61.4029373 C17.0597713,60.8656876 16.1886083,60.8656876 15.6513544,61.4029373 L9.40297481,67.6512692 C9.13441666,67.9198253 9,68.27203 9,68.6240971 C9,68.9761643 9.13427908,69.328369 9.40297481,69.5970627 C9.94036627,70.1343124 10.8115293,70.1343124 11.3487832,69.5970627 L17.5971628,63.3487308 C18.1342791,62.8113435 18.1342791,61.9401871 17.5971628,61.4029373 Z" id="Shape"></path>
            </g>
        </g>
    </g>
</svg>