<?xml version="1.0" encoding="UTF-8"?>
<svg width="75px" height="50px" viewBox="0 0 75 50" version="1.1" xmlns="http://www.w3.org/2000/svg" xmlns:xlink="http://www.w3.org/1999/xlink">
    <!-- Generator: Sketch 50.2 (55047) - http://www.bohemiancoding.com/sketch -->
    <title>002-credit-card</title>
    <desc>Created with Sketch.</desc>
    <defs></defs>
    <g id="USER" stroke="none" stroke-width="1" fill="none" fill-rule="evenodd">
        <g id="main_black" transform="translate(-685.000000, -851.000000)" fill="#393939" fill-rule="nonzero">
            <g id="002-credit-card" transform="translate(685.000000, 851.000000)">
                <path d="M67.1876801,0 L7.81246643,0 C3.50625685,0 0,3.50624315 0,7.8125824 L0,42.1875641 C0,46.4937568 3.50625685,50 7.81246643,50 L67.1875336,50 C71.4937432,50 75,46.4937568 75,42.1875641 L75,7.8125824 C75.0001465,3.50624315 71.4938896,0 67.1876801,0 Z M71.8751892,42.1874176 C71.8751892,44.7718364 69.7721089,46.8749084 67.1876801,46.8749084 L7.81246643,46.8749084 C5.22803755,46.8749084 3.12495728,44.7718364 3.12495728,42.1874176 L3.12495728,7.8125824 C3.12495728,5.22816362 5.22803755,3.12509155 7.81246643,3.12509155 L67.1875336,3.12509155 C69.7719624,3.12509155 71.8750427,5.22816362 71.8750427,7.8125824 L71.8750427,42.1874176 L71.8751892,42.1874176 Z" id="Shape"></path>
                <path d="M73.4373077,10 L1.56254578,10 C0.700047461,10 0,10.6720416 0,11.5000352 L0,20.4999648 C0,21.3279584 0.700047461,22 1.56254578,22 L73.4374542,22 C74.2999525,22 75,21.3279584 75,20.4999648 L75,11.5000352 C74.9998535,10.6720416 74.2998061,10 73.4373077,10 Z M71.8749084,18.9999297 L3.12494507,18.9999297 L3.12494507,12.9999297 L71.8749084,12.9999297 L71.8749084,18.9999297 Z" id="Shape"></path>
                <path d="M27.4999598,31 L9.50004018,31 C8.67204387,31 8,31.4480383 8,32.0000469 C8,32.5520555 8.67204387,33 9.50004018,33 L27.4999598,33 C28.3279561,33 29,32.5519617 29,31.9999531 C29,31.4479445 28.3279561,31 27.4999598,31 Z" id="Shape"></path>
                <path d="M27.4999598,38 L9.50004018,38 C8.67204387,38 8,38.4480172 8,39 C8,39.5519828 8.67204387,40 9.50004018,40 L27.4999598,40 C28.3279561,40 29,39.5519828 29,39 C28.9998594,38.4480172 28.3279561,38 27.4999598,38 Z" id="Shape"></path>
                <path d="M60.124981,27 L56.875019,27 C54.1872078,27 52,29.1872078 52,31.875019 L52,35.124981 C52,37.8127922 54.1872078,40 56.875019,40 L60.124981,40 C62.8127922,40 65,37.8127922 65,35.124981 L65,31.875019 C65,29.1873601 62.8127922,27 60.124981,27 Z M61.7500381,35.1251333 C61.7500381,36.0221368 61.0219845,36.7501904 60.124981,36.7501904 L56.875019,36.7501904 C55.9780155,36.7501904 55.2499619,36.0221368 55.2499619,35.1251333 L55.2499619,31.8751714 C55.2499619,30.9781679 55.9780155,30.2501143 56.875019,30.2501143 L60.124981,30.2501143 C61.0219845,30.2501143 61.7500381,30.9781679 61.7500381,31.8751714 L61.7500381,35.1251333 Z" id="Shape"></path>
            </g>
        </g>
    </g>
</svg>