<?xml version="1.0" encoding="UTF-8"?>
<svg width="70px" height="70px" viewBox="0 0 70 70" version="1.1" xmlns="http://www.w3.org/2000/svg" xmlns:xlink="http://www.w3.org/1999/xlink">
    <!-- Generator: Sketch 50.2 (55047) - http://www.bohemiancoding.com/sketch -->
    <title>008-tag</title>
    <desc>Created with Sketch.</desc>
    <defs></defs>
    <g id="USER" stroke="none" stroke-width="1" fill="none" fill-rule="evenodd">
        <g id="main_black" transform="translate(-991.000000, -623.000000)" fill="#393939" fill-rule="nonzero">
            <g id="008-tag" transform="translate(991.000000, 623.000000)">
                <path d="M69.9999572,4.76807183 C70.0052892,3.48985887 69.5120083,2.28985084 68.6110323,1.38885358 C67.7100563,0.487856316 66.5077523,-0.00461593405 65.2320304,3.26102376e-05 C63.957539,0.00536476398 62.757696,0.50617705 61.8535755,1.41018219 C61.4707632,1.79300349 60.774455,2.61989748 60.3935568,3.07887287 C59.993518,3.56081753 60.0596899,4.27587302 60.5416232,4.67578455 C61.0234197,5.0758328 61.7384584,5.00965941 62.1384972,4.52771474 C62.7351374,3.80910449 63.2282817,3.24321258 63.4572854,3.01406669 C63.9355273,2.53595024 64.5690816,2.27098322 65.241464,2.26811206 C65.2451554,2.26811206 65.2485734,2.26811206 65.2522648,2.26811206 C65.916991,2.26811206 66.5400179,2.52514921 67.0073223,2.99260135 C67.4772244,3.46251449 67.7346656,4.08965781 67.7317945,4.7585013 C67.7289235,5.43076283 67.4639627,6.06433207 66.9858575,6.54272197 C66.5577914,6.97079821 65.0864251,8.13799299 62.97836,9.61062448 C61.731349,7.47858331 59.418616,6.04231985 56.7754341,6.04231985 L40.169038,6.04231985 C37.9273987,6.04231985 35.8200172,6.91528912 34.2347642,8.500306 L1.04083921,41.695424 C0.369687274,42.3665918 0,43.2589756 0,44.2080989 C0,45.1572223 0.369687274,46.0497428 1.04083921,46.7207738 L23.2804545,68.9609136 C23.9733447,69.6536835 24.8830707,70 25.7930702,70 C26.7030696,70 27.6130691,69.6535467 28.3056858,68.9609136 L61.4998843,35.7660691 C63.0848638,34.1809155 63.9578125,32.0734842 63.9578125,29.8316554 L63.9578125,13.2250044 C63.9578125,12.7348564 63.9081836,12.2563298 63.8141212,11.7935262 C66.2136705,10.1423359 67.9751538,8.76103465 68.5895675,8.14660647 C69.4938247,7.24260133 69.9946252,6.04273001 69.9999572,4.76807183 Z M61,29.367949 C61,30.9922041 60.3674116,32.5192619 59.2191143,33.6675757 L26.260444,66.6268557 C25.7630612,67.1243814 24.9531851,67.1243814 24.4556666,66.6268557 L2.3738516,44.5447232 C2.13289786,44.303766 2,43.983259 2,43.6422536 C2,43.3012483 2.13276212,42.980877 2.3738516,42.7399198 L35.3323862,9.78091129 C36.4809549,8.63246175 38.007855,8 39.6319511,8 L56.1203814,8 C57.9719921,8 59.5860427,9.03672685 60.4124801,10.5601194 C59.0824155,11.4408688 57.5931178,12.3774118 56.01314,13.2983434 C55.9638633,13.2443147 55.9135005,13.190829 55.8612373,13.1385651 C54.0172286,11.2945298 51.0169134,11.2945298 49.1729046,13.1385651 C47.3288958,14.9826003 47.3288958,17.9829587 49.1729046,19.826994 C50.094909,20.7490116 51.3060578,21.2098847 52.517071,21.2098847 C53.7280841,21.2098847 54.939233,20.7490116 55.8612373,19.826994 C57.0920698,18.5961439 57.4999942,16.8505277 57.0878615,15.2770433 C58.4620445,14.4770653 59.7816565,13.6594399 60.999457,12.8684215 C60.9995928,12.8722225 60.9998643,12.875752 60.9998643,12.8794173 L60.9998643,29.367949 L61,29.367949 Z M52.4845489,17.0108072 C52.6842846,17.4078714 53.0851269,17.6370365 53.5013229,17.6370365 C53.6730928,17.6370365 53.8476045,17.5979742 54.0115605,17.5154638 C54.6780773,17.180214 55.3422636,16.8315321 55.9998697,16.4743526 C56.0064499,17.1233339 55.763806,17.7743711 55.2694704,18.2686111 C54.2939596,19.2437963 52.707041,19.2437963 51.7315303,18.2686111 C50.7561566,17.2932888 50.7561566,15.7066769 51.7315303,14.7313546 C52.2192857,14.2436935 52.859893,14 53.5005003,14 C54.0077221,14 54.5134358,14.1554266 54.9448485,14.4609343 C54.3012252,14.8107126 53.6480059,15.1532267 52.9895773,15.4845019 C52.4282062,15.7664353 52.2021498,16.4499558 52.4845489,17.0108072 Z" id="Shape"></path>
                <path d="M34,23 C33.4477396,23 33,23.5034077 33,24.1246343 L33,47.8753657 C33,48.4964567 33.4477396,49 34,49 C34.5522604,49 35,48.4964567 35,47.8753657 L35,24.1246343 C35,23.5034077 34.5522604,23 34,23 Z" id="Shape"></path>
                <path d="M28.6814332,33.3167194 C26.926574,31.5610505 24.0709713,31.5611797 22.3162413,33.3165901 C20.5612529,35.0720006 20.5612529,37.9281609 22.3162413,39.6835714 C23.1938647,40.5614058 24.3462864,41.0001292 25.4989664,41 C26.6513881,41 27.8041974,40.5610181 28.6815624,39.6835714 C29.5317964,38.8331329 30,37.702661 30,36.5000808 C30,35.2975005 29.5316672,34.1668994 28.6814332,33.3167194 Z M27.2674555,38.2685672 C26.2923738,39.2438795 24.7061532,39.2437424 23.7312085,38.2685672 C22.7562638,37.293255 22.7562638,35.7066594 23.7312085,34.7313471 C24.2187494,34.243691 24.8590749,34 25.4994005,34 C26.1397261,34 26.7800517,34.243691 27.2675925,34.7313471 C27.7399234,35.2037897 28,35.8317943 28,36.4999572 C27.999863,37.1681201 27.7397864,37.7961247 27.2674555,38.2685672 Z" id="Shape"></path>
                <path d="M44.6834047,33.3166039 C42.9279659,31.5610674 40.0716302,31.5611966 38.3165791,33.3166039 C36.5611403,35.0720112 36.5611403,37.9281664 38.3165791,39.6835737 C39.1942985,40.5612774 40.3471452,41 41.5001212,41 C42.6529679,41 43.8059438,40.5612774 44.683534,39.6835737 C46.4388435,37.9281664 46.4388435,35.0720112 44.6834047,33.3166039 Z M43.2684937,38.2685672 C42.2931748,39.2438795 40.7065683,39.2437424 39.7313864,38.2685672 C38.7562045,37.293255 38.7562045,35.7066594 39.7313864,34.7313471 C40.2190459,34.243691 40.8595272,34 41.5000086,34 C42.1404899,34 42.7809713,34.243691 43.2686307,34.7313471 C44.2438126,35.7066594 44.2438126,37.293255 43.2684937,38.2685672 Z" id="Shape"></path>
            </g>
        </g>
    </g>
</svg>