<?xml version="1.0" encoding="UTF-8"?>
<svg width="70px" height="47px" viewBox="0 0 70 47" version="1.1" xmlns="http://www.w3.org/2000/svg" xmlns:xlink="http://www.w3.org/1999/xlink">
    <!-- Generator: Sketch 50.2 (55047) - http://www.bohemiancoding.com/sketch -->
    <title>009-deal</title>
    <desc>Created with Sketch.</desc>
    <defs></defs>
    <g id="USER" stroke="none" stroke-width="1" fill="none" fill-rule="evenodd">
        <g id="main_black" transform="translate(-686.000000, -634.000000)" fill="#393939" fill-rule="nonzero">
            <g id="009-deal" transform="translate(686.000000, 634.000000)">
                <path d="M69.3777917,3.20297408 C68.9889628,2.92758431 68.4904853,2.86011381 68.0434141,3.02658693 L56.1546018,7.38118775 C54.6806341,7.92053862 53.5070381,9.00777745 52.8505133,10.4420074 C52.7274662,10.7109255 52.6466653,10.9903084 52.5657276,11.2692783 C50.5242393,10.6847635 46.7302865,9.46396061 42.9598495,7.50745396 C37.2623579,4.55073164 32.9096346,6.01112362 29.1763851,8.87903273 C27.2847408,8.91648574 24.6775091,9.14175458 22.1145744,9.36922653 C20.4796884,9.51449464 18.9346268,9.64819637 17.6817337,9.72516782 C17.650972,8.96729515 17.4748779,8.21520568 17.1500335,7.50470006 C16.4935088,6.07033242 15.3200494,4.98309359 13.845945,4.44388041 L1.95685929,0.089004206 C1.51115529,-0.0759542691 1.00980666,-0.00848377427 0.622481684,0.265391357 C0.232148891,0.540918826 0,0.989804159 0,1.46884467 L0,30.8437081 C0,31.6555571 0.65228643,32.3124994 1.45838175,32.3124994 L5.71799944,32.3124994 C7.52966314,32.3124994 9.21513518,31.4519064 10.304649,30.0622896 C10.8850213,30.5067687 11.5724445,31.0272554 12.2933638,31.5723894 C13.9952422,32.861902 15.8580388,34.2688684 16.6754818,34.9588575 C22.1058244,39.5372125 28.6341575,44.4812851 29.9343553,45.3418782 C31.1491038,46.1450524 33.3366081,47 35.0000683,47 C35.6508508,47 37.2901119,47 38.4408758,46.0203009 C39.6271867,46.4892897 40.9060564,46.4664323 42.0952384,45.9385101 C43.2815493,45.4121026 44.2414536,44.4195978 44.7996773,43.2132529 C45.9389569,43.4484358 47.247768,43.2763172 48.4340789,42.6767936 C49.5462881,42.1159623 50.365235,41.266798 50.8038297,40.2742932 C51.8576598,40.3717812 52.9828573,40.026167 53.9896562,39.2501187 C55.4282137,38.1426387 56.0869259,36.5070988 55.9005779,34.8935901 L59.5997843,32.8324353 C60.6831458,34.3114161 62.4049851,35.2498068 64.2820005,35.2498068 L68.5416182,35.2498068 C69.3477135,35.2498068 69.9999999,34.5928645 69.9999999,33.7810154 L69.9999999,4.4064274 C70.0001367,3.92724919 69.7679878,3.47836386 69.3777917,3.20297408 Z M8.60115512,28.0796637 C8.17154269,29.2283422 7.06000356,30 5.83594031,30 L3,30 L3,4 L13.0546471,7.66436902 C13.8014863,7.937494 14.3955251,8.48513108 14.7270076,9.20754596 C15.0600126,9.92996084 15.0889395,10.7392098 14.8106049,11.4832638 L8.60115512,28.0796637 Z M52.1771938,36.8654872 C51.6882935,37.2464363 51.0036977,37.4584261 50.6994029,37.1491025 C50.6838501,37.1332927 50.659777,37.1348049 50.6438184,37.1196824 C50.616229,37.0936993 50.6025696,37.0586426 50.572681,37.0344466 C49.5414597,36.2066969 44.9206416,31.4007716 42.065139,28.3733879 C41.5142978,27.7877353 40.6000609,27.7661514 40.0266343,28.3289828 C39.4505027,28.8889271 39.4307574,29.8168977 39.9829511,30.4011754 C40.6532111,31.1123446 46.0336844,36.8087092 48.187145,38.8008902 C48.026342,39.444833 47.4391207,39.8424168 47.1409118,39.9944665 C46.2168022,40.4656006 45.253202,40.3868263 44.8925112,40.0460205 C44.8818271,40.0358472 44.8658685,40.0363971 44.8547786,40.0264987 C44.8371972,40.0105514 44.8293531,39.9881426 44.8106897,39.9730201 C43.0806723,38.5681414 38.7403463,33.8796216 37.7583531,32.7941022 C37.218737,32.1969016 36.3073402,32.1596453 35.7198483,32.7068043 C35.1338441,33.255338 35.0943534,34.1833086 35.6339696,34.7789969 C35.6813043,34.8311008 39.9349401,39.4952871 42.3239925,41.6617891 C42.0892121,42.347525 41.6108607,42.915443 40.9971319,43.1908097 C40.5442059,43.3953756 39.8358076,43.5002707 39.0263834,42.8922093 C36.9547443,41.1066565 32.7972657,36.6079926 31.9795917,35.7183781 C31.4372708,35.1254393 30.5215462,35.0954693 29.941087,35.6482648 C29.3592753,36.2010603 29.3283048,37.1290309 29.8721135,37.7204575 C30.8415291,38.7751819 33.7069043,41.8623682 35.8851142,43.9527079 C35.6418136,43.9828154 35.3863412,44 35.1437168,44 C34.1885016,44 32.5473382,43.3799782 31.7176277,42.8256704 C30.7061517,42.1496954 24.3553161,37.3323595 18.8709769,32.6637739 C18.0412664,31.9563166 16.1478764,30.5085451 14.4150189,29.1853278 C13.4863111,28.4766332 12.6306341,27.8232044 12,27.330074 L17.4013006,12.6865608 C18.8033558,12.6242836 20.6725374,12.4599985 22.6507242,12.282653 C23.7695824,12.1824321 24.8896578,12.0846859 25.9599641,12 C24.3148787,13.7166768 21.8690246,16.7913527 22.1914419,19.6734231 C22.3393968,20.9852298 23.0452255,22.077898 24.2356268,22.8340222 C26.5924916,24.3333477 30.9555383,23.0759819 33.0573363,20.4482442 C34.4139502,20.2491773 35.3311624,19.8969609 36.331278,19.3928323 C38.0218048,21.0081885 40.288463,22.90716 42.6694009,24.901953 C46.8140315,28.3732504 51.5122082,32.308533 52.754813,34.5153158 C53.4464413,35.7427116 52.4871688,36.6249023 52.1771938,36.8654872 Z M55.325456,32 C53.3565743,29.4229963 49.0885397,25.9751084 44.9298105,22.6221029 C42.1576937,20.3869466 39.5399067,18.2760861 37.8644454,16.6369263 C37.4027031,16.1878619 36.6940885,16.0862022 36.1226252,16.3841327 C34.6174253,17.173418 33.9392888,17.4995421 32.2393066,17.6661284 C31.7861535,17.7112652 31.3792716,17.9570104 31.1368326,18.3339643 C29.9779742,20.1327975 26.756999,20.9883649 25.7352918,20.3643104 C25.1551006,20.0085017 25.0426089,19.647 25.010884,19.3717058 C24.8680528,18.1418954 26.1407883,16.0127362 28.2520856,13.9456572 C33.4804557,8.8301448 37.2180338,7.82913635 42.0537913,10.2689674 C46.6482181,12.5866713 51.1826585,13.8971316 53.0861509,14.3921462 C53.14115,14.608749 53.1810485,14.8275205 53.2622309,15.0399214 L59,30.0111311 L55.325456,32 Z M67,33 L64.1640791,33 C62.9400242,33 61.8284927,32.2283422 61.3988833,31.0796637 L55.1893376,14.4847896 C54.9111433,13.7392098 54.9399316,12.9300996 55.2729343,12.207546 C55.604553,11.4851311 56.1985877,10.937494 56.9452833,10.664369 L66.9998616,7 L66.9998616,33 L67,33 Z" id="Shape"></path>
            </g>
        </g>
    </g>
</svg>