<?xml version="1.0" encoding="UTF-8"?>
<svg width="81px" height="70px" viewBox="0 0 81 70" version="1.1" xmlns="http://www.w3.org/2000/svg" xmlns:xlink="http://www.w3.org/1999/xlink">
    <!-- Generator: Sketch 50.2 (55047) - http://www.bohemiancoding.com/sketch -->
    <title>box</title>
    <desc>Created with Sketch.</desc>
    <defs></defs>
    <g id="USER" stroke="none" stroke-width="1" fill="none" fill-rule="evenodd">
        <g id="main_black" transform="translate(-371.000000, -623.000000)" fill="#393939" fill-rule="nonzero">
            <g id="box" transform="translate(371.000000, 623.000000)">
                <path d="M44.2127069,58.7922925 C43.6467098,57.2399236 42.1543599,56.1971831 40.4997446,56.1971831 C40.0389389,56.1971831 39.5844553,56.2774478 39.1485866,56.4355238 C37.1014787,57.1792869 36.0423633,59.4465026 36.7871334,61.4895729 C37.3533062,63.0417666 38.8456561,64.084507 40.5002714,64.084507 C40.961077,64.084507 41.4155606,64.0042423 41.8512537,63.8461664 C43.8985372,63.1025785 44.9578282,60.8353628 44.2127069,58.7922925 Z M41.1758534,61.9928447 C40.9569511,62.0724695 40.7296194,62.1126761 40.5007071,62.1126761 C39.6730406,62.1126761 38.9267709,61.5913043 38.643594,60.8150281 C38.2711177,59.7938333 38.800856,58.660428 39.8242438,58.2888455 C40.0431461,58.2092207 40.2704778,58.1690141 40.49939,58.1690141 C41.3267932,58.1690141 42.0730629,58.6903858 42.3562397,59.4669248 C42.7289795,60.4878568 42.1995047,61.6209994 41.1758534,61.9928447 Z" id="Shape"></path>
                <path d="M80.9280008,48.1874964 L79.3045302,43.7755392 C79.1934723,43.4736355 78.9700908,43.2446644 78.6982995,43.116954 C78.6959265,43.1158584 78.6935534,43.1144499 78.6911804,43.1133543 C78.6734617,43.1050594 78.6549521,43.0986426 78.6367588,43.0912867 C78.619673,43.0844004 78.6029036,43.076575 78.5855013,43.0704712 C78.5813881,43.0689061 78.5769584,43.067967 78.572687,43.066715 C78.325417,42.9829833 78.0487214,42.9784445 77.7840492,43.0739143 L73.904141,44.4698081 L65.6505757,22.0347162 C65.6504175,22.0340901 65.6499429,22.0336206 65.6497847,22.0331511 L62.4044254,13.2111148 C62.2335671,12.7494165 61.785855,12.4393744 61.2891001,12.4393744 C61.1514643,12.4393744 61.0138284,12.4628506 60.8841026,12.5098029 C60.2686962,12.730479 59.9507098,13.4065931 60.1737749,14.0138437 L63.015244,21.7346906 L47.7780022,27.2209179 C47.777844,27.2209179 47.7775276,27.2209179 47.7772112,27.2210744 C47.7767366,27.2212309 47.7764202,27.2215439 47.7759456,27.2215439 L38.4866307,30.5661174 L32.2635902,13.6546581 L40.4405857,10.7107448 L42.199161,15.4895565 C42.3684373,15.9512548 42.8161494,16.262862 43.3129042,16.262862 C43.4521221,16.262862 43.588176,16.2393858 43.7194838,16.1907118 L49.6661451,14.049684 C49.9635652,13.9432586 50.2008684,13.7272778 50.3353403,13.4439985 C50.4346912,13.2333389 50.4671227,13.0037418 50.4340584,12.779466 C50.4339002,12.778214 50.4339002,12.7769619 50.433742,12.7758663 C50.4291541,12.7453473 50.4225097,12.7146718 50.4153906,12.6844657 C50.4133339,12.6758578 50.4122265,12.6677194 50.4101699,12.6591115 C50.4005196,12.62108 50.3888126,12.5833616 50.375049,12.5457997 L48.6171065,7.76683155 L56.7923617,4.8233878 L58.5506206,9.60172996 C58.721479,10.0634282 59.1691911,10.3748789 59.6659459,10.3748789 C59.8035818,10.3748789 59.9412177,10.3514027 60.0725255,10.3028853 C60.6863499,10.0822092 61.0043362,9.40750368 60.7812712,8.79884453 L58.6170655,2.91586972 C58.4675645,2.51192288 58.1062307,2.22410488 57.6852548,2.15837157 C57.6251379,2.1489811 57.5637555,2.14412935 57.5017403,2.14412935 C57.3641044,2.14412935 57.2264685,2.16760553 57.0967427,2.2145579 L46.6958994,5.95994804 C46.6941592,5.96057407 46.6922607,5.96073058 46.6905205,5.96135661 C46.6873565,5.96245217 46.6845088,5.96401725 46.6813448,5.9651128 L40.7543006,8.09956731 C40.7508201,8.10081937 40.7473397,8.10113238 40.7438592,8.10238445 C40.7380058,8.10457556 40.7324687,8.1073927 40.7266152,8.10958381 L30.337637,11.8505917 C30.040217,11.9570171 29.8029137,12.172998 29.6684419,12.4562772 C29.53397,12.7411216 29.5197318,13.0602412 29.6288913,13.3546325 L36.6622433,32.4728529 L43.4258606,50.8581469 C42.5684048,50.5989698 41.6680763,50.4534175 40.7460741,50.4357321 L23.6113555,3.86180336 C22.4925498,0.821011711 19.081711,-0.752362034 16.0076847,0.354148697 C16.0072101,0.354305205 16.0067355,0.354618221 16.0062609,0.354774729 L0.783573694,5.78622429 C0.783415492,5.7863808 0.783099088,5.7863808 0.782782684,5.78653731 C0.781991673,5.78685032 0.781200662,5.78700683 0.780251449,5.78731985 C0.752882474,5.79717984 0.726937318,5.80891793 0.700833961,5.82049952 C0.690867224,5.82488174 0.680425881,5.82848142 0.670617347,5.83317666 C0.644988595,5.84522776 0.620625462,5.85931347 0.596262328,5.87308617 C0.586295591,5.87872045 0.575696046,5.88357219 0.565887512,5.889676 C0.542473591,5.90376171 0.520641692,5.9194125 0.498493388,5.93490678 C0.488684854,5.94179313 0.478243511,5.94805344 0.468751381,5.9550963 C0.448185099,5.97059058 0.429042637,5.98733692 0.40958377,6.00408326 C0.399775236,6.0126912 0.38917569,6.02036008 0.37968356,6.02912452 C0.361332109,6.04571436 0.344562679,6.06402578 0.327476845,6.08171117 C0.318142917,6.09157117 0.30817618,6.10049212 0.299158657,6.11050862 C0.283022036,6.12850703 0.268309234,6.1477575 0.253280028,6.16669495 C0.244737111,6.17733749 0.235403183,6.18766701 0.227334873,6.19877907 C0.213729486,6.217247 0.201706122,6.23665398 0.18920815,6.25590445 C0.18113984,6.26842508 0.172280518,6.28031968 0.164686814,6.29299681 C0.153296258,6.31209078 0.143487724,6.33212379 0.133204583,6.35184378 C0.126085485,6.36545996 0.118175377,6.37876313 0.111530886,6.39269234 C0.10235516,6.41209931 0.0949196584,6.43213232 0.0866931457,6.45200882 C0.0805232611,6.46719009 0.0735623657,6.48158881 0.068183492,6.49692659 C0.0612225967,6.51633356 0.055843723,6.53636657 0.0499902428,6.55608657 C0.0450859756,6.57236339 0.0393906975,6.5884837 0.035119239,6.60507353 C0.0302149718,6.62448051 0.0268927263,6.64451352 0.0229376721,6.66423351 C0.0194572244,6.68144938 0.0151857659,6.69866525 0.012496329,6.71603762 C0.00933228566,6.73607063 0.00822487048,6.75641666 0.0061682423,6.77660617 C0.00442801846,6.79413506 0.00173858161,6.81166394 0.000789368601,6.82934933 C-0.000318046572,6.85000837 0.000472964266,6.87066741 0.000472964266,6.89132645 C0.000472964266,6.90901184 -0.00047624874,6.92669723 0.000314762098,6.94438262 C0.0012639751,6.96535468 0.00426981629,6.98648324 0.00632644447,7.0074553 C0.00806666832,7.02482767 0.00901588132,7.04235656 0.011547116,7.05988544 C0.0147111594,7.08070099 0.0197736287,7.10151654 0.0240450873,7.12233209 C0.0276837371,7.14001748 0.030373174,7.15785937 0.0348028347,7.17554477 C0.0400235062,7.19636031 0.0474590081,7.21686285 0.0539452969,7.23752189 C0.0593241707,7.25458125 0.0635956292,7.27195362 0.0697655137,7.28901298 C0.0699237159,7.289326 0.0700819181,7.28979552 0.0702401202,7.29010854 C0.0703983224,7.29089108 0.0705565246,7.29151711 0.0708729289,7.29229965 L1.69418537,11.7042569 C1.70636694,11.7374365 1.72313637,11.7676426 1.73784917,11.7991006 C1.74939793,11.8235159 1.75873186,11.8494962 1.77186264,11.8728158 C1.79037229,11.905839 1.8126788,11.9352625 1.83403609,11.9660945 C1.84748327,11.985345 1.85887383,12.0064736 1.87342843,12.024785 C1.89889898,12.0571821 1.92800818,12.0859796 1.95648457,12.1150901 C1.96977355,12.1287062 1.98148051,12.1442005 1.9954023,12.1571907 C2.02751734,12.1870837 2.06279642,12.213064 2.0977591,12.2390443 C2.11041527,12.2485913 2.12180583,12.2597033 2.13477841,12.2684678 C2.17258873,12.2942916 2.21308848,12.3160462 2.25358824,12.3371747 C2.2656116,12.3434351 2.27668575,12.3515735 2.28886732,12.3575208 C2.33031629,12.3775538 2.37382188,12.3930481 2.41732748,12.4080728 C2.42998365,12.412455 2.44184882,12.4187153 2.45466319,12.4227845 C2.4992762,12.4367138 2.54515483,12.4456347 2.59134986,12.4543991 C2.60400604,12.4567468 2.61634581,12.461129 2.62916018,12.4630071 C2.68832779,12.472241 2.74860282,12.4767798 2.80935245,12.4767798 C2.84289131,12.4767798 2.87658837,12.4752147 2.91044364,12.4725541 C2.91740453,12.471928 2.92420723,12.4705195 2.93116812,12.4698934 C2.95806249,12.4670763 2.98479866,12.4641026 3.01169302,12.4595639 C3.02403279,12.4573728 3.03637256,12.4540861 3.04871233,12.451582 C3.07006962,12.4471998 3.09142692,12.4431306 3.11262601,12.4374963 C3.13524892,12.4317055 3.15755542,12.4240366 3.18002013,12.4166807 C3.19061968,12.4133941 3.20121922,12.4105769 3.21166056,12.4068207 L3.21292618,12.4063512 C3.21355899,12.4061947 3.2141918,12.4058817 3.21482461,12.4057252 C3.21529921,12.4055687 3.21577382,12.4052557 3.21624843,12.4050992 L17.3258252,7.37055359 L34.057761,52.8475186 C31.0731189,55.4302117 29.8301245,59.6596807 31.2658092,63.5615787 C32.6826678,67.4124552 36.4167135,70 40.5576553,70 C41.7096835,70 42.8471571,69.8007655 43.9385938,69.4077742 C46.4203112,68.5141142 48.4016352,66.7181862 49.5179097,64.3502219 C50.1111678,63.091429 50.4191874,61.7515651 50.4448162,60.4034062 L80.2186223,49.6921632 C80.2186223,49.6921632 80.2187805,49.6921632 80.2189387,49.6920067 L80.2190969,49.6920067 C80.227007,49.6891895 80.2342843,49.6854333 80.2420362,49.6824597 C80.2722529,49.6708781 80.3021531,49.65914 80.3307877,49.6453673 C80.3429692,49.6395765 80.3542016,49.6325337 80.3662249,49.6262734 C80.3896389,49.6142222 80.4130528,49.6024842 80.4353593,49.5890245 C80.4480155,49.5811991 80.4597224,49.5721216 80.4720622,49.5641397 C80.4923121,49.55068 80.5130366,49.5376899 80.5323372,49.5232912 C80.5385071,49.5185959 80.543886,49.5132747 80.5498977,49.5085794 C80.5742608,49.489329 80.5984657,49.4700785 80.6210886,49.4492629 C80.6248855,49.4451937 80.6283659,49.441281 80.6321628,49.4376814 C80.6560513,49.4148312 80.6794652,49.3918245 80.7014553,49.3674093 C80.705885,49.3625576 80.7095236,49.3570798 80.7139533,49.3520715 C80.7345196,49.3282823 80.7546113,49.3041801 80.7731209,49.2789824 C80.7751775,49.2763217 80.7767596,49.2733481 80.778658,49.2705309 C80.7987497,49.242516 80.8180503,49.2140316 80.8356108,49.1844516 C80.8387748,49.1791303 80.8413061,49.1733395 80.8444701,49.1678618 C80.8601321,49.1406294 80.8751613,49.1132405 80.8886085,49.0849126 C80.8938292,49.0738005 80.8979424,49.0620624 80.9026885,49.0507939 C80.9128134,49.0276307 80.9230966,49.0044675 80.9317977,48.9806783 C80.9376512,48.964245 80.9419226,48.9473422 80.9469851,48.9307523 C80.9529968,48.9115019 80.9597995,48.8924079 80.9647037,48.8728444 C80.971981,48.8438904 80.9773599,48.814467 80.9824224,48.7850435 C80.983688,48.7772181 80.9859028,48.7697057 80.9870103,48.7620368 C81.0153284,48.5748534 80.9980844,48.3779665 80.9280008,48.1874964 Z M46.3875634,8.56971698 L47.7394009,12.2460871 L44.0229156,13.5842295 L42.670287,9.90801589 L46.3875634,8.56971698 Z M53.4212317,27.6877809 L54.7740185,31.363838 L51.0564257,32.7022935 L49.7041136,29.0260798 L53.4212317,27.6877809 Z M39.2988406,32.7722525 L47.4745705,29.8288087 L49.2331458,34.6076204 C49.4024221,35.0693187 49.8501342,35.3806129 50.348471,35.3806129 C50.4861069,35.3806129 50.6221608,35.3557281 50.7534686,35.3086192 L56.7001299,33.1675914 C57.3155363,32.9469153 57.6335227,32.2723663 57.4088756,31.6635506 L55.6504585,26.885052 L63.8274539,23.9409822 L71.6750725,45.270972 L48.0018583,53.7876614 C47.5573102,53.2854276 47.0645104,52.8293637 46.5297871,52.428234 L39.2988406,32.7722525 Z M19.1514782,5.46741773 C19.1445173,5.44863679 19.1358162,5.4309514 19.1280643,5.41248347 C19.1203123,5.39448506 19.1133515,5.37586062 19.1048085,5.35817523 C19.0970566,5.34205492 19.0878809,5.32734318 19.0794962,5.3118489 C19.0690548,5.29259843 19.0590881,5.27287844 19.0476976,5.25441051 C19.0397874,5.24173337 19.0307699,5.23015178 19.0223852,5.21778766 C19.008938,5.19775465 18.9959654,5.17740863 18.9812526,5.15847117 C18.9736589,5.14845467 18.9649578,5.13953372 18.9570477,5.12967372 C18.9405947,5.10948421 18.9242999,5.08929469 18.906423,5.07035724 C18.8993039,5.06268835 18.8912356,5.055802 18.8838001,5.04828962 C18.864183,5.02856963 18.8447242,5.00884964 18.8238415,4.99053821 C18.8178298,4.98537345 18.8113435,4.98083473 18.8053318,4.97582647 C18.7822343,4.95626299 18.7588204,4.93701252 18.7342991,4.91948364 C18.7308186,4.91697951 18.7270218,4.91510142 18.7235413,4.91244078 C18.6960141,4.8930338 18.6678541,4.87456587 18.6387449,4.85750651 C18.6365301,4.85625445 18.6341571,4.8551589 18.6319423,4.85406334 C18.4699432,4.76094115 18.2864287,4.70600688 18.0965861,4.69614689 C18.0948459,4.69614689 18.0932639,4.6963034 18.0915236,4.69614689 C18.0548207,4.6944253 18.0179596,4.69426879 17.9807821,4.69599038 C17.9739794,4.6963034 17.9671767,4.69755546 17.9603741,4.69802498 C17.9284172,4.70005958 17.8964604,4.70256371 17.8645035,4.70725895 C17.8491579,4.70960657 17.8339705,4.71336275 17.8186249,4.7163364 C17.795211,4.72056212 17.7716389,4.72447481 17.7482249,4.73026561 C17.721647,4.73683894 17.6952272,4.74575989 17.6688075,4.7540548 C17.6571005,4.75781099 17.6452353,4.76062814 17.6335284,4.76469734 L17.6319464,4.76532337 C17.6314717,4.76547988 17.6308389,4.76563639 17.6302061,4.7657929 C17.6297315,4.7659494 17.6292569,4.76626242 17.6287823,4.76641893 L3.51920558,9.8009645 L2.70747026,7.59482938 L16.8153068,2.56090984 C16.8156232,2.56075334 16.8157814,2.56059683 16.8160978,2.56059683 C16.8168888,2.56028381 16.8176798,2.5601273 16.818629,2.55981429 C18.6632663,1.89575134 20.7096113,2.83980689 21.3808631,4.6645323 L38.3138739,50.6899009 C37.9294427,50.7787974 37.5489665,50.8891355 37.1741855,51.0242018 C36.7965569,51.1602071 36.434274,51.3190626 36.0843308,51.4943514 L19.1514782,5.46741773 Z M47.3668348,63.3576489 C46.5185548,65.1573331 45.0127865,66.5223948 43.1267003,67.2014825 C42.2961389,67.5005691 41.4315641,67.6522253 40.5573389,67.6522253 C37.4102232,67.6522253 34.5722345,65.6855472 33.4955105,62.7583803 C32.0783355,58.9067213 34.0930401,54.6323345 37.9865537,53.2301804 C38.817115,52.9310938 39.6815317,52.7794377 40.5559151,52.7794377 C43.7028726,52.7794377 46.5410195,54.7461157 47.6177434,57.6734392 C48.3043408,59.5393261 48.215273,61.5581213 47.3668348,63.3576489 Z M50.1850482,57.998506 C50.094873,57.6191309 49.9844478,57.242573 49.847603,56.8707102 C49.7109163,56.499004 49.5519231,56.1393489 49.3737875,55.7922144 L77.480301,45.6808661 L78.2920363,47.8870013 L50.1850482,57.998506 Z" id="Shape"></path>
            </g>
        </g>
    </g>
</svg>