<?xml version="1.0" encoding="UTF-8"?>
<svg width="1383px" height="457px" viewBox="0 0 1383 457" version="1.1" xmlns="http://www.w3.org/2000/svg" xmlns:xlink="http://www.w3.org/1999/xlink">
    <!-- Generator: Sketch 50.2 (55047) - http://www.bohemiancoding.com/sketch -->
    <title>Group 2</title>
    <desc>Created with Sketch.</desc>
    <defs></defs>
    <g id="USER" stroke="none" stroke-width="1" fill="none" fill-rule="evenodd" opacity="0.347090127">
        <g id="main_black" transform="translate(-30.000000, -1160.000000)" stroke="#171717">
            <g id="Group-2" transform="translate(30.000000, 1161.000000)">
                <circle id="Oval-4" cx="157" cy="280" r="17"></circle>
                <circle id="Oval-4" transform="translate(239.500000, 136.500000) scale(-1, 1) translate(-239.500000, -136.500000) " cx="239.5" cy="136.5" r="6.5"></circle>
                <circle id="Oval-4" transform="translate(821.000000, 189.000000) scale(-1, 1) translate(-821.000000, -189.000000) " cx="821" cy="189" r="9"></circle>
                <circle id="Oval-4" transform="translate(742.000000, 395.000000) scale(-1, 1) translate(-742.000000, -395.000000) " cx="742" cy="395" r="9"></circle>
                <circle id="Oval-4" fill="#D1D1D1" transform="translate(1192.000000, 46.000000) scale(-1, 1) translate(-1192.000000, -46.000000) " cx="1192" cy="46" r="15"></circle>
                <circle id="Oval-4" fill="#D1D1D1" transform="translate(1206.500000, 303.500000) scale(-1, 1) translate(-1206.500000, -303.500000) " cx="1206.5" cy="303.5" r="6.5"></circle>
                <circle id="Oval-4" fill="#D1D1D1" transform="translate(1337.500000, 156.500000) scale(-1, 1) translate(-1337.500000, -156.500000) " cx="1337.5" cy="156.5" r="8.5"></circle>
                <circle id="Oval-4" fill="#D1D1D1" transform="translate(1141.500000, 248.500000) scale(-1, 1) translate(-1141.500000, -248.500000) " cx="1141.5" cy="248.5" r="8.5"></circle>
                <circle id="Oval-4" fill="#D1D1D1" transform="translate(1367.500000, 385.500000) scale(-1, 1) translate(-1367.500000, -385.500000) " cx="1367.5" cy="385.5" r="8.5"></circle>
                <circle id="Oval-4" fill="#D1D1D1" cx="756.5" cy="44.5" r="5.5"></circle>
                <circle id="Oval-4" fill="#D1D1D1" cx="639.5" cy="5.5" r="5.5"></circle>
                <circle id="Oval-4" fill="#D1D1D1" cx="1274.5" cy="29.5" r="5.5"></circle>
                <circle id="Oval-4" cx="1155.5" cy="116.5" r="5.5"></circle>
                <circle id="Oval-4" transform="translate(30.500000, 39.500000) scale(-1, 1) translate(-30.500000, -39.500000) " cx="30.5" cy="39.5" r="8.5"></circle>
                <circle id="Oval-4" transform="translate(305.500000, 37.500000) scale(-1, 1) translate(-305.500000, -37.500000) " cx="305.5" cy="37.5" r="8.5"></circle>
                <circle id="Oval-4" transform="translate(165.500000, 89.500000) scale(-1, 1) translate(-165.500000, -89.500000) " cx="165.5" cy="89.5" r="8.5"></circle>
                <circle id="Oval-4" transform="translate(11.500000, 369.500000) scale(-1, 1) translate(-11.500000, -369.500000) " cx="11.5" cy="369.5" r="8.5"></circle>
                <circle id="Oval-4" cx="234.5" cy="291.5" r="11.5"></circle>
                <circle id="Oval-4" cx="1370" cy="217" r="12"></circle>
                <circle id="Oval-4" transform="translate(78.000000, 233.000000) scale(-1, 1) translate(-78.000000, -233.000000) " cx="78" cy="233" r="7"></circle>
                <circle id="Oval-4" fill="#D1D1D1" transform="translate(765.500000, 288.500000) scale(-1, 1) translate(-765.500000, -288.500000) " cx="765.5" cy="288.5" r="8.5"></circle>
                <circle id="Oval-4" fill="#D1D1D1" transform="translate(166.000000, 442.000000) scale(-1, -1) translate(-166.000000, -442.000000) " cx="166" cy="442" r="13"></circle>
                <rect id="Rectangle-8" fill="#D1D1D1" x="64.5" y="96.5" width="13" height="13"></rect>
                <rect id="Rectangle-8" fill="#D1D1D1" x="81.5" y="349.5" width="13" height="13"></rect>
                <rect id="Rectangle-8" fill="#D1D1D1" x="701.5" y="326.5" width="13" height="13"></rect>
                <rect id="Rectangle-8" fill="#D1D1D1" x="510.5" y="415.5" width="13" height="13"></rect>
                <rect id="Rectangle-8" fill="#D1D1D1" x="1231.5" y="134.5" width="13" height="13"></rect>
                <rect id="Rectangle-8" fill="#D1D1D1" transform="translate(303.897987, 266.897987) rotate(46.000000) translate(-303.897987, -266.897987) " x="297.397987" y="260.397987" width="13" height="13"></rect>
                <rect id="Rectangle-8" transform="translate(35.897987, 145.897987) rotate(46.000000) translate(-35.897987, -145.897987) " x="29.3979872" y="139.397987" width="13" height="13"></rect>
                <rect id="Rectangle-8" transform="translate(9.897987, 281.897987) rotate(46.000000) translate(-9.897987, -281.897987) " x="3.3979872" y="275.397987" width="13" height="13"></rect>
                <rect id="Rectangle-8" transform="translate(272.897987, 424.897987) rotate(46.000000) translate(-272.897987, -424.897987) " x="266.397987" y="418.397987" width="13" height="13"></rect>
                <rect id="Rectangle-8" transform="translate(820.897987, 33.897987) rotate(46.000000) translate(-820.897987, -33.897987) " x="814.397987" y="27.3979872" width="13" height="13"></rect>
                <rect id="Rectangle-8" transform="translate(1319.007409, 79.007409) rotate(46.000000) translate(-1319.007409, -79.007409) " x="1312.43002" y="72.4300242" width="13.1547687" height="13.1547687"></rect>
                <rect id="Rectangle-8" transform="translate(1150.080289, 333.080289) rotate(46.000000) translate(-1150.080289, -333.080289) " x="1133.55036" y="316.55036" width="33.0598594" height="33.0598594"></rect>
                <rect id="Rectangle-8" transform="translate(645.080289, 412.080289) rotate(46.000000) translate(-645.080289, -412.080289) " x="628.55036" y="395.55036" width="33.0598594" height="33.0598594"></rect>
                <rect id="Rectangle-8" transform="translate(1285.972051, 239.972051) rotate(46.000000) translate(-1285.972051, -239.972051) " x="1278.71246" y="232.712458" width="14.5191875" height="14.5191875"></rect>
                <polygon id="Triangle" transform="translate(148.152567, 165.152567) rotate(31.000000) translate(-148.152567, -165.152567) " points="148.152567 152.652567 160.652567 177.652567 135.652567 177.652567"></polygon>
                <polygon id="Triangle" transform="translate(589.152567, 28.152567) rotate(31.000000) translate(-589.152567, -28.152567) " points="589.152567 15.6525672 601.652567 40.6525672 576.652567 40.6525672"></polygon>
                <polygon id="Triangle" transform="translate(818.577589, 96.577589) rotate(-77.000000) translate(-818.577589, -96.577589) " points="818.577589 90.2593571 824.895821 102.895821 812.259357 102.895821"></polygon>
                <polygon id="Triangle" transform="translate(810.815015, 343.815015) rotate(-74.000000) translate(-810.815015, -343.815015) " points="810.815015 337.496783 817.133247 350.133247 804.496783 350.133247"></polygon>
                <polygon id="Triangle" transform="translate(1213.815015, 196.815015) rotate(-74.000000) translate(-1213.815015, -196.815015) " points="1213.81502 190.496783 1220.13325 203.133247 1207.49678 203.133247"></polygon>
                <polygon id="Triangle" transform="translate(399.815015, 432.815015) rotate(-74.000000) translate(-399.815015, -432.815015) " points="399.815015 426.496783 406.133247 439.133247 393.496783 439.133247"></polygon>
                <polygon id="Triangle" transform="translate(1350.815015, 271.815015) rotate(-74.000000) translate(-1350.815015, -271.815015) " points="1350.81502 265.496783 1357.13325 278.133247 1344.49678 278.133247"></polygon>
                <polygon id="Triangle" transform="translate(1236.815015, 393.815015) rotate(-74.000000) translate(-1236.815015, -393.815015) " points="1236.81502 387.496783 1243.13325 400.133247 1230.49678 400.133247"></polygon>
                <polygon id="Triangle" transform="translate(18.833571, 434.833571) rotate(44.000000) translate(-18.833571, -434.833571) " points="18.8335707 430.00077 23.666371 439.666371 14.0007705 439.666371"></polygon>
                <polygon id="Triangle" transform="translate(204.833571, 359.833571) rotate(44.000000) translate(-204.833571, -359.833571) " points="204.833571 355.00077 209.666371 364.666371 200.00077 364.666371"></polygon>
                <polygon id="Triangle" transform="translate(190.833571, 6.833571) rotate(44.000000) translate(-190.833571, -6.833571) " points="190.833571 2.00077047 195.666371 11.666371 186.00077 11.666371"></polygon>
                <path d="M198.681716,171 C191.560572,171 188,173.465011 188,178.395034 C188,185.790068 201.146727,183.344438 201.146727,189.89842 C201.146727,196.471783 197.038375,199.484575 188.82167,198.936795" id="Line-2" stroke-linecap="square"></path>
                <path d="M439.681716,17 C432.560572,17 429,19.4650113 429,24.3950339 C429,31.7900677 442.146727,29.3444378 442.146727,35.8984199 C442.146727,42.4717833 438.038375,45.4845749 429.82167,44.9367946" id="Line-2" stroke-linecap="square"></path>
                <path d="M336.681716,360 C329.560572,360 326,362.465011 326,367.395034 C326,374.790068 339.146727,372.344438 339.146727,378.89842 C339.146727,385.471783 335.038375,388.484575 326.82167,387.936795" id="Line-2" stroke-linecap="square"></path>
                <path d="M762.681716,217 C755.560572,217 752,219.465011 752,224.395034 C752,231.790068 765.146727,229.344438 765.146727,235.89842 C765.146727,242.471783 761.038375,245.484575 752.82167,244.936795" id="Line-2" stroke-linecap="square"></path>
                <path d="M1369.68172,29 C1362.56057,29 1359,31.4650113 1359,36.3950339 C1359,43.7900677 1372.14673,41.3444378 1372.14673,47.8984199 C1372.14673,54.4717833 1368.03837,57.4845749 1359.82167,56.9367946" id="Line-2" stroke-linecap="square"></path>
            </g>
        </g>
    </g>
</svg>