<?xml version="1.0" encoding="UTF-8"?>
<svg width="189px" height="58px" viewBox="0 0 189 58" version="1.1" xmlns="http://www.w3.org/2000/svg" xmlns:xlink="http://www.w3.org/1999/xlink">
    <!-- Generator: Sketch 51 (57462) - http://www.bohemiancoding.com/sketch -->
    <title>BTN_AppStore</title>
    <desc>Created with Sketch.</desc>
    <defs>
        <path d="M6.96,7.8 C6.96,6.864 6.576,6.012 5.94,5.448 C5.412,4.992 4.716,4.74 3.54,4.74 L2.28,4.74 L2.28,10.86 L3.54,10.86 C4.716,10.86 5.412,10.608 5.94,10.152 C6.576,9.588 6.96,8.736 6.96,7.8 Z M3.6,12 L1.08,12 L1.08,3.6 L3.6,3.6 C4.932,3.6 5.796,3.888 6.48,4.392 C7.512,5.16 8.16,6.408 8.16,7.8 C8.16,9.192 7.524,10.44 6.492,11.208 C5.808,11.712 4.932,12 3.6,12 Z M14.568,9.42 L10.224,9.42 C10.284,10.368 11.064,11.124 12.048,11.124 C12.888,11.124 13.344,10.716 13.668,10.356 L14.412,11.064 C13.992,11.604 13.188,12.12 12.036,12.12 C10.392,12.12 9.12,10.872 9.12,9.18 C9.12,7.488 10.272,6.24 11.868,6.24 C13.44,6.24 14.58,7.512 14.58,9.18 C14.58,9.228 14.58,9.312 14.568,9.42 Z M11.904,7.236 C11.172,7.236 10.512,7.728 10.32,8.46 L13.392,8.46 C13.224,7.74 12.576,7.236 11.904,7.236 Z M15.6,11.34 L16.188,10.5 C16.716,10.908 17.292,11.124 17.856,11.124 C18.348,11.124 18.84,10.86 18.84,10.416 C18.84,9.768 17.904,9.732 17.076,9.456 C16.392,9.228 15.78,8.796 15.78,8.004 C15.78,6.792 16.86,6.24 17.868,6.24 C18.696,6.24 19.296,6.504 19.74,6.864 L19.152,7.68 C18.804,7.416 18.396,7.236 17.94,7.236 C17.388,7.236 16.92,7.5 16.92,7.944 C16.92,8.328 17.364,8.46 17.928,8.604 C18.816,8.832 19.98,9.228 19.98,10.392 C19.98,11.46 18.984,12.12 17.88,12.12 C16.98,12.12 16.224,11.844 15.6,11.34 Z M25.764,10.164 L26.64,10.8 C26.172,11.58 25.164,12.12 24.132,12.12 C22.392,12.12 21.12,10.848 21.12,9.18 C21.12,7.512 22.368,6.24 24.06,6.24 C25.044,6.24 25.932,6.732 26.46,7.464 L25.62,8.172 C25.308,7.74 24.78,7.32 24.06,7.32 C23.04,7.32 22.26,8.112 22.26,9.18 C22.26,10.284 23.052,11.04 24.132,11.04 C24.876,11.04 25.404,10.644 25.764,10.164 Z M32.076,12 L32.076,11.484 C31.62,11.892 31.008,12.12 30.336,12.12 C29.832,12.12 29.304,11.976 28.92,11.748 C28.068,11.244 27.48,10.308 27.48,9.18 C27.48,8.052 28.08,7.104 28.932,6.6 C29.316,6.372 29.784,6.24 30.312,6.24 C30.948,6.24 31.56,6.432 32.076,6.876 L32.076,6.36 L33.18,6.36 L33.18,12 L32.076,12 Z M32.04,10.236 L32.04,8.124 C31.692,7.668 31.116,7.32 30.432,7.32 C29.34,7.32 28.62,8.196 28.62,9.18 C28.62,10.188 29.4,11.04 30.492,11.04 C31.068,11.04 31.656,10.752 32.04,10.236 Z M38.46,6.276 L38.328,7.368 C38.196,7.332 38.064,7.32 37.884,7.32 C37.296,7.32 36.672,7.728 36.36,8.268 L36.36,12 L35.22,12 L35.22,6.36 L36.324,6.36 L36.324,7.008 C36.6,6.624 37.188,6.24 38.016,6.24 C38.136,6.24 38.328,6.252 38.46,6.276 Z M43.68,11.508 C43.224,11.904 42.648,12.12 41.976,12.12 C41.472,12.12 40.944,11.976 40.56,11.748 C39.708,11.244 39.12,10.308 39.12,9.18 C39.12,8.052 39.72,7.104 40.572,6.6 C40.956,6.372 41.424,6.24 41.952,6.24 C42.588,6.24 43.2,6.432 43.716,6.876 L43.716,6.36 L44.82,6.36 L44.82,11.76 C44.82,12.6 44.712,13.164 44.484,13.608 C44.028,14.484 43.164,15 42.048,15 C40.584,15 39.66,14.256 39.3,13.692 L40.14,12.912 C40.548,13.452 41.076,13.92 42,13.92 C42.612,13.92 43.092,13.692 43.368,13.272 C43.572,12.96 43.68,12.528 43.68,11.82 L43.68,11.508 Z M43.68,10.236 L43.68,8.124 C43.332,7.668 42.756,7.32 42.072,7.32 C40.98,7.32 40.26,8.196 40.26,9.18 C40.26,10.188 41.04,11.04 42.132,11.04 C42.708,11.04 43.296,10.752 43.68,10.236 Z M50.976,12 L50.976,11.484 C50.52,11.892 49.908,12.12 49.236,12.12 C48.732,12.12 48.204,11.976 47.82,11.748 C46.968,11.244 46.38,10.308 46.38,9.18 C46.38,8.052 46.98,7.104 47.832,6.6 C48.216,6.372 48.684,6.24 49.212,6.24 C49.848,6.24 50.46,6.432 50.976,6.876 L50.976,6.36 L52.08,6.36 L52.08,12 L50.976,12 Z M50.94,10.236 L50.94,8.124 C50.592,7.668 50.016,7.32 49.332,7.32 C48.24,7.32 47.52,8.196 47.52,9.18 C47.52,10.188 48.3,11.04 49.392,11.04 C49.968,11.04 50.556,10.752 50.94,10.236 Z M62.328,9.42 L57.984,9.42 C58.044,10.368 58.824,11.124 59.808,11.124 C60.648,11.124 61.104,10.716 61.428,10.356 L62.172,11.064 C61.752,11.604 60.948,12.12 59.796,12.12 C58.152,12.12 56.88,10.872 56.88,9.18 C56.88,7.488 58.032,6.24 59.628,6.24 C61.2,6.24 62.34,7.512 62.34,9.18 C62.34,9.228 62.34,9.312 62.328,9.42 Z M59.664,7.236 C58.932,7.236 58.272,7.728 58.08,8.46 L61.152,8.46 C60.984,7.74 60.336,7.236 59.664,7.236 Z M65.004,6.36 L65.004,6.9 C65.304,6.612 65.88,6.24 66.696,6.24 C67.524,6.24 68.268,6.624 68.748,7.236 C69.108,7.692 69.3,8.268 69.3,9.24 L69.3,12 L68.16,12 L68.16,9.18 C68.16,8.46 68.028,8.124 67.824,7.872 C67.56,7.536 67.128,7.32 66.66,7.32 C65.916,7.32 65.376,7.716 65.04,8.124 L65.04,12 L63.9,12 L63.9,6.36 L65.004,6.36 Z" id="path-1"></path>
        <path d="M8.816,32 L7.632,29.12 L2.912,29.12 L1.744,32 L0.08,32 L4.72,20.8 L5.84,20.8 L10.48,32 L8.816,32 Z M5.28,23.44 L3.552,27.6 L7.008,27.6 L5.28,23.44 Z M13.44,31.344 L13.44,35.84 L11.92,35.84 L11.92,24.48 L13.392,24.48 L13.392,25.168 C14.08,24.576 14.896,24.32 15.744,24.32 C16.448,24.32 17.072,24.496 17.584,24.8 C18.72,25.472 19.52,26.736 19.52,28.24 C19.52,29.744 18.736,30.992 17.6,31.664 C17.088,31.968 16.384,32.16 15.712,32.16 C14.816,32.16 14.048,31.872 13.44,31.344 Z M13.44,26.832 L13.44,29.648 C13.952,30.336 14.736,30.72 15.504,30.72 C16.96,30.72 18,29.584 18,28.24 C18,26.928 17.04,25.76 15.584,25.76 C14.672,25.76 13.904,26.224 13.44,26.832 Z M23.12,31.344 L23.12,35.84 L21.6,35.84 L21.6,24.48 L23.072,24.48 L23.072,25.168 C23.76,24.576 24.576,24.32 25.424,24.32 C26.128,24.32 26.752,24.496 27.264,24.8 C28.4,25.472 29.2,26.736 29.2,28.24 C29.2,29.744 28.416,30.992 27.28,31.664 C26.768,31.968 26.064,32.16 25.392,32.16 C24.496,32.16 23.728,31.872 23.12,31.344 Z M23.12,26.832 L23.12,29.648 C23.632,30.336 24.416,30.72 25.184,30.72 C26.64,30.72 27.68,29.584 27.68,28.24 C27.68,26.928 26.72,25.76 25.264,25.76 C24.352,25.76 23.584,26.224 23.12,26.832 Z M30.4,30.288 L31.504,29.2 C32.16,30 33.088,30.64 34.24,30.64 C35.28,30.64 36.192,29.968 36.192,28.96 C36.192,27.248 33.824,27.056 32.336,26.08 C31.536,25.552 30.912,24.784 30.912,23.616 C30.912,21.984 32.352,20.64 34.304,20.64 C35.728,20.64 36.72,21.264 37.312,21.76 L36.368,22.928 C35.76,22.416 35.072,22.16 34.368,22.16 C33.44,22.16 32.512,22.688 32.512,23.664 C32.512,25.088 34.896,25.392 36.336,26.352 C37.088,26.848 37.792,27.632 37.792,28.912 C37.792,30.88 36.272,32.16 34.32,32.16 C32.784,32.16 31.392,31.488 30.4,30.288 Z M43.808,30.624 L44.112,32 C43.824,32.096 43.36,32.16 42.928,32.16 C41.984,32.16 41.28,31.824 40.8,31.28 C40.352,30.784 40.192,30.096 40.192,29.28 L40.192,25.84 L38.272,25.84 L38.272,24.48 L40.192,24.48 L40.192,22.4 L41.712,22.4 L41.712,24.48 L44.112,24.48 L44.112,25.84 L41.712,25.84 L41.712,29.36 C41.712,29.76 41.744,30.096 41.936,30.32 C42.144,30.576 42.576,30.72 42.976,30.72 C43.2,30.72 43.584,30.688 43.808,30.624 Z M45.312,28.24 C45.312,26 46.976,24.32 49.2,24.32 C51.424,24.32 53.088,26 53.088,28.24 C53.088,30.48 51.424,32.16 49.2,32.16 C46.976,32.16 45.312,30.48 45.312,28.24 Z M46.832,28.24 C46.832,29.616 47.808,30.72 49.2,30.72 C50.592,30.72 51.568,29.616 51.568,28.24 C51.568,26.864 50.592,25.76 49.2,25.76 C47.808,25.76 46.832,26.864 46.832,28.24 Z M59.488,24.368 L59.312,25.824 C59.136,25.776 58.96,25.76 58.72,25.76 C57.936,25.76 57.104,26.304 56.688,27.024 L56.688,32 L55.168,32 L55.168,24.48 L56.64,24.48 L56.64,25.344 C57.008,24.832 57.792,24.32 58.896,24.32 C59.056,24.32 59.312,24.336 59.488,24.368 Z M67.632,28.56 L61.84,28.56 C61.92,29.824 62.96,30.832 64.272,30.832 C65.392,30.832 66,30.288 66.432,29.808 L67.424,30.752 C66.864,31.472 65.792,32.16 64.256,32.16 C62.064,32.16 60.368,30.496 60.368,28.24 C60.368,25.984 61.904,24.32 64.032,24.32 C66.128,24.32 67.648,26.016 67.648,28.24 C67.648,28.304 67.648,28.416 67.632,28.56 Z M64.08,25.648 C63.104,25.648 62.224,26.304 61.968,27.28 L66.064,27.28 C65.84,26.32 64.976,25.648 64.08,25.648 Z" id="path-2"></path>
    </defs>
    <g id="Page-1" stroke="none" stroke-width="1" fill="none" fill-rule="evenodd">
        <g id="BTN_AppStore">
            <rect id="Rectangle" fill="#171717" fill-rule="nonzero" x="0" y="0" width="189" height="58" rx="4"></rect>
            <g id="Descarga-en-AppStore" transform="translate(72.000000, 6.000000)">
                <g id="Descarga-en">
                    <use fill="#000000" xlink:href="#path-1"></use>
                    <use fill="#FFFFFF" xlink:href="#path-1"></use>
                </g>
                <g id="AppStore">
                    <use fill="#000000" xlink:href="#path-2"></use>
                    <use fill="#FFFFFF" xlink:href="#path-2"></use>
                </g>
            </g>
            <g id="apple" transform="translate(21.000000, 11.000000)" fill="#FFFFFF" fill-rule="nonzero">
                <path d="M23.3856665,17.534198 C23.3422801,13.3549969 26.9371686,11.3507 27.0977519,11.25112 C25.0778686,8.41454073 21.9313505,8.02595321 20.8100886,7.98102942 C18.1322909,7.72083241 15.5850552,9.49400062 14.2260415,9.49400062 C12.870453,9.49400062 10.773334,8.0195079 8.55250336,8.05824419 C5.63379721,8.09988087 2.94256719,9.68690864 1.43969343,12.1954863 C-1.59278436,17.2453838 0.663104562,24.7264508 3.61874956,28.8219918 C5.06299129,30.8267398 6.78514746,33.0783431 9.04627499,32.9979057 C11.2237192,32.9145035 12.0471197,31.6457449 14.6796505,31.6457449 C17.3121142,31.6457449 18.0521672,32.9979057 20.3564124,32.956398 C22.6995442,32.9146324 24.1840157,30.9133003 25.6183175,28.9024292 C27.2768046,26.5767049 27.9597031,24.3250371 28,24.2094728 C27.9479498,24.1866564 23.4309334,22.5260232 23.3856665,17.534198 Z M19.0558964,5.26974688 C20.2560059,3.87246893 21.0660413,1.93391415 20.8450798,0 C19.1164089,0.06754681 17.0210361,1.10504776 15.780764,2.49916752 C14.6678973,3.73589289 13.6937191,5.70976794 13.954776,7.60501026 C15.8845957,7.74951402 17.8545108,6.66386663 19.0558964,5.26974688 Z" id="Shape"></path>
            </g>
        </g>
    </g>
</svg>