<?xml version="1.0" encoding="UTF-8"?>
<svg width="189px" height="58px" viewBox="0 0 189 58" version="1.1" xmlns="http://www.w3.org/2000/svg" xmlns:xlink="http://www.w3.org/1999/xlink">
    <!-- Generator: Sketch 51 (57462) - http://www.bohemiancoding.com/sketch -->
    <title>BTN_GooglePlay</title>
    <desc>Created with Sketch.</desc>
    <defs>
        <path d="M9.48,5.1 C9.48,4.008 9.032,3.014 8.29,2.356 C7.674,1.824 6.862,1.53 5.49,1.53 L4.02,1.53 L4.02,8.67 L5.49,8.67 C6.862,8.67 7.674,8.376 8.29,7.844 C9.032,7.186 9.48,6.192 9.48,5.1 Z M5.56,10 L2.62,10 L2.62,0.2 L5.56,0.2 C7.114,0.2 8.122,0.536 8.92,1.124 C10.124,2.02 10.88,3.476 10.88,5.1 C10.88,6.724 10.138,8.18 8.934,9.076 C8.136,9.664 7.114,10 5.56,10 Z M18.356,6.99 L13.288,6.99 C13.358,8.096 14.268,8.978 15.416,8.978 C16.396,8.978 16.928,8.502 17.306,8.082 L18.174,8.908 C17.684,9.538 16.746,10.14 15.402,10.14 C13.484,10.14 12,8.684 12,6.71 C12,4.736 13.344,3.28 15.206,3.28 C17.04,3.28 18.37,4.764 18.37,6.71 C18.37,6.766 18.37,6.864 18.356,6.99 Z M15.248,4.442 C14.394,4.442 13.624,5.016 13.4,5.87 L16.984,5.87 C16.788,5.03 16.032,4.442 15.248,4.442 Z M19.56,9.23 L20.246,8.25 C20.862,8.726 21.534,8.978 22.192,8.978 C22.766,8.978 23.34,8.67 23.34,8.152 C23.34,7.396 22.248,7.354 21.282,7.032 C20.484,6.766 19.77,6.262 19.77,5.338 C19.77,3.924 21.03,3.28 22.206,3.28 C23.172,3.28 23.872,3.588 24.39,4.008 L23.704,4.96 C23.298,4.652 22.822,4.442 22.29,4.442 C21.646,4.442 21.1,4.75 21.1,5.268 C21.1,5.716 21.618,5.87 22.276,6.038 C23.312,6.304 24.67,6.766 24.67,8.124 C24.67,9.37 23.508,10.14 22.22,10.14 C21.17,10.14 20.288,9.818 19.56,9.23 Z M31.418,7.858 L32.44,8.6 C31.894,9.51 30.718,10.14 29.514,10.14 C27.484,10.14 26,8.656 26,6.71 C26,4.764 27.456,3.28 29.43,3.28 C30.578,3.28 31.614,3.854 32.23,4.708 L31.25,5.534 C30.886,5.03 30.27,4.54 29.43,4.54 C28.24,4.54 27.33,5.464 27.33,6.71 C27.33,7.998 28.254,8.88 29.514,8.88 C30.382,8.88 30.998,8.418 31.418,7.858 Z M38.782,10 L38.782,9.398 C38.25,9.874 37.536,10.14 36.752,10.14 C36.164,10.14 35.548,9.972 35.1,9.706 C34.106,9.118 33.42,8.026 33.42,6.71 C33.42,5.394 34.12,4.288 35.114,3.7 C35.562,3.434 36.108,3.28 36.724,3.28 C37.466,3.28 38.18,3.504 38.782,4.022 L38.782,3.42 L40.07,3.42 L40.07,10 L38.782,10 Z M38.74,7.942 L38.74,5.478 C38.334,4.946 37.662,4.54 36.864,4.54 C35.59,4.54 34.75,5.562 34.75,6.71 C34.75,7.886 35.66,8.88 36.934,8.88 C37.606,8.88 38.292,8.544 38.74,7.942 Z M46.23,3.322 L46.076,4.596 C45.922,4.554 45.768,4.54 45.558,4.54 C44.872,4.54 44.144,5.016 43.78,5.646 L43.78,10 L42.45,10 L42.45,3.42 L43.738,3.42 L43.738,4.176 C44.06,3.728 44.746,3.28 45.712,3.28 C45.852,3.28 46.076,3.294 46.23,3.322 Z M52.32,9.426 C51.788,9.888 51.116,10.14 50.332,10.14 C49.744,10.14 49.128,9.972 48.68,9.706 C47.686,9.118 47,8.026 47,6.71 C47,5.394 47.7,4.288 48.694,3.7 C49.142,3.434 49.688,3.28 50.304,3.28 C51.046,3.28 51.76,3.504 52.362,4.022 L52.362,3.42 L53.65,3.42 L53.65,9.72 C53.65,10.7 53.524,11.358 53.258,11.876 C52.726,12.898 51.718,13.5 50.416,13.5 C48.708,13.5 47.63,12.632 47.21,11.974 L48.19,11.064 C48.666,11.694 49.282,12.24 50.36,12.24 C51.074,12.24 51.634,11.974 51.956,11.484 C52.194,11.12 52.32,10.616 52.32,9.79 L52.32,9.426 Z M52.32,7.942 L52.32,5.478 C51.914,4.946 51.242,4.54 50.444,4.54 C49.17,4.54 48.33,5.562 48.33,6.71 C48.33,7.886 49.24,8.88 50.514,8.88 C51.186,8.88 51.872,8.544 52.32,7.942 Z M60.832,10 L60.832,9.398 C60.3,9.874 59.586,10.14 58.802,10.14 C58.214,10.14 57.598,9.972 57.15,9.706 C56.156,9.118 55.47,8.026 55.47,6.71 C55.47,5.394 56.17,4.288 57.164,3.7 C57.612,3.434 58.158,3.28 58.774,3.28 C59.516,3.28 60.23,3.504 60.832,4.022 L60.832,3.42 L62.12,3.42 L62.12,10 L60.832,10 Z M60.79,7.942 L60.79,5.478 C60.384,4.946 59.712,4.54 58.914,4.54 C57.64,4.54 56.8,5.562 56.8,6.71 C56.8,7.886 57.71,8.88 58.984,8.88 C59.656,8.88 60.342,8.544 60.79,7.942 Z M74.076,6.99 L69.008,6.99 C69.078,8.096 69.988,8.978 71.136,8.978 C72.116,8.978 72.648,8.502 73.026,8.082 L73.894,8.908 C73.404,9.538 72.466,10.14 71.122,10.14 C69.204,10.14 67.72,8.684 67.72,6.71 C67.72,4.736 69.064,3.28 70.926,3.28 C72.76,3.28 74.09,4.764 74.09,6.71 C74.09,6.766 74.09,6.864 74.076,6.99 Z M70.968,4.442 C70.114,4.442 69.344,5.016 69.12,5.87 L72.704,5.87 C72.508,5.03 71.752,4.442 70.968,4.442 Z M77.198,3.42 L77.198,4.05 C77.548,3.714 78.22,3.28 79.172,3.28 C80.138,3.28 81.006,3.728 81.566,4.442 C81.986,4.974 82.21,5.646 82.21,6.78 L82.21,10 L80.88,10 L80.88,6.71 C80.88,5.87 80.726,5.478 80.488,5.184 C80.18,4.792 79.676,4.54 79.13,4.54 C78.262,4.54 77.632,5.002 77.24,5.478 L77.24,10 L75.91,10 L75.91,3.42 L77.198,3.42 Z" id="path-1"></path>
        <path d="M10.72,23.2 L10.72,28.08 C9.76,29.296 8.096,30.16 6.368,30.16 C3.024,30.16 0.56,27.712 0.56,24.4 C0.56,21.168 2.992,18.64 6.224,18.64 C7.824,18.64 9.344,19.296 10.32,20.368 L9.248,21.424 C8.592,20.704 7.424,20.16 6.224,20.16 C3.936,20.16 2.16,21.984 2.16,24.4 C2.16,26.928 3.984,28.64 6.368,28.64 C7.552,28.64 8.528,28.192 9.12,27.6 L9.12,24.72 L5.92,24.72 L5.92,23.2 L10.72,23.2 Z M12.48,26.24 C12.48,24 14.144,22.32 16.368,22.32 C18.592,22.32 20.256,24 20.256,26.24 C20.256,28.48 18.592,30.16 16.368,30.16 C14.144,30.16 12.48,28.48 12.48,26.24 Z M14,26.24 C14,27.616 14.976,28.72 16.368,28.72 C17.76,28.72 18.736,27.616 18.736,26.24 C18.736,24.864 17.76,23.76 16.368,23.76 C14.976,23.76 14,24.864 14,26.24 Z M21.696,26.24 C21.696,24 23.36,22.32 25.584,22.32 C27.808,22.32 29.472,24 29.472,26.24 C29.472,28.48 27.808,30.16 25.584,30.16 C23.36,30.16 21.696,28.48 21.696,26.24 Z M23.216,26.24 C23.216,27.616 24.192,28.72 25.584,28.72 C26.976,28.72 27.952,27.616 27.952,26.24 C27.952,24.864 26.976,23.76 25.584,23.76 C24.192,23.76 23.216,24.864 23.216,26.24 Z M36.992,29.344 C36.384,29.872 35.616,30.16 34.72,30.16 C34.048,30.16 33.344,29.968 32.832,29.664 C31.696,28.992 30.912,27.744 30.912,26.24 C30.912,24.736 31.712,23.472 32.848,22.8 C33.36,22.496 33.984,22.32 34.688,22.32 C35.536,22.32 36.352,22.576 37.04,23.168 L37.04,22.48 L38.512,22.48 L38.512,29.68 C38.512,30.8 38.368,31.552 38.064,32.144 C37.456,33.312 36.304,34 34.816,34 C32.864,34 31.632,33.008 31.152,32.256 L32.272,31.216 C32.816,31.936 33.52,32.56 34.752,32.56 C35.568,32.56 36.208,32.256 36.576,31.696 C36.848,31.28 36.992,30.704 36.992,29.76 L36.992,29.344 Z M36.992,27.648 L36.992,24.832 C36.528,24.224 35.76,23.76 34.848,23.76 C33.392,23.76 32.432,24.928 32.432,26.24 C32.432,27.584 33.472,28.72 34.928,28.72 C35.696,28.72 36.48,28.336 36.992,27.648 Z M41.232,30 L41.232,18.64 L42.752,18.64 L42.752,30 L41.232,30 Z M52.096,26.56 L46.304,26.56 C46.384,27.824 47.424,28.832 48.736,28.832 C49.856,28.832 50.464,28.288 50.896,27.808 L51.888,28.752 C51.328,29.472 50.256,30.16 48.72,30.16 C46.528,30.16 44.832,28.496 44.832,26.24 C44.832,23.984 46.368,22.32 48.496,22.32 C50.592,22.32 52.112,24.016 52.112,26.24 C52.112,26.304 52.112,26.416 52.096,26.56 Z M48.544,23.648 C47.568,23.648 46.688,24.304 46.432,25.28 L50.528,25.28 C50.304,24.32 49.44,23.648 48.544,23.648 Z M60.192,23.52 L62.752,23.52 C63.52,23.52 63.936,23.328 64.224,23.024 C64.496,22.736 64.672,22.352 64.672,21.92 C64.672,21.488 64.496,21.104 64.224,20.816 C63.936,20.512 63.52,20.32 62.752,20.32 L60.192,20.32 L60.192,23.52 Z M62.832,25.04 L60.192,25.04 L60.192,30 L58.592,30 L58.592,18.8 L62.832,18.8 C63.92,18.8 64.624,19.072 65.168,19.536 C65.84,20.112 66.272,20.96 66.272,21.92 C66.272,22.88 65.84,23.728 65.168,24.304 C64.624,24.768 63.92,25.04 62.832,25.04 Z M68.112,30 L68.112,18.64 L69.632,18.64 L69.632,30 L68.112,30 Z M77.84,30 L77.84,29.312 C77.232,29.856 76.416,30.16 75.52,30.16 C74.848,30.16 74.144,29.968 73.632,29.664 C72.496,28.992 71.712,27.744 71.712,26.24 C71.712,24.736 72.512,23.472 73.648,22.8 C74.16,22.496 74.784,22.32 75.488,22.32 C76.336,22.32 77.152,22.576 77.84,23.168 L77.84,22.48 L79.312,22.48 L79.312,30 L77.84,30 Z M77.792,27.648 L77.792,24.832 C77.328,24.224 76.56,23.76 75.648,23.76 C74.192,23.76 73.232,24.928 73.232,26.24 C73.232,27.584 74.272,28.72 75.728,28.72 C76.496,28.72 77.28,28.336 77.792,27.648 Z M83.632,33.84 L82.016,33.84 L84.048,29.216 L80.832,22.48 L82.464,22.48 L84.816,27.44 L86.976,22.48 L88.576,22.48 L83.632,33.84 Z" id="path-2"></path>
    </defs>
    <g id="Page-1" stroke="none" stroke-width="1" fill="none" fill-rule="evenodd">
        <g id="BTN_GooglePlay">
            <rect id="Rectangle" fill="#171717" fill-rule="nonzero" x="0" y="0" width="189" height="58" rx="4"></rect>
            <g id="Descarga-en-Google-P" transform="translate(72.000000, 9.000000)">
                <g id="Descarga-en">
                    <use fill="#000000" xlink:href="#path-1"></use>
                    <use fill="#FFFFFF" xlink:href="#path-1"></use>
                </g>
                <g id="Google-Play">
                    <use fill="#000000" xlink:href="#path-2"></use>
                    <use fill="#FFFFFF" xlink:href="#path-2"></use>
                </g>
            </g>
            <g id="playstore" transform="translate(21.000000, 13.000000)" fill-rule="nonzero">
                <g id="Group" fill="#32BBFF">
                    <path d="M22.7830481,11.2774571 C19.0122996,9.14124965 12.9601334,5.71100144 3.57275858,0.387082054 C2.93986267,-0.0362809158 2.21168052,-0.0917618208 1.58252506,0.12393304 L17.688626,16.4375024 L22.7830481,11.2774571 Z" id="Shape"></path>
                    <path d="M1.58252506,0.12393304 C1.46460596,0.164387866 1.34985672,0.213190514 1.24011588,0.272138976 C0.545344145,0.652799629 0.0348051541,1.38528884 0.0348051541,2.31170437 L0.0348051541,30.5633004 C0.0348051541,31.4897159 0.545280747,32.2222051 1.24011588,32.6028015 C1.34966653,32.6616858 1.46435237,32.7106811 1.58214467,32.7513928 L17.688626,16.4375024 L1.58252506,0.12393304 Z" id="Shape"></path>
                    <path d="M17.688626,16.4375024 L1.58214467,32.7513928 C2.21149033,32.968693 2.93967248,32.9174502 3.57275858,32.4879227 C12.6764936,27.3244741 18.6604442,23.9348734 22.4748101,21.7804933 C22.5810007,21.7200679 22.6850358,21.660991 22.7878663,21.6024921 L17.688626,16.4375024 Z" id="Shape"></path>
                </g>
                <path d="M0,16.5 L0,30.7869457 C0,31.7239299 0.503618075,32.4647753 1.18911908,32.8497136 C1.29719807,32.9092696 1.41034327,32.9588239 1.5265532,33 L17.4166667,16.5 L0,16.5 Z" id="Shape" fill="#2C9FD9"></path>
                <path d="M3.29880712,0.382783435 C2.5312832,-0.114309124 1.62618119,-0.100148209 0.916666667,0.269178608 L17.46456,16.5 L22.9166667,11.1523814 C19.0659691,9.039865 12.8853783,5.64765914 3.29880712,0.382783435 Z" id="Shape" fill="#29CC5E"></path>
                <path d="M17.4609406,16.5 L0.916666667,32.7283747 C1.62608517,33.0975838 2.53091741,33.1189173 3.29826745,32.6147866 C12.5930739,27.5093518 18.7026172,24.1578348 22.59704,22.0276602 C22.7054593,21.9679137 22.8116779,21.9095006 22.9166667,21.8516589 L17.4609406,16.5 Z" id="Shape" fill="#D93F21"></path>
                <path d="M29.3333333,16.4972885 C29.3333333,15.6911103 28.9557874,14.8775251 28.2075086,14.4263564 C28.2075086,14.4263564 26.8081149,13.5850608 22.5187238,11 L17.4166667,16.4972885 L22.5236955,22 C26.7660085,19.4335229 28.2074472,18.5681545 28.2074472,18.5681545 C28.9557874,18.1170518 29.3333333,17.3034666 29.3333333,16.4972885 Z" id="Shape" fill="#FFD500"></path>
                <path d="M28.2075086,18.5699117 C28.9557874,18.1189652 29.3333333,17.3057809 29.3333333,16.5 L17.4166667,16.5 L22.5236955,22 C26.7660699,19.4348537 28.2075086,18.5699117 28.2075086,18.5699117 Z" id="Shape" fill="#FFAA00"></path>
            </g>
        </g>
    </g>
</svg>