<?xml version="1.0" encoding="UTF-8"?>
<svg width="15px" height="10px" viewBox="0 0 15 10" version="1.1" xmlns="http://www.w3.org/2000/svg" xmlns:xlink="http://www.w3.org/1999/xlink">
    <!-- Generator: Sketch 51 (57462) - http://www.bohemiancoding.com/sketch -->
    <title>message</title>
    <desc>Created with Sketch.</desc>
    <defs></defs>
    <g id="USER" stroke="none" stroke-width="1" fill="none" fill-rule="evenodd">
        <g id="main_black" transform="translate(-654.000000, -1684.000000)">
            <rect fill="#F9F9F9" x="0" y="0" width="1440" height="1843"></rect>
            <g id="message" transform="translate(654.000000, 1684.000000)" fill="#FFFFFF" fill-rule="nonzero">
                <path d="M14.3820104,0 L0.617989646,0 C0.276679789,0 0,0.28676224 0,0.640509725 L0,9.35949027 C0,9.71323776 0.276679789,10 0.617989646,10 L14.3820104,10 C14.7233202,10 15,9.71323776 15,9.35949027 L15,0.640509725 C15,0.28676224 14.7233202,0 14.3820104,0 Z M0.617989646,0.503018109 L14.3820104,0.503018109 C14.4400884,0.503311536 14.4912101,0.542714621 14.5081967,0.600268276 L7.5,5.13749162 L0.491803279,0.600268276 C0.508789905,0.542714621 0.559911562,0.503311536 0.617989646,0.503018109 Z M0.485332183,1.17370892 L5.52631579,4.43661972 L0.485332183,8.58148893 L0.485332183,1.17370892 Z M14.5146678,9.35613682 C14.5146678,9.43209256 14.4552551,9.49362844 14.3820104,9.49362844 L0.617989646,9.49362844 C0.544744931,9.49362844 0.485332183,9.43205064 0.485332183,9.35613682 L0.485332183,9.22199866 L5.96311475,4.73507713 L7.37057808,5.64721663 C7.44964679,5.69890174 7.55035321,5.69890174 7.62942192,5.64721663 L9.03688525,4.73507713 L14.5146678,9.22199866 L14.5146678,9.35613682 Z M14.5146678,8.58148893 L9.46074202,4.45003353 L14.5146678,1.20389001 L14.5146678,8.58148893 Z" id="Shape"></path>
            </g>
        </g>
    </g>
</svg>