<?xml version="1.0" encoding="UTF-8"?>
<svg width="30px" height="33px" viewBox="0 0 30 33" version="1.1" xmlns="http://www.w3.org/2000/svg" xmlns:xlink="http://www.w3.org/1999/xlink">
    <!-- Generator: Sketch 50.2 (55047) - http://www.bohemiancoding.com/sketch -->
    <title>playstore</title>
    <desc>Created with Sketch.</desc>
    <defs></defs>
    <g id="USER" stroke="none" stroke-width="1" fill="none" fill-rule="evenodd">
        <g id="main_black" transform="translate(-470.000000, -1481.000000)" fill-rule="nonzero">
            <g id="playstore" transform="translate(470.000000, 1481.000000)">
                <g id="Group" fill="#32BBFF">
                    <path d="M22.7830481,11.2774571 C19.0122996,9.14124965 12.9601334,5.71100144 3.57275858,0.387082054 C2.93986267,-0.0362809158 2.21168052,-0.0917618208 1.58252506,0.12393304 L17.688626,16.4375024 L22.7830481,11.2774571 Z" id="Shape"></path>
                    <path d="M1.58252506,0.12393304 C1.46460596,0.164387866 1.34985672,0.213190514 1.24011588,0.272138976 C0.545344145,0.652799629 0.0348051541,1.38528884 0.0348051541,2.31170437 L0.0348051541,30.5633004 C0.0348051541,31.4897159 0.545280747,32.2222051 1.24011588,32.6028015 C1.34966653,32.6616858 1.46435237,32.7106811 1.58214467,32.7513928 L17.688626,16.4375024 L1.58252506,0.12393304 Z" id="Shape"></path>
                    <path d="M17.688626,16.4375024 L1.58214467,32.7513928 C2.21149033,32.968693 2.93967248,32.9174502 3.57275858,32.4879227 C12.6764936,27.3244741 18.6604442,23.9348734 22.4748101,21.7804933 C22.5810007,21.7200679 22.6850358,21.660991 22.7878663,21.6024921 L17.688626,16.4375024 Z" id="Shape"></path>
                </g>
                <path d="M0,16.5 L0,30.7869457 C0,31.7239299 0.503618075,32.4647753 1.18911908,32.8497136 C1.29719807,32.9092696 1.41034327,32.9588239 1.5265532,33 L17.4166667,16.5 L0,16.5 Z" id="Shape" fill="#2C9FD9"></path>
                <path d="M3.29880712,0.382783435 C2.5312832,-0.114309124 1.62618119,-0.100148209 0.916666667,0.269178608 L17.46456,16.5 L22.9166667,11.1523814 C19.0659691,9.039865 12.8853783,5.64765914 3.29880712,0.382783435 Z" id="Shape" fill="#29CC5E"></path>
                <path d="M17.4609406,16.5 L0.916666667,32.7283747 C1.62608517,33.0975838 2.53091741,33.1189173 3.29826745,32.6147866 C12.5930739,27.5093518 18.7026172,24.1578348 22.59704,22.0276602 C22.7054593,21.9679137 22.8116779,21.9095006 22.9166667,21.8516589 L17.4609406,16.5 Z" id="Shape" fill="#D93F21"></path>
                <path d="M29.3333333,16.4972885 C29.3333333,15.6911103 28.9557874,14.8775251 28.2075086,14.4263564 C28.2075086,14.4263564 26.8081149,13.5850608 22.5187238,11 L17.4166667,16.4972885 L22.5236955,22 C26.7660085,19.4335229 28.2074472,18.5681545 28.2074472,18.5681545 C28.9557874,18.1170518 29.3333333,17.3034666 29.3333333,16.4972885 Z" id="Shape" fill="#FFD500"></path>
                <path d="M28.2075086,18.5699117 C28.9557874,18.1189652 29.3333333,17.3057809 29.3333333,16.5 L17.4166667,16.5 L22.5236955,22 C26.7660699,19.4348537 28.2075086,18.5699117 28.2075086,18.5699117 Z" id="Shape" fill="#FFAA00"></path>
            </g>
        </g>
    </g>
</svg>