<?xml version="1.0" encoding="UTF-8"?>
<svg width="68px" height="70px" viewBox="0 0 68 70" version="1.1" xmlns="http://www.w3.org/2000/svg" xmlns:xlink="http://www.w3.org/1999/xlink">
    <!-- Generator: Sketch 50.2 (55047) - http://www.bohemiancoding.com/sketch -->
    <title>001-pin</title>
    <desc>Created with Sketch.</desc>
    <defs></defs>
    <g id="DRIVER" stroke="none" stroke-width="1" fill="none" fill-rule="evenodd">
        <g id="main_driver" transform="translate(-1020.000000, -1051.000000)" fill="#393939" fill-rule="nonzero">
            <g id="001-pin" transform="translate(1020.000000, 1051.000000)">
                <path d="M34,31 C38.4102857,31 42,27.1859286 42,22.5 C42,17.8140714 38.4102857,14 34,14 C29.5897143,14 26,17.8140714 26,22.5 C26,27.1859286 29.5885714,31 34,31 Z M33.5,16 C36.5327,16 39,18.6916 39,22 C39,25.3084 36.5327,28 33.5,28 C30.4673,28 28,25.3084 28,22 C28,18.6916 30.4673,16 33.5,16 Z" id="Shape"></path>
                <path d="M55.824745,43.1662194 L47.8639158,43.1662194 L51.2512425,38.0328005 C57.6490322,29.0831514 56.7229924,14.3724062 49.2713183,6.55327589 C45.2458802,2.32753879 39.8919697,0 34.1967696,0 C28.5026811,0 23.1487706,2.32753879 19.1222208,6.55327589 C11.6705467,14.3724062 10.7445069,29.0843181 17.1167277,37.9978 L20.5273999,43.1673861 L12.175255,43.1673861 L0,70 L68,70 L55.824745,43.1662194 Z M18.8273335,36.0312329 C13.0862645,28.0061125 13.9089412,14.8253762 20.5897391,7.82350791 C24.1719718,4.06849705 28.9357672,2 34.0021309,2 C39.0684946,2 43.8311857,4.06849705 47.4145227,7.82350791 C54.0953206,14.8253762 54.9179973,28.0072701 49.1515302,36.0659586 L34.0010266,59 L23.1096697,42.5133725 L18.8273335,36.0312329 Z M14.065801,45 L22.5585425,45 L34.6969106,63.2449474 L46.8341662,45 L54.934199,45 L65,67 L4,67 L14.065801,45 Z" id="Shape"></path>
            </g>
        </g>
    </g>
</svg>