<?xml version="1.0" encoding="UTF-8"?>
<svg width="58px" height="73px" viewBox="0 0 58 73" version="1.1" xmlns="http://www.w3.org/2000/svg" xmlns:xlink="http://www.w3.org/1999/xlink">
    <!-- Generator: Sketch 50.2 (55047) - http://www.bohemiancoding.com/sketch -->
    <title>augmented-reality</title>
    <desc>Created with Sketch.</desc>
    <defs></defs>
    <g id="DRIVER" stroke="none" stroke-width="1" fill="none" fill-rule="evenodd">
        <g id="main_driver" transform="translate(-1030.000000, -799.000000)" fill="#393939" fill-rule="nonzero">
            <g id="augmented-reality" transform="translate(1030.000000, 799.000000)">
                <path d="M48.9346651,58.0377358 C48.3463162,58.0377358 47.8693303,58.5208443 47.8693303,59.1167453 L47.8693303,64.2240566 L9.65932012,64.2240566 L9.65932012,55.4879646 L10.8780632,56.0102052 C10.9130062,56.0251675 10.9486594,56.0379717 10.9845967,56.0489057 C10.9901364,56.0506321 10.9956762,56.0516392 11.0012159,56.0532217 C11.0407043,56.0645873 11.0806189,56.0733632 11.1208175,56.0799811 C11.1326072,56.0819953 11.1442549,56.0837217 11.1561866,56.0853042 C11.2017829,56.0913467 11.2475213,56.095375 11.2932597,56.095375 C11.3389981,56.095375 11.3847365,56.0912028 11.4303328,56.0853042 C11.4421225,56.0837217 11.4539122,56.0818514 11.4655599,56.0799811 C11.5057585,56.0732193 11.5458151,56.0645873 11.5854455,56.0530778 C11.5908432,56.0514953 11.596383,56.0504882 11.6017807,56.0489057 C11.637718,56.0378278 11.6733712,56.0251675 11.7083142,56.0100613 L21.9352447,51.6272689 C22.3294186,51.4583679 22.5855251,51.0669033 22.5855251,50.6335731 L22.5855251,36.6608325 C22.5855251,36.6130684 22.581974,36.5657358 22.575866,36.5189788 C22.5744456,36.5081887 22.5716047,36.4978302 22.5699002,36.487184 C22.5637923,36.4496344 22.556548,36.4125165 22.5466048,36.3761179 C22.5422015,36.359717 22.5365197,36.3437476 22.531264,36.3276344 C22.521605,36.2977099 22.5112357,36.2680731 22.4990199,36.2391557 C22.4919177,36.2221792 22.4842472,36.2056344 22.4762927,36.1890896 C22.4632246,36.1618986 22.4488781,36.135283 22.4335373,36.1092429 C22.4241624,36.0934175 22.4150715,36.077592 22.4048443,36.062342 C22.3876569,36.0363019 22.368907,36.0114127 22.3494469,35.9869552 C22.3389356,35.9735755 22.3289924,35.959908 22.317913,35.9471038 C22.2931972,35.9186179 22.2663508,35.8921462 22.23851,35.86625 C22.2308396,35.8592005 22.2241635,35.8512877 22.216351,35.8443821 C22.1824024,35.8147453 22.1466071,35.7869788 22.1086812,35.7615142 C22.1065505,35.7600755 22.1042778,35.7590684 22.1021471,35.7576297 C22.0893631,35.7491415 22.0753007,35.7422358 22.0620906,35.7341792 C22.0332555,35.7169151 22.0041363,35.7002264 21.9740229,35.6858396 C21.9683411,35.6831061 21.9632275,35.6793656 21.9574037,35.6767759 L11.7307572,31.0135849 C11.4524917,30.8866934 11.1341697,30.8866934 10.8560463,31.0135849 L9.65932012,31.5591321 L9.65932012,13.0790094 C9.65932012,12.4831085 9.18233419,12 8.59398526,12 C8.00563633,12 7.52865041,12.4831085 7.52865041,13.0790094 L7.52865041,32.530816 L0.628263476,35.6769198 C0.621729422,35.679941 0.616189681,35.6839693 0.609655627,35.6871344 C0.583661456,35.6996509 0.558519554,35.7141816 0.533377651,35.729 C0.516048204,35.7392146 0.498150579,35.7482783 0.48138931,35.7593561 C0.480110908,35.7602193 0.478690462,35.7607948 0.47741206,35.761658 C0.444741791,35.7836698 0.414060147,35.8078396 0.384372816,35.8330165 C0.364486565,35.8498491 0.346162806,35.8679764 0.327554957,35.8862476 C0.308236885,35.9050943 0.288492679,35.9237972 0.270737098,35.9440825 C0.255538321,35.9614906 0.241902035,35.9800495 0.227839615,35.9983208 C0.212782882,36.0177429 0.197868194,36.0371651 0.184231908,36.0575943 C0.1711638,36.0773042 0.15923205,36.0974458 0.147300299,36.1180189 C0.135226504,36.1388797 0.123862933,36.1600283 0.113209584,36.1816085 C0.10269828,36.2029009 0.0927551548,36.2244811 0.0836642974,36.2464929 C0.0744313953,36.2690802 0.066476895,36.2919552 0.0586644394,36.3152618 C0.0511360731,36.3375613 0.0434656621,36.3595731 0.0374997869,36.3824481 C0.0306816439,36.4082005 0.0259941705,36.4343844 0.0211646525,36.4607123 C0.0171874023,36.4820047 0.012073795,36.5028656 0.00923290209,36.5244458 C0.00355111619,36.5694764 0.000426133942,36.6152264 0.000426133942,36.6612642 L0.000426133942,36.6664434 C0.000426133942,36.6687453 0,36.6709033 0,36.6732052 C0,36.6749316 0.000426133942,36.6765142 0.000426133942,36.6780967 L0.000426133942,50.6338608 C0.000426133942,51.0673349 0.256532633,51.4586557 0.65070653,51.6275566 L7.52865041,54.5748349 L7.52865041,67.6049528 C7.52865041,70.5798538 9.91812547,73 12.8553247,73 L44.6733257,73 C47.6105249,73 50,70.5798538 50,67.6049528 L50,59.1167453 C50,58.5208443 49.5231561,58.0377358 48.9346651,58.0377358 Z M20.4548554,49.9185495 L12.3585946,53.3882123 L12.3585946,41.7592241 L20.4548554,38.2891297 L20.4548554,49.9185495 Z M11.2932597,33.1809552 L18.8577054,36.6301887 L11.2931177,39.8721085 L3.72824586,36.6301887 L11.2932597,33.1809552 Z M2.13137994,49.9186934 L2.13137994,38.2892736 L10.2277828,41.7590802 L10.2277828,53.3883561 L2.13137994,49.9186934 Z M47.8693303,67.6049528 C47.8693303,69.3899222 46.4356737,70.8419811 44.6733257,70.8419811 L12.8553247,70.8419811 C11.0929767,70.8419811 9.65932012,69.3899222 9.65932012,67.6049528 L9.65932012,66.3820755 L47.8693303,66.3820755 L47.8693303,67.6049528 Z" id="Shape"></path>
                <path d="M31.9090909,67 L26.0909091,67 C25.4884364,67 25,67.6716 25,68.5 C25,69.3284 25.4884364,70 26.0909091,70 L31.9090909,70 C32.5115636,70 33,69.3284 33,68.5 C33,67.6716 32.5117091,67 31.9090909,67 Z" id="Shape"></path>
                <g id="Group" transform="translate(8.000000, 0.000000)">
                    <path d="M49.9195467,18.5013811 C49.918272,18.4918159 49.9157224,18.4826726 49.9141643,18.4731074 C49.9080737,18.4354092 49.9005666,18.398133 49.8903683,18.3617008 C49.886119,18.346087 49.8805949,18.3310358 49.8754958,18.3157033 C49.8657224,18.2858824 49.8552408,18.2564834 49.8427762,18.2277877 C49.8358357,18.2114706 49.828187,18.1955754 49.8203966,18.1796803 C49.8072238,18.1526726 49.7927762,18.126509 49.7773371,18.1007673 C49.7681303,18.0854348 49.7590652,18.070243 49.7491501,18.0554731 C49.7318697,18.0298721 49.7130312,18.0053964 49.6936261,17.9813427 C49.6831445,17.9684015 49.6735127,17.955179 49.6624646,17.9426598 C49.6378187,17.9148082 49.6109065,17.8887852 49.5832861,17.8636061 C49.5756374,17.8565729 49.5689802,17.8488363 49.5610482,17.8420844 C49.5271955,17.8131074 49.4915014,17.7859591 49.4536827,17.7610614 C49.4515581,17.7596547 49.4492918,17.7586701 49.4471671,17.7574041 C49.434136,17.7489642 49.41983,17.7419309 49.4063739,17.7340537 C49.3779037,17.7173146 49.3491501,17.7012788 49.3195467,17.6873529 C49.3137394,17.6846803 49.3086402,17.6808824 49.3026912,17.6783504 L42.4219547,14.6020077 L42.4219547,5.27493606 C42.4220963,2.36626598 40.0392351,0 37.1104816,0 L5.38243626,0 C2.45354108,0 0.0708215297,2.36626598 0.0708215297,5.27493606 L0.0708215297,8.93222506 C0.0708215297,9.51485934 0.546458924,9.98721228 1.13314448,9.98721228 C1.71983003,9.98721228 2.19546742,9.51485934 2.19546742,8.93222506 L2.19546742,5.27493606 C2.19546742,3.52970588 3.62507082,2.10997442 5.38243626,2.10997442 L9.98583569,2.10997442 L9.98583569,4.43094629 C9.98583569,6.09852941 11.351983,7.45524297 13.0311615,7.45524297 L29.4617564,7.45524297 C31.1409348,7.45524297 32.5070822,6.09852941 32.5070822,4.43094629 L32.5070822,2.10997442 L37.1104816,2.10997442 C38.867847,2.10997442 40.2974504,3.52970588 40.2974504,5.27493606 L40.2974504,13.6520972 L36.5556657,11.9791688 C36.278187,11.8551023 35.9607649,11.8551023 35.6834278,11.9791688 L22.9349858,17.6783504 C22.928187,17.681445 22.922238,17.685665 22.9155807,17.6887596 C22.8913598,17.7001535 22.8679887,17.7136573 22.8446176,17.7268798 C22.8256374,17.737711 22.8060907,17.7475575 22.7879603,17.7593734 C22.7869688,17.7600767 22.7859773,17.7604987 22.7849858,17.7610614 C22.7606232,17.7770972 22.7383853,17.7953836 22.7155807,17.8132481 C22.6851275,17.8370205 22.6563739,17.8623402 22.6288952,17.8892072 C22.6123229,17.9053836 22.5951841,17.9211381 22.579745,17.9382992 C22.5633144,17.9565857 22.5485836,17.9762788 22.5334278,17.9956905 C22.51983,18.0132737 22.5060907,18.0305754 22.4936261,18.0488619 C22.4796034,18.0692583 22.4669972,18.0903581 22.4545326,18.1117391 C22.4434844,18.1307289 22.4328612,18.1498593 22.4230878,18.1694118 C22.411898,18.1916368 22.4014164,18.2138619 22.3917847,18.2367903 C22.3832861,18.2571867 22.3759207,18.2780051 22.3686969,18.2988235 C22.3606232,18.3221739 22.3524079,18.345243 22.346034,18.3692967 C22.3399433,18.3918031 22.3359773,18.4148721 22.3314448,18.4378005 C22.3267705,18.4611509 22.3211048,18.4840793 22.3181303,18.5078517 C22.3126062,18.5515985 22.3096317,18.5959079 22.3096317,18.6404987 L22.3096317,18.643312 C22.3096317,18.646266 22.3090652,18.6492199 22.3090652,18.6521739 C22.3090652,18.6544246 22.3096317,18.6565345 22.3096317,18.6586445 L22.3096317,35.7175064 C22.3096317,36.1413299 22.5650142,36.5239386 22.957932,36.6890793 L25.1565156,37.6129668 C25.6971671,37.84 26.320255,37.5890537 26.5488669,37.0525575 C26.7774788,36.5159207 26.5247875,35.8968542 25.9845609,35.669821 L24.4342776,35.0184015 L24.4342776,20.2325448 L35.0572238,24.6965473 L35.0572238,39.4822634 L30.1596317,37.424335 C29.6191218,37.1971611 28.996034,37.4482481 28.7672805,37.9848849 C28.5386686,38.5213811 28.7913598,39.1404476 29.331728,39.3676215 L35.7055241,42.0458824 C35.7403683,42.0605115 35.7759207,42.0730307 35.8117564,42.0837212 C35.8172805,42.0854092 35.8228045,42.0863939 35.8283286,42.0879412 C35.8677054,42.0990537 35.9075071,42.1076343 35.9475921,42.1141049 C35.9593484,42.1160742 35.9709632,42.1177621 35.9828612,42.1193095 C36.0283286,42.1252174 36.0739377,42.129156 36.1195467,42.129156 C36.1651558,42.129156 36.2107649,42.1250767 36.2562323,42.1193095 C36.2679887,42.1177621 36.2796034,42.1159335 36.2913598,42.1141049 C36.3315864,42.1074936 36.3715297,42.0990537 36.4110482,42.0878005 C36.4164306,42.0862532 36.421813,42.0854092 36.4270538,42.0837212 C36.4628895,42.07289 36.4984419,42.0605115 36.5334278,42.0457417 L40.2975921,40.4639642 L40.2975921,53.9450128 C40.2975921,54.5276471 40.7732295,55 41.359915,55 C41.9466006,55 42.422238,54.5276471 42.422238,53.9450128 L42.422238,39.5713043 L49.2808782,36.6892199 C49.6739377,36.5240793 49.9293201,36.1413299 49.9293201,35.7176471 L49.9293201,18.6406394 C49.9291785,18.5936573 49.9254958,18.5472379 49.9195467,18.5013811 Z M30.3824363,4.43094629 C30.3824363,4.93508951 29.9694051,5.34526854 29.4617564,5.34526854 L13.0311615,5.34526854 C12.5235127,5.34526854 12.1104816,4.93508951 12.1104816,4.43094629 L12.1104816,2.10997442 L30.3824363,2.10997442 L30.3824363,4.43094629 Z M36.1191218,22.8515857 L26.0259207,18.6103964 L36.1195467,14.0981458 L46.211898,18.6103964 C46.2165722,18.6125064 46.2140227,18.6115217 46.2117564,18.6103964 L36.1191218,22.8515857 Z M47.8046742,35.0184015 C47.7923513,35.0233248 47.8042493,35.0179795 47.7923513,35.0233248 L37.181728,39.4822634 L37.181728,24.696688 L47.8046742,20.2325448 L47.8046742,35.0184015 Z" id="Shape"></path>
                    <path d="M46.2144284,18.6115363 L46.214726,18.6115363 C46.2054999,18.6076922 46.2099641,18.6097621 46.2144284,18.6115363 Z" id="Shape"></path>
                </g>
                <circle id="Oval" cx="22" cy="4" r="1"></circle>
                <circle id="Oval" cx="25" cy="4" r="1"></circle>
            </g>
        </g>
    </g>
</svg>