<?xml version="1.0" encoding="UTF-8"?>
<svg width="83px" height="70px" viewBox="0 0 83 70" version="1.1" xmlns="http://www.w3.org/2000/svg" xmlns:xlink="http://www.w3.org/1999/xlink">
    <!-- Generator: Sketch 50.2 (55047) - http://www.bohemiancoding.com/sketch -->
    <title>event</title>
    <desc>Created with Sketch.</desc>
    <defs></defs>
    <g id="DRIVER" stroke="none" stroke-width="1" fill="none" fill-rule="evenodd">
        <g id="main_driver" transform="translate(-356.000000, -800.000000)" fill="#393939" fill-rule="nonzero">
            <g id="event" transform="translate(356.000000, 800.000000)">
                <path d="M29.9279167,27.2296759 C27.1945139,27.2296759 24.9707176,29.4534722 24.9707176,32.186875 C24.9707176,34.9202778 27.1945139,37.1440741 29.9279167,37.1440741 C32.6613194,37.1440741 34.8851157,34.9202778 34.8851157,32.186875 C34.8851157,29.4534722 32.6613194,27.2296759 29.9279167,27.2296759 Z M29.9279167,34.7133565 C28.5347222,34.7133565 27.4014352,33.5800694 27.4014352,32.186875 C27.4014352,30.7936806 28.5347222,29.6603935 29.9279167,29.6603935 C31.3209491,29.6603935 32.4543981,30.7936806 32.4543981,32.186875 C32.4543981,33.5799074 31.3209491,34.7133565 29.9279167,34.7133565 Z" id="Shape"></path>
                <path d="M42.8518287,27.2296759 C40.1184259,27.2296759 37.8944676,29.4534722 37.8944676,32.186875 C37.8944676,34.9202778 40.1184259,37.1440741 42.8518287,37.1440741 C45.5852315,37.1440741 47.8090278,34.9202778 47.8090278,32.186875 C47.8090278,29.4534722 45.5852315,27.2296759 42.8518287,27.2296759 Z M42.8518287,34.7133565 C41.4584722,34.7133565 40.3251852,33.5800694 40.3251852,32.186875 C40.3251852,30.7936806 41.4586343,29.6603935 42.8518287,29.6603935 C44.2450231,29.6603935 45.3783102,30.7936806 45.3783102,32.186875 C45.3783102,33.5800694 44.2448611,34.7133565 42.8518287,34.7133565 Z" id="Shape"></path>
                <path d="M55.7757407,27.2296759 C53.042338,27.2296759 50.8185417,29.4534722 50.8185417,32.186875 C50.8185417,34.9202778 53.042338,37.1440741 55.7757407,37.1440741 C58.5091435,37.1440741 60.7329398,34.9202778 60.7329398,32.186875 C60.7329398,29.4534722 58.5089815,27.2296759 55.7757407,27.2296759 Z M55.7757407,34.7133565 C54.3825463,34.7133565 53.2492593,33.5800694 53.2492593,32.186875 C53.2492593,30.7936806 54.3827083,29.6603935 55.7757407,29.6603935 C57.1687731,29.6603935 58.3022222,30.7936806 58.3022222,32.186875 C58.3022222,33.5800694 57.1687731,34.7133565 55.7757407,34.7133565 Z" id="Shape"></path>
                <path d="M29.9279167,39.3216898 C27.1945139,39.3216898 24.9707176,41.5454861 24.9707176,44.2788889 C24.9707176,47.0122917 27.1945139,49.236088 29.9279167,49.236088 C32.6613194,49.236088 34.8851157,47.0122917 34.8851157,44.2788889 C34.8851157,41.5454861 32.6613194,39.3216898 29.9279167,39.3216898 Z M29.9279167,46.8053704 C28.5347222,46.8053704 27.4014352,45.6720833 27.4014352,44.2788889 C27.4014352,42.8856944 28.5347222,41.7524074 29.9279167,41.7524074 C31.3209491,41.7524074 32.4543981,42.8856944 32.4543981,44.2788889 C32.4543981,45.6720833 31.3209491,46.8053704 29.9279167,46.8053704 Z" id="Shape"></path>
                <path d="M55.7757407,39.3216898 C53.042338,39.3216898 50.8185417,41.5454861 50.8185417,44.2788889 C50.8185417,47.0122917 53.042338,49.236088 55.7757407,49.236088 C58.5091435,49.236088 60.7329398,47.0122917 60.7329398,44.2788889 C60.7327778,41.5454861 58.5089815,39.3216898 55.7757407,39.3216898 Z M55.7757407,46.8053704 C54.3825463,46.8053704 53.2492593,45.6720833 53.2492593,44.2788889 C53.2492593,42.8856944 54.3827083,41.7524074 55.7757407,41.7524074 C57.1687731,41.7524074 58.3022222,42.8856944 58.3022222,44.2788889 C58.3020602,45.6720833 57.1687731,46.8053704 55.7757407,46.8053704 Z" id="Shape"></path>
                <path d="M42.8518287,39.3216898 C40.1184259,39.3216898 37.8944676,41.5454861 37.8944676,44.2788889 C37.8944676,47.0122917 40.1184259,49.236088 42.8518287,49.236088 C45.5852315,49.236088 47.8090278,47.0122917 47.8090278,44.2788889 C47.8090278,41.5454861 45.5852315,39.3216898 42.8518287,39.3216898 Z M42.8518287,46.8053704 C41.4584722,46.8053704 40.3251852,45.6720833 40.3251852,44.2788889 C40.3251852,42.8856944 41.4586343,41.7524074 42.8518287,41.7524074 C44.2450231,41.7524074 45.3783102,42.8856944 45.3783102,44.2788889 C45.3783102,45.6720833 44.2448611,46.8053704 42.8518287,46.8053704 Z" id="Shape"></path>
                <path d="M42.8518287,51.4137037 C40.1184259,51.4137037 37.8946296,53.637662 37.8946296,56.3710648 C37.8946296,59.1044676 40.1184259,61.3282639 42.8518287,61.3282639 C45.5852315,61.3282639 47.8090278,59.1044676 47.8090278,56.3710648 C47.8090278,53.637662 45.5852315,51.4137037 42.8518287,51.4137037 Z M42.8518287,58.8973843 C41.4584722,58.8973843 40.3251852,57.7640972 40.3251852,56.3709028 C40.3253472,54.9778704 41.4586343,53.8442593 42.8518287,53.8442593 C44.2450231,53.8442593 45.3783102,54.9775463 45.3783102,56.3709028 C45.3783102,57.7640972 44.2448611,58.8973843 42.8518287,58.8973843 Z" id="Shape"></path>
                <path d="M29.9279167,51.4137037 C27.1945139,51.4137037 24.9707176,53.637662 24.9707176,56.3710648 C24.9707176,59.1044676 27.1945139,61.3282639 29.9279167,61.3282639 C32.6613194,61.3282639 34.8851157,59.1044676 34.8851157,56.3710648 C34.8851157,53.637662 32.6613194,51.4137037 29.9279167,51.4137037 Z M29.9279167,58.8973843 C28.5347222,58.8973843 27.4014352,57.7640972 27.4014352,56.3709028 C27.4014352,54.9777083 28.5347222,53.8442593 29.9279167,53.8442593 C31.3209491,53.8442593 32.4543981,54.9775463 32.4543981,56.3709028 C32.4542361,57.7640972 31.3209491,58.8973843 29.9279167,58.8973843 Z" id="Shape"></path>
                <path d="M18.7230556,32.187037 L20.5096759,30.4004167 C20.9842824,29.9258102 20.9842824,29.1564583 20.5095139,28.6816898 C20.0350694,28.2072454 19.2655556,28.2070833 18.790787,28.6818519 L17.0043287,30.4683102 L15.2178704,28.6818519 C14.7432639,28.2072454 13.97375,28.2070833 13.4991435,28.6816898 C13.024375,29.1564583 13.024375,29.9258102 13.4989815,30.4004167 L15.2856019,32.187037 L13.4989815,33.9736574 C13.0240509,34.4481019 13.0240509,35.2174537 13.4988194,35.6923843 C13.7360417,35.9296065 14.0471528,36.0482176 14.3581019,36.0482176 C14.6690509,36.0482176 14.980162,35.9296065 15.2175463,35.6922222 L17.0040046,33.9057639 L18.790463,35.6922222 C19.0278472,35.9296065 19.3387963,36.0482176 19.6499074,36.0482176 C19.9608565,36.0482176 20.2719676,35.9296065 20.5091898,35.6923843 C20.9839583,35.2176157 20.9839583,34.4482639 20.5093519,33.9736574 L18.7230556,32.187037 Z" id="Shape"></path>
                <path d="M18.7230556,44.2790509 L20.5096759,42.4924306 C20.9842824,42.0178241 20.9842824,41.2484722 20.5095139,40.7737037 C20.0350694,40.2992593 19.2655556,40.2990972 18.790787,40.7738657 L17.0043287,42.5603241 L15.2178704,40.7738657 C14.7432639,40.2990972 13.97375,40.2992593 13.4991435,40.7737037 C13.024375,41.2484722 13.024375,42.0178241 13.4989815,42.4924306 L15.2856019,44.2790509 L13.4989815,46.0656713 C13.0240509,46.5401157 13.0240509,47.3094676 13.4988194,47.7843981 C13.7360417,48.0216204 14.0471528,48.1402315 14.3581019,48.1402315 C14.6690509,48.1402315 14.980162,48.0216204 15.2175463,47.7842361 L17.0040046,45.9977778 L18.790463,47.7842361 C19.0278472,48.0216204 19.3387963,48.1402315 19.6499074,48.1402315 C19.9608565,48.1402315 20.2719676,48.0216204 20.5091898,47.7843981 C20.9839583,47.3096296 20.9839583,46.5402778 20.5093519,46.0656713 L18.7230556,44.2790509 Z" id="Shape"></path>
                <path d="M20.5095139,58.1571991 L18.7230556,56.3707407 L20.5095139,54.5842824 C20.9837963,54.1096759 20.9837963,53.3403241 20.5091898,52.8653935 C20.0344213,52.3909491 19.2650694,52.3909491 18.7903009,52.8653935 L17.0038426,54.6518519 L15.2173843,52.8653935 C14.7426157,52.3909491 13.9732639,52.3909491 13.4984954,52.8653935 C13.0238889,53.340162 13.0238889,54.1095139 13.4984954,54.5842824 L15.2849537,56.3707407 L13.4984954,58.1571991 C13.0238889,58.6319676 13.0238889,59.4013194 13.4984954,59.876088 C13.7358796,60.1133102 14.0469907,60.2319213 14.3579398,60.2319213 C14.6688889,60.2319213 14.98,60.1133102 15.2173843,59.876088 L17.0038426,58.0896296 L18.7903009,59.876088 C19.0276852,60.1133102 19.3387963,60.2319213 19.6497454,60.2319213 C19.9606944,60.2319213 20.2718056,60.1133102 20.5091898,59.876088 C20.9841204,59.4011574 20.9841204,58.6318056 20.5095139,58.1571991 Z" id="Shape"></path>
                <path d="M82.893125,61.7728935 L79.5786574,44.3304167 C79.4534028,43.671088 78.815787,43.238125 78.1575926,43.3633796 C77.4982639,43.4886343 77.0653009,44.1247917 77.1905556,44.7844444 L80.5050231,62.2269213 C80.6903935,63.2031944 79.8661111,64.1246991 78.7433565,64.1246991 L60.7588657,64.1246991 L72.423912,52.4598148 C72.6373148,52.246412 72.7797454,51.9346528 72.7797454,51.6003704 L72.7797454,21.5724769 L76.1126852,39.112662 C76.2379398,39.7719907 76.8747454,40.2051157 77.533588,40.0796991 C78.1929167,39.9544444 78.6258796,39.318287 78.500625,38.6586343 L72.7718056,8.51050926 C72.6893287,6.7169213 71.2086343,5.28224537 69.3952778,5.28224537 L58.7445833,5.28224537 L58.7445833,1.37439815 C58.7445833,0.703078704 58.200625,0.15912037 57.5293056,0.15912037 C56.8579861,0.15912037 56.3140278,0.703078704 56.3140278,1.37439815 L56.3140278,5.28208333 L48.1749074,5.28208333 L48.1749074,1.37439815 C48.1749074,0.703078704 47.6309491,0.15912037 46.9596296,0.15912037 C46.2883102,0.15912037 45.7443519,0.703078704 45.7443519,1.37439815 L45.7443519,5.28208333 L37.6050694,5.28208333 L37.6050694,1.37439815 C37.6050694,0.703078704 37.0611111,0.15912037 36.3897917,0.15912037 C35.7184722,0.15912037 35.1745139,0.703078704 35.1745139,1.37439815 L35.1745139,5.28208333 L27.0353935,5.28208333 L27.0353935,1.37439815 C27.0353935,0.703078704 26.4914352,0.15912037 25.8201157,0.15912037 C25.1487963,0.15912037 24.604838,0.703078704 24.604838,1.37439815 L24.604838,5.28208333 L16.4657176,5.28208333 L16.4657176,1.37439815 C16.4657176,0.703078704 15.9217593,0.15912037 15.2504398,0.15912037 C14.5791204,0.15912037 14.035162,0.703078704 14.035162,1.37439815 L14.035162,5.28208333 L3.38446759,5.28208333 C1.51828704,5.28224537 0,6.80037037 0,8.66671296 L0,66.4565741 C0,68.3227546 1.51828704,69.8408796 3.38446759,69.8408796 L33.5541435,69.8408796 C34.225463,69.8408796 34.7694213,69.2969213 34.7694213,68.6256019 C34.7694213,67.9542824 34.225463,67.4103241 33.5541435,67.4103241 L3.38446759,67.4103241 C2.85865741,67.4103241 2.43071759,66.9825463 2.43071759,66.4567361 L2.43071759,21.0617361 L70.3491898,21.0617361 L70.3491898,50.3846065 L56.7079398,50.3846065 C54.8417593,50.3846065 53.3236343,51.9028935 53.3236343,53.7690741 L53.3236343,67.410162 L39.2256019,67.410162 C38.5542824,67.410162 38.0103241,67.9541204 38.0103241,68.6254398 C38.0103241,69.2967593 38.5542824,69.8407176 39.2256019,69.8407176 L54.538912,69.8407176 C54.8524537,69.8407176 55.1668056,69.7164352 55.3983565,69.4848843 L58.3279861,66.5552546 L78.7435185,66.5552546 C81.3831019,66.5552546 83.3653009,64.2572454 82.893125,61.7728935 Z M2.43071759,18.6310185 L2.43071759,8.66671296 C2.43071759,8.14090278 2.85865741,7.71296296 3.38446759,7.71296296 L14.035162,7.71296296 L14.035162,13.1719907 C14.035162,13.8433102 14.5791204,14.3872685 15.2504398,14.3872685 C15.9217593,14.3872685 16.4657176,13.8433102 16.4657176,13.1719907 L16.4657176,7.71296296 L24.604838,7.71296296 L24.604838,13.1719907 C24.604838,13.8433102 25.1487963,14.3872685 25.8201157,14.3872685 C26.4914352,14.3872685 27.0353935,13.8433102 27.0353935,13.1719907 L27.0353935,7.71296296 L35.1745139,7.71296296 L35.1745139,13.1719907 C35.1745139,13.8433102 35.7184722,14.3872685 36.3897917,14.3872685 C37.0611111,14.3872685 37.6050694,13.8433102 37.6050694,13.1719907 L37.6050694,7.71296296 L45.7443519,7.71296296 L45.7443519,13.1719907 C45.7443519,13.8433102 46.2883102,14.3872685 46.9596296,14.3872685 C47.6309491,14.3872685 48.1749074,13.8433102 48.1749074,13.1719907 L48.1749074,7.71296296 L56.3140278,7.71296296 L56.3140278,13.1719907 C56.3140278,13.8433102 56.8579861,14.3872685 57.5293056,14.3872685 C58.200625,14.3872685 58.7445833,13.8433102 58.7445833,13.1719907 L58.7445833,7.71296296 L69.3952778,7.71296296 C69.921088,7.71296296 70.3490278,8.14090278 70.3490278,8.66671296 L70.3490278,18.6311806 L2.43071759,18.6311806 L2.43071759,18.6310185 Z M55.7541898,65.6914352 L55.7541898,53.7692361 C55.7541898,53.2434259 56.1819676,52.8154861 56.7077778,52.8154861 L68.6301389,52.8154861 C67.4140509,54.0317361 56.9728704,64.4727546 55.7541898,65.6914352 Z" id="Shape"></path>
            </g>
        </g>
    </g>
</svg>