<?xml version="1.0" encoding="UTF-8"?>
<svg width="82px" height="70px" viewBox="0 0 82 70" version="1.1" xmlns="http://www.w3.org/2000/svg" xmlns:xlink="http://www.w3.org/1999/xlink">
    <!-- Generator: Sketch 50.2 (55047) - http://www.bohemiancoding.com/sketch -->
    <title>piggybank</title>
    <desc>Created with Sketch.</desc>
    <defs></defs>
    <g id="DRIVER" stroke="none" stroke-width="1" fill="none" fill-rule="evenodd">
        <g id="main_driver" transform="translate(-679.000000, -1051.000000)" fill="#393939" fill-rule="nonzero">
            <g id="piggybank" transform="translate(679.000000, 1051.000000)">
                <path d="M41.5,51 C40.671532,51 40,51.6499288 40,52.451745 L40,55.548255 C40,56.3500712 40.671532,57 41.5,57 C42.328468,57 43,56.3500712 43,55.548255 L43,52.451745 C43,51.6499288 42.328468,51 41.5,51 Z" id="Shape"></path>
                <path d="M81.2094687,31.6734083 C80.6998516,31.1598672 80.0225508,30.877113 79.3016875,30.877113 C79.3015273,30.877113 79.3013672,30.877113 79.301207,30.877113 L75.9492969,30.8775972 C75.9068555,30.8775972 75.877707,30.8295032 75.8687383,30.7849597 C74.9473594,26.2308738 72.8811836,21.9375931 69.8933086,18.3689509 C67.0053711,14.9197368 63.3065625,12.2071039 59.1820586,10.503316 C58.5167695,7.67319163 57.1120391,4.7552714 54.3418164,2.56182816 C51.6598398,0.43826652 48.9586445,0.0296285767 48.8450938,0.0131668586 C48.4709688,-0.0405758094 48.090918,0.0717512083 47.8048789,0.321743378 C47.5188398,0.571735548 47.3546797,0.934216126 47.3546797,1.31574065 L47.3546797,8.42107008 L42.6159766,8.42107008 C41.4449141,4.3718102 37.7312109,1.40353648 33.3398867,1.40353648 C28.8553516,1.40353648 25.0753438,4.49850087 23.9906055,8.67977727 C17.5343867,9.56596643 11.5945117,12.7179013 7.18701172,17.6184902 C2.55241016,22.7721377 0,29.4433297 0,36.40357 C0,52.0262247 8.04865234,64.7377374 10.5156992,68.2613521 C11.2777227,69.3499235 12.5258203,70 13.8543164,70 L19.4118984,70 C21.6678594,70 23.50325,68.1504776 23.50325,65.8771466 L23.50325,64.0558673 C24.909582,64.2740657 26.3383359,64.3859086 27.7686914,64.3859086 L40.3907656,64.3859086 L40.3907656,65.8771466 C40.3907656,68.1504776 42.2261562,70 44.4821172,70 L50.586793,70 C52.5032227,70 54.1856641,68.6293199 54.5871758,66.741064 L55.2572695,63.5900975 C63.839082,61.4841273 70.7390937,55.4171772 74.135207,47.5441184 L79.3015273,47.5441184 C80.7895391,47.5441184 82,46.3243374 82,44.8248686 L82,33.5966857 C82,32.8699493 81.7194062,32.1871107 81.2094687,31.6734083 Z M33.0000795,4 C36.8599334,4 40,7.18743746 40,11.1053226 C40,12.107227 39.7886906,13.0941222 39.3905577,14 L26.6094423,14 C26.2114684,13.0937994 26,12.107227 26,11.1053226 C26,7.18727607 29.1402256,4 33.0000795,4 Z M79.9998394,44.5700529 C79.9998394,44.6182252 79.9608084,44.6574052 79.9124615,44.6574052 L75.7157528,44.6574052 C76.4290712,42.4247836 76.8680487,40.0768698 76.9936544,37.6557342 C77.0312398,36.9337933 76.4759725,36.3179918 75.7536593,36.2805781 C75.0313462,36.2439672 74.4155248,36.7981082 74.3781,37.5202097 C73.8233147,48.213157 66.5433229,57.3429159 56.4155185,60.3621898 L58.2451537,51.8268761 C58.3967801,51.1198685 57.9462378,50.4239406 57.239023,50.2725193 C56.5322901,50.1206162 55.8356762,50.5713476 55.6842105,51.2783551 L52.5655908,65.8270065 C52.4199074,66.5065559 51.8095472,66.9998394 51.1145395,66.9998394 L44.9918229,66.9998394 C44.1734583,66.9998394 43.5076837,66.33426 43.5076837,65.5161352 L43.5076837,59.9304062 C43.5076837,59.2073412 42.9214166,58.621246 42.1981397,58.621246 C41.4748628,58.621246 40.8885957,59.2073412 40.8885957,59.9304062 L40.8885957,61.4141104 L28.2298843,61.4141104 C26.7931283,61.4141104 25.3589423,61.290629 23.9520619,61.0508919 L23.9520619,51.5521339 C23.9520619,50.8290689 23.3657948,50.2429736 22.6425179,50.2429736 C21.919241,50.2429736 21.3329738,50.8290689 21.3329738,51.5521339 L21.3329738,65.5162958 C21.3329738,66.3344206 20.6671993,67 19.8488347,67 L14.2754423,67 C13.7858691,67 13.345446,66.7737512 13.0672502,66.3792207 C10.7056378,63.0323757 3,50.9645934 3,36.1914595 C3,29.9175101 5.31888717,23.904333 9.52940931,19.2597285 C13.3827101,15.0088516 18.5240316,12.2180746 24.1309938,11.3015179 C24.1536414,12.1986452 24.3007704,13.0856562 24.5648315,13.9360564 L24.0396004,13.9360564 C23.3163235,13.9360564 22.7300564,14.5221517 22.7300564,15.2452166 C22.7300564,15.9682816 23.3163235,16.5543769 24.0396004,16.5543769 L43.5952223,16.5543769 C44.3184992,16.5543769 44.9047663,15.9682816 44.9047663,15.2452166 C44.9047663,14.5221517 44.3184992,13.9360564 43.5952223,13.9360564 L43.0698306,13.9360564 C43.3581455,13.008099 43.5078444,12.0367865 43.5078444,11.0560002 C43.5078444,11.0266151 43.5059169,10.9978724 43.5055957,10.9686479 L47.872884,10.9686479 L47.872884,13.8487041 C47.872884,14.5717691 48.4591511,15.1578644 49.182428,15.1578644 C49.905705,15.1578644 50.4919721,14.5717691 50.4919721,13.8487041 L50.4919721,3 C52.9766202,3.9400005 57.6506949,6.82728254 57.6506949,15.2453772 C57.6506949,15.9684422 58.236962,16.5545375 58.960239,16.5545375 C59.6835159,16.5545375 60.269783,15.9684422 60.269783,15.2453772 C60.269783,14.6907544 60.2497054,14.1051409 60.2037677,13.4999373 C63.3627034,15.0382367 66.1967025,17.2368166 68.4754344,19.9368693 C71.1899314,23.1533281 73.0669498,27.0218782 73.9036252,31.1245452 C74.1620646,32.3922774 75.2754903,33.3122061 76.5511432,33.3120456 L79.9127827,33.3117244 C79.9216169,33.3117244 79.9489225,33.3117244 79.9744612,33.3372557 C80,33.362787 80,33.3897634 80,33.3989161 L80,44.5700529 L79.9998394,44.5700529 Z" id="Shape"></path>
                <path d="M66.9237833,32.040983 C66.1762334,29.624013 64.1972945,28 62.0001477,28 C59.8028533,28 57.8242098,29.623835 57.0762167,32.040983 C56.8438261,32.7921024 57.1607223,33.6279652 57.7840253,33.9080104 C58.407476,34.1884117 59.1011019,33.8061758 59.3333447,33.0550565 C59.731644,31.7678811 60.8033292,30.9029989 62,30.9029989 C63.1966708,30.9029989 64.2685038,31.7678811 64.6666553,33.0550565 C64.8473379,33.6391813 65.3068004,33.9998752 65.7953671,33.9998752 C65.9352742,33.9998752 66.0773973,33.9703218 66.2159747,33.9080104 C66.8392777,33.6279652 67.1561739,32.7919243 66.9237833,32.040983 Z" id="Shape"></path>
                <path d="M34.2631742,35.9832643 L34.2631742,29.1694832 C36.7411833,29.4874073 38.4736516,30.6992477 38.4736516,31.8000436 C38.4736516,32.5364697 39.0391595,33.1333951 39.7368258,33.1333951 C40.4344921,33.1333951 41,32.5364697 41,31.8000436 C41,29.0741387 38.1284594,26.8825229 34.2631742,26.4865896 L34.2631742,26.3333515 C34.2631742,25.5969254 33.6976663,25 33,25 C32.3023337,25 31.7368258,25.5969254 31.7368258,26.3333515 L31.7368258,26.4865896 C27.8715406,26.8825229 25,29.0741387 25,31.8000436 C25,35.6934693 28.6440399,37.0986154 31.7368258,38.0167357 L31.7368258,44.8305168 C29.2588167,44.5125927 27.5263484,43.3007523 27.5263484,42.1999564 C27.5263484,41.4635303 26.9608405,40.8666049 26.2631742,40.8666049 C25.5655079,40.8666049 25,41.4635303 25,42.1999564 C25,44.9258613 27.8715406,47.1174771 31.7368258,47.5134104 L31.7368258,47.6666485 C31.7368258,48.4030746 32.3023337,49 33,49 C33.6976663,49 34.2631742,48.4030746 34.2631742,47.6666485 L34.2631742,47.5134104 C38.1284594,47.1174771 41,44.9258613 41,42.1999564 C41,38.3063672 37.3558052,36.9013846 34.2631742,35.9832643 Z M32,35 C29.044451,33.979313 28,33.0517986 28,31.606406 C28,30.5157178 29.645864,29.3150049 32,29 L32,35 Z M34,45 L34,39 C36.955549,40.020525 38,40.9482014 38,42.393594 C38,43.4842822 36.3539888,44.6849951 34,45 Z" id="Shape"></path>
            </g>
        </g>
    </g>
</svg>