<?xml version="1.0" encoding="UTF-8"?>
<svg width="20px" height="20px" viewBox="0 0 20 20" version="1.1" xmlns="http://www.w3.org/2000/svg" xmlns:xlink="http://www.w3.org/1999/xlink">
    <!-- Generator: Sketch 51 (57462) - http://www.bohemiancoding.com/sketch -->
    <title>001-instagram</title>
    <desc>Created with Sketch.</desc>
    <defs></defs>
    <g id="USER" stroke="none" stroke-width="1" fill="none" fill-rule="evenodd">
        <g id="main_blackU222" transform="translate(-412.000000, -4831.000000)" fill="#FFFFFF">
            <rect x="0" y="0" width="1440" height="4911"></rect>
            <g id="001-instagram" transform="translate(412.000000, 4831.000000)" fill-rule="nonzero">
                <path d="M14.1903516,0 L5.8096875,0 C2.60621094,0 0,2.60621094 0,5.8096875 L0,14.1903125 C0,17.3937891 2.60621094,20 5.8096875,20 L14.1903125,20 C17.3937891,20 20,17.3937891 20,14.1903516 L20,5.8096875 C20,2.60621094 17.3937891,0 14.1903516,0 Z M18.4375,14.1903125 C18.4375,16.5322266 16.5322266,18.4375 14.1903516,18.4375 L5.8096875,18.4375 C3.46777344,18.4375 1.5625,16.5322266 1.5625,14.1903516 L1.5625,5.8096875 C1.5625,3.46777344 3.46777344,1.5625 5.8096875,1.5625 L14.1903125,1.5625 C16.5322266,1.5625 18.4375,3.46777344 18.4375,5.8096875 L18.4375,14.1903125 Z" id="Shape"></path>
                <path d="M10,5 C6.99233202,5 4.54545455,7.46726812 4.54545455,10.5 C4.54545455,13.5327319 6.99233202,16 10,16 C13.007668,16 15.4545455,13.5327319 15.4545455,10.5 C15.4545455,7.46726812 13.007668,5 10,5 Z M10,14.4057971 C7.8641502,14.4057971 6.12648221,12.6536486 6.12648221,10.5 C6.12648221,8.34635145 7.8641502,6.5942029 10,6.5942029 C12.1358498,6.5942029 13.8735178,8.34635145 13.8735178,10.5 C13.8735178,12.6536486 12.1358498,14.4057971 10,14.4057971 Z" id="Shape"></path>
                <circle id="Oval" cx="15.5454545" cy="5" r="1"></circle>
            </g>
        </g>
    </g>
</svg>