<?xml version="1.0" encoding="UTF-8"?>
<svg width="72px" height="48px" viewBox="0 0 72 48" version="1.1" xmlns="http://www.w3.org/2000/svg" xmlns:xlink="http://www.w3.org/1999/xlink">
    <!-- Generator: Sketch 51 (57462) - http://www.bohemiancoding.com/sketch -->
    <title>002-credit-card</title>
    <desc>Created with Sketch.</desc>
    <defs></defs>
    <g id="USER" stroke="none" stroke-width="1" fill="none" fill-rule="evenodd">
        <g id="main_blackU222" transform="translate(-829.000000, -667.000000)">
            <rect fill="#FFFFFF" x="0" y="0" width="1440" height="4911"></rect>
            <g id="BENEFITS" transform="translate(174.000000, 546.000000)" fill-rule="nonzero">
                <g id="Blocks" transform="translate(0.000000, 107.000000)">
                    <g id="002-credit-card" transform="translate(655.000000, 14.000000)">
                        <rect id="Rectangle-19" fill="#FFCF00" x="2" y="9.6" width="67" height="35.3613905"></rect>
                        <rect id="Rectangle-2" fill="#FFFFFF" x="52" y="28" width="9" height="8"></rect>
                        <rect id="Rectangle-19" fill="#FFE500" x="2" y="9.6" width="67" height="11.52"></rect>
                        <path d="M64.5001729,0 L7.49996777,0 C3.36600657,0 0,3.36599343 0,7.5000791 L0,40.5000615 C0,44.6340066 3.36600657,48 7.49996777,48 L64.5000322,48 C68.6339934,48 72,44.6340066 72,40.5000615 L72,7.5000791 C72.0001406,3.36599343 68.6341341,0 64.5001729,0 Z M69.0001816,40.4999209 C69.0001816,42.9809629 66.9812246,44.9999121 64.5001729,44.9999121 L7.49996777,44.9999121 C5.01891605,44.9999121 2.99995898,42.9809629 2.99995898,40.4999209 L2.99995898,7.5000791 C2.99995898,5.01903707 5.01891605,3.00008789 7.49996777,3.00008789 L64.5000322,3.00008789 C66.9810839,3.00008789 69.000041,5.01903707 69.000041,7.5000791 L69.000041,40.4999209 L69.0001816,40.4999209 Z" id="Shape" fill="#3C3E45"></path>
                        <path d="M70.4998154,9.6 L1.50004395,9.6 C0.672045562,9.6 0,10.24516 0,11.0400337 L0,19.6799663 C0,20.47484 0.672045562,21.12 1.50004395,21.12 L70.4999561,21.12 C71.3279544,21.12 72,20.47484 72,19.6799663 L72,11.0400337 C71.9998594,10.24516 71.3278138,9.6 70.4998154,9.6 Z M68.9999121,18.2399325 L2.99994727,18.2399325 L2.99994727,12.4799325 L68.9999121,12.4799325 L68.9999121,18.2399325 Z" id="Shape" fill="#3C3E45"></path>
                        <path d="M26.3999614,29.76 L9.12003857,29.76 C8.32516212,29.76 7.68,30.1901167 7.68,30.720045 C7.68,31.2499733 8.32516212,31.68 9.12003857,31.68 L26.3999614,31.68 C27.1948379,31.68 27.84,31.2498833 27.84,30.719955 C27.84,30.1900267 27.1948379,29.76 26.3999614,29.76 Z" id="Shape" fill="#3C3E45"></path>
                        <path d="M26.3999614,36.48 L9.12003857,36.48 C8.32516212,36.48 7.68,36.9100966 7.68,37.44 C7.68,37.9699034 8.32516212,38.4 9.12003857,38.4 L26.3999614,38.4 C27.1948379,38.4 27.84,37.9699034 27.84,37.44 C27.839865,36.9100966 27.1948379,36.48 26.3999614,36.48 Z" id="Shape" fill="#3C3E45"></path>
                        <path d="M57.7199817,25.92 L54.6000183,25.92 C52.0197195,25.92 49.92,28.0197195 49.92,30.6000183 L49.92,33.7199817 C49.92,36.3002805 52.0197195,38.4 54.6000183,38.4 L57.7199817,38.4 C60.3002805,38.4 62.4,36.3002805 62.4,33.7199817 L62.4,30.6000183 C62.4,28.0198657 60.3002805,25.92 57.7199817,25.92 Z M59.2800366,33.720128 C59.2800366,34.5812513 58.5811051,35.2801828 57.7199817,35.2801828 L54.6000183,35.2801828 C53.7388949,35.2801828 53.0399634,34.5812513 53.0399634,33.720128 L53.0399634,30.6001645 C53.0399634,29.7390412 53.7388949,29.0401097 54.6000183,29.0401097 L57.7199817,29.0401097 C58.5811051,29.0401097 59.2800366,29.7390412 59.2800366,30.6001645 L59.2800366,33.720128 Z" id="Shape" fill="#3C3E45"></path>
                    </g>
                </g>
            </g>
        </g>
    </g>
</svg>