<?xml version="1.0" encoding="UTF-8"?>
<svg width="12px" height="20px" viewBox="0 0 12 20" version="1.1" xmlns="http://www.w3.org/2000/svg" xmlns:xlink="http://www.w3.org/1999/xlink">
    <!-- Generator: Sketch 51 (57462) - http://www.bohemiancoding.com/sketch -->
    <title>003-facebook-logo</title>
    <desc>Created with Sketch.</desc>
    <defs></defs>
    <g id="USER" stroke="none" stroke-width="1" fill="none" fill-rule="evenodd">
        <g id="main_blackU222" transform="translate(-462.000000, -4831.000000)" fill="#FFFFFF">
            <rect x="0" y="0" width="1440" height="4911"></rect>
            <g id="003-facebook-logo" transform="translate(462.000000, 4831.000000)" fill-rule="nonzero">
                <path d="M11.5052666,0.00412371134 L8.64210008,0 C5.42543068,0 3.3466776,1.91443299 3.3466776,4.87752577 L3.3466776,7.12639175 L0.467891715,7.12639175 C0.219130435,7.12639175 0.0176866284,7.30742268 0.0176866284,7.53072165 L0.0176866284,10.7890722 C0.0176866284,11.0123711 0.219360131,11.1931959 0.467891715,11.1931959 L3.3466776,11.1931959 L3.3466776,19.4150515 C3.3466776,19.6383505 3.54812141,19.8191753 3.79688269,19.8191753 L7.55287941,19.8191753 C7.80164069,19.8191753 8.0030845,19.6381443 8.0030845,19.4150515 L8.0030845,11.1931959 L11.3690566,11.1931959 C11.6178179,11.1931959 11.8192617,11.0123711 11.8192617,10.7890722 L11.8206399,7.53072165 C11.8206399,7.42350515 11.7730927,7.32082474 11.6887941,7.24494845 C11.6044955,7.16907216 11.4896473,7.12639175 11.3702051,7.12639175 L8.0030845,7.12639175 L8.0030845,5.22 C8.0030845,4.30371134 8.24633306,3.8385567 9.57604594,3.8385567 L11.5048072,3.83793814 C11.7533388,3.83793814 11.9547826,3.65690722 11.9547826,3.43381443 L11.9547826,0.408247423 C11.9547826,0.185360825 11.7535685,0.00453608247 11.5052666,0.00412371134 Z" id="Shape"></path>
            </g>
        </g>
    </g>
</svg>