<?xml version="1.0" encoding="UTF-8"?>
<svg width="21px" height="16px" viewBox="0 0 21 16" version="1.1" xmlns="http://www.w3.org/2000/svg" xmlns:xlink="http://www.w3.org/1999/xlink">
    <!-- Generator: Sketch 51 (57462) - http://www.bohemiancoding.com/sketch -->
    <title>004-twitter-logo-silhouette</title>
    <desc>Created with Sketch.</desc>
    <defs></defs>
    <g id="USER" stroke="none" stroke-width="1" fill="none" fill-rule="evenodd">
        <g id="main_blackU222" transform="translate(-556.000000, -4833.000000)" fill="#FFFFFF">
            <rect x="0" y="0" width="1440" height="4911"></rect>
            <g id="004-twitter-logo-silhouette" transform="translate(556.000000, 4833.000000)" fill-rule="nonzero">
                <path d="M21,1.89305176 C20.2270821,2.21429477 19.3977523,2.43215809 18.5263881,2.52942253 C19.4161102,2.02967901 20.0971701,1.23701568 20.4199598,0.295398084 C19.58538,0.758192706 18.6641579,1.09424102 17.6825779,1.27641068 C16.8965521,0.489894774 15.7785062,0 14.5384061,0 C12.1592944,0 10.2302765,1.80936959 10.2302765,4.03969271 C10.2302765,4.35601134 10.2683305,4.6649595 10.3418306,4.96038977 C6.76201105,4.79173799 3.58767743,3.18301252 1.46313965,0.738495209 C1.09176159,1.33424794 0.880491635,2.02842378 0.880491635,2.76942945 C0.880491635,4.17139558 1.64160562,5.40841127 2.79640163,6.13213335 C2.09039557,6.10998976 1.42638959,5.9278201 0.845079812,5.62501936 L0.845079812,5.67548615 C0.845079812,7.63255478 2.33055773,9.26590213 4.30023742,9.63764411 C3.93935938,9.72872894 3.55881954,9.77919573 3.16513752,9.77919573 C2.8869557,9.77919573 2.61793565,9.75335081 2.35416561,9.70410706 C2.90267141,11.3103864 4.4931495,12.4784609 6.37755944,12.5104854 C4.90388546,13.5936546 3.04572556,14.2373959 1.02749187,14.2373959 C0.679756013,14.2373959 0.337235845,14.2176984 0,14.1820047 C1.9067139,15.3304138 4.17035976,16 6.6032755,16 C14.5279747,16 18.8597465,9.84321259 18.8597465,4.50374256 L18.8453004,3.9806324 C19.6916841,3.41439374 20.4239059,2.70296649 21,1.89305176 Z" id="Shape"></path>
            </g>
        </g>
    </g>
</svg>