<?xml version="1.0" encoding="UTF-8"?>
<svg width="72px" height="49px" viewBox="0 0 72 49" version="1.1" xmlns="http://www.w3.org/2000/svg" xmlns:xlink="http://www.w3.org/1999/xlink">
    <!-- Generator: Sketch 51 (57462) - http://www.bohemiancoding.com/sketch -->
    <title>009-deal</title>
    <desc>Created with Sketch.</desc>
    <defs></defs>
    <g id="USER" stroke="none" stroke-width="1" fill="none" fill-rule="evenodd">
        <g id="main_blackU222" transform="translate(-1118.000000, -667.000000)">
            <rect fill="#FFFFFF" x="0" y="0" width="1440" height="4911"></rect>
            <g id="BENEFITS" transform="translate(174.000000, 546.000000)" fill-rule="nonzero">
                <g id="Blocks" transform="translate(0.000000, 107.000000)">
                    <g id="009-deal" transform="translate(944.000000, 14.000000)">
                        <path d="M16,11 C18.4444444,11 22.4444444,11 28,11 C32.2917743,11 28.5327556,12.0214255 25,16 C24.3064826,16.7810364 24.6398159,18.7810364 26,22 C31.8390375,19.5950995 35.8390375,18.5950995 38,19 C44.1487541,20.1520949 41.4433665,21.5299253 43,23 C45.5799556,25.4364935 49.653036,27.9714647 50,29.0123568 C51,32.0123568 58.2963673,33.8399361 57,35 C48.1696479,42.9019065 41.6866002,47.4009833 35.5,47 C32.0341845,46.7753638 26.6932845,39.6661697 22.4773001,37.6724177 C19.5342844,36.2806565 15.3751844,33.3898506 10,29 L16,11 Z" id="Rectangle-4" fill="#FFE500"></path>
                        <path d="M71.3600143,3.29448763 C70.960076,3.01122958 70.4473563,2.94183135 69.9875116,3.11306085 L57.759019,7.59207883 C56.2429379,8.14683972 55.0358106,9.26514252 54.360528,10.7403505 C54.2339653,11.016952 54.1508557,11.3043173 54.0676056,11.5912577 C51.967789,10.9900424 48.0654376,9.73435949 44.1872738,7.72195264 C38.3269967,4.68075255 33.8499098,6.18287001 30.0099961,9.13271938 C28.0643048,9.17124248 25.3825808,9.40294757 22.7464194,9.63691872 C21.0648224,9.78633734 19.4756161,9.92385913 18.1869261,10.0030298 C18.1552854,9.22350359 17.9741601,8.44992584 17.6400344,7.71912006 C16.9647519,6.24377049 15.7577651,5.12546769 14.2415434,4.57084842 L2.01276955,0.0915471833 C1.55433116,-0.0781243911 1.03865828,-0.00872616782 0.640266875,0.272973967 C0.238781716,0.55637365 0,1.01808428 0,1.51081166 L0,31.7249569 C0,32.5600016 0.670923185,33.2357137 1.5000498,33.2357137 L5.88137086,33.2357137 C7.74479637,33.2357137 9.47842475,32.3505323 10.5990676,30.9212122 C11.1960219,31.3783907 11.9030857,31.9137484 12.6446028,32.4744577 C14.3951062,33.8008135 16.3111256,35.2479789 17.1519241,35.957682 C22.7374194,40.6668471 29.4522762,45.752179 30.7896226,46.6373604 C32.0390782,47.4634825 34.2890826,48.3428571 36.0000703,48.3428571 C36.6694466,48.3428571 38.3555436,48.3428571 39.5391866,47.3351666 C40.7593921,47.8175551 42.0748009,47.7940447 43.2979595,47.251039 C44.518165,46.7095912 45.5054951,45.6887292 46.0796681,44.4479173 C47.2514985,44.6898196 48.5977043,44.5127834 49.8179098,43.8961306 C50.9618964,43.3192756 51.8042418,42.4458493 52.2553676,41.4249873 C53.3393073,41.5252607 54.4966533,41.1697718 55.5322178,40.3715506 C57.0118769,39.2324284 57.6894095,37.5501588 57.4977373,35.8905498 L61.3026353,33.7705049 C62.41695,35.2917423 64.1879847,36.2569441 66.1186291,36.2569441 L70.4999501,36.2569441 C71.3290768,36.2569441 71.9999999,35.581232 71.9999999,34.7461873 L71.9999999,4.53232533 C72.0001406,4.03945631 71.7613588,3.57774568 71.3600143,3.29448763 Z M8.84690241,28.8819398 C8.40501534,30.0634377 7.26171795,30.8571429 6.00268146,30.8571429 L3.08571429,30.8571429 L3.08571429,4.11428571 L13.4276371,7.88335099 C14.1958144,8.16427954 14.8068258,8.7275634 15.1477793,9.4706187 C15.4902987,10.213674 15.5200521,11.0460443 15.233765,11.8113571 L8.84690241,28.8819398 Z M53.6679708,37.9187869 C53.1651018,38.3106202 52.4609463,38.5286668 52.1479573,38.2105055 C52.1319601,38.1942439 52.1071992,38.1957993 52.0907847,38.1802448 C52.062407,38.1535192 52.0483573,38.1174609 52.0176148,38.0925737 C50.95693,37.2411739 46.2040885,32.2979365 43.2670001,29.1840561 C42.7004206,28.5816706 41.7600627,28.55947 41.1702524,29.1383823 C40.57766,29.714325 40.5573505,30.668809 41.1253211,31.2697804 C41.8147314,32.0012687 47.3489325,37.8603866 49.5639205,39.909487 C49.3985232,40.5718282 48.7945241,40.9807716 48.487795,41.1371656 C47.5372823,41.6217607 46.5461506,41.5407356 46.1751544,41.1901925 C46.164165,41.1797285 46.1477504,41.1802941 46.1363437,41.170113 C46.1182599,41.15371 46.1101918,41.130661 46.0909951,41.1151064 C44.3115486,39.6700883 39.8472133,34.8476108 38.8371632,33.7310766 C38.2821294,33.1168131 37.3446928,33.0784923 36.7404154,33.6412844 C36.1376683,34.2054905 36.0970493,35.1599745 36.652083,35.7726826 C36.7007702,35.8262751 41.0759384,40.6237239 43.5332494,42.8521259 C43.291761,43.5574543 42.7997424,44.1415985 42.1684785,44.4248328 C41.7026118,44.6352435 40.9739735,44.7431355 40.1414229,44.117701 C38.0105941,42.2811324 33.7343304,37.6539352 32.8932944,36.7389032 C32.3354785,36.1290233 31.3935904,36.098197 30.7965466,36.6667866 C30.1981117,37.2353763 30.1662564,38.1898603 30.7256024,38.7981848 C31.7227157,39.8830443 34.6699587,43.0584359 36.9104032,45.2084995 C36.6601512,45.2394672 36.3973795,45.2571429 36.147823,45.2571429 C35.1653159,45.2571429 33.4772622,44.6194061 32.6238456,44.049261 C31.5834704,43.3539724 25.0511823,38.3989984 19.4101477,33.5970246 C18.5567311,32.8693543 16.6092443,31.3802178 14.8268766,30.0191943 C13.8716343,29.2902513 12.9915094,28.6181531 12.3428571,28.1109332 L17.8984806,13.0490339 C19.3405946,12.9849774 21.2631814,12.8159984 23.2978877,12.6335859 C24.4487133,12.5305016 25.6007909,12.4299626 26.7016774,12.3428571 C25.0095895,14.1085819 22.4938539,17.2711056 22.8254831,20.2355209 C22.9776653,21.5848078 23.7036605,22.7086951 24.9280733,23.4864228 C27.3522771,25.0285862 31.8399822,23.7352957 34.0018317,21.0324797 C35.397206,20.8277252 36.3406242,20.4654455 37.3693146,19.9469132 C39.1081421,21.6084224 41.439562,23.5616503 43.8885266,25.6134374 C48.1515753,29.1839147 52.9839856,33.231634 54.2620933,35.5014677 C54.9734824,36.7639319 53.9868022,37.671328 53.6679708,37.9187869 Z M56.9061834,32.9142857 C54.8810479,30.2636533 50.4910694,26.7172544 46.2135193,23.2684487 C43.3621992,20.9694308 40.6696183,18.79826 38.9462867,17.1122671 C38.4713517,16.6503722 37.742491,16.545808 37.1547002,16.8522508 C35.6064946,17.6640871 34.9089828,17.999529 33.1604296,18.1708749 C32.6943293,18.2173014 32.2758222,18.4700679 32.0264564,18.8577919 C30.8344877,20.7080203 27.5214846,21.5880325 26.4705858,20.9461478 C25.8738178,20.5801731 25.758112,20.2083429 25.7254807,19.9251831 C25.5785686,18.6602353 26.887668,16.470243 29.0592881,14.3441045 C34.4370402,9.08243465 38.2814062,8.05282596 43.2553282,10.5623664 C47.9810243,12.9462905 52.6450202,14.2941925 54.6028981,14.8033504 C54.6594685,15.0261418 54.700507,15.251164 54.784009,15.4696334 L60.6857143,30.868592 L56.9061834,32.9142857 Z M68.9142857,33.9428571 L65.9973385,33.9428571 C64.7383107,33.9428571 63.5950211,33.1491519 63.1531371,31.9676541 L56.7661758,14.8986408 C56.4800331,14.1317586 56.5096439,13.299531 56.852161,12.556333 C57.1932545,11.8132777 57.8042617,11.2499938 58.5722914,10.9690653 L68.9141434,7.2 L68.9141434,33.9428571 L68.9142857,33.9428571 Z" id="Shape" fill="#3C3E45"></path>
                    </g>
                </g>
            </g>
        </g>
    </g>
</svg>