<?xml version="1.0" encoding="UTF-8"?>
<svg width="84px" height="72px" viewBox="0 0 84 72" version="1.1" xmlns="http://www.w3.org/2000/svg" xmlns:xlink="http://www.w3.org/1999/xlink">
    <!-- Generator: Sketch 51 (57462) - http://www.bohemiancoding.com/sketch -->
    <title>box</title>
    <desc>Created with Sketch.</desc>
    <defs></defs>
    <g id="USER" stroke="none" stroke-width="1" fill="none" fill-rule="evenodd">
        <g id="main_blackU222" transform="translate(-249.000000, -655.000000)">
            <rect fill="#FFFFFF" x="0" y="0" width="1440" height="4911"></rect>
            <g id="BENEFITS" transform="translate(174.000000, 546.000000)" fill-rule="nonzero">
                <g id="Blocks" transform="translate(0.000000, 107.000000)">
                    <g id="box" transform="translate(75.000000, 2.000000)">
                        <path d="M45.4759271,60.4720723 C44.8937586,58.87535 43.3587702,57.8028169 41.6568801,57.8028169 C41.1829086,57.8028169 40.7154398,57.8853749 40.2671177,58.0479673 C38.161521,58.8129808 37.0721452,61.1449741 37.8381944,63.2464178 C38.4205435,64.8429599 39.955532,65.915493 41.657422,65.915493 C42.1313935,65.915493 42.5988623,65.832935 43.0470038,65.6703425 C45.1527812,64.9055093 46.2423376,62.573516 45.4759271,60.4720723 Z M42.3523063,63.7640688 C42.1271497,63.8459686 41.8933228,63.8873239 41.6578702,63.8873239 C40.806556,63.8873239 40.0389643,63.3510559 39.7476967,62.5526003 C39.3645782,61.5022285 39.9094518,60.3364402 40.9620794,59.9542411 C41.187236,59.8723413 41.4210629,59.8309859 41.6565155,59.8309859 C42.5075587,59.8309859 43.2751504,60.367254 43.566418,61.1659798 C43.9498074,62.2160813 43.4052048,63.3815994 42.3523063,63.7640688 Z" id="Shape" fill="#3C3E45"></path>
                        <rect id="Rectangle-19" fill="#FFCF00" transform="translate(56.791840, 39.980695) rotate(-21.000000) translate(-56.791840, -39.980695) " x="42.6293561" y="27.2283766" width="28.3249672" height="25.5046372"></rect>
                        <rect id="Rectangle-19" fill="#FFE500" transform="translate(49.822831, 18.456341) rotate(-21.000000) translate(-49.822831, -18.456341) " x="35.6603473" y="8.40797183" width="28.3249672" height="20.096738"></rect>
                        <path d="M83.2402294,49.564282 L81.5703739,45.0262689 C81.4561429,44.7157393 81.2263791,44.4802263 80.9468223,44.348867 C80.9443815,44.3477401 80.9419407,44.3462913 80.9394998,44.3451644 C80.9212749,44.3366325 80.9022364,44.3300324 80.8835234,44.3224663 C80.8659494,44.3153832 80.8487008,44.3073343 80.8308014,44.301056 C80.8265706,44.2994463 80.8220144,44.2984804 80.8176209,44.2971925 C80.563286,44.2110685 80.2786849,44.2064001 80.0064506,44.3045976 L76.0156879,45.7403741 L67.5263064,22.6642795 C67.5261437,22.6636356 67.5256556,22.6631526 67.5254928,22.6626697 L64.187409,13.5885752 C64.011669,13.1136855 63.5511651,12.7947851 63.0402173,12.7947851 C62.898649,12.7947851 62.7570806,12.818932 62.6236484,12.8672259 C61.9906589,13.094207 61.6635872,13.7896386 61.8930256,14.4142392 L64.8156795,22.3556817 L49.143088,27.9986584 C49.1429253,27.9986584 49.1425998,27.9986584 49.1422744,27.9988194 C49.1417862,27.9989803 49.1414608,27.9993023 49.1409726,27.9993023 L39.5862487,31.439435 L33.1854071,14.0447912 L41.596031,11.0167661 L43.4048513,15.9321153 C43.5789641,16.4070049 44.039468,16.7275152 44.5504158,16.7275152 C44.6936113,16.7275152 44.8335525,16.7033682 44.9686119,16.6533036 L51.0851778,14.4511035 C51.3910956,14.3416374 51.6351789,14.1194857 51.7734928,13.8281127 C51.8756824,13.6114343 51.9090405,13.3752773 51.8750315,13.1445936 C51.8748688,13.1433058 51.8748688,13.1420179 51.8747061,13.1408911 C51.8699871,13.1095001 51.8631528,13.0779481 51.8558303,13.046879 C51.8537149,13.0380252 51.8525758,13.0296542 51.8504605,13.0208004 C51.8405344,12.9816823 51.828493,12.9428863 51.8143361,12.9042512 L50.0061667,7.98874102 L58.4150006,4.96119888 L60.2234955,9.87606511 C60.3992355,10.3509547 60.8597394,10.671304 61.3706872,10.671304 C61.5122556,10.671304 61.6538239,10.6471571 61.7888833,10.5972534 C62.4202456,10.3702723 62.7473173,9.6762895 62.5178789,9.05024008 L60.2918388,2.99918028 C60.1380663,2.5836921 59.7664088,2.28765073 59.3334049,2.22003933 C59.2715705,2.21038056 59.2084342,2.20539019 59.1446471,2.20539019 C59.0030788,2.20539019 58.8615104,2.22953712 58.7280782,2.27783098 L48.0300679,6.13023227 C48.028278,6.13087619 48.0263253,6.13103717 48.0245354,6.13168109 C48.0212809,6.13280794 48.0183519,6.13441774 48.0150975,6.13554459 L41.9187092,8.33098351 C41.9151293,8.33227135 41.9115494,8.33259331 41.9079695,8.33388115 C41.9019488,8.33613486 41.8962535,8.33903249 41.8902328,8.3412862 L31.2044267,12.1891801 C30.8985089,12.2986462 30.6544255,12.5207979 30.5161116,12.8121709 C30.3777978,13.1051536 30.3631527,13.4333909 30.4754311,13.7361934 L37.709736,33.4006487 L44.6665995,52.3112368 C43.784645,52.0446547 42.8585928,51.8949437 41.9102476,51.876753 L24.2859656,3.9721406 C23.135194,0.844469189 19.6269028,-0.773858092 16.4650471,0.364267231 C16.4645589,0.364428211 16.4640708,0.36475017 16.4635826,0.364911149 L0.805961514,5.95154498 C0.805798792,5.95170596 0.805473348,5.95170596 0.805147903,5.95186694 C0.804334292,5.9521889 0.803520681,5.95234988 0.802544347,5.95267184 C0.774393402,5.96281355 0.747706956,5.97488702 0.720857788,5.9867995 C0.710606288,5.99130693 0.699866621,5.99500946 0.689777842,5.99983885 C0.663416841,6.01223427 0.638357618,6.02672243 0.613298394,6.04088863 C0.603046894,6.04668389 0.592144504,6.05167426 0.582055726,6.05795246 C0.557972836,6.07244062 0.535517169,6.08853857 0.512736056,6.10447554 C0.502647278,6.11155864 0.491907611,6.11799783 0.482144277,6.1252419 C0.460990387,6.14117888 0.441300998,6.15840369 0.421286163,6.1756285 C0.411197385,6.18448237 0.400294996,6.19237037 0.390531662,6.20138523 C0.371655883,6.21844906 0.354407327,6.23728366 0.336833326,6.25547435 C0.327232715,6.26561606 0.316981214,6.27479189 0.307706047,6.28509458 C0.29110838,6.30360723 0.275975212,6.32340771 0.2605166,6.34288624 C0.2517296,6.35383285 0.242128989,6.3644575 0.233830155,6.37588704 C0.219836043,6.39488263 0.207469154,6.41484409 0.194614097,6.43464457 C0.186315264,6.44752294 0.177202819,6.45975738 0.169392152,6.47279672 C0.157676151,6.49243623 0.147587373,6.51304161 0.137010428,6.53332503 C0.129687928,6.54733025 0.121551816,6.56101351 0.114717483,6.57534069 C0.105279593,6.59530215 0.0976316486,6.61590753 0.0891700927,6.63635193 C0.0828239257,6.65196695 0.0756641476,6.66677707 0.0701315918,6.68255306 C0.0629718137,6.70251452 0.0574392579,6.7231199 0.0514185354,6.74340332 C0.0463741463,6.7601452 0.040516146,6.77672609 0.0361226458,6.79378992 C0.0310782567,6.81375138 0.0276610899,6.83435676 0.0235930341,6.85464018 C0.0200131451,6.87234793 0.0156196449,6.89005568 0.012853367,6.90792441 C0.00959892239,6.92852979 0.00845986678,6.94945713 0.0063444778,6.97022349 C0.00455453327,6.9882532 0.00178825537,7.00628291 0.00081192199,7.0244736 C-0.000327133617,7.04572289 0.000486477531,7.06697219 0.000486477531,7.08822149 C0.000486477531,7.10641218 -0.000489855847,7.12460287 0.000323755301,7.14279355 C0.00130008868,7.16436481 0.00439181104,7.18609705 0.00650720003,7.20766831 C0.00829714455,7.22553704 0.00927347793,7.24356674 0.0118770336,7.26159645 C0.0151314782,7.28300673 0.0203385895,7.30441701 0.0247320897,7.32582729 C0.028474701,7.34401798 0.0312409789,7.36236964 0.0357972014,7.38056033 C0.0411670349,7.40197061 0.0488149797,7.42305893 0.0554865911,7.44430823 C0.061019147,7.461855 0.0654126472,7.47972372 0.0717588141,7.49727049 C0.0719215363,7.49759245 0.0720842586,7.49807539 0.0722469808,7.49839735 C0.072409703,7.49920225 0.0725724253,7.49984617 0.0728978697,7.50065106 L1.74259067,12.0386642 C1.75512028,12.0727919 1.77236884,12.1038609 1.787502,12.1362178 C1.79938073,12.1613306 1.80898134,12.1880532 1.82248728,12.2120392 C1.84152578,12.2460058 1.86446962,12.27627 1.88643712,12.307983 C1.90026851,12.3277834 1.91198451,12.3495157 1.92695495,12.3683503 C1.95315323,12.4016731 1.98309412,12.4312933 2.01238412,12.4612355 C2.02605279,12.4752407 2.03809424,12.4911777 2.05241379,12.504539 C2.08544641,12.5352861 2.12173346,12.5620087 2.15769508,12.5887313 C2.17071285,12.598551 2.18242885,12.6099806 2.19577208,12.6189954 C2.23466269,12.6455571 2.27631958,12.6679332 2.31797647,12.6896654 C2.33034336,12.6961046 2.34173392,12.7044756 2.35426353,12.7105928 C2.39689675,12.7311982 2.44164537,12.7471351 2.48639398,12.7625892 C2.49941176,12.7670966 2.51161593,12.7735358 2.52479643,12.7777213 C2.57068409,12.7920484 2.61787354,12.8012243 2.66538843,12.8102391 C2.67840621,12.8126538 2.69109854,12.8171612 2.70427905,12.819093 C2.76513716,12.8285908 2.82713433,12.8332592 2.88961966,12.8332592 C2.92411678,12.8332592 2.95877661,12.8316494 2.99359917,12.8289127 C3.00075895,12.8282688 3.007756,12.82682 3.01491578,12.8261761 C3.04257856,12.8232785 3.07007862,12.8202198 3.0977414,12.8155514 C3.11043373,12.8132977 3.12312606,12.8099172 3.1358184,12.8073415 C3.1577859,12.8028341 3.1797534,12.7986486 3.20155818,12.7928533 C3.22482746,12.7868971 3.24777129,12.7790091 3.27087785,12.771443 C3.28178024,12.7680625 3.29268263,12.7651648 3.30342229,12.7613013 L3.30472407,12.7608184 C3.30537496,12.7606574 3.30602585,12.7603355 3.30667674,12.7601745 C3.30716491,12.7600135 3.30765307,12.7596915 3.30814124,12.7595306 L17.8208487,7.58114083 L35.0308399,54.3574477 C31.9609223,57.013932 30.6824138,61.364243 32.159118,65.3776238 C33.6164583,69.3385253 37.4571911,72 41.7164454,72 C42.9013887,72 44.0713615,71.7950731 45.1939822,71.3908534 C47.7466058,70.4716603 49.784539,68.6244201 50.9327071,66.1887997 C51.5429154,64.8940413 51.8597356,63.5158955 51.8860966,62.1292178 L82.510583,51.1119393 C82.510583,51.1119393 82.5107457,51.1119393 82.5109084,51.1117783 L82.5110711,51.1117783 C82.5192072,51.1088806 82.5266925,51.1050171 82.5346658,51.1019585 C82.5657458,51.090046 82.5965003,51.0779726 82.625953,51.0638064 C82.6384826,51.0578501 82.6500359,51.0506061 82.6624028,51.0441669 C82.6864857,51.0317715 82.7105686,51.019698 82.7335124,51.0058537 C82.7465302,50.9978048 82.7585716,50.988468 82.771264,50.980258 C82.7920924,50.9664138 82.813409,50.9530525 82.8332611,50.9382423 C82.8396073,50.933413 82.8451399,50.9279397 82.8513233,50.9231103 C82.8763825,50.9033098 82.901279,50.8835093 82.9245483,50.862099 C82.9284536,50.8579136 82.9320335,50.8538891 82.9359389,50.8501865 C82.9605099,50.8266835 82.9845928,50.8030195 83.0072112,50.7779067 C83.0117674,50.7729164 83.01551,50.7672821 83.0200663,50.7621307 C83.0412202,50.7376618 83.0618859,50.712871 83.0809244,50.6869533 C83.0830398,50.6842166 83.084667,50.681158 83.0866197,50.6782604 C83.1072854,50.6494451 83.1271375,50.6201468 83.1451997,50.5897216 C83.1484541,50.5842483 83.1510577,50.5782921 83.1543121,50.5726578 C83.1704216,50.5446474 83.1858802,50.516476 83.1997116,50.4873387 C83.2050814,50.4759091 83.2093122,50.4638356 83.2141939,50.4522451 C83.2246081,50.4284201 83.235185,50.4045952 83.2441348,50.3801263 C83.2501555,50.3632234 83.254549,50.3458376 83.2597561,50.3287738 C83.2659395,50.3089733 83.2729366,50.2893338 83.277981,50.2692114 C83.2854662,50.2394302 83.2909988,50.209166 83.2962059,50.1789019 C83.2975077,50.1708529 83.2997858,50.1631259 83.3009248,50.1552379 C83.3300521,49.9627063 83.3123154,49.7601941 83.2402294,49.564282 Z M47.7129223,8.81456604 L49.1033838,12.5959754 L45.2807132,13.9723504 L43.8894381,10.1911021 L47.7129223,8.81456604 Z M54.9475526,28.4788603 L56.3389904,32.2599477 L52.5151808,33.6366447 L51.1242311,29.8553964 L54.9475526,28.4788603 Z M40.4216647,33.7086025 L48.8309868,30.6810604 L50.6398071,35.5964096 C50.8139198,36.0712992 51.2744238,36.3914875 51.7869988,36.3914875 C51.9285671,36.3914875 52.0685082,36.3658918 52.2035677,36.3174369 L58.3201336,34.1152369 C58.9531231,33.8882557 59.2801947,33.1944339 59.0491292,32.5682235 L57.2404716,27.6531963 L65.6510955,24.6250102 L73.7229317,46.5644283 L49.3733399,55.3244518 C48.9160905,54.8078684 48.4092107,54.3387741 47.8592096,53.9261835 L40.4216647,33.7086025 Z M19.6986633,5.62362967 C19.6915035,5.60431212 19.6825538,5.58612144 19.6745804,5.56712585 C19.666607,5.5486132 19.6594472,5.52945664 19.6506602,5.51126595 C19.6426868,5.49468506 19.6332489,5.47955298 19.6246246,5.46361601 C19.613885,5.44381553 19.6036335,5.4235321 19.5919175,5.40453652 C19.5837814,5.39149718 19.5745062,5.37958469 19.5658819,5.36686731 C19.5520505,5.34626193 19.5387073,5.32533459 19.5235741,5.30585606 C19.5157635,5.29555337 19.5068138,5.28637754 19.4986776,5.27623583 C19.4817545,5.25546947 19.4649941,5.23470311 19.4466065,5.21522458 C19.439284,5.20733659 19.4309852,5.20025349 19.4233373,5.19252647 C19.4031597,5.17224305 19.3831449,5.15195963 19.3616655,5.13312502 C19.3554821,5.1278127 19.3488105,5.12314429 19.342627,5.11799294 C19.3188696,5.0978705 19.2947867,5.07807002 19.2695647,5.06004031 C19.2659849,5.05746464 19.2620795,5.05553288 19.2584996,5.05279623 C19.230186,5.03283477 19.2012214,5.01383918 19.1712805,4.99629241 C19.1690024,4.99500458 19.1665616,4.99387772 19.1642835,4.99275087 C18.9976559,4.89696804 18.8088981,4.84046422 18.6136314,4.83032251 C18.6118415,4.83032251 18.6102143,4.83048349 18.6084243,4.83032251 C18.5706728,4.82855174 18.5327585,4.82839076 18.4945188,4.83016153 C18.4875217,4.83048349 18.4805247,4.83177133 18.4735276,4.83225427 C18.4406577,4.834347 18.4077878,4.83692267 18.3749179,4.84175206 C18.3591339,4.84416675 18.3435125,4.84803026 18.3277285,4.85108887 C18.3036456,4.85543532 18.2794,4.85945981 18.2553171,4.86541605 C18.2279798,4.87217719 18.2008051,4.88135303 18.1736305,4.88988494 C18.1615891,4.89374845 18.1493849,4.89664608 18.1373435,4.90083155 L18.1357162,4.90147547 C18.1352281,4.90163645 18.1345772,4.90179743 18.1339263,4.90195841 C18.1334381,4.90211939 18.13295,4.90244135 18.1324618,4.90260232 L3.61975431,10.0809921 L2.78482655,7.81182451 L17.2957441,2.6340787 C17.2960695,2.63391772 17.2962323,2.63375674 17.2965577,2.63375674 C17.2973713,2.63343478 17.2981849,2.6332738 17.2991613,2.63295184 C19.1965025,1.94991567 21.3013145,2.92094423 21.9917449,4.79780465 L39.4085561,52.1381838 C39.013141,52.2296202 38.6217941,52.3431108 38.2363051,52.4820361 C37.8478871,52.6219273 37.4752532,52.7853215 37.1153117,52.9656186 L19.6986633,5.62362967 Z M48.7201729,65.1678675 C47.8476563,67.0189712 46.2988661,68.4230347 44.3588917,69.1215249 C43.5046,69.4291568 42.615323,69.585146 41.71612,69.585146 C38.4790867,69.585146 35.5600126,67.5622771 34.4525251,64.5514768 C32.9948594,60.5897705 35.067127,56.1932583 39.0718838,54.7510427 C39.9261755,54.4434108 40.8152897,54.2874216 41.7146555,54.2874216 C44.9515261,54.2874216 47.8707629,56.3102905 48.9782504,59.3212517 C49.6844649,61.2404497 49.5928522,63.3169248 48.7201729,65.1678675 Z M51.6189067,59.6556062 C51.526155,59.2653918 51.4125749,58.878075 51.2718202,58.4955877 C51.1312282,58.1132613 50.9676924,57.7433303 50.7844671,57.3862777 L79.6940239,46.9860337 L80.5289516,49.2552013 L51.6189067,59.6556062 Z" id="Shape" fill="#3C3E45"></path>
                    </g>
                </g>
            </g>
        </g>
    </g>
</svg>