<?xml version="1.0" encoding="UTF-8"?>
<svg width="72px" height="72px" viewBox="0 0 72 72" version="1.1" xmlns="http://www.w3.org/2000/svg" xmlns:xlink="http://www.w3.org/1999/xlink">
    <!-- Generator: Sketch 51 (57462) - http://www.bohemiancoding.com/sketch -->
    <title>discount</title>
    <desc>Created with Sketch.</desc>
    <defs></defs>
    <g id="USER" stroke="none" stroke-width="1" fill="none" fill-rule="evenodd">
        <g id="main_blackU222" transform="translate(-547.000000, -653.000000)">
            <rect fill="#FFFFFF" x="0" y="0" width="1440" height="4911"></rect>
            <g id="BENEFITS" transform="translate(174.000000, 546.000000)" fill-rule="nonzero">
                <g id="Blocks" transform="translate(0.000000, 107.000000)">
                    <g id="discount" transform="translate(373.000000, 0.000000)">
                        <path d="M56.5046084,16.4815502 C48.9949616,8.97190336 36.8193247,8.97190336 29.3096779,16.4815502 L1.4149702,44.3762579 C0.84341176,44.9478163 0.84341176,45.8741893 1.4149702,46.445605 L26.5406964,71.5713312 C27.1122548,72.1428896 28.0387706,72.1428896 28.6100435,71.5713312 L56.504894,43.6766235 C64.014398,36.1668339 64.014398,23.991197 56.5046084,16.4815502 Z M52.5498181,27.8127712 C50.5128826,29.8497067 47.2103228,29.8497067 45.1733874,27.8127712 C43.1364519,25.7758358 43.1364519,22.473276 45.1733874,20.4363405 C47.2103228,18.399405 50.5128826,18.399405 52.5498181,20.4363405 C54.5867536,22.473276 54.5867536,25.7758358 52.5498181,27.8127712 Z" id="Shape" fill="#FFCF00"></path>
                        <path d="M3.04726381,45.4444061 L30.9766447,17.9814208 C37.0064495,12.0523083 46.0402398,10.8792022 53.260274,14.4596254 C45.8827835,9.10151442 35.4321669,9.70733479 28.7498633,16.2777746 L1.40649963,43.1648039 C0.846235282,43.7157124 0.846235282,44.6086162 1.40649963,45.159387 L2.62360151,46.3561644 C2.64837462,46.0238027 2.78903555,45.6984598 3.04726381,45.4444061 Z" id="Shape" fill="#FFE500"></path>
                        <path d="M8.84984749,35.5068493 L1.40648872,42.9502081 C0.84623892,43.5104579 0.84623892,44.418502 1.40648872,44.9786119 L26.0350868,69.6072099 C26.5953366,70.1674597 27.5035207,70.1674597 28.0634905,69.6072099 L35.5068493,62.1638511 C21.5046631,60.567776 10.4457827,49.507496 8.84984749,35.5068493 Z" id="Shape" fill="#FFE500"></path>
                        <path d="M2.51599719,46.3561644 C2.53940573,46.0130879 2.6707028,45.6772565 2.91211155,45.4150125 L8.87671233,38.9356255 C8.63661132,37.8025497 8.45470473,36.6578248 8.33386958,35.5068493 L1.37891752,43.0620617 C0.855429319,43.6307305 0.855429319,44.5524201 1.37891752,45.1209469 L2.51599719,46.3561644 Z" id="Shape" fill="#FFE500"></path>
                        <path d="M45.0628693,37.4165054 C44.9349059,37.5424974 44.8069425,37.626681 44.6576758,37.6897478 L21.206401,45.3583927 C20.8223668,45.4843847 20.374135,45.3375594 20.0754577,45.0432002 C19.5846194,44.5599239 19.648817,43.824522 20.0328512,43.4465461 C20.1396553,43.3413874 20.2674748,43.2573456 20.4381887,43.2153955 L43.9535172,35.4836838 C44.3588546,35.3367168 44.7218734,35.4836838 44.9778003,35.7356677 C45.404297,36.1558771 45.5537076,36.9332291 45.0628693,37.4165054 Z M26.8822765,30.9452802 L30.0404827,27.8357305 C31.9609415,25.9448589 33.9028474,26.4700853 35.5459322,28.0879979 C37.1675698,29.684652 37.7224618,31.6176153 35.802003,33.5086286 L32.6437968,36.6181784 C30.723338,38.5090499 28.7599849,37.9627068 27.1383473,36.3660527 C25.4951185,34.7481401 24.9618177,32.8362935 26.8822765,30.9452802 Z M34.2655784,31.9958747 C35.1404509,31.1344808 35.0124874,30.2519701 34.1802215,29.432668 C33.3478115,28.6132242 32.473083,28.508349 31.5982105,29.3696012 L28.4400044,32.4791509 C27.5651319,33.3405448 27.6716481,34.2019387 28.504058,35.0212408 C29.336324,35.8406846 30.2324998,35.9666766 31.1073722,35.1054244 L34.2655784,31.9958747 Z M29.05895,47.3752562 L32.2171562,44.2657065 C34.137615,42.3746932 36.079521,42.9000613 37.7226057,44.5178321 C39.3442433,46.1144862 39.8991353,48.0475913 37.9786765,49.9384629 L34.8204704,53.0478709 C32.8998676,54.9388842 30.9366584,54.3923993 29.3150208,52.7957452 C27.6717921,51.1779744 27.1383473,49.2661278 29.05895,47.3752562 Z M36.442108,48.4257089 C37.3169804,47.564315 37.189017,46.6818044 36.356751,45.8625023 C35.5243411,45.0429167 34.6496126,44.9380415 33.7747401,45.7994354 L30.6165339,48.9089852 C29.7416615,49.7702374 29.8481777,50.631773 30.6805876,51.4510751 C31.5128536,52.2705189 32.4090293,52.3965108 33.2839018,51.535117 L36.442108,48.4257089 Z" id="Shape" fill="#3B3D44"></path>
                        <path d="M70.4064857,1.56709074 C69.2895794,0.450949575 67.7464278,-0.112816324 66.1718953,0.0188087402 C64.597785,0.150996304 63.1703064,0.965074825 62.2556169,2.25221608 L54.2242206,13.5512997 C46.4002477,7.79326565 35.2984497,8.44956284 28.2219893,15.521035 L0.730080563,42.9945328 C-0.243430547,43.9675176 -0.243289826,45.5503934 0.730080563,46.5232376 L25.4929779,71.2690309 C25.9646762,71.7404061 26.5915904,72 27.2586101,72 C27.9256299,72 28.552544,71.7402655 29.0241017,71.2691715 L56.5161511,43.7960957 C59.8169139,40.4974534 61.86807,36.1259826 62.291923,31.4864803 C62.344975,30.9066831 61.9176039,30.3941048 61.3374093,30.3410891 C60.757074,30.2887766 60.2441442,30.7151518 60.1910922,31.294949 C59.8119886,35.4443728 57.9769807,39.3548747 55.0243628,42.3054699 L27.5325948,69.7785458 C27.4338084,69.877124 27.3186982,69.8920302 27.2587509,69.8920302 C27.1988035,69.8920302 27.0835526,69.8772646 26.9847662,69.7784052 L2.22172812,45.0324713 C2.07073398,44.8817212 2.07073398,44.6360492 2.22172812,44.4850179 L29.7137776,17.0118014 C36.6920144,10.0384855 48.0465482,10.0384855 55.0246443,17.0118014 C55.1555152,17.1425827 55.2825867,17.2765984 55.4089546,17.4107547 L52.6036722,19.4020057 C52.3640235,19.1640681 52.1091769,18.9505992 51.8429319,18.7599116 C51.8370216,18.7554116 51.8318149,18.7503491 51.8257639,18.7459897 C51.8149283,18.738396 51.8036706,18.7320678 51.7926943,18.724896 C49.3770696,17.0314889 46.0136858,17.2607078 43.8569886,19.4160682 C42.6867489,20.5853656 42.0423853,22.1401164 42.0423853,23.7937266 C42.0423853,25.447618 42.6867489,27.0022281 43.8569886,28.1715256 C45.0649417,29.3786511 46.6511541,29.9819327 48.2377886,29.9819327 C49.824001,29.9819327 51.410917,29.3783699 52.6184479,28.1715256 C53.7886876,27.0022281 54.4330512,25.4474774 54.4330512,23.7937266 C54.4330512,22.8522417 54.223517,21.9432413 53.8278082,21.1186159 L56.7671982,19.0321617 C58.4295409,21.2734441 59.5395518,23.8640391 60.0125167,26.6477123 C60.1100367,27.2217438 60.6540659,27.6067753 61.2290538,27.5104471 C61.8033381,27.4128533 62.1899,26.8687749 62.0922393,26.2947434 C61.5655188,23.1948044 60.3333616,20.3093186 58.4877996,17.8106924 L69.7094923,9.84540727 C71.0183426,8.91643807 71.8463478,7.46645299 71.9807368,5.86768658 C72.1151258,4.26892018 71.5416858,2.70179442 70.4064857,1.56709074 Z M52.3236364,23.7940078 C52.3236364,24.8846958 51.8986576,25.9099932 51.1269411,26.6811811 C49.5338334,28.2733381 46.9417439,28.2731975 45.3487769,26.6811811 C44.5770604,25.9099932 44.1520816,24.8848365 44.1520816,23.7940078 C44.1520816,22.7034604 44.5770604,21.6780224 45.3487769,20.9068345 C46.1454011,20.110756 47.1916652,19.7127871 48.2379294,19.7127871 C48.7213076,19.7127871 49.2044044,19.7988496 49.6631564,19.9687247 L48.2619927,21.9398663 C47.8897844,22.4638353 47.9494504,23.1737106 48.4042621,23.6282108 C48.6592494,23.8830235 48.9945887,24.0133829 49.3324609,24.0133829 C49.5970173,24.0133829 49.8632623,23.9332266 50.0933419,23.7698203 L52.0679455,22.3682102 C52.2354041,22.8184917 52.3236364,23.2992888 52.3236364,23.7940078 Z M69.8789209,5.69148337 C69.7965989,6.6705151 69.2895794,7.55814053 68.4880299,8.12725018 L57.1436281,16.1795822 C56.9394413,15.9564102 56.731455,15.7360508 56.5162918,15.5211757 C56.3007065,15.3057381 56.0807589,15.0971911 55.8578561,14.8937066 L63.9753739,3.47312292 C64.5296758,2.69321629 65.3946906,2.19990355 66.3486415,2.11974726 C67.3023109,2.03959097 68.2378272,2.38159114 68.9146974,3.05813834 C69.6098615,3.75254493 69.9613837,4.71245165 69.8789209,5.69148337 Z" id="Shape" fill="#474D54"></path>
                    </g>
                </g>
            </g>
        </g>
    </g>
</svg>