<?xml version="1.0" encoding="UTF-8"?>
<svg width="414px" height="402px" viewBox="0 0 414 402" version="1.1" xmlns="http://www.w3.org/2000/svg" xmlns:xlink="http://www.w3.org/1999/xlink">
    <!-- Generator: Sketch 51 (57462) - http://www.bohemiancoding.com/sketch -->
    <title>img1</title>
    <desc>Created with Sketch.</desc>
    <defs>
        <path d="M207.817113,375.408676 C309.420523,375.408676 391.786361,292.898546 391.786361,191.117144 C391.786361,89.3357415 309.420523,6.82561228 207.817113,6.82561228 C106.213703,6.82561228 23.8478655,89.3357415 23.8478655,191.117144 C23.8478655,292.898546 106.213703,375.408676 207.817113,375.408676 Z" id="path-1"></path>
        <filter x="-6.9%" y="-6.9%" width="113.9%" height="113.8%" filterUnits="objectBoundingBox" id="filter-2">
            <feOffset dx="0" dy="0" in="SourceAlpha" result="shadowOffsetOuter1"></feOffset>
            <feGaussianBlur stdDeviation="8.5" in="shadowOffsetOuter1" result="shadowBlurOuter1"></feGaussianBlur>
            <feComposite in="shadowBlurOuter1" in2="SourceAlpha" operator="out" result="shadowBlurOuter1"></feComposite>
            <feColorMatrix values="0 0 0 0 0.591703869   0 0 0 0 0.591703869   0 0 0 0 0.591703869  0 0 0 0.441717618 0" type="matrix" in="shadowBlurOuter1"></feColorMatrix>
        </filter>
    </defs>
    <g id="USER" stroke="none" stroke-width="1" fill="none" fill-rule="evenodd">
        <g id="main_blackU222" transform="translate(-785.000000, -1310.000000)">
            <rect fill="#FFFFFF" x="0" y="0" width="1440" height="4911"></rect>
            <g id="STEPS" transform="translate(-3.000000, 480.000000)">
                <g id="img1" transform="translate(788.000000, 840.000000)">
                    <g id="OBJECTS">
                        <g id="Group">
                            <g id="Oval">
                                <use fill="black" fill-opacity="1" filter="url(#filter-2)" xlink:href="#path-1"></use>
                                <use fill-opacity="0.0148607337" fill="#EFEEF4" fill-rule="evenodd" xlink:href="#path-1"></use>
                            </g>
                            <g transform="translate(106.583343, 2.275204)" fill-rule="nonzero">
                                <g>
                                    <path d="M180.953778,377.001318 L21.5137631,377.001318 C9.70339163,377.001318 0.0506841719,367.331701 0.0506841719,355.50064 L0.0506841719,22.1832399 C0.0506841719,10.3521786 9.70339163,0.682561228 21.5137631,0.682561228 L181.067339,0.682561228 C192.877711,0.682561228 202.530418,10.3521786 202.530418,22.1832399 L202.530418,355.50064 C202.416857,367.445461 192.877711,377.001318 180.953778,377.001318 Z" id="Shape" fill="#424242"></path>
                                    <path d="M180.953778,7.96321433 L140.75309,7.96321433 C137.005569,7.96321433 133.939415,11.0347399 133.939415,14.7888266 C133.939415,18.5429134 130.87326,21.6144389 127.125739,21.6144389 L75.228241,21.6144389 C71.4807193,21.6144389 68.4145652,18.5429134 68.4145652,14.7888266 C68.4145652,11.0347399 65.3484111,7.96321433 61.6008893,7.96321433 L21.4002018,7.96321433 C13.5644746,7.96321433 7.20504381,14.3337858 7.20504381,22.1832399 L7.20504381,355.50064 C7.20504381,363.350094 13.5644746,369.720665 21.4002018,369.720665 L180.953778,369.720665 C188.789505,369.720665 195.148936,363.350094 195.148936,355.50064 L195.148936,22.1832399 C195.148936,14.3337858 188.789505,7.96321433 180.953778,7.96321433 Z" id="Shape" fill="#FFFFFF"></path>
                                    <path d="M184.7013,137.991128 L17.7662414,137.991128 C14.4729647,137.991128 11.7474944,135.260883 11.7474944,131.961837 L11.7474944,90.0980821 C11.7474944,86.7990362 14.4729647,84.0687913 17.7662414,84.0687913 L184.7013,84.0687913 C187.994576,84.0687913 190.720047,86.7990362 190.720047,90.0980821 L190.720047,131.961837 C190.720047,135.374644 187.994576,137.991128 184.7013,137.991128 Z" id="Shape" fill="#F5F5F5"></path>
                                    <path d="M180.953778,7.96321433 L140.75309,7.96321433 C137.005569,7.96321433 133.939415,11.0347399 133.939415,14.7888266 C133.939415,18.5429134 130.87326,21.6144389 127.125739,21.6144389 L75.228241,21.6144389 C71.4807193,21.6144389 68.4145652,18.5429134 68.4145652,14.7888266 C68.4145652,11.0347399 65.3484111,7.96321433 61.6008893,7.96321433 L21.4002018,7.96321433 C13.5644746,7.96321433 7.20504381,14.3337858 7.20504381,22.1832399 L7.20504381,60.4066687 L195.036872,60.4066687 L195.035375,22.1832399 C195.148936,14.3337858 188.789505,7.96321433 180.953778,7.96321433 Z" id="Shape" fill="#FFCF00"></path>
                                    <ellipse id="Oval" fill="#DEDEDE" cx="34.0055022" cy="110.688679" rx="17.8291185" ry="17.8603521"></ellipse>
                                    <ellipse id="Oval" fill="#DEDEDE" cx="29.0088065" cy="160.060608" rx="12.8324229" ry="12.8549031"></ellipse>
                                    <path d="M132.235996,365.284017 L70.2315454,365.284017 C68.5281265,365.284017 67.05183,363.918895 67.05183,362.098732 C67.05183,360.392328 68.4145652,358.913446 70.2315454,358.913446 L132.235996,358.913446 C133.939415,358.913446 135.415711,360.278568 135.415711,362.098732 C135.415711,363.805135 133.939415,365.284017 132.235996,365.284017 Z" id="Shape" fill="#FFCF00"></path>
                                    <g transform="translate(172.777367, 10.238418)" fill="#FFFFFF">
                                        <path d="M13.5137904,7.2806531 L0.113561264,7.2806531 L0.113561264,0.682561228 L13.5137904,0.682561228 L13.5137904,7.2806531 Z M1.70341896,5.91553064 L12.1510553,5.91553064 L12.1510553,2.27520409 L1.70341896,2.27520409 L1.70341896,5.91553064 Z" id="Shape"></path>
                                        <g>
                                            <rect id="Rectangle-path" x="0.908490113" y="1.47888266" width="8.06284976" height="5.11920921"></rect>
                                            <path d="M9.76626872,7.2806531 L0.227122528,7.2806531 L0.227122528,0.682561228 L9.76626872,0.682561228 L9.76626872,7.2806531 Z M1.70341896,5.91553064 L8.28997228,5.91553064 L8.28997228,2.27520409 L1.70341896,2.27520409 L1.70341896,5.91553064 Z" id="Shape"></path>
                                        </g>
                                        <g transform="translate(11.356126, 2.109364)">
                                            <rect id="Rectangle-path" x="1.47629643" y="0.734640708" width="1.5898577" height="2.5027245"></rect>
                                            <path d="M3.86108298,3.91992644 L0.794928849,3.91992644 L0.794928849,0.0520794799 L3.86108298,0.0520794799 L3.86108298,3.91992644 Z M2.15766402,2.44104378 L2.27122528,2.44104378 L2.27122528,1.41720194 L2.15766402,1.41720194 L2.15766402,2.44104378 Z" id="Shape"></path>
                                        </g>
                                    </g>
                                    <rect id="Rectangle-path" fill="#F2F2F2" x="16.1763837" y="16.0401889" width="1.81698023" height="3.29904594"></rect>
                                    <rect id="Rectangle-path" fill="#F2F2F2" x="19.5832216" y="14.2200256" width="1.81698023" height="5.23296942"></rect>
                                    <rect id="Rectangle-path" fill="#F2F2F2" x="23.1036208" y="11.7173011" width="1.81698023" height="7.62193371"></rect>
                                    <rect id="Rectangle-path" fill="#F2F2F2" x="26.5104587" y="9.7833776" width="1.81698023" height="9.6696174"></rect>
                                    <rect id="Rectangle-path" fill="#F5F5F5" x="16.9713125" y="186.225455" width="168.524916" height="111.37124"></rect>
                                    <path d="M141.434458,152.779955 L54.6736522,152.779955 C53.0837945,152.779955 51.8346206,151.528593 51.8346206,149.93595 C51.8346206,148.343307 53.0837945,147.091945 54.6736522,147.091945 L141.434458,147.091945 C143.024316,147.091945 144.27349,148.343307 144.27349,149.93595 C144.159928,151.528593 142.910754,152.779955 141.434458,152.779955 Z" id="Shape" fill="#DEDEDE"></path>
                                    <path d="M96.5777587,165.634858 L54.560091,165.634858 C52.9702333,165.634858 51.7210594,164.383496 51.7210594,162.790853 C51.7210594,161.19821 52.9702333,159.946848 54.560091,159.946848 L96.5777587,159.946848 C98.1676164,159.946848 99.4167903,161.19821 99.4167903,162.790853 C99.4167903,164.383496 98.1676164,165.634858 96.5777587,165.634858 Z" id="Shape" fill="#DEDEDE"></path>
                                    <ellipse id="Oval" fill="#DEDEDE" cx="29.0088065" cy="325.467946" rx="12.8324229" ry="12.8549031"></ellipse>
                                    <path d="M141.434458,318.187293 L54.6736522,318.187293 C53.0837945,318.187293 51.8346206,316.93593 51.8346206,315.343287 C51.8346206,313.750645 53.0837945,312.499282 54.6736522,312.499282 L141.434458,312.499282 C143.024316,312.499282 144.27349,313.750645 144.27349,315.343287 C144.159928,316.93593 142.910754,318.187293 141.434458,318.187293 Z" id="Shape" fill="#DEDEDE"></path>
                                    <path d="M96.5777587,331.042196 L54.560091,331.042196 C52.9702333,331.042196 51.7210594,329.790833 51.7210594,328.198191 C51.7210594,326.605548 52.9702333,325.354185 54.560091,325.354185 L96.5777587,325.354185 C98.1676164,325.354185 99.4167903,326.605548 99.4167903,328.198191 C99.4167903,329.790833 98.1676164,331.042196 96.5777587,331.042196 Z" id="Shape" fill="#DEDEDE"></path>
                                    <path d="M169.711213,99.5401791 L66.1433399,99.5401791 C64.3263597,99.5401791 62.8500633,98.0612964 62.8500633,96.2411332 C62.8500633,94.4209699 64.3263597,92.9420872 66.1433399,92.9420872 L169.711213,92.9420872 C171.528193,92.9420872 173.004489,94.4209699 173.004489,96.2411332 C173.004489,98.0612964 171.528193,99.5401791 169.711213,99.5401791 Z" id="Shape" fill="#DEDEDE"></path>
                                    <path d="M116.223857,114.897807 L66.1433399,114.897807 C64.3263597,114.897807 62.8500633,113.418924 62.8500633,111.598761 C62.8500633,109.778598 64.3263597,108.299715 66.1433399,108.299715 L116.223857,108.299715 C118.040838,108.299715 119.517134,109.778598 119.517134,111.598761 C119.517134,113.418924 118.040838,114.897807 116.223857,114.897807 Z" id="Shape" fill="#DEDEDE"></path>
                                </g>
                                <g transform="translate(66.029779, 212.731583)">
                                    <path d="M62.6858178,57.6764238 L7.72216596,57.6764238 C3.40683792,57.6764238 -2.84217094e-14,54.1498574 -2.84217094e-14,49.9407299 L-2.84217094e-14,16.2677093 C-2.84217094e-14,11.9448215 3.52039919,8.53201535 7.72216596,8.53201535 L62.6858178,8.53201535 C67.0011459,8.53201535 70.4079838,12.0585817 70.4079838,16.2677093 L70.4079838,49.9407299 C70.4079838,54.2636176 67.0011459,57.6764238 62.6858178,57.6764238 Z" id="Shape" fill="#DEDEDE"></path>
                                    <path d="M45.6516282,30.032694 L24.7563556,30.032694 C22.371569,30.032694 20.4410275,28.0987706 20.4410275,25.7098063 L20.4410275,4.7779286 C20.4410275,2.3889643 22.371569,0.455040819 24.7563556,0.455040819 L45.6516282,0.455040819 C48.0364147,0.455040819 49.9669562,2.3889643 49.9669562,4.7779286 L49.9669562,25.7098063 C49.853395,28.0987706 48.0364147,30.032694 45.6516282,30.032694 Z" id="Shape" fill="#DEDEDE"></path>
                                    <ellipse id="Oval" fill="#F5F5F5" cx="35.2039919" cy="33.1042196" rx="17.9426797" ry="17.9741123"></ellipse>
                                    <ellipse id="Oval" fill="#DEDEDE" cx="35.2039919" cy="33.1042196" rx="14.6494031" ry="14.6750664"></ellipse>
                                    <path d="M63.2536241,18.4291532 L55.3043356,18.4291532 C54.168723,18.4291532 53.2602329,17.5190715 53.2602329,16.3814695 L53.2602329,14.2200256 C53.2602329,13.0824235 54.168723,12.1723419 55.3043356,12.1723419 L63.2536241,12.1723419 C64.3892368,12.1723419 65.2977269,13.0824235 65.2977269,14.2200256 L65.2977269,16.3814695 C65.4112882,17.4053113 64.3892368,18.4291532 63.2536241,18.4291532 Z" id="Shape" fill="#F5F5F5"></path>
                                </g>
                            </g>
                            <g>
                                <g transform="translate(241.885493, 0.000000)">
                                    <g fill-rule="nonzero" id="Shape">
                                        <path d="M143.200754,10.4659388 L23.2800592,10.4659388 C10.9018814,10.4659388 0.794928849,20.5905971 0.794928849,32.9904594 L0.794928849,95.7860924 C0.794928849,108.185955 10.9018814,118.310613 23.2800592,118.310613 L38.0430235,118.310613 L39.1786361,139.12873 L78.3572723,118.310613 L143.200754,118.310613 C155.578932,118.310613 165.685884,108.185955 165.685884,95.7860924 L165.685884,32.9904594 C165.572323,20.4768368 155.578932,10.4659388 143.200754,10.4659388 Z" fill="#000000" opacity="0.2"></path>
                                        <path d="M148.765256,0.455040819 L28.9581224,0.455040819 C16.5799446,0.455040819 6.47299206,10.579699 6.47299206,22.9795613 L6.47299206,85.7751943 C6.47299206,98.1750567 16.5799446,108.299715 28.9581224,108.299715 L43.7210867,108.299715 L44.8566993,129.117832 L84.0353355,108.299715 L148.765256,108.299715 C161.143434,108.299715 171.250386,98.1750567 171.250386,85.7751943 L171.250386,22.9795613 C171.250386,10.4659388 161.143434,0.455040819 148.765256,0.455040819 Z" stroke="#979797" fill="#FFFFFF"></path>
                                    </g>
                                    <g transform="translate(56.614919, 9.100816)">
                                        <path d="M37.9845477,37.7957386 C37.9845477,48.332635 19.0121257,79.2523802 19.0121257,79.2523802 C19.0121257,79.2523802 0.0397037847,48.332635 0.0397037847,37.7957386 C0.0397037847,27.2588422 8.49105539,18.7947779 19.0121257,18.7947779 C29.5331961,18.6220419 37.9845477,27.2588422 37.9845477,37.7957386 Z" id="Shape" fill="#0F7EDF" fill-rule="nonzero"></path>
                                        <ellipse id="Oval-6" fill="#FFFFFF" fill-rule="nonzero" cx="18.9922739" cy="37.5128205" rx="8.27868347" ry="8.28205128"></ellipse>
                                        <g transform="translate(42.183381, 0.000000)">
                                            <path d="M24.4156718,31.3978165 L6.13230826,31.3978165 C2.72547034,31.3978165 0,28.6675716 0,25.2547654 L0,6.93937249 C0,3.52656635 2.72547034,0.796321433 6.13230826,0.796321433 L24.4156718,0.796321433 C27.8225097,0.796321433 30.5479801,3.52656635 30.5479801,6.93937249 L30.5479801,25.2547654 C30.5479801,28.6675716 27.8225097,31.3978165 24.4156718,31.3978165 Z" id="Shape" fill="#D13434" fill-rule="nonzero"></path>
                                            <text id="7" fill="#FFFFFF" font-family="Helvetica" font-size="15.8395" font-weight="normal">
                                                <tspan x="10.423902" y="20.6847312">7</tspan>
                                            </text>
                                        </g>
                                    </g>
                                </g>
                                <g transform="translate(241.885493, 202.493164)">
                                    <g fill-rule="nonzero" id="Shape">
                                        <path d="M143.200754,10.9209797 L23.2800592,10.9209797 C10.9018814,10.9209797 0.794928849,21.0456379 0.794928849,33.4455002 L0.794928849,96.2411332 C0.794928849,108.640995 10.9018814,118.765654 23.2800592,118.765654 L38.0430235,118.765654 L39.1786361,139.583771 L78.3572723,118.765654 L143.200754,118.765654 C155.578932,118.765654 165.685884,108.640995 165.685884,96.2411332 L165.685884,33.4455002 C165.572323,20.9318777 155.578932,10.9209797 143.200754,10.9209797 Z" fill="#000000" opacity="0.2"></path>
                                        <path d="M148.765256,0.910081638 L28.9581224,0.910081638 C16.5799446,0.910081638 6.47299206,11.0347399 6.47299206,23.4346022 L6.47299206,86.2302352 C6.47299206,98.6300975 16.5799446,108.754756 28.9581224,108.754756 L43.7210867,108.754756 L44.8566993,129.572873 L84.0353355,108.754756 L148.765256,108.754756 C161.143434,108.754756 171.250386,98.6300975 171.250386,86.2302352 L171.250386,23.4346022 C171.250386,10.9209797 161.143434,0.910081638 148.765256,0.910081638 Z" stroke="#979797" fill="#FFFFFF"></path>
                                    </g>
                                    <g transform="translate(94.562038, 15.926429)">
                                        <g transform="translate(0.829424, 0.000000)">
                                            <path d="M24.7563556,30.8290155 L6.47299206,30.8290155 C3.06615413,30.8290155 0.340683792,28.0987706 0.340683792,24.6859644 L0.340683792,6.37057146 C0.340683792,2.95776532 3.06615413,0.227520409 6.47299206,0.227520409 L24.7563556,0.227520409 C28.1631935,0.227520409 30.8886639,2.95776532 30.8886639,6.37057146 L30.8886639,24.6859644 C30.8886639,28.0987706 28.1631935,30.8290155 24.7563556,30.8290155 Z" id="Shape" fill="#D13434" fill-rule="nonzero"></path>
                                            <text id="5" fill="#FFFFFF" font-family="Helvetica" font-size="15.8395" font-weight="normal">
                                                <tspan x="10.792749" y="20.1906706">5</tspan>
                                            </text>
                                        </g>
                                    </g>
                                </g>
                                <g transform="translate(0.000000, 156.989082)">
                                    <g fill-rule="nonzero" id="Shape">
                                        <path d="M29.0716836,10.6934592 L148.992379,10.6934592 C161.370556,10.6934592 171.477509,20.8181175 171.477509,33.2179798 L171.477509,96.0136128 C171.477509,108.413475 161.370556,118.538133 148.992379,118.538133 L134.229414,118.538133 L133.093802,139.356251 L93.9151655,118.538133 L29.0716836,118.538133 C16.6935058,118.538133 6.58655332,108.413475 6.58655332,96.0136128 L6.58655332,33.2179798 C6.58655332,20.8181175 16.6935058,10.6934592 29.0716836,10.6934592 Z" fill="#000000" opacity="0.2"></path>
                                        <path d="M23.3936204,0.682561228 L143.314315,0.682561228 C155.692493,0.682561228 165.799446,10.8072194 165.799446,23.2070818 L165.799446,86.0027148 C165.799446,98.4025771 155.692493,108.527235 143.314315,108.527235 L128.551351,108.527235 L127.415738,129.345353 L88.2371023,108.527235 L23.3936204,108.527235 C11.0154426,108.527235 0.908490113,98.4025771 0.908490113,86.0027148 L0.908490113,23.2070818 C1.02205138,10.8072194 11.0154426,0.682561228 23.3936204,0.682561228 Z" stroke="#979797" fill="#FFFFFF"></path>
                                    </g>
                                    <g transform="translate(87.442173, 11.376020)">
                                        <g>
                                            <path d="M24.8699169,30.7152553 L6.58655332,30.7152553 C3.1797154,30.7152553 0.454245057,27.9850104 0.454245057,24.5722042 L0.454245057,6.25681126 C0.454245057,2.84400512 3.1797154,0.113760205 6.58655332,0.113760205 L24.8699169,0.113760205 C28.2767548,0.113760205 31.0022251,2.84400512 31.0022251,6.25681126 L31.0022251,24.5722042 C31.0022251,27.9850104 28.2767548,30.7152553 24.8699169,30.7152553 Z" id="Shape" fill="#D13434" fill-rule="nonzero"></path>
                                            <text id="1" fill="#FFFFFF" font-family="Helvetica" font-size="15.8395" font-weight="normal">
                                                <tspan x="10.9008593" y="20.0188927">1</tspan>
                                            </text>
                                        </g>
                                    </g>
                                </g>
                            </g>
                            <g id="notifications-button" transform="translate(47.695731, 191.117144)" fill="#0F7EDF" fill-rule="nonzero">
                                <path d="M21.5766402,51.1920921 C24.3689113,51.1920921 26.6534967,48.888448 26.6534967,46.0728829 L16.4997837,46.0728829 C16.4997837,48.888448 18.7843691,51.1920921 21.5766402,51.1920921 Z M38.0764239,35.8344645 L38.0764239,21.7566391 C38.0764239,13.8218649 32.7457245,7.42285336 25.3842826,5.63113013 L25.3842826,3.83940691 C25.3842826,1.79172322 23.6073828,0 21.5766402,0 C19.5458976,0 17.7689978,1.79172322 17.7689978,3.83940691 L17.7689978,5.63113013 C10.4075559,7.42285336 5.07685652,13.8218649 5.07685652,21.7566391 L5.07685652,35.8344645 L0,40.9536737 L0,43.5132783 L43.1532804,43.5132783 L43.1532804,40.9536737 L38.0764239,35.8344645 Z" id="Shape"></path>
                            </g>
                        </g>
                    </g>
                    <g id="delivery-truck-copy" transform="translate(297.217848, 248.346457)" fill="#0F7EDF" fill-rule="nonzero">
                        <path d="M62.2146763,22.9519043 L51.5835336,10.3361812 C51.2368056,9.92496675 50.7363144,9.68884409 50.2102258,9.68884409 L41.3576528,9.68884409 L41.3576528,1.89772658 C41.3576528,0.849595017 40.540148,0 39.5320054,0 L1.82564739,0 C0.817504817,0 -9.23705556e-14,0.849595017 -9.23705556e-14,1.89772658 L-9.23705556e-14,4.4584201 L-9.23705556e-14,8.25387327 L-9.23705556e-14,32.8541705 L-9.23705556e-14,36.6496237 L-9.23705556e-14,38.5782379 C-9.23705556e-14,39.6263694 0.817504817,40.4759644 1.82564739,40.4759644 L5.63625447,40.4759644 C6.43908108,43.51616 9.11946582,45.7569994 12.2956877,45.7569994 C15.4719096,45.7569994 18.1522944,43.51616 18.9553,40.4759644 L43.3155831,40.4759644 C44.1184097,43.5159739 46.7987945,45.7568134 49.9750164,45.7568134 C53.1512383,45.7568134 55.8316231,43.5159739 56.6346287,40.4757784 L60.8415475,40.4757784 C61.84969,40.4757784 62.6671949,39.6261833 62.6671949,38.5780518 L62.6671949,24.2021077 C62.6670159,23.7423291 62.5060925,23.2978082 62.2146763,22.9519043 Z M12.2959703,41.9615463 C10.5012491,41.9615463 9.04127043,40.4437743 9.04127043,38.5782379 C9.04127043,36.7127014 10.5012491,35.1949294 12.2959703,35.1949294 C14.0906914,35.1949294 15.5508491,36.7127014 15.5508491,38.5782379 C15.5508491,40.4437743 14.0906914,41.9615463 12.2959703,41.9615463 Z M49.9758067,41.9615463 C48.1810855,41.9615463 46.7211068,40.4437743 46.7211068,38.5782379 C46.7211068,36.7127014 48.1810855,35.1949294 49.9758067,35.1949294 C51.7705279,35.1949294 53.2306855,36.7127014 53.2306855,38.5782379 C53.2306855,40.4437743 51.7707069,41.9615463 49.9758067,41.9615463 Z M59.0170771,36.6805113 L56.635572,36.6805113 C55.8327269,33.6403157 53.1521016,31.3994763 49.9758067,31.3994763 C46.7995118,31.3994763 44.1192445,33.6403157 43.3162204,36.6805113 L41.3580661,36.6805113 L41.3580661,13.4842973 L49.3831155,13.4842973 L59.0168981,24.9158717 L59.0168981,36.6805113 L59.0170771,36.6805113 Z" id="Shape"></path>
                    </g>
                </g>
            </g>
        </g>
    </g>
</svg>