<?xml version="1.0" encoding="UTF-8"?>
<svg width="414px" height="414px" viewBox="0 0 414 414" version="1.1" xmlns="http://www.w3.org/2000/svg" xmlns:xlink="http://www.w3.org/1999/xlink">
    <!-- Generator: Sketch 51 (57462) - http://www.bohemiancoding.com/sketch -->
    <title>img2</title>
    <desc>Created with Sketch.</desc>
    <defs>
        <path d="M190,380 C294.934102,380 380,294.934102 380,190 C380,85.0658975 294.934102,0 190,0 C85.0658975,0 0,85.0658975 0,190 C0,294.934102 85.0658975,380 190,380 Z" id="path-1"></path>
        <filter x="-6.7%" y="-6.7%" width="113.4%" height="113.4%" filterUnits="objectBoundingBox" id="filter-2">
            <feOffset dx="0" dy="0" in="SourceAlpha" result="shadowOffsetOuter1"></feOffset>
            <feGaussianBlur stdDeviation="8.5" in="shadowOffsetOuter1" result="shadowBlurOuter1"></feGaussianBlur>
            <feComposite in="shadowBlurOuter1" in2="SourceAlpha" operator="out" result="shadowBlurOuter1"></feComposite>
            <feColorMatrix values="0 0 0 0 0.591703869   0 0 0 0 0.591703869   0 0 0 0 0.591703869  0 0 0 0.441717618 0" type="matrix" in="shadowBlurOuter1"></feColorMatrix>
        </filter>
    </defs>
    <g id="USER" stroke="none" stroke-width="1" fill="none" fill-rule="evenodd">
        <g id="main_blackU222" transform="translate(-235.000000, -1861.000000)">
            <rect fill="#FFFFFF" x="0" y="0" width="1440" height="4911"></rect>
            <g id="STEPS" transform="translate(-3.000000, 480.000000)">
                <g id="img2" transform="translate(255.000000, 1398.000000)">
                    <g id="Oval">
                        <use fill="black" fill-opacity="1" filter="url(#filter-2)" xlink:href="#path-1"></use>
                        <use fill-opacity="0.0148607337" fill="#EFEEF4" fill-rule="evenodd" xlink:href="#path-1"></use>
                    </g>
                    <g id="Group" transform="translate(11.544304, 54.835443)">
                        <g>
                            <g>
                                <g>
                                    <path d="M121.714801,22.1679921 C121.714801,22.1679921 48.1933506,86.5971316 78.8454688,120.231326 C109.497587,153.756319 366.168171,104.943056 334.097983,44.0083784" id="Shape" stroke="#357BC3" stroke-width="4" stroke-dasharray="2"></path>
                                    <g transform="translate(124.550940, 0.000000)" fill-rule="nonzero" id="Shape">
                                        <polygon fill="#289CE6" points="9.81740441 10.5925873 22.9072769 18.7827322 40.1422758 0.982817383"></polygon>
                                        <polygon fill="#006DF4" points="9.92648668 10.7017893 0.218164542 5.35089464 40.1422758 0.76441352 16.2532584 8.62695258"></polygon>
                                        <polyline fill="#357BC3" points="8.83566397 10.0465777 7.09034763 19.0011361 17.4531634 15.3974723"></polyline>
                                    </g>
                                    <g transform="translate(268.342387, 114.662028)" fill-rule="nonzero" id="Shape">
                                        <polygon fill="#289CE6" points="36.4334786 15.2882704 19.7438911 23.915223 0.436329085 0.546009657"></polygon>
                                        <polygon fill="#006DF4" points="36.3243963 15.3974723 48.6506929 9.82817383 0.545411356 0.327605794 28.7977196 12.2306163"></polygon>
                                        <polyline fill="#357BC3" points="37.7424658 14.7422607 38.9423708 25.7716558 26.7251564 20.3115592"></polyline>
                                    </g>
                                    <g transform="translate(18.793671, 10.270223)" fill-rule="nonzero">
                                        <polygon id="Shape" fill="#FE8876" points="131.282521 75.0164853 165.534354 94.7820349 192.69584 78.5109471 179.71505 58.0901859"></polygon>
                                        <g id="Rectangle-path">
                                            <rect fill="#006DF4" transform="translate(58.388600, 32.590756) rotate(-71.688252) translate(-58.388600, -32.590756) " x="42.6702318" y="-20.9187563" width="31.4367372" height="107.019024"></rect>
                                            <rect fill="#48B7E6" transform="translate(56.387897, 45.937256) rotate(-71.688252) translate(-56.387897, -45.937256) " x="48.3154777" y="-9.91170806" width="16.144838" height="111.697928"></rect>
                                            <rect fill="#289CE6" transform="translate(116.606451, 56.107745) rotate(-71.688252) translate(-116.606451, -56.107745) " x="96.7526634" y="46.6613906" width="39.7075746" height="18.8927087"></rect>
                                        </g>
                                        <g transform="translate(123.210433, 49.790839)" fill="#FFB0B2" id="Shape">
                                            <path d="M35.3426559,10.5925873 L8.39933488,34.8354161 C6.54493627,36.4734451 3.70879722,36.3642432 1.96348088,34.5078103 C0.327246814,32.6513775 0.436329085,29.8121273 2.29072769,28.0648964 L29.2340487,3.8220676 C31.0884473,2.18403863 33.9245863,2.29324056 35.6699027,4.14967339 C37.3061367,6.00610623 37.1970545,8.95455838 35.3426559,10.5925873 Z"></path>
                                            <path d="M43.5238262,16.4894916 L16.5805052,40.7323204 C14.7261066,42.3703494 11.8899676,42.2611475 10.1446512,40.4047146 C8.50841715,38.5482818 8.61749942,35.7090316 10.471898,33.9618007 L37.415219,9.7189719 C39.2696176,8.08094293 42.1057567,8.19014486 43.851073,10.0465777 C45.4873071,11.9030105 45.3782248,14.8514627 43.5238262,16.4894916 Z"></path>
                                            <path d="M50.0687625,23.1508095 L25.4161692,45.4280035 C23.6708528,46.9568305 21.0528783,46.8476286 19.5257265,45.1003977 C17.9985747,43.3531668 18.107657,40.7323204 19.8529734,39.2034934 L44.5055666,16.9262994 C46.250883,15.3974723 48.8688575,15.5066743 50.3960093,17.2539052 C51.9231611,18.8919341 51.8140788,21.6219824 50.0687625,23.1508095 Z"></path>
                                            <path d="M58.1408505,27.8464925 L34.6881622,49.0316672 C33.0519282,50.4512923 30.5430359,50.3420904 29.1249664,48.7040614 C27.7068969,47.0660324 27.8159792,44.554388 29.4522132,43.1347629 L52.9049015,21.9495882 C54.5411356,20.5299631 57.0500278,20.639165 58.4680974,22.277194 C59.8861669,23.915223 59.7770846,26.4268674 58.1408505,27.8464925 Z"></path>
                                            <polygon points="63.9222109 2.40244249 71.2307231 26.3176655 42.7602503 41.7151378 13.5262016 18.1275206 33.2700927 0.327605794"></polygon>
                                        </g>
                                        <path d="M121.574199,70.75761 L129.537205,74.5796776 L156.480526,50.2276469 C156.480526,50.2276469 182.11486,57.8717821 182.333024,41.4914923 L156.371444,41.4914923 L129.31904,47.2791947 L121.574199,70.75761 Z" id="Shape" fill="#FE8876"></path>
                                        <path d="M193.459416,82.2238128 C191.823182,83.425034 189.532454,83.0974282 188.332549,81.5686012 L183.314765,74.9072834 C182.11486,73.2692544 182.442106,70.9760138 183.969258,69.7747926 C185.605492,68.5735713 187.89622,68.9011771 189.096125,70.4300042 L194.113909,77.091322 C195.422897,78.729351 195.09565,81.0225915 193.459416,82.2238128 Z" id="Shape" fill="#FE8876"></path>
                                        <path d="M185.060081,87.9023132 C183.205682,89.3219383 180.587708,88.8851306 179.169638,87.1378997 L173.388278,79.6029664 C171.970208,77.7465336 172.406537,75.1256872 174.151854,73.7060621 C176.006252,72.286437 178.624227,72.7232447 180.042296,74.4704756 L185.823657,82.0054089 C187.350809,83.8618417 186.91448,86.4826881 185.060081,87.9023132 Z" id="Shape" fill="#FE8876"></path>
                                        <path d="M176.333499,92.8164001 C174.697265,94.0176214 172.406537,93.6900156 171.206633,92.1611885 L166.188848,85.6090726 C164.988943,83.9710437 165.31619,81.6778031 166.843342,80.4765819 C168.479576,79.2753606 170.770303,79.6029664 171.970208,81.1317934 L176.987993,87.6839093 C178.29698,89.3219383 177.969733,91.6151789 176.333499,92.8164001 Z" id="Shape" fill="#FE8876"></path>
                                        <path d="M168.152329,97.1844774 C166.952424,98.1672947 165.098025,97.839689 164.116285,96.6384677 L160.189323,91.5059769 C159.207583,90.3047557 159.534829,88.4483229 160.734734,87.4655055 C161.934639,86.4826881 163.789038,86.8102939 164.770779,88.0115151 L168.69774,93.1440059 C169.570398,94.4544291 169.352234,96.3108619 168.152329,97.1844774 Z" id="Shape" fill="#FE8876"></path>
                                        <g transform="translate(184.075253, 6.422122)" id="Rectangle-path">
                                            <rect fill="#006DF4" transform="translate(76.858154, 34.254938) rotate(-18.311748) translate(-76.858154, -34.254938) " x="16.9479229" y="18.0377862" width="119.820461" height="32.4343034"></rect>
                                            <rect fill="#48B7E6" transform="translate(77.548254, 43.103212) rotate(-18.311748) translate(-77.548254, -43.103212) " x="15.5765923" y="35.0219375" width="123.943323" height="16.1625485"></rect>
                                            <rect fill="#289CE6" transform="translate(15.343622, 55.275321) rotate(-18.311748) translate(-15.343622, -55.275321) " x="5.90761824" y="35.3997541" width="18.8720066" height="39.7511327"></rect>
                                        </g>
                                    </g>
                                    <g transform="translate(104.916132, 205.299631)" fill-rule="nonzero" id="Rectangle-path">
                                        <rect fill="#DCAB7C" x="0.218164542" y="9.02331515" width="67.4128436" height="56.3481966"></rect>
                                        <rect fill="#FFFFFF" x="29.4522132" y="0.327605794" width="9.16291078" height="26.8636751"></rect>
                                    </g>
                                    <g transform="translate(37.285123, 205.299631)" fill-rule="nonzero" id="Rectangle-path">
                                        <rect fill="#E3BC96" x="0.436329085" y="0.546009657" width="67.4128436" height="65.043906"></rect>
                                        <rect fill="#E79F00" x="29.6703778" y="0.546009657" width="9.16291078" height="26.8636751"></rect>
                                    </g>
                                    <g transform="translate(71.100628, 149.606646)" fill-rule="nonzero" id="Rectangle-path">
                                        <rect fill="#EACDB0" x="0.327246814" y="8.80491129" width="67.4128436" height="56.3481966"></rect>
                                        <rect fill="#E79F00" x="29.5612955" y="0.109201931" width="9.16291078" height="26.8636751"></rect>
                                    </g>
                                    <path d="M0.545411356,207.592872 C63.7040464,256.406135 332.155516,186.080091 311.648049,144.037348" id="Shape" stroke="#357BC3" stroke-width="3" stroke-dasharray="2"></path>
                                    <g transform="translate(91.826259, 136.502414)">
                                        <path d="M232.672484,75.1309288 C232.672484,68.7972168 229.400016,63.0095144 224.164067,59.5150526 C222.091504,58.0954275 220.237106,56.3481966 218.600871,54.3825618 L192.530209,20.748367 C187.076095,13.6502414 178.567678,9.50056803 169.622932,9.50056803 L142.570528,9.50056803 C137.443662,9.50056803 133.407618,13.6502414 133.407618,18.7827322 L133.407618,103.523431 L232.563402,103.523431 L232.563402,75.1309288 L232.672484,75.1309288 Z" id="Shape" fill="#FFE500" fill-rule="nonzero"></path>
                                        <path d="M158.060211,107.345499 L0,107.345499 L0,34.7262142 C0,15.7250781 5.4894068,0.218403863 24.5788043,0.218403863 L158.060211,0.218403863 L158.060211,107.345499 Z" id="Shape" fill="#FFCF00" fill-rule="nonzero"></path>
                                        <rect id="Rectangle-path" fill="#E0B600" fill-rule="nonzero" x="0" y="96.6437093" width="235.617706" height="10.5925873"></rect>
                                        <rect id="Rectangle-path" fill="#FFCF00" fill-rule="nonzero" x="0" y="101.666998" width="235.617706" height="5.5692985"></rect>
                                        <path d="M203.220271,49.4684749 L185.87619,23.806021 C185.003532,22.4955979 183.47638,21.7311844 181.840146,21.7311844 L163.623407,21.7311844 L163.623407,53.0721387 L201.25679,53.0721387 C203.220271,52.9629367 204.311094,50.997302 203.220271,49.4684749 Z" id="Shape" fill="#FFFFFF" fill-rule="nonzero"></path>
                                        <rect id="Rectangle-path" fill="#FFCF00" fill-rule="nonzero" x="163.732489" y="57.1126101" width="11.2354739" height="2.62084635"></rect>
                                        <path d="M163.732489,62.6819086 L183.694545,62.6819086" id="Shape" stroke="#FFCF00"></path>
                                        <rect id="Rectangle-path" fill="#FFCF00" fill-rule="nonzero" x="158.060211" y="80.1542177" width="74.5031912" height="8.29934679"></rect>
                                        <g transform="translate(157.948041, 69.889236)" fill="#FFCF00" fill-rule="nonzero" id="Rectangle-path">
                                            <rect x="0.112169505" y="3.38525987" width="63.4858818" height="1.63802897"></rect>
                                            <rect x="0.112169505" y="0" width="63.4858818" height="1.63802897"></rect>
                                        </g>
                                        <path d="M227.545618,77.3149674 L215.546568,77.3149674 L215.546568,67.4867936 L224.27315,67.4867936 C226.127548,67.4867936 227.545618,69.0156207 227.545618,70.7628516 L227.545618,77.3149674 Z" id="Shape" fill="#FFFFFF" fill-rule="nonzero"></path>
                                        <path d="M199.947803,38.5482818 L199.947803,67.4867936 C203.983847,67.2683898 207.256315,63.773928 207.256315,59.6242546 L207.256315,46.4108209 C207.365398,42.2611475 204.092929,38.8758876 199.947803,38.5482818 Z" id="Shape" fill="#E0B600" fill-rule="nonzero"></path>
                                        <g transform="translate(8.726582, 84.085487)" fill-rule="nonzero" id="Oval">
                                            <ellipse fill="#032B54" cx="23.4526883" cy="23.806021" rx="23.0163592" ry="23.0416075"></ellipse>
                                            <ellipse fill="#FFFFFF" cx="23.4526883" cy="23.806021" rx="10.9082271" ry="10.9201931"></ellipse>
                                            <ellipse fill="#032B54" cx="23.4526883" cy="23.806021" rx="4.69053766" ry="4.69568305"></ellipse>
                                        </g>
                                        <g transform="translate(163.623407, 84.085487)" fill-rule="nonzero" id="Oval">
                                            <ellipse fill="#032B54" cx="23.2345238" cy="23.806021" rx="23.0163592" ry="23.0416075"></ellipse>
                                            <ellipse fill="#FFFFFF" cx="23.2345238" cy="23.806021" rx="10.9082271" ry="10.9201931"></ellipse>
                                            <ellipse fill="#032B54" cx="23.2345238" cy="23.806021" rx="4.69053766" ry="4.69568305"></ellipse>
                                        </g>
                                        <path d="M137.770909,26.2084635 C138.207238,27.6280886 138.534484,29.0477138 138.752649,30.5765408 C138.861731,32.1053678 138.752649,33.6341949 138.207238,35.1630219 C137.661826,36.691849 136.571004,38.0022721 135.043852,38.7666857 C133.625782,39.5310992 131.989548,39.858705 130.462396,39.858705 C124.462871,39.9679069 118.463347,39.749503 112.572904,39.6403011 C100.682936,39.3126953 88.6838865,38.7666857 76.7939189,38.1114741 L58.9044264,37.0194548 C52.9049015,36.582647 47.0144589,36.2550412 41.014934,35.7090316 C29.1249664,34.8354161 17.2349988,33.7433968 5.34503129,32.4329736 C17.3440811,32.4329736 29.2340487,32.7605794 41.1240162,33.1973872 C47.1235412,33.415791 53.0139838,33.6341949 59.0135087,33.9618007 L76.9030012,34.8354161 C88.7929687,35.4906277 100.682936,36.2550412 112.572904,37.1286567 C118.463347,37.5654644 124.462871,38.0022721 130.353314,38.3298779 C131.771384,38.3298779 133.189453,38.220676 134.389358,37.6746663 C135.589263,37.1286567 136.680086,36.1458393 137.225497,34.8354161 C137.879991,33.5249929 138.098155,32.1053678 138.098155,30.5765408 C138.31632,29.1569157 138.098155,27.7372906 137.770909,26.2084635 Z" id="Shape" fill="#FFFFFF" fill-rule="nonzero"></path>
                                        <path d="M152.278851,61.4806874 C153.042426,62.9003125 153.69692,64.3199376 154.133249,65.8487646 C154.569578,67.3775917 154.787743,69.0156207 154.460496,70.7628516 C154.242331,71.636467 153.915085,72.4008805 153.369673,73.0560921 C152.824262,73.7113037 152.060686,74.2573134 151.29711,74.5849192 C149.769958,75.3493327 148.024642,75.4585346 146.388408,75.4585346 C140.061636,75.4585346 133.734864,75.3493327 127.408093,75.2401307 C114.754549,74.912525 102.101006,74.3665153 89.4474624,73.8205056 L70.4671472,72.7284863 C64.1403755,72.2916786 57.8136037,71.9640728 51.486832,71.4180631 C38.8332885,70.5444477 26.1797451,69.4524284 13.6352839,68.1420052 C26.2888274,68.1420052 38.9423708,68.469611 51.5959143,68.9064187 C57.922686,69.1248226 64.2494577,69.3432265 70.5762295,69.6708322 L89.5565446,70.5444477 C102.210088,71.1996593 114.863632,71.9640728 127.517175,72.7284863 C133.843947,73.1652941 140.170718,73.6021018 146.49749,73.9297076 C148.024642,74.0389095 149.551794,73.9297076 150.969863,73.4928998 C152.387933,73.0560921 153.369673,71.9640728 153.806002,70.5444477 C154.242331,69.1248226 154.133249,67.4867936 153.806002,65.9579666 C153.478756,64.4291395 152.933344,62.9003125 152.278851,61.4806874 Z" id="Shape" fill="#FFFFFF" fill-rule="nonzero"></path>
                                    </g>
                                    <path d="M37.9396171,267.407218 C70.5552162,308.030337 120.623979,334.129599 176.801348,334.129599 C232.978718,334.129599 283.04748,308.030337 315.66308,267.407218 L37.9396171,267.407218 Z" id="Shape" fill="#006DF4" fill-rule="nonzero"></path>
                                    <g opacity="0.5" transform="translate(41.648414, 209.667708)" fill-rule="nonzero" id="Shape">
                                        <g fill="#5D95CF">
                                            <path d="M10.1446512,43.3531668 C-0.436329085,35.4906277 -2.72705678,20.4207612 5.12686675,9.82817383 C12.9807903,-0.76441352 28.0341437,-3.05765408 38.615124,4.80488498 C49.1961043,12.667424 51.486832,27.7372906 43.6329085,38.3298779 C35.7789849,48.9224653 20.7256315,51.2157058 10.1446512,43.3531668 Z M38.1787949,5.24169271 C27.8159792,-2.40244249 13.1989548,-0.218403863 5.56319583,10.1557796 C-2.07256315,20.5299631 0.109082271,35.1630219 10.471898,42.8071571 C20.8347138,50.4512923 35.4517381,48.2672537 43.0874971,37.8930702 C50.7232561,27.6280886 48.5416107,12.9950298 38.1787949,5.24169271 Z"></path>
                                        </g>
                                        <g transform="translate(3.272468, 2.184039)" fill="#5D95CF">
                                            <path d="M15.8169293,7.31652941 L14.7261066,7.6441352 L12.871708,2.29324056 L13.9625307,1.96563477 C14.3988598,1.85643283 14.8351889,1.85643283 15.1624357,2.0748367 C15.4896825,2.29324056 15.7078471,2.62084635 15.8169293,3.05765408 L16.5805052,5.35089464 C16.7986698,5.8969043 16.7986698,6.22451009 16.6895875,6.55211589 C16.5805052,6.98892361 16.2532584,7.20732747 15.8169293,7.31652941 Z M15.1624357,6.77051975 L15.5987648,6.66131782 C15.7078471,6.66131782 15.8169293,6.55211589 15.8169293,6.55211589 C15.9260116,6.55211589 15.9260116,6.44291395 16.0350939,6.33371202 C16.0350939,6.22451009 16.1441761,6.11530816 16.1441761,6.00610623 C16.1441761,5.8969043 16.1441761,5.67850043 16.0350939,5.46009657 L15.271518,3.16685601 C15.1624357,2.94845215 15.1624357,2.83925022 15.0533534,2.73004829 C14.9442712,2.62084635 14.9442712,2.51164442 14.8351889,2.51164442 C14.7261066,2.51164442 14.7261066,2.51164442 14.6170243,2.51164442 C14.5079421,2.51164442 14.3988598,2.51164442 14.3988598,2.62084635 L13.9625307,2.73004829 L15.1624357,6.77051975 Z"></path>
                                            <polygon points="18.4349038 1.63802897 18.6530684 3.38525987 20.2893024 3.27605794 20.3983847 4.04047146 18.7621506 4.14967339 18.9803152 5.8969043 20.6165493 5.78770237 20.7256315 6.55211589 18.4349038 6.77051975 17.8894925 1.09201931 20.1802202 0.873615451 20.2893024 1.63802897"></polygon>
                                            <path d="M22.4709479,6.44291395 L21.707372,6.33371202 L22.4709479,0.655211589 L23.6708528,0.76441352 C24.1071819,0.873615451 24.543511,0.982817383 24.6525933,1.31042318 C24.8707578,1.63802897 24.8707578,1.96563477 24.8707578,2.51164442 C24.7616756,3.05765408 24.6525933,3.38525987 24.3253465,3.60366374 C23.9980997,3.8220676 23.6708528,3.93126953 23.1254415,3.93126953 L22.6891124,3.8220676 L22.4709479,6.44291395 Z M22.7981947,3.27605794 L23.2345238,3.38525987 C23.4526883,3.38525987 23.5617706,3.38525987 23.6708528,3.38525987 C23.7799351,3.38525987 23.7799351,3.27605794 23.7799351,3.27605794 C23.8890174,3.16685601 23.9980997,2.94845215 23.9980997,2.62084635 C23.9980997,2.40244249 23.9980997,2.29324056 23.9980997,2.18403863 C23.9980997,2.0748367 23.9980997,1.96563477 23.8890174,1.85643283 C23.8890174,1.7472309 23.7799351,1.7472309 23.6708528,1.7472309 C23.5617706,1.7472309 23.4526883,1.63802897 23.343606,1.63802897 L22.9072769,1.52882704 L22.7981947,3.27605794 Z"></path>
                                            <path d="M25.9615805,7.20732747 L25.3070869,6.87972168 L28.5795551,2.0748367 L29.1249664,2.29324056 L28.2523082,8.08094293 L27.5978146,7.75333713 L27.8159792,6.11530816 L26.943321,5.78770237 L25.9615805,7.20732747 Z M28.0341437,4.04047146 L27.2705678,5.24169271 L27.9250614,5.46009657 L28.0341437,4.04047146 Z"></path>
                                            <path d="M32.2883523,7.42573134 C32.2883523,7.6441352 32.2883523,7.75333713 32.2883523,7.97174099 C32.2883523,8.19014486 32.17927,8.40854872 31.9611055,8.51775065 L30.979365,9.82817383 L30.4339537,9.3913661 L31.4156941,8.08094293 C31.7429409,7.6441352 31.6338586,7.31652941 31.3066118,7.09812554 L30.979365,6.87972168 L30.8702827,6.87972168 L29.4522132,8.84535645 L28.9068019,8.40854872 L32.2883523,3.8220676 L33.2700927,4.47727919 C33.7064218,4.80488498 33.9245863,5.13249078 33.9245863,5.46009657 C33.9245863,5.78770237 33.8155041,6.22451009 33.4882573,6.66131782 C33.0519282,7.09812554 32.7246814,7.31652941 32.2883523,7.42573134 C32.3974345,7.42573134 32.3974345,7.42573134 32.2883523,7.42573134 C32.2883523,7.42573134 32.2883523,7.42573134 32.2883523,7.42573134 Z M31.6338586,6.55211589 C31.7429409,6.66131782 31.9611055,6.77051975 31.9611055,6.77051975 C32.0701877,6.77051975 32.0701877,6.77051975 32.17927,6.77051975 C32.3974345,6.77051975 32.5065168,6.55211589 32.7246814,6.33371202 C32.8337636,6.22451009 32.9428459,6.00610623 32.9428459,5.8969043 C32.9428459,5.78770237 33.0519282,5.67850043 32.9428459,5.5692985 C32.9428459,5.46009657 32.9428459,5.35089464 32.8337636,5.35089464 C32.7246814,5.24169271 32.7246814,5.24169271 32.6155991,5.13249078 L32.2883523,4.91408691 L31.1975296,6.33371202 L31.3066118,6.33371202 L31.6338586,6.55211589 Z"></path>
                                            <polygon points="37.7424658 10.0465777 36.9788899 9.06376031 33.1610104 12.2306163 32.7246814 11.6846067 36.5425608 8.51775065 35.7789849 7.53493327 36.3243963 7.09812554 38.3969595 9.60976997"></polygon>
                                            <path d="M35.0154091,15.1790685 C34.9063268,14.9606646 34.9063268,14.7422607 34.9063268,14.5238569 C34.9063268,14.305453 35.0154091,14.1962511 35.0154091,14.0870492 C35.1244913,13.7594434 35.4517381,13.5410395 35.8880672,13.3226356 L39.7059467,11.5754047 L40.0331935,12.2306163 L36.215314,13.9778472 C35.9971495,14.0870492 35.8880672,14.0870492 35.7789849,14.1962511 C35.6699027,14.305453 35.6699027,14.305453 35.6699027,14.4146549 C35.6699027,14.5238569 35.6699027,14.5238569 35.6699027,14.6330588 C35.6699027,14.7422607 35.6699027,14.7422607 35.7789849,14.7422607 C35.7789849,14.7422607 35.7789849,14.8514627 35.8880672,14.8514627 C35.9971495,14.8514627 35.9971495,14.9606646 35.9971495,14.9606646 C36.1062318,14.9606646 36.1062318,14.9606646 36.215314,14.9606646 C36.3243963,14.9606646 36.4334786,14.8514627 36.6516431,14.8514627 L40.4695226,13.1042318 L40.7967694,13.7594434 L36.9788899,15.5066743 C36.5425608,15.7250781 36.215314,15.7250781 35.8880672,15.7250781 C35.7789849,15.7250781 35.6699027,15.6158762 35.4517381,15.5066743 C35.2335736,15.5066743 35.1244913,15.3974723 35.0154091,15.1790685 Z"></path>
                                            <path d="M39.1605354,19.0011361 C39.0514531,19.110338 38.9423708,19.3287419 38.7242063,19.4379438 C38.5060417,19.5471457 38.3969595,19.6563477 38.1787949,19.6563477 L36.5425608,19.9839535 L36.4334786,19.2195399 L38.0697126,18.8919341 C38.5060417,18.7827322 38.7242063,18.5643283 38.615124,18.0183187 L38.5060417,17.6907129 L38.5060417,17.581511 L36.1062318,18.0183187 L35.9971495,17.2539052 L41.5603453,16.1618859 L41.7785099,17.3631071 C41.8875921,17.7999148 41.7785099,18.2367225 41.5603453,18.5643283 C41.3421808,18.7827322 41.014934,19.0011361 40.4695226,19.110338 C39.9241113,19.3287419 39.4877822,19.2195399 39.1605354,19.0011361 C39.1605354,19.110338 39.1605354,19.110338 39.1605354,19.0011361 C39.1605354,19.110338 39.1605354,19.0011361 39.1605354,19.0011361 Z M39.2696176,18.0183187 C39.2696176,18.2367225 39.3786999,18.3459245 39.3786999,18.4551264 C39.4877822,18.5643283 39.4877822,18.5643283 39.4877822,18.5643283 C39.5968644,18.6735303 39.9241113,18.6735303 40.2513581,18.5643283 C40.4695226,18.5643283 40.5786049,18.4551264 40.6876872,18.4551264 C40.7967694,18.4551264 40.9058517,18.3459245 40.9058517,18.2367225 C40.9058517,18.1275206 41.014934,18.1275206 41.014934,18.0183187 C41.014934,17.9091168 41.014934,17.7999148 41.014934,17.6907129 L40.9058517,17.2539052 L39.1605354,17.581511 L39.1605354,17.6907129 L39.2696176,18.0183187 Z"></path>
                                            <polygon points="41.4512631 22.1679921 39.7059467 22.0587901 39.5968644 23.6968191 38.8332885 23.6968191 38.9423708 22.0587901 37.1970545 21.9495882 37.0879722 23.5876172 36.3243963 23.5876172 36.4334786 21.2943766 42.1057567 21.5127805 41.9966744 23.806021 41.2330985 23.806021"></polygon>
                                            <path d="M37.6333836,27.4096848 C37.8515481,27.5188867 38.0697126,27.7372906 37.9606304,27.9556944 C37.8515481,28.1740983 37.6333836,28.2833002 37.3061367,28.1740983 C37.0879722,28.0648964 36.8698077,27.8464925 36.9788899,27.6280886 C37.1970545,27.4096848 37.415219,27.3004829 37.6333836,27.4096848 Z"></path>
                                            <polygon points="36.7607254 35.05382 35.4517381 33.8525987 34.3609154 35.05382 33.8155041 34.6170123 34.9063268 33.415791 33.5973395 32.2145698 32.5065168 33.415791 31.9611055 32.9789833 33.4882573 31.2317524 37.7424658 35.05382 36.215314 36.8010509 35.6699027 36.3642432"></polygon>
                                            <polygon points="30.979365 37.2378586 28.2523082 35.5998296 28.9068019 35.1630219 30.7612005 36.2550412 30.4339537 34.0710026 31.0884473 33.6341949 31.5247764 36.691849 34.1427509 38.3298779 33.4882573 38.7666857 31.6338586 37.6746663 31.9611055 39.858705 31.3066118 40.2955127"></polygon>
                                            <path d="M26.7251564,36.2550412 L27.3796501,36.0366374 L29.2340487,41.387532 L28.143226,41.7151378 C27.7068969,41.8243397 27.2705678,41.8243397 26.943321,41.7151378 C26.6160742,41.4967339 26.3979096,41.1691281 26.2888274,40.7323204 C26.0706628,40.2955127 26.0706628,39.858705 26.2888274,39.5310992 C26.3979096,39.2034934 26.7251564,38.8758876 27.1614855,38.7666857 L27.5978146,38.6574837 L26.7251564,36.2550412 Z M27.8159792,39.3126953 L27.3796501,39.4218972 C27.1614855,39.5310992 27.0524033,39.5310992 27.0524033,39.6403011 C27.0524033,39.749503 26.943321,39.749503 26.943321,39.749503 C26.8342387,39.858705 26.943321,40.1863108 27.0524033,40.5139166 C27.1614855,40.7323204 27.1614855,40.8415224 27.2705678,40.9507243 C27.3796501,41.0599262 27.3796501,41.1691281 27.4887323,41.1691281 C27.5978146,41.1691281 27.5978146,41.1691281 27.7068969,41.1691281 C27.8159792,41.1691281 27.9250614,41.1691281 28.0341437,41.0599262 L28.4704728,40.9507243 L27.8159792,39.3126953 Z"></path>
                                            <path d="M22.1437011,40.0771088 C22.0346188,39.9679069 21.9255365,39.858705 21.8164542,39.6403011 C21.707372,39.4218972 21.707372,39.2034934 21.5982897,38.9850895 L21.4892074,37.3470605 L22.2527833,37.2378586 L22.3618656,38.8758876 C22.3618656,39.4218972 22.6891124,39.6403011 23.1254415,39.5310992 L23.4526883,39.5310992 L23.5617706,39.5310992 L23.343606,37.1286567 L24.1071819,37.0194548 L24.6525933,42.6979552 L23.4526883,42.8071571 C23.0163592,42.8071571 22.5800301,42.6979552 22.3618656,42.4795513 C22.1437011,42.2611475 21.9255365,41.8243397 21.9255365,41.2783301 C21.8164542,40.9507243 21.8164542,40.5139166 22.1437011,40.0771088 C22.0346188,40.1863108 22.0346188,40.1863108 22.1437011,40.0771088 C22.1437011,40.1863108 22.1437011,40.1863108 22.1437011,40.0771088 Z M23.1254415,40.4047146 C22.9072769,40.4047146 22.7981947,40.4047146 22.6891124,40.5139166 C22.5800301,40.5139166 22.5800301,40.6231185 22.5800301,40.6231185 C22.4709479,40.7323204 22.4709479,41.0599262 22.4709479,41.387532 C22.4709479,41.6059359 22.4709479,41.7151378 22.5800301,41.8243397 C22.5800301,41.9335417 22.6891124,42.0427436 22.6891124,42.0427436 C22.7981947,42.1519455 22.7981947,42.1519455 22.9072769,42.1519455 C23.0163592,42.1519455 23.1254415,42.1519455 23.2345238,42.1519455 L23.6708528,42.1519455 L23.5617706,40.4047146 L23.4526883,40.4047146 L23.1254415,40.4047146 Z"></path>
                                            <polygon points="18.7621506 42.1519455 18.9803152 40.4047146 17.3440811 40.1863108 17.4531634 39.4218972 19.0893975 39.6403011 19.307562 37.8930702 17.6713279 37.6746663 17.7804102 36.9102528 20.0711379 37.2378586 19.1984797 42.8071571 16.907752 42.4795513 17.0168343 41.7151378"></polygon>
                                            <path d="M15.5987648,36.3642432 C16.0350939,36.582647 16.2532584,36.8010509 16.3623407,37.1286567 C16.4714229,37.4562625 16.4714229,37.8930702 16.2532584,38.3298779 L16.1441761,38.6574837 L15.4896825,38.4390799 L15.5987648,38.1114741 C15.7078471,37.7838683 15.7078471,37.5654644 15.7078471,37.3470605 C15.7078471,37.3470605 15.7078471,37.2378586 15.5987648,37.2378586 C15.5987648,37.1286567 15.4896825,37.1286567 15.3806002,37.0194548 C15.271518,37.0194548 15.1624357,36.9102528 15.0533534,37.0194548 C14.9442712,37.0194548 14.8351889,37.1286567 14.8351889,37.1286567 C14.7261066,37.2378586 14.7261066,37.2378586 14.6170243,37.3470605 C14.6170243,37.4562625 14.5079421,37.5654644 14.5079421,37.5654644 C14.5079421,37.6746663 14.3988598,37.7838683 14.3988598,37.8930702 C14.3988598,38.0022721 14.3988598,38.1114741 14.5079421,38.220676 C14.5079421,38.3298779 14.6170243,38.3298779 14.6170243,38.4390799 C14.7261066,38.5482818 14.7261066,38.5482818 14.8351889,38.6574837 L14.9442712,38.7666857 C15.0533534,38.8758876 15.0533534,38.8758876 15.1624357,38.9850895 C15.271518,39.0942914 15.3806002,39.2034934 15.3806002,39.4218972 C15.5987648,39.858705 15.5987648,40.1863108 15.3806002,40.6231185 C15.271518,40.8415224 15.1624357,41.0599262 15.0533534,41.1691281 C14.9442712,41.2783301 14.7261066,41.4967339 14.6170243,41.4967339 C14.3988598,41.6059359 14.2897775,41.6059359 14.071613,41.6059359 C13.8534484,41.6059359 13.7443662,41.6059359 13.5262016,41.4967339 C13.3080371,41.387532 13.0898725,41.2783301 12.9807903,41.1691281 C12.871708,41.0599262 12.7626257,40.8415224 12.7626257,40.7323204 C12.6535435,40.4047146 12.6535435,39.9679069 12.871708,39.5310992 L12.9807903,39.2034934 L13.6352839,39.4218972 L13.5262016,39.749503 C13.4171194,39.9679069 13.4171194,40.0771088 13.4171194,40.2955127 C13.4171194,40.4047146 13.4171194,40.5139166 13.5262016,40.6231185 C13.5262016,40.7323204 13.6352839,40.7323204 13.6352839,40.8415224 C13.7443662,40.8415224 13.7443662,40.9507243 13.8534484,40.9507243 C13.9625307,41.0599262 14.071613,41.0599262 14.1806953,40.9507243 C14.2897775,40.9507243 14.3988598,40.8415224 14.3988598,40.7323204 C14.5079421,40.6231185 14.5079421,40.6231185 14.6170243,40.5139166 C14.6170243,40.4047146 14.7261066,40.4047146 14.7261066,40.2955127 C14.7261066,40.1863108 14.8351889,40.0771088 14.8351889,39.9679069 C14.8351889,39.858705 14.8351889,39.749503 14.7261066,39.6403011 C14.7261066,39.5310992 14.6170243,39.4218972 14.6170243,39.4218972 C14.5079421,39.3126953 14.5079421,39.3126953 14.3988598,39.2034934 L14.2897775,39.0942914 C14.1806953,38.9850895 14.1806953,38.9850895 14.071613,38.8758876 C13.9625307,38.7666857 13.8534484,38.6574837 13.8534484,38.4390799 C13.6352839,38.0022721 13.6352839,37.6746663 13.8534484,37.2378586 C13.9625307,36.8010509 14.2897775,36.582647 14.5079421,36.3642432 C14.7261066,36.1458393 15.1624357,36.1458393 15.5987648,36.3642432 Z"></path>
                                            <path d="M12.3262966,34.6170123 C12.6535435,34.8354161 12.871708,35.1630219 12.871708,35.5998296 C12.871708,35.9274354 12.7626257,36.3642432 12.4353789,36.8010509 L12.2172144,37.1286567 L11.671803,36.691849 L11.8899676,36.3642432 C12.1081321,36.1458393 12.2172144,35.8182335 12.1081321,35.7090316 C12.1081321,35.7090316 12.1081321,35.5998296 12.1081321,35.4906277 C12.1081321,35.3814258 11.9990498,35.3814258 11.8899676,35.2722238 C11.7808853,35.1630219 11.671803,35.1630219 11.5627207,35.1630219 C11.4536385,35.1630219 11.3445562,35.1630219 11.2354739,35.2722238 C11.1263917,35.2722238 11.1263917,35.3814258 11.0173094,35.4906277 C10.9082271,35.5998296 10.9082271,35.5998296 10.7991448,35.7090316 C10.6900626,35.8182335 10.6900626,35.9274354 10.6900626,36.0366374 C10.6900626,36.1458393 10.6900626,36.2550412 10.6900626,36.3642432 C10.6900626,36.4734451 10.6900626,36.582647 10.7991448,36.582647 C10.7991448,36.691849 10.9082271,36.691849 10.9082271,36.8010509 L11.0173094,36.9102528 C11.0173094,37.0194548 11.1263917,37.1286567 11.2354739,37.2378586 C11.3445562,37.3470605 11.3445562,37.4562625 11.3445562,37.6746663 C11.4536385,38.1114741 11.3445562,38.5482818 11.0173094,38.8758876 C10.9082271,39.0942914 10.6900626,39.2034934 10.5809803,39.3126953 C10.3628158,39.4218972 10.2537335,39.5310992 10.0355689,39.5310992 C9.81740441,39.5310992 9.70832214,39.5310992 9.49015759,39.5310992 C9.27199305,39.5310992 9.16291078,39.4218972 8.94474624,39.3126953 C8.72658169,39.2034934 8.61749942,38.9850895 8.50841715,38.7666857 C8.39933488,38.5482818 8.39933488,38.4390799 8.39933488,38.3298779 C8.39933488,38.0022721 8.50841715,37.5654644 8.83566397,37.1286567 L9.05382851,36.8010509 L9.59923986,37.2378586 L9.38107532,37.5654644 C9.27199305,37.7838683 9.16291078,37.8930702 9.16291078,38.0022721 C9.16291078,38.1114741 9.16291078,38.220676 9.16291078,38.3298779 C9.16291078,38.4390799 9.27199305,38.4390799 9.27199305,38.5482818 C9.27199305,38.5482818 9.38107532,38.6574837 9.38107532,38.6574837 C9.49015759,38.7666857 9.59923986,38.7666857 9.70832214,38.7666857 C9.81740441,38.7666857 9.92648668,38.7666857 10.0355689,38.6574837 C10.1446512,38.5482818 10.2537335,38.5482818 10.2537335,38.4390799 C10.3628158,38.3298779 10.3628158,38.3298779 10.3628158,38.220676 C10.471898,38.1114741 10.471898,38.0022721 10.471898,37.8930702 C10.471898,37.7838683 10.471898,37.6746663 10.471898,37.5654644 C10.471898,37.4562625 10.471898,37.3470605 10.3628158,37.2378586 C10.3628158,37.1286567 10.2537335,37.0194548 10.2537335,37.0194548 L10.1446512,36.9102528 C10.1446512,36.8010509 10.0355689,36.8010509 9.92648668,36.582647 C9.81740441,36.4734451 9.81740441,36.3642432 9.81740441,36.1458393 C9.70832214,35.7090316 9.81740441,35.2722238 10.0355689,34.9446181 C10.2537335,34.6170123 10.5809803,34.3986084 10.9082271,34.2894065 C11.5627207,34.2894065 11.9990498,34.3986084 12.3262966,34.6170123 Z"></path>
                                            <path d="M7.1994299,32.4329736 C6.98126536,32.5421756 6.65401854,32.5421756 6.54493627,32.3237717 C6.435854,32.1053678 6.435854,31.886964 6.65401854,31.6685601 C6.87218308,31.5593582 7.1994299,31.5593582 7.30851217,31.777762 C7.41759444,31.9961659 7.41759444,32.3237717 7.1994299,32.4329736 Z"></path>
                                            <polygon points="6.21768946 26.3176655 6.32677173 26.9728771 0.763575898 28.0648964 0.654493627 27.4096848 4.36329085 25.44405 0.218164542 25.1164442 0.109082271 24.4612326 5.6722781 23.3692133 5.78136037 24.0244249 3.16338586 24.5704346 5.99952492 24.7888384 6.10860719 25.3348481 3.59971495 26.6452713"></polygon>
                                            <path d="M5.6722781,21.6219824 L5.56319583,22.3863959 L0,20.639165 L0,20.0931554 L5.78136037,19.2195399 L5.6722781,19.9839535 L4.03604403,20.2023573 L3.92696176,21.1851747 L5.6722781,21.6219824 Z M1.96348088,20.4207612 L3.27246814,20.8575689 L3.27246814,20.2023573 L1.96348088,20.4207612 Z"></path>
                                            <polygon points="5.99952492 18.3459245 0.654493627 16.5986936 0.872658169 15.943482 5.56319583 17.472309 6.10860719 15.8342801 6.76310081 16.0526839"></polygon>
                                            <polygon points="7.30851217 14.9606646 2.29072769 12.2306163 2.61797451 11.5754047 7.63575898 14.305453"></polygon>
                                            <path d="M8.29025261,9.93737576 C8.07208807,9.7189719 8.07208807,9.50056803 8.29025261,9.28216417 C8.50841715,9.06376031 8.72658169,9.06376031 8.94474624,9.28216417 C9.16291078,9.50056803 9.16291078,9.7189719 8.94474624,9.93737576 C8.83566397,10.1557796 8.50841715,10.1557796 8.29025261,9.93737576 Z"></path>
                                        </g>
                                        <g transform="translate(10.908227, 10.920193)" fill="#5D95CF">
                                            <path d="M5.78136037,23.5876172 C-6.66133815e-16,19.3287419 -1.19990498,11.138597 3.05430359,5.46009657 C7.30851217,-0.327605794 15.4896825,-1.52882704 21.1619606,2.73004829 C26.943321,6.98892361 28.143226,15.1790685 23.8890174,20.8575689 C19.6348088,26.6452713 11.4536385,27.8464925 5.78136037,23.5876172 Z M20.8347138,3.16685601 C15.3806002,-0.873615451 7.63575898,0.327605794 3.59971495,5.78770237 C-0.436329085,11.2477989 0.763575898,19.0011361 6.21768946,23.0416075 C11.671803,27.082079 19.4166443,25.8808577 23.4526883,20.4207612 C27.4887323,15.0698665 26.2888274,7.20732747 20.8347138,3.16685601 Z"></path>
                                        </g>
                                        <g opacity="0.64" transform="translate(17.453163, 17.472309)" fill="#357BC3">
                                            <path d="M12.6535435,11.0293951 L9.70832214,5.46009657 C11.671803,2.94845215 12.871708,0.873615451 11.9990498,0.218403863 C11.1263917,-0.436807726 9.49015759,1.41962511 7.74484125,3.93126953 L1.5271518,2.83925022 C1.5271518,2.83925022 1.41806953,2.83925022 1.41806953,2.83925022 L0.436329085,4.04047146 C0.436329085,4.04047146 0.436329085,4.14967339 0.436329085,4.14967339 L6.10860719,6.22451009 C5.23594902,7.53493327 4.58145539,8.51775065 4.14512631,9.3913661 L2.50889224,9.06376031 C2.50889224,9.06376031 2.39980997,9.06376031 2.39980997,9.06376031 L1.85439861,9.82817383 C1.85439861,9.82817383 1.85439861,9.93737576 1.85439861,9.93737576 L3.49063268,10.8109912 C3.38155041,11.2477989 3.38155041,11.4662028 3.59971495,11.5754047 C3.81787949,11.6846067 4.03604403,11.6846067 4.36329085,11.4662028 L5.6722781,12.776626 C5.6722781,12.776626 5.78136037,12.776626 5.78136037,12.776626 L6.32677173,12.0122125 C6.32677173,12.0122125 6.32677173,11.9030105 6.32677173,11.9030105 L5.56319583,10.4833854 C6.21768946,9.82817383 6.98126536,8.84535645 7.9630058,7.6441352 L11.671803,12.3398183 C11.671803,12.3398183 11.7808853,12.3398183 11.7808853,12.3398183 L12.7626257,11.138597 C12.6535435,11.138597 12.6535435,11.138597 12.6535435,11.0293951 Z"></path>
                                        </g>
                                    </g>
                                    <g transform="translate(94.969930, 99.243764)" fill-rule="nonzero">
                                        <path d="M23.9980997,12.0138225 C23.9980997,18.6751403 11.9990498,38.222286 11.9990498,38.222286 C11.9990498,38.222286 0,18.6751403 0,12.0138225 C0,5.35250469 5.34503129,0.00161005081 11.9990498,0.00161005081 C18.6530684,-0.107591881 23.9980997,5.35250469 23.9980997,12.0138225 Z" id="Shape" fill="#FC6A33"></path>
                                        <ellipse id="Oval" fill="#FDFDFD" cx="11.8006004" cy="11.7053987" rx="7.63575898" ry="7.6441352"></ellipse>
                                    </g>
                                </g>
                                <g transform="translate(95.098727, 205.299631)" fill="#F34019" fill-rule="nonzero" id="Shape">
                                    <path d="M7.09034763,10.9201931 L2.72705678,10.9201931 C1.63623407,10.9201931 0.763575898,10.0465777 0.763575898,8.95455838 C0.763575898,7.86253906 1.63623407,6.98892361 2.72705678,6.98892361 L7.09034763,6.98892361 C8.18117034,6.98892361 9.05382851,7.86253906 9.05382851,8.95455838 C9.05382851,9.93737576 8.18117034,10.9201931 7.09034763,10.9201931 Z"></path>
                                    <path d="M7.09034763,4.58648112 L2.72705678,4.58648112 C1.63623407,4.58648112 0.763575898,3.71286567 0.763575898,2.62084635 C0.763575898,1.52882704 1.63623407,0.655211589 2.72705678,0.655211589 L7.09034763,0.655211589 C8.18117034,0.655211589 9.05382851,1.52882704 9.05382851,2.62084635 C9.05382851,3.71286567 8.18117034,4.58648112 7.09034763,4.58648112 Z"></path>
                                </g>
                            </g>
                        </g>
                    </g>
                </g>
            </g>
        </g>
    </g>
</svg>