<?xml version="1.0" encoding="UTF-8"?>
<svg width="414px" height="414px" viewBox="0 0 414 414" version="1.1" xmlns="http://www.w3.org/2000/svg" xmlns:xlink="http://www.w3.org/1999/xlink">
    <!-- Generator: Sketch 51 (57462) - http://www.bohemiancoding.com/sketch -->
    <title>img3</title>
    <desc>Created with Sketch.</desc>
    <defs>
        <path d="M190,380 C294.934102,380 380,294.934102 380,190 C380,85.0658975 294.934102,0 190,0 C85.0658975,0 0,85.0658975 0,190 C0,294.934102 85.0658975,380 190,380 Z" id="path-1"></path>
        <filter x="-6.7%" y="-6.7%" width="113.4%" height="113.4%" filterUnits="objectBoundingBox" id="filter-2">
            <feOffset dx="0" dy="0" in="SourceAlpha" result="shadowOffsetOuter1"></feOffset>
            <feGaussianBlur stdDeviation="8.5" in="shadowOffsetOuter1" result="shadowBlurOuter1"></feGaussianBlur>
            <feComposite in="shadowBlurOuter1" in2="SourceAlpha" operator="out" result="shadowBlurOuter1"></feComposite>
            <feColorMatrix values="0 0 0 0 0.591703869   0 0 0 0 0.591703869   0 0 0 0 0.591703869  0 0 0 0.441717618 0" type="matrix" in="shadowBlurOuter1"></feColorMatrix>
        </filter>
    </defs>
    <g id="USER" stroke="none" stroke-width="1" fill="none" fill-rule="evenodd">
        <g id="main_blackU222" transform="translate(-235.000000, -2921.000000)">
            <rect fill="#FFFFFF" x="0" y="0" width="1440" height="4911"></rect>
            <g id="STEPS" transform="translate(-3.000000, 480.000000)">
                <g id="img3" transform="translate(255.000000, 2458.000000)">
                    <g id="Group-2" transform="translate(22.126582, 122.177215)">
                        <g id="OKLG701-[Converted]" transform="translate(54.835443, 7.696203)">
                            <g id="Group" transform="translate(0.962025, 19.240506)" fill="#0F7EDF" fill-rule="nonzero">
                                <polygon id="Shape" points="1.2855865 20.4594355 0.0405974684 20.4594355 0.0405974684 17.2251097 1.2855865 17.2251097"></polygon>
                                <polygon id="Shape" points="1.2855865 26.9280872 0.0405974684 26.9280872 0.0405974684 23.6937614 1.2855865 23.6937614"></polygon>
                                <polygon id="Shape" points="1.2855865 33.3899725 0.0405974684 33.3899725 0.0405974684 30.1556467 1.2855865 30.1556467"></polygon>
                                <polygon id="Shape" points="1.2855865 39.8586242 0.0405974684 39.8586242 0.0405974684 36.6242983 1.2855865 36.6242983"></polygon>
                                <polygon id="Shape" points="1.2855865 46.3272759 0.0405974684 46.3272759 0.0405974684 43.09295 1.2855865 43.09295"></polygon>
                                <polygon id="Shape" points="1.2855865 52.7891612 0.0405974684 52.7891612 0.0405974684 49.5548353 1.2855865 49.5548353"></polygon>
                                <polygon id="Shape" points="1.2855865 59.2578128 0.0405974684 59.2578128 0.0405974684 56.023487 1.2855865 56.023487"></polygon>
                                <polygon id="Shape" points="1.2855865 65.7264645 0.0405974684 65.7264645 0.0405974684 62.4921387 1.2855865 62.4921387"></polygon>
                                <polygon id="Shape" points="1.2855865 72.1883498 0.0405974684 72.1883498 0.0405974684 68.954024 1.2855865 68.954024"></polygon>
                                <polygon id="Shape" points="1.2855865 78.6570015 0.0405974684 78.6570015 0.0405974684 75.4226757 1.2855865 75.4226757"></polygon>
                                <polygon id="Shape" points="1.2855865 85.1188868 0.0405974684 85.1188868 0.0405974684 81.884561 1.2855865 81.884561"></polygon>
                                <polygon id="Shape" points="1.2855865 91.5875385 0.0405974684 91.5875385 0.0405974684 88.3532127 1.2855865 88.3532127"></polygon>
                                <polygon id="Shape" points="1.2855865 98.0494238 0.0405974684 98.0494238 0.0405974684 94.815098 1.2855865 94.815098"></polygon>
                                <polygon id="Shape" points="1.2855865 104.518075 0.0405974684 104.518075 0.0405974684 101.28375 1.2855865 101.28375"></polygon>
                                <polygon id="Shape" points="7.99770127 105.505966 7.99770127 106.750978 4.76343629 106.750978 4.76343629 105.505966"></polygon>
                                <polygon id="Shape" points="14.459465 105.505966 14.459465 106.750978 11.2252 106.750978 11.2252 105.505966"></polygon>
                                <polygon id="Shape" points="20.9279949 105.505966 20.9279949 106.750978 17.69373 106.750978 17.69373 105.505966"></polygon>
                                <polygon id="Shape" points="27.3965249 105.505966 27.3965249 106.750978 24.1622599 106.750978 24.1622599 105.505966"></polygon>
                                <polygon id="Shape" points="33.8582886 105.505966 33.8582886 106.750978 30.6240236 106.750978 30.6240236 105.505966"></polygon>
                                <polygon id="Shape" points="40.3268186 105.505966 40.3268186 106.750978 37.0925536 106.750978 37.0925536 105.505966"></polygon>
                                <polygon id="Shape" points="46.7885823 105.505966 46.7885823 106.750978 43.5543173 106.750978 43.5543173 105.505966"></polygon>
                                <polygon id="Shape" points="53.2571122 105.505966 53.2571122 106.750978 50.0228473 106.750978 50.0228473 105.505966"></polygon>
                                <polygon id="Shape" points="59.7256422 105.505966 59.7256422 106.750978 56.4913772 106.750978 56.4913772 105.505966"></polygon>
                                <polygon id="Shape" points="66.1874059 105.505966 66.1874059 106.750978 62.9531409 106.750978 62.9531409 105.505966"></polygon>
                                <polygon id="Shape" points="72.6559359 105.505966 72.6559359 106.750978 69.4216709 106.750978 69.4216709 105.505966"></polygon>
                                <polygon id="Shape" points="79.1176996 105.505966 79.1176996 106.750978 75.8834346 106.750978 75.8834346 105.505966"></polygon>
                                <polygon id="Shape" points="85.5862295 105.505966 85.5862295 106.750978 82.3519646 106.750978 82.3519646 105.505966"></polygon>
                                <polygon id="Shape" points="92.0547595 105.505966 92.0547595 106.750978 88.8204945 106.750978 88.8204945 105.505966"></polygon>
                                <polygon id="Shape" points="98.5165232 105.505966 98.5165232 106.750978 95.2822582 106.750978 95.2822582 105.505966"></polygon>
                                <polygon id="Shape" points="104.985053 105.505966 104.985053 106.750978 101.750788 106.750978 101.750788 105.505966"></polygon>
                                <polygon id="Shape" points="111.453583 105.505966 111.453583 106.750978 108.219318 106.750978 108.219318 105.505966"></polygon>
                                <polygon id="Shape" points="117.915347 105.505966 117.915347 106.750978 114.681082 106.750978 114.681082 105.505966"></polygon>
                                <polygon id="Shape" points="124.383877 105.505966 124.383877 106.750978 121.149612 106.750978 121.149612 105.505966"></polygon>
                                <polygon id="Shape" points="130.845641 105.505966 130.845641 106.750978 127.611376 106.750978 127.611376 105.505966"></polygon>
                                <polygon id="Shape" points="137.31417 105.505966 137.31417 106.750978 134.079905 106.750978 134.079905 105.505966"></polygon>
                                <polygon id="Shape" points="143.7827 105.505966 143.7827 106.750978 140.548435 106.750978 140.548435 105.505966"></polygon>
                                <polygon id="Shape" points="150.244464 105.505966 150.244464 106.750978 147.010199 106.750978 147.010199 105.505966"></polygon>
                                <polygon id="Shape" points="156.712994 105.505966 156.712994 106.750978 153.478729 106.750978 153.478729 105.505966"></polygon>
                                <polygon id="Shape" points="163.174758 105.505966 163.174758 106.750978 159.940493 106.750978 159.940493 105.505966"></polygon>
                                <polygon id="Shape" points="169.643288 105.505966 169.643288 106.750978 166.409023 106.750978 166.409023 105.505966"></polygon>
                                <polygon id="Shape" points="176.111818 105.505966 176.111818 106.750978 172.877553 106.750978 172.877553 105.505966"></polygon>
                                <polygon id="Shape" points="182.573581 105.505966 182.573581 106.750978 179.339316 106.750978 179.339316 105.505966"></polygon>
                                <polygon id="Shape" points="189.042111 105.505966 189.042111 106.750978 185.807846 106.750978 185.807846 105.505966"></polygon>
                                <polygon id="Shape" points="195.510641 105.505966 195.510641 106.750978 192.276376 106.750978 192.276376 105.505966"></polygon>
                                <polygon id="Shape" points="201.992704 105.505966 201.992704 106.750978 198.758439 106.750978 198.758439 105.505966"></polygon>
                                <polygon id="Shape" points="201.708522 97.4742822 202.953511 97.4742822 202.953511 100.708608 201.708522 100.708608"></polygon>
                                <polygon id="Shape" points="201.708522 91.0056305 202.953511 91.0056305 202.953511 94.2399563 201.708522 94.2399563"></polygon>
                                <polygon id="Shape" points="201.708522 84.5437452 202.953511 84.5437452 202.953511 87.778071 201.708522 87.778071"></polygon>
                                <polygon id="Shape" points="201.708522 78.0750935 202.953511 78.0750935 202.953511 81.3094194 201.708522 81.3094194"></polygon>
                                <polygon id="Shape" points="201.708522 71.6132082 202.953511 71.6132082 202.953511 74.8475341 201.708522 74.8475341"></polygon>
                                <polygon id="Shape" points="201.708522 65.1445565 202.953511 65.1445565 202.953511 68.3788824 201.708522 68.3788824"></polygon>
                                <polygon id="Shape" points="201.708522 58.6759049 202.953511 58.6759049 202.953511 61.9102307 201.708522 61.9102307"></polygon>
                                <polygon id="Shape" points="201.708522 52.2140195 202.953511 52.2140195 202.953511 55.4483454 201.708522 55.4483454"></polygon>
                                <polygon id="Shape" points="201.708522 45.7453679 202.953511 45.7453679 202.953511 48.9796937 201.708522 48.9796937"></polygon>
                                <polygon id="Shape" points="201.708522 39.2767162 202.953511 39.2767162 202.953511 42.511042 201.708522 42.511042"></polygon>
                                <polygon id="Shape" points="201.708522 32.8148309 202.953511 32.8148309 202.953511 36.0491567 201.708522 36.0491567"></polygon>
                                <polygon id="Shape" points="201.708522 26.3461792 202.953511 26.3461792 202.953511 29.580505 201.708522 29.580505"></polygon>
                                <polygon id="Shape" points="201.708522 19.8842939 202.953511 19.8842939 202.953511 23.1186197 201.708522 23.1186197"></polygon>
                                <polygon id="Shape" points="201.708522 13.4156422 202.953511 13.4156422 202.953511 16.649968 201.708522 16.649968"></polygon>
                                <polygon id="Shape" points="201.708522 6.9537569 202.953511 6.9537569 202.953511 10.1880827 201.708522 10.1880827"></polygon>
                                <polygon id="Shape" points="201.708522 0.485105222 202.953511 0.485105222 202.953511 3.71943106 201.708522 3.71943106"></polygon>
                            </g>
                            <g id="hand" transform="translate(43.291139, 0.000000)">
                                <path d="M36.8126137,41.669434 C35.044567,44.9149107 31.1835353,46.1601541 28.1921914,44.4442676 L3.08592811,30.0112107 C0.0945842204,28.2953242 -0.889787731,24.2654422 0.878258978,21.0199654 L3.5924496,16.048797 C5.36049631,12.8033203 9.22152804,11.5580769 12.2128719,13.2837685 L37.3191352,27.7168253 C40.3104791,29.4327118 41.294851,33.4625939 39.5268043,36.7080707 L36.8126137,41.669434 Z" id="Shape" fill="#FCD4B5" fill-rule="nonzero"></path>
                                <path d="M117.536777,67.3417722 L98.8381308,78.1342782 L94.0925298,113.086156 L27.8987342,114.541659 C27.8987342,114.541659 35.6776059,144.36462 48.3292804,150.909434 L46.1864214,166.72194 L106.32346,175.088608 L110.413483,144.958703 C110.413483,144.958703 126.147352,124.066788 123.877292,99.5905723 C122.135607,80.8175526 118.935996,70.9359737 117.536777,67.3417722 Z" id="Shape" fill="#FCD4B5" fill-rule="nonzero"></path>
                                <g id="Group" transform="translate(38.481013, 156.810127)" fill-rule="nonzero">
                                    <g id="Shape">
                                        <path d="M39.4331525,0.0190897974 L72.5000603,0.0190897974 C75.9797468,0.0190897974 78.8069922,2.74893083 78.8069922,6.10873517 L78.8069922,30.4100473 C78.8069922,33.7698516 75.9797468,36.4996926 72.5000603,36.4996926 L39.4331525,36.4996926 L39.4331525,28.2051757 L39.4331525,0.0190897974 Z" fill="#C0DFDA"></path>
                                        <path d="M6.3761302,0.0190897974 L39.4331525,0.0190897974 L39.4331525,28.2051757 L39.4331525,36.4996926 L6.3761302,36.4996926 C2.89644364,36.4996926 0.0691983122,33.7698516 0.0691983122,30.4100473 L0.0691983122,6.10873517 C0.0691983122,2.74893083 2.88655817,0.0190897974 6.3761302,0.0190897974 Z" fill="#FFFFFF"></path>
                                    </g>
                                    <path d="M3.92453285,16.01634 C3.92453285,19.2806954 6.66280892,21.9246323 10.0436407,21.9246323 C13.4244726,21.9246323 16.1627486,19.2806954 16.1627486,16.01634 C16.1627486,12.7519847 13.4244726,10.1080477 10.0436407,10.1080477 C6.66280892,10.1080477 3.92453285,12.7519847 3.92453285,16.01634 Z" id="Shape" fill="#104F78"></path>
                                </g>
                                <path d="M55.1527121,137.56962 L61.5696203,137.56962 L60.8645778,129.839743 L55.3059822,67.74207 C54.1513475,54.8290967 50.7180973,56.8784592 42.3291139,56.8784592 L50.8100594,125.73107 C51.3618317,131.879157 49.1853963,137.56962 55.1527121,137.56962 Z" id="Shape" fill="#FCD4B5"></path>
                                <g id="Group" transform="translate(32.708861, 184.708861)" fill-rule="nonzero">
                                    <path d="M88.3881894,59.5459944 L88.4669492,4.29169291 C88.4669492,1.94171721 85.739891,0.0398300966 82.3729094,0.0398300966 L44.2826995,0.0398300966 L44.1842497,59.5459944 L88.3881894,59.5459944 Z" id="Shape" fill="#005B95"></path>
                                    <path d="M44.2826995,0.0398300966 L6.19248955,0.0398300966 C2.82550795,0.0398300966 0.0984497543,1.94171721 0.0984497543,4.29169291 L0.0196899509,59.5260793 L44.1744048,59.5260793 L44.2826995,0.0398300966 Z" id="Shape" fill="#0F7EDF"></path>
                                </g>
                                <g id="Group" transform="translate(24.050633, 0.000000)" fill-rule="nonzero">
                                    <g>
                                        <rect id="Rectangle-path" fill="#022640" x="23.3033499" y="113.998379" width="26.8869577" height="11.7368562"></rect>
                                        <path d="M62.1488661,7.249811 C62.1488661,9.61089809 52.0217094,11.5213213 39.5285795,11.5213213 C27.0354497,11.5213213 16.908293,9.61089809 16.908293,7.249811 C16.908293,4.8887239 27.0354497,2.97830073 39.5285795,2.97830073 C52.0217094,2.97830073 62.1488661,4.89852095 62.1488661,7.249811 Z" id="Shape" fill="#022640"></path>
                                        <path d="M66.2967436,0.107767461 L38.3703417,0.107767461 L38.3703417,4.92791207 L52.922561,4.92791207 C54.0511005,4.92791207 54.9717511,5.82923992 54.9717511,6.95589974 C54.9717511,8.07276252 54.0511005,8.98388741 52.922561,8.98388741 L38.3703417,8.98388741 L38.3703417,13.4415415 L67.0194048,13.4415415 C68.078648,13.4415415 68.9498013,14.3036812 68.9498013,15.3519646 L68.9498013,109.991389 C68.9498013,111.039673 68.078648,111.901812 67.0194048,111.901812 L38.3703417,111.901812 L38.3703417,114.821331 C40.7858121,115.22301 42.6172139,117.290186 42.6172139,119.788431 C42.6172139,122.286677 40.7858121,124.353853 38.3703417,124.755531 L38.3703417,127.861194 L66.2967436,127.861194 C71.097986,127.861194 75.0181757,123.981565 75.0181757,119.23 L75.0181757,8.73896137 C75.0181757,3.98739605 71.0880866,0.107767461 66.2967436,0.107767461 Z M46.4186099,121.787028 C45.2900705,121.787028 44.3793193,120.8857 44.3793193,119.768837 C44.3793193,118.661771 45.2900705,117.760444 46.4186099,117.760444 C47.5372499,117.760444 48.4579005,118.661771 48.4579005,119.768837 C48.4579005,120.8857 47.5471494,121.787028 46.4186099,121.787028 Z" id="Shape" fill="#184B59"></path>
                                        <path d="M37.5288868,124.814314 C34.7174376,124.814314 32.4306603,122.551197 32.4306603,119.768837 C32.4306603,116.986477 34.7075382,114.723361 37.5288868,114.723361 C37.8159714,114.723361 38.103056,114.752752 38.3703417,114.801737 L38.3703417,111.882218 L8.12746401,111.882218 C7.06822083,111.882218 6.19706757,111.020079 6.19706757,109.971795 L6.19706757,15.3323706 C6.19706757,14.2840871 7.06822083,13.4219474 8.12746401,13.4219474 L38.3703417,13.4219474 L38.3703417,8.96429333 L22.1253131,8.96429333 C20.9967737,8.96429333 20.076123,8.05316843 20.076123,6.93630566 C20.076123,5.81944288 20.9967737,4.90831799 22.1253131,4.90831799 L38.3703417,4.90831799 L38.3703417,0.088173377 L8.75113056,0.088173377 C3.95978758,0.088173377 0.0296984069,3.96780197 0.0296984069,8.71936728 L0.0296984069,119.23 C0.0296984069,123.981565 3.94988811,127.861194 8.75113056,127.851397 L38.3703417,127.851415 L38.3703417,124.745734 C38.0931565,124.784923 37.8159714,124.814314 37.5288868,124.814314 Z M28.6292642,121.787028 C27.5007248,121.787028 26.5899736,120.8857 26.5899736,119.768837 C26.5899736,118.661771 27.5007248,117.760444 28.6292642,117.760444 C29.7479042,117.760444 30.6685548,118.661771 30.6685548,119.768837 C30.6685548,120.8857 29.7479042,121.787028 28.6292642,121.787028 Z" id="Shape" fill="#205C66"></path>
                                        <path d="M67.0194048,13.4415415 L38.3703417,13.4415415 L8.12746401,13.4415415 C7.06822083,13.4415415 6.19706757,14.3036812 6.19706757,15.3519646 L6.19706757,25.3939326 L6.19706757,109.991389 C6.19706757,110.304895 6.28616279,110.598806 6.42475535,110.863326 L68.2865369,13.9313936 C67.9499549,13.6276853 67.5143783,13.4415415 67.0194048,13.4415415 Z" id="Shape" fill="#2096FD"></path>
                                    </g>
                                    <path d="M68.2865369,13.9215965 L6.43465482,110.853529 C6.7613373,111.460946 7.39490331,111.892015 8.13736348,111.892015 L38.3802411,111.892015 L67.0194048,111.892015 C68.078648,111.892015 68.9498013,111.029876 68.9498013,109.981592 L68.9498013,25.3841355 L68.9498013,15.3421676 C68.9498013,14.7739392 68.6924151,14.27429 68.2865369,13.9215965 Z" id="Shape" fill="#0F7EDF"></path>
                                </g>
                                <path d="M118.597296,64.7954914 L109.505908,29.8227848 C109.505908,29.8227848 93.3230332,33.2558675 94.3229839,44.9361291 C95.3331381,56.6163907 100.261466,73.7234515 100.261466,73.7234515 L99.7921017,76.9620253 L119.291139,66.3612883 C118.862589,65.2914892 118.597296,64.7954914 118.597296,64.7954914 Z" id="Shape" fill="#FCD4B5" fill-rule="nonzero"></path>
                                <path d="M37.5189873,18.278481 C37.5189873,19.3393089 36.6661649,20.2025316 35.5949367,20.2025316 C34.5341088,20.2025316 33.6708861,19.3393089 33.6708861,18.278481 C33.6708861,17.2176531 34.5445091,16.3544304 35.5949367,16.3544304 C36.6557646,16.3544304 37.5189873,17.2176531 37.5189873,18.278481 Z" id="Shape" fill="#01C5C5" fill-rule="nonzero"></path>
                                <path d="M42.3291139,18.278481 C42.3291139,19.3393089 41.4658912,20.2025316 40.4154636,20.2025316 C39.3546356,20.2025316 38.4810127,19.3393089 38.4810127,18.278481 C38.4810127,17.2176531 39.3442354,16.3544304 40.4154636,16.3544304 C41.4658912,16.3544304 42.3291139,17.2176531 42.3291139,18.278481 Z" id="Shape" fill="#B8DE70" fill-rule="nonzero"></path>
                                <path d="M47.1392405,18.278481 C47.1392405,19.3393089 46.2783445,20.2025316 45.2100038,20.2025316 C44.1520352,20.2025316 43.2911392,19.3393089 43.2911392,18.278481 C43.2911392,17.2176531 44.1520352,16.3544304 45.2100038,16.3544304 C46.2679723,16.3544304 47.1392405,17.2176531 47.1392405,18.278481 Z" id="Shape" fill="#F29232" fill-rule="nonzero"></path>
                                <rect id="Rectangle-path" fill="#91D7F0" fill-rule="nonzero" x="50.9873418" y="16.3544304" width="33.6708861" height="3.84810127"></rect>
                                <g id="Group" transform="translate(31.746835, 40.405063)" fill-rule="nonzero">
                                    <g fill="#7E8080" id="Shape">
                                        <path d="M0.0590409958,22.7927654 L0.0590409958,52.4685919 C0.0590409958,55.811793 2.76508664,58.5158527 6.11074306,58.5158527 L61.8848038,58.5158527 L83.3757262,58.5158527 C86.7213826,58.5158527 89.4274283,55.811793 89.4274283,52.4685919 L89.4274283,22.7927654 L8.8167887,22.7829324 L0.0590409958,22.7927654 Z"></path>
                                        <path d="M83.3757262,1.36677929 L6.11074306,0.0688306115 C3.85734506,0.0688306115 1.88931187,1.29794867 0.846254273,3.12687635 C0.344405809,4.01184136 0.0590409958,5.02463464 0.0590409958,6.11609148 L0.0590409958,11.4750462 L0.0590409958,22.7829324 L89.4274283,22.7927654 L89.4274283,11.4848792 L89.4274283,7.41404016 C89.4274283,4.08067197 86.7213826,1.36677929 83.3757262,1.36677929 Z"></path>
                                    </g>
                                    <g transform="translate(1.082418, 0.098329)" fill="#FF8403" id="Shape">
                                        <path d="M8.79710837,21.4554849 L0.0393606639,21.4554849 L0.0393606639,51.1313114 C0.0393606639,54.4745125 2.7454063,57.1785723 6.09106273,57.1785723 L61.8651234,57.1785723 C32.3446255,49.3908802 16.8562043,34.189148 8.79710837,21.4554849 Z"></path>
                                        <path d="M89.407748,51.1313114 L89.407748,21.4554849 L8.79710837,21.445652 C16.8562043,34.1793151 32.3446255,49.3908802 61.8651234,57.1687393 L83.3560459,57.1687393 C86.7017023,57.1785723 89.407748,54.4745125 89.407748,51.1313114 Z"></path>
                                        <path d="M0.0393606639,6.06692676 L0.0393606639,10.1377658 L3.06029161,10.1377658 C1.92867253,7.22721421 1.23986091,4.79847692 0.826573941,3.07771163 C0.334565643,3.96267663 0.0393606639,4.98530286 0.0393606639,6.06692676 Z"></path>
                                        <path d="M89.4175881,6.0767597 C89.4175881,2.73355857 86.7115425,0.0294988335 83.3658861,0.0294988335 L6.1009029,0.019665889 C3.84750489,0.019665889 1.8794717,1.24878395 0.836414107,3.07771163 C1.24970108,4.79847692 1.9385127,7.22721421 3.07013178,10.1377658 L89.4175881,10.1475987 L89.4175881,6.0767597 Z"></path>
                                    </g>
                                    <g transform="translate(1.082418, 10.226262)" id="Rectangle-path">
                                        <rect fill="#3F4E51" x="0.0393606639" y="0.0098329445" width="89.3683873" height="11.3078862"></rect>
                                        <rect fill="#F0F8F8" x="2.42068083" y="16.0866972" width="47.0655138" height="6.54874104"></rect>
                                        <rect fill="#F0F8F8" x="55.970864" y="16.0866972" width="30.3864325" height="6.54874104"></rect>
                                        <rect fill="#7E8080" x="43.6509762" y="33.5991714" width="16.1477123" height="5.37862064"></rect>
                                        <rect fill="#7E8080" x="66.5195219" y="33.5991714" width="8.74790754" height="5.37862064"></rect>
                                    </g>
                                </g>
                                <path d="M41.7179054,90.3008046 C40.0958482,92.9346742 37.0607105,94.052368 34.9609923,92.8083262 L17.2676323,82.3603192 C15.1579629,81.1162775 14.7698633,77.9770158 16.4018717,75.3431462 L18.8896895,71.3194486 C20.5117467,68.6855789 23.5369331,67.5678852 25.6466026,68.8119269 L43.3399626,79.2599339 C45.4496321,80.5039757 45.8377317,83.6432373 44.2057232,86.277107 L41.7179054,90.3008046 Z" id="Shape" fill="#FCD4B5" fill-rule="nonzero"></path>
                                <path d="M40.7648988,113.389412 C39.1424079,116.023282 36.1164126,117.140976 34.006179,115.896934 L16.3080877,105.448927 C14.1978541,104.204885 13.8096507,101.065623 15.4321417,98.4317538 L17.9206247,94.4080562 C19.5431156,91.7741865 22.569111,90.6564928 24.6793446,91.9005345 L42.3774358,102.348542 C44.4876695,103.592583 44.8758728,106.731845 43.2434279,109.365715 L40.7648988,113.389412 Z" id="Shape" fill="#FCD4B5" fill-rule="nonzero"></path>
                                <path d="M43.3130388,72.5202276 C41.5335975,75.5543761 38.2055613,76.8490779 35.8970969,75.416011 L16.4867587,63.358483 C14.1782943,61.9254162 13.7454572,58.2982745 15.5345172,55.2641261 L18.2662,50.6190129 C20.0552599,47.5848644 23.3640589,46.2901627 25.6821419,47.7232295 L45.0828615,59.7807575 C47.3913259,61.2138243 47.824163,64.840966 46.0351031,67.8751144 L43.3130388,72.5202276 Z" id="Shape" fill="#FCD4B5" fill-rule="nonzero"></path>
                            </g>
                            <g id="Group" transform="translate(182.784810, 102.936709)" fill-rule="nonzero">
                                <ellipse id="Oval" fill="#0F7EDF" cx="20.2025316" cy="19.7283667" rx="20.1814507" ry="19.666737"></ellipse>
                                <polygon id="Shape" fill="#FFFFFF" points="17.4626835 29.6748066 8.15195157 23.018794 10.0984216 20.4303446 16.9426879 25.3196378 28.8744788 11.7542458 31.3760793 13.8496572"></polygon>
                            </g>
                        </g>
                        <g id="Group" transform="translate(47.139241, 99.088608)" fill-rule="nonzero">
                            <path d="M24.7616756,12.667424 C24.7616756,19.3287419 12.7626257,38.8758876 12.7626257,38.8758876 C12.7626257,38.8758876 0.763575898,19.3287419 0.763575898,12.667424 C0.763575898,6.00610623 6.10860719,0.655211589 12.7626257,0.655211589 C19.4166443,0.546009657 24.7616756,6.00610623 24.7616756,12.667424 Z" id="Shape" fill="#FC6A33"></path>
                            <ellipse id="Oval" fill="#FDFDFD" cx="12.7626257" cy="12.667424" rx="7.63575898" ry="7.6441352"></ellipse>
                        </g>
                        <g id="Group">
                            <path d="M73.1139241,23.7031418 C73.1139241,21.6941737 72.0990402,19.8583925 70.475226,18.7499963 C69.8324663,18.2997104 69.2573654,17.7455123 68.7499235,17.1220394 L60.6646822,6.45372616 C58.9732091,4.20229642 56.3345111,2.88607595 53.5604952,2.88607595 L45.1707887,2.88607595 C43.580804,2.88607595 42.3291139,4.20229642 42.3291139,5.83025331 L42.3291139,32.7088608 L73.0800946,32.7088608 L73.0800946,23.7031418 L73.1139241,23.7031418 Z" id="Shape" fill="#FFE500" fill-rule="nonzero"></path>
                            <path d="M50.0253165,33.6708861 L0.00226116231,33.6708861 L0.00226116231,10.8460754 C0.00226116231,4.87386934 -0.289394166,0 5.75203763,0 L50.0253165,0 L50.0253165,33.6708861 Z" id="Shape" fill="#FFCF00" fill-rule="nonzero"></path>
                            <rect id="Rectangle-path" fill="#E0B600" fill-rule="nonzero" x="0" y="30.7848101" width="74.0759494" height="2.88607595"></rect>
                            <rect id="Rectangle-path" fill="#FFCF00" fill-rule="nonzero" x="0" y="31.7468354" width="74.0759494" height="1.92405063"></rect>
                            <path d="M63.358628,16.099678 L57.9398002,7.43474617 C57.6671547,6.99228157 57.1900252,6.73417722 56.6788151,6.73417722 L50.9873418,6.73417722 L50.9873418,17.3164557 L62.7451758,17.3164557 C63.358628,17.2795836 63.6994348,16.6158867 63.358628,16.099678 Z" id="Shape" fill="#FFFFFF" fill-rule="nonzero"></path>
                            <rect id="Rectangle-path" fill="#FFCF00" fill-rule="nonzero" x="50.9873418" y="18.278481" width="2.88607595" height="1"></rect>
                            <path d="M50.9873418,19.2405063 L56.7594937,19.2405063" id="Shape" stroke="#FFCF00"></path>
                            <rect id="Rectangle-path" fill="#FFCF00" fill-rule="nonzero" x="50.0253165" y="25.0126582" width="23.0886076" height="2.88607595"></rect>
                            <g transform="translate(49.063291, 22.126582)" fill="#FFCF00" fill-rule="nonzero" id="Rectangle-path">
                                <rect x="0.0352163114" y="0.832263762" width="19.9317861" height="1"></rect>
                                <rect x="0.0352163114" y="0" width="19.9317861" height="1"></rect>
                            </g>
                            <path d="M72.1518987,24.0506329 L68.3037975,24.0506329 L68.3037975,21.164557 L71.1024166,21.164557 C71.6971231,21.164557 72.1518987,21.6135021 72.1518987,22.1265823 L72.1518987,24.0506329 Z" id="Shape" fill="#FFFFFF" fill-rule="nonzero"></path>
                            <path d="M62.5316456,11.5443038 L62.5316456,21.164557 C63.5937959,21.0919513 64.4549989,19.9302603 64.4549989,18.5507523 L64.4549989,14.1581084 C64.4837057,12.7786004 63.6225027,11.6532123 62.5316456,11.5443038 Z" id="Shape" fill="#E0B600" fill-rule="nonzero"></path>
                            <g transform="translate(1.924051, 26.936709)" fill-rule="nonzero" id="Oval">
                                <ellipse fill="#032B54" cx="7.20728368" cy="7.31586694" rx="7.07319468" ry="7.08095378"></ellipse>
                                <ellipse fill="#FFFFFF" cx="7.20728368" cy="7.31586694" rx="3.35222497" ry="3.35590227"></ellipse>
                                <ellipse fill="#032B54" cx="7.20728368" cy="7.31586694" rx="1.44145674" ry="1.44303797"></ellipse>
                            </g>
                            <g transform="translate(50.987342, 26.936709)" fill-rule="nonzero" id="Oval">
                                <ellipse fill="#032B54" cx="7.14023918" cy="7.31586694" rx="7.07319468" ry="7.08095378"></ellipse>
                                <ellipse fill="#FFFFFF" cx="7.14023918" cy="7.31586694" rx="3.35222497" ry="3.35590227"></ellipse>
                                <ellipse fill="#032B54" cx="7.14023918" cy="7.31586694" rx="1.44145674" ry="1.44303797"></ellipse>
                            </g>
                            <path d="M43.9296979,7.69620253 C44.068102,8.09553438 44.1719051,8.49486624 44.2411072,8.92491592 C44.2757082,9.35496561 44.2411072,9.7850153 44.068102,10.215065 C43.8950969,10.6451147 43.5490866,11.0137287 43.0646722,11.2287535 C42.6148589,11.4437784 42.0958435,11.5359319 41.6114291,11.5359319 C39.7083726,11.5666497 37.8053161,11.505214 35.9368606,11.4744962 C32.1653486,11.3823427 28.3592356,11.2287535 24.5877236,11.0444465 L18.9131551,10.7372682 C17.0100986,10.6143968 15.1416431,10.5222433 13.2385866,10.3686542 C9.46707461,10.1229115 5.69556262,9.81573313 1.92405063,9.44711912 C5.73016365,9.44711912 9.50167564,9.53927262 13.2731876,9.66214396 C15.1762441,9.72357963 17.0446996,9.7850153 18.9477561,9.8771688 L24.6223246,10.1229115 C28.3938366,10.3072185 32.1653486,10.5222433 35.9368606,10.767986 C37.8053161,10.8908574 39.7083726,11.0137287 41.5768281,11.1058822 C42.0266414,11.1058822 42.4764548,11.0751644 42.8570661,10.9215752 C43.2376774,10.767986 43.5836876,10.4915255 43.7566928,10.1229115 C43.9642989,9.75429746 44.033501,9.35496561 44.033501,8.92491592 C44.1027031,8.52558407 44.033501,8.12625222 43.9296979,7.69620253 Z" id="Shape" fill="#FFFFFF" fill-rule="nonzero"></path>
                            <path d="M47.3670103,19.2405063 C47.6066895,19.7290348 47.8121289,20.2175633 47.9490885,20.7436709 C48.0860481,21.2697785 48.1545279,21.8334652 48.0518082,22.434731 C47.9833284,22.7353639 47.8806087,22.9984177 47.7094092,23.2238924 C47.5382097,23.4493671 47.2985305,23.6372627 47.0588512,23.75 C46.5794926,24.0130538 46.0316543,24.0506329 45.5180558,24.0506329 C43.5321418,24.0506329 41.5462278,24.0130538 39.5603138,23.9754747 C35.5884857,23.8627373 31.6166577,23.6748418 27.6448296,23.4869462 L21.6870876,23.1111551 C19.7011735,22.9608386 17.7152595,22.8481013 15.7293455,22.6602057 C11.7575175,22.3595728 7.78568941,21.9837816 3.84810127,21.5328323 C7.81992931,21.5328323 11.7917574,21.6455696 15.7635854,21.7958861 C17.7494994,21.8710443 19.7354134,21.9462025 21.7213275,22.0589399 L27.6790695,22.3595728 C31.6508976,22.5850475 35.6227256,22.8481013 39.5945537,23.1111551 C41.5804677,23.2614715 43.5663817,23.411788 45.5522957,23.5245253 C46.0316543,23.5621044 46.5110128,23.5245253 46.9561315,23.3742089 C47.4012502,23.2238924 47.7094092,22.8481013 47.8463688,22.3595728 C47.9833284,21.8710443 47.9490885,21.3073576 47.8463688,20.78125 C47.7436491,20.2551424 47.5724496,19.7290348 47.3670103,19.2405063 Z" id="Shape" fill="#FFFFFF" fill-rule="nonzero"></path>
                        </g>
                    </g>
                    <g id="box" transform="translate(255.898734, 87.544304)" fill-rule="nonzero">
                        <polygon id="Shape" fill="#EFC75E" points="0 16.2438559 33.1898734 0 66.3797468 16.2437262 66.3797468 18.3891852 33.1898734 34.6329114 0 18.4404158"></polygon>
                        <polygon id="Shape" fill="#E7BF55" points="0 16.3544304 33.1898734 32.691729 66.3797468 16.3544304 66.3797468 49.0804229 33.0861147 65.4177215 0 49.0805533"></polygon>
                        <polygon id="Shape" fill="#DBB551" points="33.6708861 65.3664798 33.6708861 32.6232836 0.210391275 16.3544304 0 16.3544304 0 49.0461234 33.5656236 65.4177215"></polygon>
                        <polygon id="Shape" fill="#F7E3AF" points="13.4683544 9.15674199 46.2435254 25.9746835 52.9113924 22.5899592 20.0335988 5.7721519"></polygon>
                        <path d="M46.1772152,26.4375705 L52.9113924,23.0886076 L52.9113924,33.55415 L51.0982941,33.240193 L49.1816841,35.5949367 L46.1772152,35.3856763 C46.1772152,35.3855435 46.1772152,26.4375705 46.1772152,26.4375705 Z" id="Shape" fill="#F1D999"></path>
                        <path d="M26.7118105,44.8893034 L15.565681,39.5489906 C14.9464734,39.2523135 14.4303797,39.5984577 14.4303797,40.3402131 L14.4303797,47.510181 C14.4303797,48.2519365 14.9463424,49.0925006 15.565681,49.3891776 L26.7634329,54.7294905 C27.3826405,55.0261675 27.8987342,54.6800234 27.8987342,53.9382679 L27.8987342,46.7188329 C27.8469807,45.9770775 27.331018,45.186106 26.7118105,44.8893034 Z M24.1832267,50.7736288 L17.0620775,47.3617797 C16.7524737,47.2133784 16.4944924,46.7684256 16.4944924,46.3728143 C16.4944924,45.977203 16.7524737,45.7794601 17.0620775,45.9277359 L24.1832267,49.339585 C24.4928305,49.4879863 24.7508118,49.9329391 24.7508118,50.3285504 C24.7508118,50.7241617 24.4928305,50.9219045 24.1832267,50.7736288 Z M25.215283,48.3011525 L17.0620775,44.3452908 C16.7524737,44.1968895 16.4944924,43.7519366 16.4944924,43.3563254 C16.4944924,42.9607141 16.7524737,42.7629712 17.0620775,42.911247 L25.215283,46.8671087 C25.5248868,47.01551 25.7828681,47.4604628 25.7828681,47.8560741 C25.7829991,48.3011525 25.5248868,48.4494282 25.215283,48.3011525 Z" id="Shape" fill="#F2F2F2"></path>
                    </g>
                    <g id="Oval">
                        <use fill="black" fill-opacity="1" filter="url(#filter-2)" xlink:href="#path-1"></use>
                        <use fill-opacity="0.0148607337" fill="#EFEEF4" fill-rule="evenodd" xlink:href="#path-1"></use>
                    </g>
                </g>
            </g>
        </g>
    </g>
</svg>