<?xml version="1.0" encoding="UTF-8"?>
<svg width="429px" height="414px" viewBox="0 0 429 414" version="1.1" xmlns="http://www.w3.org/2000/svg" xmlns:xlink="http://www.w3.org/1999/xlink">
    <!-- Generator: Sketch 51 (57462) - http://www.bohemiancoding.com/sketch -->
    <title>img4</title>
    <desc>Created with Sketch.</desc>
    <defs>
        <path d="M210.202532,380 C315.136634,380 400.202532,294.934102 400.202532,190 C400.202532,85.0658975 315.136634,0 210.202532,0 C105.268429,0 20.2025316,85.0658975 20.2025316,190 C20.2025316,294.934102 105.268429,380 210.202532,380 Z" id="path-1"></path>
        <filter x="-6.7%" y="-6.7%" width="113.4%" height="113.4%" filterUnits="objectBoundingBox" id="filter-2">
            <feOffset dx="0" dy="0" in="SourceAlpha" result="shadowOffsetOuter1"></feOffset>
            <feGaussianBlur stdDeviation="8.5" in="shadowOffsetOuter1" result="shadowBlurOuter1"></feGaussianBlur>
            <feComposite in="shadowBlurOuter1" in2="SourceAlpha" operator="out" result="shadowBlurOuter1"></feComposite>
            <feColorMatrix values="0 0 0 0 0.591703869   0 0 0 0 0.591703869   0 0 0 0 0.591703869  0 0 0 0.441717618 0" type="matrix" in="shadowBlurOuter1"></feColorMatrix>
        </filter>
    </defs>
    <g id="USER" stroke="none" stroke-width="1" fill="none" fill-rule="evenodd">
        <g id="main_blackU222" transform="translate(-785.000000, -2429.000000)">
            <rect fill="#FFFFFF" x="0" y="0" width="1440" height="4911"></rect>
            <g id="STEPS" transform="translate(-3.000000, 480.000000)">
                <g id="img4" transform="translate(788.000000, 1966.000000)">
                    <g id="delivery" transform="translate(0.000000, 17.316456)">
                        <g id="特快专递送货__送货-送快递-特快专递-物流-物流货车">
                            <g id="Group" transform="translate(0.000000, 177.974684)">
                                <polygon id="Shape" stroke="#979797" stroke-width="8" fill="#757575" fill-rule="nonzero" points="385.068336 0 25.2908945 0 25.2908945 5.71254686 25.2908945 11.4155569 385.068336 11.4155569"></polygon>
                                <path d="M0.962025316,5.71254686 L428.101266,5.71254686" id="Shape" stroke="#FFFFFF" stroke-width="10.9578"></path>
                            </g>
                            <g id="Group" transform="translate(101.974684, 0.000000)">
                                <polyline id="Shape" stroke="#757575" stroke-width="20" points="241.420846 151.02035 96.6163467 151.02035 96.6163467 115.397877 192.782617 115.397877 192.782617 78.8991944 0.0700118454 78.8991944 0.0700118454 46.6808484 70.1818742 46.6808484 70.1818742 0"></polyline>
                                <polyline id="Shape" stroke="#FFFFFF" stroke-width="10.9578" points="241.420846 151.02035 96.6163467 151.02035 96.6163467 115.397877 192.782617 115.397877 192.782617 78.8991944 0.0700118454 78.8991944 0.0700118454 46.6808484 70.1818742 46.6808484 70.1818742 0"></polyline>
                            </g>
                            <g id="Group" transform="translate(111.594937, 93.316456)" fill-rule="nonzero">
                                <path d="M150.717266,21.1689056 L104.231481,21.1689056 L104.231481,78.4796002 L162.575579,78.4796002 L173.695865,78.4796002 L186.551513,78.4796002 L186.551513,50.3715514 C186.551513,47.3488567 184.098069,44.8985659 181.056197,44.8985659 L173.456504,44.8985659 L150.717266,21.1689056 Z" id="Shape" fill="#FFE500"></path>
                                <rect id="Rectangle-path" fill="#FFCF00" x="3.37099232" y="0" width="132.964703" height="78.4796002"></rect>
                                <rect id="Rectangle-path" fill="#4B4A4B" x="0.0698134504" y="70.4559021" width="189.972372" height="8.02369808"></rect>
                                <ellipse id="Oval" fill="#4B4A4B" cx="30.4985045" cy="78.4896423" rx="12.5763944" ry="12.542677"></ellipse>
                                <g transform="translate(147.406114, 63.366126)">
                                    <path d="M30.2391974,15.123516 L0.0398934002,15.123516 C0.0398934002,12.8238579 0.558507603,10.6346637 1.49600251,8.67643948 C3.91952657,3.58505659 9.1256153,0.0602530519 15.1395454,0.0602530519 C21.1534755,0.0602530519 26.3595642,3.58505659 28.7830883,8.67643948 C29.7205832,10.6346637 30.2391974,12.8138157 30.2391974,15.123516 Z" id="Shape" fill="#F9DE9D"></path>
                                    <ellipse id="Oval" fill="#4B4A4B" cx="15.1495187" cy="15.123516" rx="12.5763944" ry="12.542677"></ellipse>
                                    <path d="M15.1495187,21.0885682 C11.8483399,21.0885682 9.1655087,18.4073074 9.1655087,15.1134739 C9.1655087,11.8196404 11.8483399,9.13837954 15.1495187,9.13837954 C18.4506976,9.13837954 21.1335288,11.8196404 21.1335288,15.1134739 C21.1335288,18.4073074 18.4506976,21.0885682 15.1495187,21.0885682 Z" id="Shape" fill="#DEDEDE"></path>
                                </g>
                                <polygon id="Shape" fill="#B0DCDE" points="170.105459 45.1697046 148.273795 45.1697046 148.273795 24.7338778 150.797053 24.7338778"></polygon>
                                <rect id="Rectangle-path" fill="#B0DCDE" x="138.739273" y="24.7338778" width="7.34038564" height="20.445869"></rect>
                                <rect id="Rectangle-path" fill="#FFE500" x="3.37099232" y="0" width="132.964703" height="15.3444439"></rect>
                                <rect id="Rectangle-path" fill="#FFE500" x="3.37099232" y="56.6880797" width="131.997288" height="13.7678224"></rect>
                                <g transform="translate(15.358959, 63.366126)">
                                    <path d="M30.2391974,15.123516 L0.0398934002,15.123516 C0.0398934002,12.8238579 0.558507603,10.6346637 1.49600251,8.67643948 C3.91952657,3.58505659 9.1256153,0.0602530519 15.1395454,0.0602530519 C21.1534755,0.0602530519 26.3595642,3.58505659 28.7830883,8.67643948 C29.7205832,10.6346637 30.2391974,12.8138157 30.2391974,15.123516 Z" id="Shape" fill="#F9DE9D"></path>
                                    <ellipse id="Oval" fill="#4B4A4B" cx="15.1395454" cy="15.123516" rx="12.5763944" ry="12.542677"></ellipse>
                                    <path d="M15.1395454,21.0885682 C11.8383665,21.0885682 9.15553535,18.4073074 9.15553535,15.1134739 C9.15553535,11.8196404 11.8383665,9.13837954 15.1395454,9.13837954 C18.4407242,9.13837954 21.1235554,11.8196404 21.1235554,15.1134739 C21.1235554,18.4073074 18.4407242,21.0885682 15.1395454,21.0885682 Z" id="Shape" fill="#DEDEDE"></path>
                                </g>
                            </g>
                            <g id="Group" transform="translate(105.822785, 229.924051)" fill-rule="nonzero">
                                <g>
                                    <path d="M15.2655241,7.66991188 C15.2655241,8.45399199 15.1461067,9.20791518 14.9271748,9.92162913 C14.7082429,10.6353431 14.379845,11.2987955 13.981787,11.901934 L7.66261639,22.3864925 L1.35339718,11.8918817 C0.537378292,10.6856046 0.069660149,9.22801979 0.069660149,7.65985957 C0.069660149,3.46804665 3.48300745,0.0603138549 7.67256784,0.0603138549 C11.8521768,0.070366164 15.2655241,3.47809896 15.2655241,7.66991188 Z" id="Shape" fill="#FFCF00"></path>
                                    <ellipse id="Oval" fill="#FFFFFF" cx="7.66261639" cy="7.66991188" rx="3.98057994" ry="3.98071442"></ellipse>
                                    <path d="M7.66261639,0.070366164 L7.66261639,22.3864925 L1.35339718,11.8918817 C0.537378292,10.6856046 0.069660149,9.22801979 0.069660149,7.65985957 C0.069660149,3.47809896 3.473056,0.070366164 7.66261639,0.070366164 Z" id="Shape" fill="#FFCF00"></path>
                                </g>
                                <ellipse id="Oval" fill="#DEDEDE" cx="7.66261639" cy="22.3864925" rx="6.61771415" ry="2.06072337"></ellipse>
                            </g>
                            <g id="Group" transform="translate(201.063291, 25.012658)" fill-rule="nonzero">
                                <ellipse id="Oval" fill="#DEDEDE" cx="12.1859968" cy="32.4478557" rx="12.1358899" ry="3.68658245"></ellipse>
                                <g transform="translate(1.102352, 0.000000)">
                                    <path d="M23.2195351,11.3364881 C23.2195351,12.5027528 23.0391502,13.6294831 22.6984233,14.6870282 C22.3677178,15.7445733 21.8666489,16.7329332 21.2553448,17.6323407 L11.634821,33.2484272 L2.01429717,17.6323407 C0.77164618,15.8335257 0.0501068948,13.6690175 0.0501068948,11.3364881 C0.0501068948,5.09993712 5.25120258,0.0197671981 11.634821,0.0197671981 C18.0284608,0.0197671981 23.2195351,5.09993712 23.2195351,11.3364881 Z" id="Shape" fill="#FFCF00"></path>
                                    <ellipse id="Oval" fill="#FFFFFF" cx="11.634821" cy="11.3364881" rx="6.07295565" ry="5.93015944"></ellipse>
                                    <path d="M11.634821,0.0197671981 L11.634821,33.2484272 L2.01429717,17.6323407 C0.77164618,15.8335257 0.0501068948,13.6690175 0.0501068948,11.3364881 C0.0501068948,5.09993712 5.2411812,0.0197671981 11.634821,0.0197671981 Z" id="Shape" fill="#FFCF00"></path>
                                </g>
                            </g>
                            <g id="Group" transform="translate(242.430380, 25.974684)" fill-rule="nonzero">
                                <ellipse id="Oval" fill="#DEDEDE" cx="6.22062021" cy="16.8900125" rx="6.18342666" ry="2.02246061"></ellipse>
                                <g transform="translate(0.743871, 0.000000)">
                                    <path d="M10.9349019,5.78127764 C10.9349019,6.37321733 10.8512164,6.94542569 10.6931439,7.47817141 C10.5350713,8.01091713 10.3026116,8.51406587 10.0143617,8.97775196 L5.47674933,16.8998781 L0.939136982,8.97775196 C0.353338666,8.06024544 0.00929838596,6.96515701 0.00929838596,5.78127764 C0.00929838596,2.6144003 2.45477389,0.039462646 5.46745094,0.039462646 C8.48012799,0.039462646 10.9349019,2.62426596 10.9349019,5.78127764 Z" id="Shape" fill="#0F7EDF"></path>
                                    <ellipse id="Oval" fill="#FFFFFF" cx="5.47674933" cy="5.78127764" rx="2.86390288" ry="3.00902676"></ellipse>
                                    <path d="M5.47674933,0.0493283075 L5.47674933,16.8998781 L0.939136982,8.97775196 C0.353338666,8.06024544 0.00929838596,6.96515701 0.00929838596,5.78127764 C0.0185967719,2.62426596 2.46407228,0.0493283075 5.47674933,0.0493283075 Z" id="Shape" fill="#0F7EDF"></path>
                                </g>
                            </g>
                            <g id="Group" transform="translate(315.544304, 122.177215)" fill-rule="nonzero">
                                <ellipse id="Oval" fill="#DEDEDE" cx="6.18342666" cy="16.8604155" rx="6.18342666" ry="2.02246061"></ellipse>
                                <g transform="translate(0.650887, 0.000000)">
                                    <path d="M10.9906922,5.74181499 C10.9906922,6.33375468 10.9070067,6.90596305 10.7489342,7.43870877 C10.5908616,7.97145449 10.358402,8.47460322 10.070152,8.93828931 L5.53253965,16.8604155 L0.994927298,8.93828931 C0.409128982,8.02078279 0.0650887017,6.92569437 0.0650887017,5.74181499 C0.0650887017,2.57493765 2.51056421,0 5.52324126,0 C8.53591831,0.00986566149 10.9906922,2.58480331 10.9906922,5.74181499 Z" id="Shape" fill="#0F7EDF"></path>
                                    <ellipse id="Oval" fill="#FFFFFF" cx="5.53253965" cy="5.74181499" rx="2.86390288" ry="3.00902676"></ellipse>
                                    <path d="M5.53253965,0.00986566149 L5.53253965,16.8604155 L0.994927298,8.93828931 C0.409128982,8.02078279 0.0650887017,6.92569437 0.0650887017,5.74181499 C0.0650887017,2.58480331 2.51986259,0.00986566149 5.53253965,0.00986566149 Z" id="Shape" fill="#0F7EDF"></path>
                                </g>
                            </g>
                            <g id="Group" transform="translate(151.037975, 82.734177)" fill-rule="nonzero">
                                <polygon id="Shape" fill="#3C4147" points="61.7549364 279.949367 52.4333102 279.879522 51.8611745 156.211664 48.9865412 156.141819 44.5368602 279.949367 35.1649511 279.879522 25.375476 138.848154 25.0126582 133.721519 73.1139241 134.028838 73.086015 139.169442"></polygon>
                                <path d="M35.0543466,29.8227848 C35.0543466,29.8227848 32.3459337,30.0020864 32.7499511,31.284782 C33.1539685,32.5674776 35.3236915,37.5327511 36.4309985,37.5189587 C37.5383054,37.5051662 38.4810127,36.8293374 38.4810127,36.8293374 L35.0543466,29.8227848 Z" id="Shape" fill="#F1C5B3"></path>
                                <path d="M65.0464051,30.7848101 C65.0464051,30.7848101 67.7242691,30.9920656 67.2952191,32.2770497 C66.866169,33.5620337 64.6617395,38.5085314 63.581717,38.4808973 C62.4868996,38.4532633 61.5696203,37.7624116 61.5696203,37.7624116 L65.0464051,30.7848101 Z" id="Shape" fill="#F1C5B3"></path>
                                <polygon id="Shape" fill="#DEB6A7" points="54.7417827 56.7594937 45.2151899 56.7042743 45.3088502 41.3670886 54.835443 41.4361128"></polygon>
                                <path d="M65.4168499,25.6197564 C65.3748678,32.410686 61.1626652,42.4933493 59.9451847,44.0285696 C57.3982716,47.2373184 53.9277525,49.0906475 50.3452812,49.0629858 C46.8607681,49.0353242 43.4182371,47.2788109 41.0252583,44.0838929 C39.1780465,41.6358388 35.5395991,32.2032238 35.5955752,25.426125 C35.6935334,11.5953112 41.7669418,5.71721531 50.6391558,5.77253857 C59.5113699,5.82786183 65.500814,12.1208821 65.4168499,25.6197564 Z" id="Shape" fill="#F1C5B3"></path>
                                <path d="M49.0632911,6.63327535 C49.0632911,6.63327535 40.1202712,3.57307125 35.7192898,8.99045959 C31.3183083,14.4078479 31.7555853,27.6963018 36.9464865,35.5949367 L37.4825035,35.5949367 C37.4825035,35.5949367 34.7036787,21.4242619 39.8945798,19.3565564 C45.085481,17.2750662 47.5962973,18.074579 47.5962973,18.074579 L49.0632911,6.63327535 Z" id="Shape" fill="#3C4147"></path>
                                <path d="M51.9493671,6.5616267 C51.9493671,6.5616267 61.02561,3.62119681 65.4067524,9.08984678 C69.7878948,14.5447564 69.1599786,27.7766909 63.7941495,35.5949367 L63.2518583,35.5949367 C63.2518583,35.5949367 66.2630017,21.511102 61.0398808,19.367611 C55.8310307,17.2241201 53.2622827,17.9935784 53.2622827,17.9935784 L51.9493671,6.5616267 Z" id="Shape" fill="#3C4147"></path>
                                <path d="M75.9180698,59.9348159 L71.73701,58.4937549 L71.7510404,58.4657732 L70.0814226,57.8921469 L64.6937482,56.0593412 L64.6797178,56.087323 L61.3685429,54.9680523 L55.5178653,52.9813468 L50.5230421,52.9533651 L45.528219,52.9113924 L40.7298215,54.4783714 L40.0984534,54.6882346 L36.4505489,55.8914506 L31.0488441,57.640311 L29.3511655,58.1859555 L25.0578624,59.5850438 C19.3053976,61.4598222 17.818175,69.0148993 18.3934215,74.9610248 L24.903528,141.095931 L49.9337652,141.263822 L73.2803542,141.417722 L82.5965412,73.7298271 C83.2559701,67.8116833 81.6284434,61.8795487 75.9180698,59.9348159 Z" id="Shape" fill="#0F7EDF"></path>
                                <path d="M60.6075949,55.1175918 C59.6443005,59.8903252 55.2885341,63.4936709 50.053238,63.4936709 C44.7202164,63.4936709 40.2946461,59.7543499 39.443038,54.8320437 L40.0712735,54.6280807 L44.8458635,53.1051572 L49.8438262,51.9493671 L54.7859457,53.1731449 L60.6075949,55.1175918 Z" id="Shape" fill="#DEB6A7"></path>
                                <rect id="Rectangle-path" fill="#C5AA7E" x="19.2405063" y="94.278481" width="61.5696203" height="50.0253165"></rect>
                                <path d="M11.9511001,81.7721519 C11.9511001,81.7721519 0.0562839722,103.642496 0.000242435526,109.554915 C-0.0698094853,115.943689 15.0614054,142.689677 19.2645207,145.365677 C22.486909,147.425216 33.8213098,148.181781 34.6058913,145.267604 C35.2783898,142.759729 23.1734179,141.863059 23.2855009,139.285133 C23.3555529,137.337677 29.5341323,140.39196 30.2766826,138.59862 C30.6409526,137.729971 24.0840928,135.306159 22.1366494,135.306159 C21.1699329,135.306159 19.5727491,134.955897 18.7881676,133.905112 C14.3048447,127.88061 10.3679267,110.325491 11.3486536,108.700276 C13.5062528,105.099585 21.3660783,94.9139731 21.3660783,94.9139731 L10.6901656,88.0348322" id="Shape" fill="#F1C5B3"></path>
                                <polygon id="Shape" fill="#0A6ABD" points="23.0886076 91.2153319 20.161302 101.012658 6.73417722 90.3731549 19.5840868 63.4936709"></polygon>
                                <path d="M88.0995328,81.7721519 C88.0995328,81.7721519 99.9943489,103.642496 100.05039,109.554915 C100.120442,115.943689 84.9892275,142.689677 80.7861122,145.365677 C77.5637239,147.425216 66.2293231,148.181781 65.4447416,145.267604 C64.7722431,142.759729 76.8772151,141.863059 76.765132,139.285133 C76.6950801,137.337677 70.5165006,140.39196 69.7739503,138.59862 C69.4096803,137.729971 75.9665401,135.306159 77.9139835,135.306159 C78.8807,135.306159 80.4778838,134.955897 81.2764757,133.905112 C85.7597986,127.88061 89.6967166,110.325491 88.7159897,108.700276 C86.5583905,105.099585 78.698565,94.9139731 78.698565,94.9139731 L89.3744777,88.0348322" id="Shape" fill="#F1C5B3"></path>
                                <polygon id="Shape" fill="#0A6ABD" points="76.9620253 91.2153319 79.8893309 101.012658 93.3164557 90.3731549 80.4802893 63.4936709"></polygon>
                                <rect id="Rectangle-path" fill="#FFFFFF" x="56.7594937" y="99.0886076" width="19.2405063" height="10.5822785"></rect>
                                <rect id="Rectangle-path" fill="#646363" x="58.6835443" y="101.012658" width="1" height="6.73417722"></rect>
                                <rect id="Rectangle-path" fill="#646363" x="59.6455696" y="101.012658" width="1" height="6.73417722"></rect>
                                <rect id="Rectangle-path" fill="#646363" x="59.6455696" y="101.012658" width="1" height="6.73417722"></rect>
                                <rect id="Rectangle-path" fill="#646363" x="64.4556962" y="101.012658" width="1" height="6.73417722"></rect>
                                <rect id="Rectangle-path" fill="#646363" x="73.1139241" y="101.012658" width="1" height="6.73417722"></rect>
                                <rect id="Rectangle-path" fill="#646363" x="68.3037975" y="101.012658" width="1" height="6.73417722"></rect>
                                <rect id="Rectangle-path" fill="#646363" x="69.2658228" y="101.012658" width="1" height="6.73417722"></rect>
                                <rect id="Rectangle-path" fill="#646363" x="70.2278481" y="101.012658" width="1" height="6.73417722"></rect>
                                <rect id="Rectangle-path" fill="#646363" x="61.5696203" y="101.012658" width="1" height="6.73417722"></rect>
                                <rect id="Rectangle-path" fill="#646363" x="58.6835443" y="101.012658" width="1" height="6.73417722"></rect>
                                <rect id="Rectangle-path" fill="#646363" x="67.3417722" y="101.012658" width="1" height="6.73417722"></rect>
                                <rect id="Rectangle-path" fill="#646363" x="62.5316456" y="101.012658" width="1" height="6.73417722"></rect>
                                <rect id="Rectangle-path" fill="#646363" x="65.4177215" y="101.012658" width="1.92405063" height="6.73417722"></rect>
                                <rect id="Rectangle-path" fill="#646363" x="71.1898734" y="101.012658" width="1.92405063" height="6.73417722"></rect>
                                <rect id="Rectangle-path" fill="#646363" x="67.3417722" y="101.012658" width="1" height="6.73417722"></rect>
                                <g transform="translate(32.708861, 0.000000)" id="Shape">
                                    <path d="M35.774164,17.3624754 C35.774164,20.2171476 27.7867176,22.5201924 17.9505865,22.5201924 C8.10034326,22.5201924 0.127008866,20.2033569 0.127008866,17.3624754 C0.127008866,7.83311041 8.11445536,0.110325499 17.9505865,0.110325499 C27.8008297,0.124116186 35.774164,7.84690109 35.774164,17.3624754 Z" fill="#0F7EDF"></path>
                                    <path d="M35.774164,17.3624754 L30.4256796,33.3045099 L30.3127828,33.3045099 C27.2786821,30.5187911 22.5087936,28.7397924 17.146197,28.7397924 C11.8964972,28.7397924 7.22539329,30.4498376 4.1771805,33.1390217 L4.1630684,33.1390217 L0.127008866,17.8589401 L35.774164,17.3624754 Z" fill="#3E97E5"></path>
                                    <path d="M35.774164,17.3624754 C35.774164,20.2171476 27.7867176,22.5201924 17.9505865,22.5201924 C8.10034326,22.5201924 0.127008866,20.2033569 0.127008866,17.3624754 C0.127008866,14.5215938 8.11445536,12.2047583 17.9505865,12.2047583 C27.8008297,12.218549 35.774164,14.5215938 35.774164,17.3624754 Z" fill="#0F7EDF"></path>
                                </g>
                            </g>
                        </g>
                    </g>
                    <g id="Oval">
                        <use fill="black" fill-opacity="1" filter="url(#filter-2)" xlink:href="#path-1"></use>
                        <use fill-opacity="0.0148607337" fill="#EFEEF4" fill-rule="evenodd" xlink:href="#path-1"></use>
                    </g>
                </g>
            </g>
        </g>
    </g>
</svg>