<?xml version="1.0" encoding="UTF-8"?>
<svg width="16px" height="11px" viewBox="0 0 16 11" version="1.1" xmlns="http://www.w3.org/2000/svg" xmlns:xlink="http://www.w3.org/1999/xlink">
    <!-- Generator: Sketch 51 (57462) - http://www.bohemiancoding.com/sketch -->
    <title>message</title>
    <desc>Created with Sketch.</desc>
    <defs></defs>
    <g id="USER" stroke="none" stroke-width="1" fill="none" fill-rule="evenodd">
        <g id="main_blackU222" transform="translate(-652.000000, -4625.000000)" fill="#FFFFFF">
            <rect x="0" y="0" width="1440" height="4911"></rect>
            <g id="message" transform="translate(652.000000, 4625.000000)" fill-rule="nonzero">
                <path d="M15.340811,0 L0.659188956,0 C0.295125108,0 0,0.315438464 0,0.704560698 L0,10.2954393 C0,10.6845615 0.295125108,11 0.659188956,11 L15.340811,11 C15.7048749,11 16,10.6845615 16,10.2954393 L16,0.704560698 C16,0.315438464 15.7048749,0 15.340811,0 Z M0.659188956,0.55331992 L15.340811,0.55331992 C15.402761,0.553642689 15.4572908,0.596986083 15.4754098,0.660295104 L8,5.65124078 L0.524590164,0.660295104 C0.542709232,0.596986083 0.597238999,0.553642689 0.659188956,0.55331992 Z M0.517687662,1.29107981 L5.89473684,4.88028169 L0.517687662,9.43963783 L0.517687662,1.29107981 Z M15.4823123,10.2917505 C15.4823123,10.3753018 15.4189387,10.4429913 15.340811,10.4429913 L0.659188956,10.4429913 C0.58106126,10.4429913 0.517687662,10.3752557 0.517687662,10.2917505 L0.517687662,10.1441985 L6.36065574,5.20858484 L7.86194996,6.2119383 C7.94628991,6.26879192 8.05371009,6.26879192 8.13805004,6.2119383 L9.63934426,5.20858484 L15.4823123,10.1441985 L15.4823123,10.2917505 Z M15.4823123,9.43963783 L10.0914582,4.89503689 L15.4823123,1.32427901 L15.4823123,9.43963783 Z" id="Shape"></path>
            </g>
        </g>
    </g>
</svg>