<?xml version="1.0" encoding="UTF-8"?>
<svg width="189px" height="53px" viewBox="0 0 189 53" version="1.1" xmlns="http://www.w3.org/2000/svg" xmlns:xlink="http://www.w3.org/1999/xlink">
    <!-- Generator: Sketch 51 (57462) - http://www.bohemiancoding.com/sketch -->
    <title>MOBILE</title>
    <desc>Created with Sketch.</desc>
    <defs>
    </defs>
    <g id="Page-1" stroke="none" stroke-width="1" fill="none" fill-rule="evenodd">
        <g id="MOBILE">
            <g id="BTN2">
                <rect id="Rectangle" stroke="#BBBBBB" stroke-width="1.5" fill="#171717" fill-rule="nonzero" x="0.75" y="0.75" width="187.5" height="51.5" rx="4"></rect>
                <g id="Group-4" transform="translate(59.000000, 25.000000)" fill="#FFFFFF" fill-rule="nonzero">
                    <path d="M14,17 L11.1481481,17 L9.59259259,11.9922481 L4.14814815,11.9922481 L2.72222222,17 L0,17 L5.44444444,0 L8.81481481,0 L14,17 Z M9.07407407,9.88372093 L7.64814815,5.40310078 C7.51851852,5.00775194 7.25925926,3.82170543 6.74074074,2.24031008 C6.61111111,2.89922481 6.35185185,4.08527132 5.96296296,5.40310078 L4.53703704,9.88372093 L9.07407407,9.88372093 Z" id="Shape"></path>
                    <path d="M29,11.0075188 C29,13.0526316 28.4666667,14.5864662 27.2666667,15.8646617 C26.2,16.887218 25,17.3984962 23.4,17.3984962 C21.8,17.3984962 20.6,16.887218 19.9333333,15.7368421 L19.9333333,22 L17.1333333,22 L17.1333333,9.21804511 C17.1333333,7.93984962 17.1333333,6.66165414 17,5.2556391 L19.4,5.2556391 L19.5333333,7.17293233 C20.4666667,5.76691729 21.8,5 23.6666667,5 C25.1333333,5 26.3333333,5.5112782 27.2666667,6.66165414 C28.4666667,7.68421053 29,9.09022556 29,11.0075188 Z M26.2,11.0075188 C26.2,9.85714286 25.9333333,8.83458647 25.4,8.19548872 C24.8666667,7.42857143 24.0666667,7.04511278 23,7.04511278 C22.3333333,7.04511278 21.6666667,7.30075188 21.1333333,7.68421053 C20.6,8.06766917 20.2,8.70676692 20.0666667,9.34586466 C19.9333333,9.72932331 19.9333333,9.98496241 19.9333333,10.112782 L19.9333333,12.1578947 C19.9333333,13.0526316 20.2,13.6917293 20.7333333,14.3308271 C21.2666667,14.9699248 22.0666667,15.2255639 22.8666667,15.2255639 C23.9333333,15.2255639 24.7333333,14.8421053 25.2666667,14.075188 C25.9333333,13.3082707 26.2,12.2857143 26.2,11.0075188 Z" id="Shape"></path>
                    <path d="M43,11.0075188 C43,13.0526316 42.4666667,14.5864662 41.2666667,15.8646617 C40.2,16.887218 39,17.3984962 37.4,17.3984962 C35.8,17.3984962 34.6,16.887218 33.9333333,15.7368421 L33.9333333,22 L31.1333333,22 L31.1333333,9.21804511 C31.1333333,7.93984962 31.1333333,6.66165414 31,5.2556391 L33.4,5.2556391 L33.5333333,7.17293233 C34.4666667,5.76691729 35.8,5 37.6666667,5 C39.1333333,5 40.3333333,5.5112782 41.2666667,6.66165414 C42.4666667,7.68421053 43,9.09022556 43,11.0075188 Z M40.2,11.0075188 C40.2,9.85714286 39.9333333,8.83458647 39.4,8.19548872 C38.8666667,7.42857143 38.0666667,7.04511278 37,7.04511278 C36.3333333,7.04511278 35.6666667,7.30075188 35.1333333,7.68421053 C34.6,8.06766917 34.2,8.70676692 34.0666667,9.34586466 C33.9333333,9.72932331 33.9333333,9.98496241 33.9333333,10.112782 L33.9333333,12.1578947 C33.9333333,13.0526316 34.2,13.6917293 34.7333333,14.3308271 C35.2666667,14.9699248 36.0666667,15.2255639 36.8666667,15.2255639 C37.9333333,15.2255639 38.7333333,14.8421053 39.2666667,14.075188 C39.9333333,13.3082707 40.2,12.2857143 40.2,11.0075188 Z" id="Shape"></path>
                    <path d="M58,12.1060606 C58,13.5227273 57.4936709,14.6818182 56.6075949,15.5833333 C55.5949367,16.6136364 54.0759494,17 52.1772152,17 C50.4050633,17 49.0126582,16.6136364 48,15.969697 L48.6329114,13.780303 C49.7721519,14.4242424 51.0379747,14.8106061 52.4303797,14.8106061 C53.443038,14.8106061 54.2025316,14.5530303 54.7088608,14.1666667 C55.2151899,13.6515152 55.4683544,13.1363636 55.4683544,12.3636364 C55.4683544,11.719697 55.2151899,11.0757576 54.835443,10.6893939 C54.3291139,10.1742424 53.5696203,9.78787879 52.556962,9.40151515 C49.6455696,8.37121212 48.2531646,6.6969697 48.2531646,4.63636364 C48.2531646,3.21969697 48.7594937,2.18939394 49.7721519,1.28787879 C50.7848101,0.386363636 52.0506329,0 53.8227848,0 C55.3417722,0 56.4810127,0.257575758 57.4936709,0.772727273 L56.8607595,2.96212121 C55.9746835,2.4469697 54.9620253,2.18939394 53.6962025,2.18939394 C52.8101266,2.18939394 52.0506329,2.4469697 51.5443038,2.83333333 C51.164557,3.21969697 50.9113924,3.73484848 50.9113924,4.37878788 C50.9113924,5.02272727 51.164557,5.53787879 51.6708861,6.0530303 C52.0506329,6.43939394 52.9367089,6.82575758 54.0759494,7.34090909 C55.4683544,7.85606061 56.4810127,8.62878788 57.2405063,9.40151515 C57.6202532,10.0454545 58,10.9469697 58,12.1060606 Z" id="Shape"></path>
                    <path d="M68,6.95762712 L65.1754386,6.95762712 L65.1754386,12.6779661 C65.1754386,14.0762712 65.6666667,14.8389831 66.6491228,14.8389831 C67.1403509,14.8389831 67.5087719,14.8389831 67.754386,14.7118644 L67.877193,16.7457627 C67.3859649,17 66.7719298,17 65.9122807,17 C64.9298246,17 64.0701754,16.7457627 63.5789474,16.1101695 C62.9649123,15.4745763 62.7192982,14.4576271 62.7192982,12.9322034 L62.7192982,6.95762712 L61,6.95762712 L61,4.92372881 L62.7192982,4.92372881 L62.7192982,2.76271186 L65.1754386,2 L65.1754386,4.92372881 L68,4.92372881 L68,6.95762712 Z" id="Shape"></path>
                    <path d="M82,11.4329897 C82,13.3092784 81.4725275,14.9175258 80.4175824,16.1237113 C79.2307692,17.3298969 77.7802198,18 75.9340659,18 C74.0879121,18 72.6373626,17.3298969 71.5824176,16.1237113 C70.5274725,14.9175258 70,13.443299 70,11.5670103 C70,9.69072165 70.5274725,8.08247423 71.7142857,6.87628866 C72.7692308,5.67010309 74.3516484,5 76.1978022,5 C78.043956,5 79.4945055,5.67010309 80.5494505,6.87628866 C81.4725275,8.08247423 82,9.55670103 82,11.4329897 Z M79.0989011,11.5670103 C79.0989011,10.3608247 78.8351648,9.42268041 78.3076923,8.6185567 C77.7802198,7.68041237 76.8571429,7.1443299 75.8021978,7.1443299 C74.7472527,7.1443299 73.8241758,7.68041237 73.2967033,8.6185567 C72.7692308,9.42268041 72.5054945,10.4948454 72.5054945,11.5670103 C72.5054945,12.7731959 72.7692308,13.7113402 73.2967033,14.5154639 C73.8241758,15.4536082 74.7472527,15.9896907 75.8021978,15.9896907 C76.8571429,15.9896907 77.6483516,15.4536082 78.3076923,14.5154639 C78.8351648,13.7113402 79.0989011,12.6391753 79.0989011,11.5670103 Z" id="Shape"></path>
                    <path d="M91,7.65263158 C90.7254902,7.65263158 90.4509804,7.52631579 90.0392157,7.52631579 C89.0784314,7.52631579 88.254902,7.90526316 87.7058824,8.53684211 C87.2941176,9.16842105 87.0196078,9.92631579 87.0196078,10.8105263 L87.0196078,17 L84.1372549,17 L84.1372549,8.91578947 C84.1372549,7.52631579 84.1372549,6.38947368 84,5.25263158 L86.4705882,5.25263158 L86.6078431,7.52631579 L86.745098,7.52631579 C87.0196078,6.76842105 87.5686275,6.13684211 88.1176471,5.63157895 C88.8039216,5.25263158 89.4901961,5 90.1764706,5 C90.4509804,5 90.7254902,5 90.8627451,5 L90.8627451,7.65263158 L91,7.65263158 Z" id="Shape"></path>
                    <path d="M102,10.8969072 C102,11.4329897 102,11.8350515 101.86747,12.1030928 L93.6506024,12.1030928 C93.6506024,13.3092784 94.0481928,14.2474227 94.8433735,14.9175258 C95.5060241,15.4536082 96.4337349,15.8556701 97.4939759,15.8556701 C98.686747,15.8556701 99.8795181,15.7216495 100.807229,15.3195876 L101.204819,17.1958763 C100.012048,17.7319588 98.686747,18 97.0963855,18 C95.2409639,18 93.6506024,17.4639175 92.5903614,16.257732 C91.5301205,15.185567 91,13.5773196 91,11.7010309 C91,9.82474227 91.5301205,8.21649485 92.4578313,7.01030928 C93.5180723,5.67010309 94.9759036,5 96.8313253,5 C98.5542169,5 100.012048,5.67010309 100.807229,7.01030928 C101.73494,8.08247423 102,9.42268041 102,10.8969072 Z M99.4819277,10.2268041 C99.4819277,9.42268041 99.3493976,8.75257732 98.9518072,8.08247423 C98.4216867,7.27835052 97.7590361,6.87628866 96.8313253,6.87628866 C95.9036145,6.87628866 95.2409639,7.27835052 94.7108434,7.94845361 C94.313253,8.48453608 94.0481928,9.28865979 93.9156627,10.0927835 L99.4819277,10.0927835 L99.4819277,10.2268041 Z" id="Shape"></path>
                </g>
                <g id="Descarga-en" transform="translate(59.000000, 9.000000)" fill="#FFFFFF" font-family="MyriadPro-Regular, Myriad Pro" font-size="10" font-weight="normal">
                    <text id="DESCARGA-EN" >
                        <tspan x="0" y="8">DESCARGA EN</tspan>
                    </text>
                </g>
                <path d="M40.3856665,27.2770983 C40.3422801,23.1591758 43.9371686,21.1842675 44.0977519,21.0861476 C42.0778686,18.2911604 38.9313505,17.9082706 37.8100886,17.8640055 C35.1322909,17.6076237 32.5850552,19.3547924 31.2260415,19.3547924 C29.870453,19.3547924 27.773334,17.9019198 25.5525034,17.9400881 C22.6337972,17.9811143 19.9425672,19.5448719 18.4396934,22.0166669 C15.4072156,26.9925189 17.6631046,34.3638929 20.6187496,38.3993819 C22.0629913,40.3747349 23.7851475,42.5933235 26.046275,42.5140655 C28.2237192,42.4318861 29.0471197,41.1817311 31.6796505,41.1817311 C34.3121142,41.1817311 35.0521672,42.5140655 37.3564124,42.4731663 C39.6995442,42.4320131 41.1840157,40.4600261 42.6183175,38.4786399 C44.2768046,36.1870171 44.9597031,33.968365 45,33.8544952 C44.9479498,33.8320133 40.4309334,32.1957296 40.3856665,27.2770983 Z M36.0558964,15.1924779 C37.2560059,13.8156879 38.0660413,11.9055576 37.8450798,10 C36.1164089,10.0665564 34.0210361,11.0888447 32.780764,12.4625228 C31.6678973,13.6811144 30.6937191,15.626047 30.954776,17.4934998 C32.8845957,17.6358848 34.8545108,16.566156 36.0558964,15.1924779 Z" id="Shape" fill="#FFFFFF" fill-rule="nonzero"></path>
            </g>
        </g>
    </g>
</svg>