<?xml version="1.0" encoding="UTF-8"?>
<svg width="189px" height="53px" viewBox="0 0 189 53" version="1.1" xmlns="http://www.w3.org/2000/svg" xmlns:xlink="http://www.w3.org/1999/xlink">
    <!-- Generator: Sketch 51 (57462) - http://www.bohemiancoding.com/sketch -->
    <title>MOBILE</title>
    <desc>Created with Sketch.</desc>
    <defs>
        <style type="text/css">
            @font-face {
                font-family: Delicious;
                src: url('./../../fonts/Quicksand-Regular.otf');
            }
        </style>
    </defs>
    <g id="Page-1" stroke="none" stroke-width="1" fill="none" fill-rule="evenodd">
        <g id="MOBILE">
            <g id="BTN1">
                <rect id="Rectangle" stroke="#BBBBBB" stroke-width="1.5" fill="#171717" fill-rule="nonzero" x="0.75" y="0.75" width="187.5" height="51.5" rx="4"></rect>
                <g id="Descarga-en" transform="translate(60.000000, 8.000000)" fill="#FFFFFF" font-family="MyriadPro-Regular, Myriad Pro" font-size="10" font-weight="normal">
                    <text id="DESCARGA-EN">
                        <tspan x="0" y="8">DESCARGA EN</tspan>
                    </text>
                </g>
                <path d="M103.402093,45.5390476 C102.721617,44.9946666 102.177236,44.0419999 101.905046,43.4976189 L104.082569,42.5449522 C104.218665,42.8171427 104.490855,43.2254285 104.763046,43.6337142 C105.307427,44.1780952 106.123998,44.7224761 106.94057,44.7224761 C107.757141,44.7224761 108.709808,44.3141904 109.254189,43.6337142 C109.662474,42.953238 109.934665,42.2727618 109.934665,41.3200951 L109.934665,40.5035236 C108.301522,42.5449522 104.899141,42.2727618 102.993808,40.0952379 C100.952379,37.917714 100.952379,34.2431425 102.993808,32.0656186 C105.035236,30.02419 108.029331,29.7519995 109.79857,31.6573329 C109.79857,31.6573329 109.79857,31.6573329 109.79857,31.6573329 L109.79857,30.7046662 L112.112189,30.7046662 L112.112189,40.9118093 C112.112189,43.4976189 111.159522,44.9946666 109.934665,45.9473333 C109.118093,46.6278095 107.893236,46.9 106.804474,46.9 C105.579617,46.7639048 104.35476,46.355619 103.402093,45.5390476 Z M160.426,46.0834285 L162.739619,40.6396189 L158.656762,31.2490471 L160.970381,31.2490471 L163.828381,37.917714 L166.686381,31.2490471 L169,31.2490471 L162.739619,46.0834285 L160.426,46.0834285 Z M149.402285,40.9118093 C148.721809,40.2313331 148.449618,39.2786664 148.449618,38.3259997 C148.449618,37.5094283 148.721809,36.6928568 149.26619,36.1484759 C150.218857,35.1958092 151.579809,34.7875234 153.076857,34.7875234 C154.029523,34.7875234 154.846095,34.9236187 155.526571,35.3319044 C155.526571,33.6987615 154.165619,33.0182853 153.076857,33.0182853 C152.12419,33.0182853 151.171523,33.5626663 150.763238,34.515333 L148.721809,33.6987615 C149.130095,32.7460948 150.218857,30.9768567 152.940761,30.9768567 C154.301714,30.9768567 155.662666,31.3851424 156.479238,32.3378091 C157.295809,33.2904758 157.568,34.3792377 157.568,35.8762854 L157.568,41.5922856 L155.254381,41.5922856 L155.254381,40.6396189 C154.98219,41.0479046 154.437809,41.3200951 154.029523,41.5922856 C153.485142,41.864476 152.804666,42.0005713 152.12419,42.0005713 C151.307619,41.864476 150.082761,41.5922856 149.402285,40.9118093 Z M76.863521,36.0123806 C76.863521,33.2904758 78.9049496,30.2963804 82.5795212,30.2963804 C86.1179975,30.2963804 88.2955213,33.2904758 88.2955213,36.0123806 C88.2955213,38.7342855 86.2540927,41.7283808 82.5795212,41.7283808 C78.9049496,41.7283808 76.863521,38.7342855 76.863521,36.0123806 Z M89.1120928,36.0123806 C89.1120928,33.2904758 91.1535214,30.2963804 94.828093,30.2963804 C98.3665693,30.2963804 100.544093,33.2904758 100.544093,36.0123806 C100.544093,38.7342855 98.5026645,41.7283808 94.828093,41.7283808 C91.2896167,41.7283808 89.1120928,38.7342855 89.1120928,36.0123806 Z M61.4847586,39.0064759 C58.0823776,35.6040949 58.2184728,30.02419 61.6208539,26.4857137 C63.390092,24.7164755 65.5676159,23.8999041 67.881235,23.8999041 C70.0587589,23.8999041 72.2362828,24.7164755 73.8694257,26.3496184 L72.2362828,28.1188566 C69.7865684,25.6691422 65.8398064,25.8052374 63.5261872,28.2549518 C61.0764729,30.8407614 61.0764729,34.7875234 63.5261872,37.373333 C65.9759016,39.9591426 70.0587589,40.0952379 72.5084732,37.5094283 C73.3250447,36.6928568 73.5972352,35.6040949 73.7333304,34.515333 L68.0173302,34.515333 L68.0173302,32.0656186 L76.0469495,32.0656186 C76.1830448,32.6099996 76.1830448,33.2904758 76.1830448,33.970952 C76.1830448,36.0123806 75.3664733,38.0538093 74.0055209,39.4147617 C72.5084732,40.9118093 70.3309494,41.7283808 68.1534255,41.7283808 C65.7037111,41.5922856 63.2539968,40.7757141 61.4847586,39.0064759 Z M119.053046,39.9591426 C117.011617,37.7816188 117.011617,34.1070472 119.053046,31.7934281 C121.094475,29.6159042 124.496856,29.6159042 126.402189,31.7934281 C127.082665,32.4739043 127.490951,33.426571 127.899237,34.3792377 L120.413999,37.5094283 C120.822284,38.462095 121.774951,39.2786664 123.135903,39.2786664 C124.360761,39.2786664 125.177332,38.8703807 125.993903,37.6455235 L128.035332,39.0064759 C127.763142,39.2786664 127.490951,39.5508569 127.354856,39.8230474 C125.041237,42.1366665 121.094475,42.1366665 119.053046,39.9591426 Z M133.206951,41.5922856 L133.206951,26.4857137 L138.10638,26.4857137 C140.96438,26.4857137 143.277999,28.5271423 143.277999,30.9768567 C143.277999,33.426571 141.236571,35.4679997 138.650761,35.4679997 L135.656666,35.4679997 L135.656666,41.4561903 L133.206951,41.4561903 L133.206951,41.5922856 Z M144.638952,41.5922856 L144.638952,26.4857137 L146.952571,26.4857137 L146.952571,41.5922856 L144.638952,41.5922856 Z M113.881427,41.3200951 L113.881427,24.444285 L116.331141,24.444285 L116.331141,41.3200951 L113.881427,41.3200951 Z M155.390476,37.1011426 C154.846095,36.6928568 154.029523,36.5567616 153.212952,36.5567616 C151.579809,36.5567616 150.627142,37.373333 150.627142,38.3259997 C150.627142,39.2786664 151.579809,39.8230474 152.532476,39.8230474 C153.893428,39.8230474 155.390476,38.7342855 155.390476,37.1011426 Z M85.7097117,36.0123806 C85.7097117,34.3792377 84.6209498,32.6099996 82.5795212,32.6099996 C80.5380925,32.6099996 79.4493306,34.3792377 79.4493306,36.0123806 C79.4493306,37.6455235 80.5380925,39.4147617 82.5795212,39.4147617 C84.4848546,39.4147617 85.7097117,37.6455235 85.7097117,36.0123806 Z M97.9582835,36.0123806 C97.9582835,34.3792377 96.8695216,32.6099996 94.828093,32.6099996 C92.7866643,32.6099996 91.6979024,34.3792377 91.6979024,36.0123806 C91.6979024,37.6455235 92.7866643,39.4147617 94.828093,39.4147617 C96.8695216,39.4147617 97.9582835,37.6455235 97.9582835,36.0123806 Z M110.07076,36.9650473 C110.07076,36.8289521 110.07076,36.6928568 110.206855,36.5567616 C110.206855,36.5567616 110.206855,36.5567616 110.206855,36.5567616 C110.206855,36.4206663 110.206855,36.1484759 110.206855,36.0123806 C110.206855,35.8762854 110.206855,35.6040949 110.206855,35.4679997 C110.206855,35.4679997 110.206855,35.3319044 110.206855,35.3319044 C110.206855,35.1958092 110.07076,34.9236187 110.07076,34.7875234 C109.662474,33.426571 108.437617,32.4739043 107.21276,32.4739043 C105.579617,32.4739043 104.218665,34.1070472 104.218665,35.8762854 C104.218665,37.7816188 105.579617,39.2786664 107.348855,39.2786664 C108.437617,39.4147617 109.526379,38.462095 110.07076,36.9650473 Z M120.005713,35.7401901 L125.041237,33.5626663 C124.496856,32.6099996 123.680284,32.3378091 122.999808,32.3378091 C120.958379,32.4739043 119.733522,34.6514282 120.005713,35.7401901 Z M140.828285,31.1129519 C140.828285,29.7519995 139.739523,28.7993328 138.242475,28.7993328 L135.52057,28.7993328 L135.52057,33.5626663 L138.37857,33.5626663 C139.739523,33.5626663 140.828285,32.4739043 140.828285,31.1129519 Z" id="Shape" fill="#FFFFFF" fill-rule="nonzero"></path>
                <g id="2c8cf85a9d" transform="translate(17.000000, 10.000000)" fill-rule="nonzero">
                    <path d="M0.716749663,0.503518202 C1.34848482,-0.0726064202 2.2538235,-0.0748308831 2.97231101,0.338911139 C9.16509483,3.78453689 15.3156147,7.30579294 21.4772566,10.8070292 C19.7600048,12.5598718 17.9960401,14.2704503 16.2810127,16.0255173 L16.2031581,16.0966987 C11.1337061,10.8114781 5.846261,5.73312841 0.716749663,0.503518202 Z" id="Shape" fill="#0FF07E"></path>
                    <path d="M0.0538726809,4.32062202 C0.0605459393,3.0415808 -0.132978555,1.57791281 0.716749663,0.503518202 C5.846261,5.73312841 11.1337061,10.8114781 16.2031581,16.0966987 C11.011363,21.2862694 5.81734356,26.4713912 0.63889496,31.6743083 C0.145073836,30.8801906 0.0694435955,29.9214657 0.0449749596,29.0116782 C0.0605458742,20.7813262 0.0494238202,12.5509741 0.0538726809,4.32062202 Z" id="Shape" fill="#10CFFF"></path>
                    <path d="M21.4772566,10.8070292 C23.5615377,11.9615029 25.6235745,13.1537918 27.6900602,14.3394073 C28.4174454,14.7375784 29.0981178,15.5227985 28.9001444,16.405893 C28.6866001,17.2956608 27.8257498,17.7627889 27.0939158,18.1787554 C25.212057,19.1819685 23.4013795,20.3141981 21.5261938,21.3307578 C19.782249,19.5578954 17.9715715,17.8473169 16.2810127,16.0255173 C17.9960401,14.2704503 19.7600048,12.5598718 21.4772566,10.8070292 Z" id="Shape" fill="#FFCA0A"></path>
                    <path d="M16.2031581,16.0966987 L16.2810127,16.0255173 C17.9715715,17.8473169 19.782249,19.5578954 21.5261938,21.3307578 C15.4490798,24.8208719 9.34749721,28.2709465 3.24369021,31.7187967 C2.46291897,32.1903737 1.36850459,32.3060435 0.63889496,31.6743083 C5.8173435,26.4713911 11.011363,21.2862693 16.2031581,16.0966987 Z" id="Shape" fill="#FA3E4D"></path>
                </g>
            </g>
        </g>
    </g>
</svg>