<?xml version="1.0" encoding="UTF-8"?>
<svg width="1440px" height="2461px" viewBox="0 0 1440 2461" version="1.1" xmlns="http://www.w3.org/2000/svg" xmlns:xlink="http://www.w3.org/1999/xlink">
    <!-- Generator: Sketch 51 (57462) - http://www.bohemiancoding.com/sketch -->
    <title>way</title>
    <desc>Created with Sketch.</desc>
    <defs></defs>
    <g id="USER" stroke="none" stroke-width="1" fill="none" fill-rule="evenodd">
        <g id="main_blackU222" transform="translate(0.000000, -992.000000)">
            <rect fill="#FFFFFF" x="0" y="0" width="1440" height="4911"></rect>
            <g id="way" transform="translate(0.000000, 992.000000)" fill-rule="nonzero">
                <rect id="Rectangle-21" fill="#FFFFFF" x="0" y="0" width="1443" height="2461"></rect>
                <g id="Group-3" transform="translate(102.000000, 296.000000)">
                    <circle id="Oval-5" stroke="#FFCF00" stroke-width="3" cx="95.5" cy="66.5" r="23.5"></circle>
                    <circle id="Oval-5" stroke="#FFCF00" stroke-width="3" cx="1131.5" cy="353.5" r="23.5"></circle>
                    <circle id="Oval-5" stroke="#FFCF00" stroke-width="3" cx="41.5" cy="903.5" r="23.5"></circle>
                    <circle id="Oval-5" stroke="#FFCF00" stroke-width="3" cx="648.5" cy="1170.5" r="23.5"></circle>
                    <circle id="Oval-5" stroke="#FFCF00" stroke-width="3" cx="1160.5" cy="1476.5" r="23.5"></circle>
                    <circle id="Oval-5" stroke="#FFCF00" stroke-width="3" cx="117.5" cy="1678.5" r="23.5"></circle>
                    <circle id="Oval-5" stroke="#FFCF00" stroke-width="3" cx="631.5" cy="1809.5" r="23.5"></circle>
                    <path d="M126,50 C240.000513,19.4132172 321.000513,3.07988386 369,1 C549.018199,-6.80043648 569,44 653,135 C696.76633,182.413524 750.132728,274.855883 842,325 C884.949362,348.443146 910.738387,226.358095 959,227 C1005.63603,227.620284 1116,305.915649 1116,315" id="Line-3" stroke="#FFDE97" stroke-width="9" stroke-dasharray="50,22,1,5"></path>
                    <path d="M1146,382 C1165.33333,415.333333 1165.33333,451.333333 1146,490 C1105.24432,571.511365 883.482244,582.354204 642,563 C418.67198,545.100813 307.617291,464.689886 158,511 C46,545.666667 1.66666667,660.333333 25,855" id="Line-4" stroke="#FFDE97" stroke-width="9" stroke-dasharray="50,22,1,5"></path>
                    <path d="M42,942 C106.003755,1067.01178 179.003755,1146.73597 261,1181.17256 C342.996245,1215.60915 462.662912,1215.60915 620,1181.17256" id="Line-5" stroke="#FFDE97" stroke-width="9" stroke-dasharray="50,22,1,5"></path>
                    <path d="M714.5,1148.5 C907.675374,1063.80124 1044.84204,1052.63458 1126,1115 C1207.15796,1177.36542 1224.82463,1284.36542 1179,1436" id="Line-6" stroke="#FFDE97" stroke-width="9" stroke-dasharray="50,22,1,5"></path>
                    <path d="M1131.80952,1534.87949 C1070.47619,1580.87949 990.47619,1603.87949 891.809524,1603.87949 C743.809524,1603.87949 280.809524,1564.26775 232.809524,1554.26775 C125.269792,1531.86364 18.4727822,1506.16366 3.80952381,1554.26775 C-9.52380952,1598.00891 12.1428571,1630.87949 68.8095238,1652.87949" id="Line-7" stroke="#FFDE97" stroke-width="9" stroke-dasharray="50,22,1,5"></path>
                    <path d="M150.5,1697.5 C220.492577,1739.36074 282.992577,1763.86074 338,1771 C393.007423,1778.13926 474.340757,1786.80593 582,1797" id="Line-8" stroke="#FFDE97" stroke-width="9" stroke-dasharray="50,22,1,5"></path>
                </g>
            </g>
        </g>
    </g>
</svg>