<?xml version="1.0" encoding="UTF-8"?>
<svg width="14px" height="14px" viewBox="0 0 14 14" version="1.1" xmlns="http://www.w3.org/2000/svg" xmlns:xlink="http://www.w3.org/1999/xlink">
    <!-- Generator: Sketch 51 (57462) - http://www.bohemiancoding.com/sketch -->
    <title>whatsapp</title>
    <desc>Created with Sketch.</desc>
    <defs></defs>
    <g id="USER" stroke="none" stroke-width="1" fill="none" fill-rule="evenodd">
        <g id="main_blackU222" transform="translate(-654.000000, -4650.000000)" fill="#FFFFFF">
            <rect x="0" y="0" width="1440" height="4911"></rect>
            <g id="whatsapp" transform="translate(654.000000, 4650.000000)" fill-rule="nonzero">
                <path d="M7,0 C3.14003846,0 0,3.14003846 0,7 C0,8.31680769 0.365884615,9.59511538 1.05996154,10.7051538 C0.783461538,11.6738462 0.284038462,13.5062308 0.278653846,13.5253462 C0.252807692,13.6201154 0.280538462,13.7213462 0.351346154,13.7894615 C0.422153846,13.8575769 0.524461538,13.8818077 0.617615385,13.8532692 L3.39230769,12.9998077 C4.47919231,13.6545769 5.72384615,14 7,14 C10.8599615,14 14,10.8599615 14,7 C14,3.14003846 10.8599615,0 7,0 Z M7,13.4615385 C5.78334615,13.4615385 4.59819231,13.1215 3.57242308,12.4785769 C3.52907692,12.4513846 3.47926923,12.4376538 3.42946154,12.4376538 C3.40280769,12.4376538 3.37615385,12.4416923 3.35030769,12.4495 L0.9275,13.1952692 C1.10546154,12.5456154 1.42530769,11.3836154 1.61080769,10.7371923 C1.63234615,10.6623462 1.62023077,10.5815769 1.57796154,10.5161538 C0.897884615,9.46965385 0.538461538,8.25380769 0.538461538,7 C0.538461538,3.43726923 3.43726923,0.538461538 7,0.538461538 C10.5627308,0.538461538 13.4615385,3.43726923 13.4615385,7 C13.4615385,10.5627308 10.5627308,13.4615385 7,13.4615385 Z" id="Shape"></path>
                <path d="M10.8795922,7.89520777 C10.4472705,7.6707112 10.0791179,7.44555756 9.81049765,7.28129178 C9.60534392,7.15601174 9.45709927,7.06555605 9.34843337,7.01452415 C9.04468407,6.87281753 8.8144716,6.97291015 8.72688314,7.0557001 C8.71587603,7.06599409 8.70603989,7.07716417 8.69760892,7.0889913 C8.38214993,7.53163283 7.97020311,7.95500051 7.84959332,7.9777787 C7.71024804,7.95740974 7.05801843,7.61069943 6.40977011,7.10585592 C5.74793855,6.59006136 5.33154205,6.09616891 5.27041748,5.75975259 C5.69501076,5.35105932 5.84793928,5.09392861 5.84793928,4.8013165 C5.84793928,4.49972452 5.09570894,3.24057254 4.95964236,3.11332131 C4.8231074,2.98585106 4.515611,2.96592015 4.04558413,3.05352856 C4.00038474,3.06207039 3.95869825,3.08287738 3.92591112,3.11332131 C3.86900204,3.16654342 2.53737634,4.43620842 3.17016787,5.97505027 C3.86478655,7.66392154 5.64770362,9.62700716 7.92078823,9.9459018 C8.17910394,9.98204027 8.42126029,10 8.64795984,10 C9.98520619,10 10.7744392,9.37075254 10.996689,8.12255161 C11.0133168,8.03121983 10.9662438,7.94010708 10.8795922,7.89520777 Z M7.99034377,9.51267818 C5.58657905,9.17560479 4.07251641,6.94837979 3.60740761,5.81779316 C3.14604591,4.69640542 3.99687183,3.69657435 4.21045654,3.47054463 C4.3842283,3.44294798 4.56713363,3.43133987 4.64348079,3.44250994 C4.80296674,3.64992287 5.35519562,4.62566162 5.37955177,4.8013165 C5.37955177,4.91630254 5.33950464,5.07640693 4.86268615,5.5225528 C4.81865772,5.56350973 4.79406738,5.61914108 4.79406738,5.67740067 C4.79406738,6.82419486 7.38050323,8.41516372 7.83858622,8.41516372 C8.2369498,8.41516372 8.75639155,7.78898256 9.05217827,7.38094635 C9.06927441,7.38160342 9.09808024,7.38707894 9.13906415,7.4063528 C9.2233739,7.4459956 9.36951081,7.53513717 9.55428968,7.64815203 C9.79831958,7.79730536 10.1224437,7.99530038 10.5051163,8.2005231 C10.3313446,8.98242823 9.84562671,9.77331322 7.99034377,9.51267818 Z" id="Shape"></path>
            </g>
        </g>
    </g>
</svg>