<?xml version="1.0" encoding="UTF-8"?>
<svg width="68px" height="70px" viewBox="0 0 68 70" version="1.1" xmlns="http://www.w3.org/2000/svg" xmlns:xlink="http://www.w3.org/1999/xlink">
    <!-- Generator: Sketch 50.2 (55047) - http://www.bohemiancoding.com/sketch -->
    <title>007-stopwatch</title>
    <desc>Created with Sketch.</desc>
    <defs></defs>
    <g id="USER" stroke="none" stroke-width="1" fill="none" fill-rule="evenodd">
        <g id="main_black" transform="translate(-380.000000, -841.000000)" fill="#393939" fill-rule="nonzero">
            <g id="007-stopwatch" transform="translate(380.000000, 841.000000)">
                <path d="M35.5612151,44.9869371 C36.7974703,44.8907471 37.9244696,44.2601676 38.6560097,43.2543281 L49.7751815,27.8829155 C50.1160127,27.4114654 50.0649474,26.7606979 49.6516747,26.3474368 C49.2384021,25.9353632 48.5876164,25.8842994 48.1161531,26.2239335 L32.7419356,37.3463571 C31.7396307,38.0755016 31.1090336,39.2024694 31.0128408,40.4386901 C30.9166481,41.6749107 31.3643601,42.8850057 32.2395956,43.7602167 C33.0364517,44.5582381 34.1111981,45 35.2286969,45 C35.3391404,45 35.449584,44.9952499 35.5612151,44.9869371 Z M33.005674,40.0282471 C33.0466631,39.4930306 33.3207049,39.0046602 33.7516765,38.6907915 L43,32 L36.3117418,41.2462452 C35.9955397,41.6807426 35.5071833,41.953621 34.9719821,41.9957825 C34.4391231,42.0309171 33.9156331,41.845875 33.5350196,41.4652506 C33.1579194,41.0869685 32.9635137,40.5622924 33.005674,40.0282471 Z" id="Shape"></path>
                <path d="M62.90616,22.8246667 C62.8939563,22.8001667 62.8939563,22.7745 62.8805322,22.75 C62.8658877,22.7266667 62.8427006,22.7138333 62.8268357,22.6916667 C61.5930379,20.6686667 60.1334709,18.7868333 58.4762034,17.0811667 L61.0975662,14.5763333 L62.8231746,16.226 L68,11.2758333 L62.8231746,6.32683333 L57.6451289,11.2758333 L59.3719577,12.9266667 L56.7505949,15.4315 C54.9664085,13.8471667 52.9991661,12.4506667 50.8818176,11.2711667 C50.8586305,11.256 50.8452064,11.2338333 50.820799,11.2198333 C50.7951711,11.2058333 50.7683229,11.207 50.742695,11.1941667 C46.9680791,9.11516667 42.7272804,7.73033333 38.2057957,7.22283333 L38.2057957,5.83333333 L40.0363563,5.83333333 C41.7192516,5.83333333 43.0872906,4.5255 43.0872906,2.91666667 C43.0872906,1.30783333 41.7180313,0 40.0351359,0 L29.0517723,0 C27.3688769,0 26.000838,1.30783333 26.000838,2.91666667 C26.000838,4.5255 27.3688769,5.83333333 29.0517723,5.83333333 L30.8823329,5.83333333 L30.8823329,7.182 C29.5643293,7.31616667 28.2487664,7.5215 26.947848,7.80616667 C26.2912869,7.94966667 25.880021,8.57616667 26.0313473,9.20383333 C26.1814533,9.8315 26.836794,10.2258333 27.493355,10.08 C28.6160989,9.83383333 29.7498261,9.64833333 30.885994,9.5235 L32.195455,9.42666667 C32.5957376,9.3975 32.9642905,9.3765 33.3230804,9.36016667 L33.3230804,11.6666667 C33.3230804,12.3118333 33.8685874,12.8333333 34.5434541,12.8333333 C35.2183208,12.8333333 35.7638278,12.3118333 35.7638278,11.6666667 L35.7638278,9.36833333 C40.3536534,9.57016667 44.678658,10.7485 48.5240556,12.6875 L47.3207671,14.679 C46.9839439,15.2378333 47.1840852,15.9506667 47.7674239,16.2726667 C47.9590225,16.3788333 48.1689268,16.429 48.3763904,16.429 C48.7986397,16.429 49.2086852,16.2201667 49.4344544,15.8456667 L50.6340818,13.8588333 C54.4526312,16.1746667 57.6963846,19.2756667 60.1188264,22.9261667 L58.04053,24.073 C57.4584117,24.395 57.2582704,25.1078333 57.5963139,25.6666667 C57.8233034,26.0411667 58.2321286,26.25 58.6543779,26.25 C58.8618415,26.25 59.0717458,26.1998333 59.2633444,26.0936667 L61.3465224,24.9433333 C63.4028521,28.672 64.6390907,32.8743333 64.8233672,37.3321667 L62.413129,37.3321667 C61.7382624,37.3321667 61.1927553,37.8536667 61.1927553,38.4988333 C61.1927553,39.144 61.7382624,39.6655 62.413129,39.6655 L64.8233672,39.6655 C64.6390907,44.1233333 63.4028521,48.3256667 61.3465224,52.0543333 L59.2633444,50.904 C58.6800058,50.582 57.9331371,50.771 57.5963139,51.331 C57.2594908,51.8898333 57.4596321,52.6026667 58.0429707,52.9246667 L60.1212672,54.0715 C57.6988253,57.722 54.4550719,60.823 50.6365225,63.1388333 L49.4368951,61.152 C49.0988516,60.592 48.3507625,60.4018333 47.7698646,60.725 C47.1853056,61.047 46.9851643,61.761 47.3232078,62.3186667 L48.5264963,64.3101667 C44.6810987,66.2491667 40.3560942,67.4275 35.7662686,67.6293333 L35.7662686,65.3333333 C35.7662686,64.6881667 35.2207615,64.1666667 34.5458948,64.1666667 C33.8710282,64.1666667 33.3255211,64.6881667 33.3255211,65.3333333 L33.3255211,67.6386667 C31.3765843,67.5745 29.4215455,67.3411667 27.4970162,66.9188333 C26.8404551,66.7683333 26.1851144,67.1673333 26.0350084,67.795 C25.8836821,68.4226667 26.294948,69.0491667 26.9515091,69.1926667 C29.3873751,69.7293333 31.8757171,70 34.3445332,70 C34.4043315,70 34.4616891,69.9965 34.5214874,69.9953333 C34.53003,69.9953333 34.5361319,70 34.5434541,70 C34.5532171,70 34.5617597,69.9941667 34.5715227,69.9941667 C40.4378592,69.9556667 45.9417448,68.4413333 50.7036431,65.8256667 C50.7414747,65.8093333 50.781747,65.8011667 50.8183582,65.7801667 C50.8427657,65.7661667 50.8561898,65.744 50.8793769,65.7288333 C55.8084664,62.9825 59.9272278,59.0496667 62.8060894,54.341 C62.8292765,54.3095 62.8585655,54.285 62.8793118,54.25 C62.8939563,54.2255 62.8927359,54.1998333 62.9049397,54.1753333 C65.6922733,49.5553333 67.294624,44.205 67.294624,38.5 C67.294624,32.795 65.6922733,27.4446667 62.90616,22.8246667 Z M62.5005302,10 L64,11.4994698 L62.5005302,13 L61,11.4994698 L62.5005302,10 Z M32.8,7 L32.8,3.24347177 L28.6,3.24347177 C28.27,3.24347177 28,2.96369062 28,2.62173589 C28,2.27978115 28.27,2 28.6,2 L39.4,2 C39.73,2 40,2.27978115 40,2.62173589 C40,2.96369062 39.73,3.24347177 39.4,3.24347177 L35.2,3.24347177 L35.2,7 C34.7824,6.9825914 34.384,6.97388709 34,6.97388709 C33.9664,6.97388709 33.928,6.97637404 33.8944,6.97637404 C33.8644,6.97637404 33.8344,6.97388709 33.8044,6.97388709 C33.6076,6.97388709 33.4108,6.98756528 33.214,6.9912957 C33.0748,6.99502611 32.944,6.99378264 32.8,7 Z" id="Shape"></path>
                <path d="M24.7142857,16 L18.2857143,16 C17.5747143,16 17,16.6705 17,17.5 C17,18.3295 17.5747143,19 18.2857143,19 L24.7142857,19 C25.4252857,19 26,18.3295 26,17.5 C26,16.6705 25.4252857,16 24.7142857,16 Z" id="Shape"></path>
                <path d="M23.8333333,25 L12.1666667,25 C11.5215,25 11,25.6705 11,26.5 C11,27.3295 11.5215,28 12.1666667,28 L23.8333333,28 C24.4785,28 25,27.3295 25,26.5 C25,25.6705 24.4785,25 23.8333333,25 Z" id="Shape"></path>
                <path d="M23.8235294,33 L6.17647059,33 C5.52588235,33 5,33.6705 5,34.5 C5,35.3295 5.52588235,36 6.17647059,36 L23.8235294,36 C24.4741176,36 25,35.3295 25,34.5 C25,33.6705 24.4741176,33 23.8235294,33 Z" id="Shape"></path>
                <path d="M24.7619048,41 L1.23809524,41 C0.553428571,41 0,41.6705 0,42.5 C0,43.3295 0.553428571,44 1.23809524,44 L24.7619048,44 C25.4465714,44 26,43.3295 26,42.5 C26,41.6705 25.4465714,41 24.7619048,41 Z" id="Shape"></path>
                <path d="M23.8,49 L8.2,49 C7.5364,49 7,49.6705 7,50.5 C7,51.3295 7.5364,52 8.2,52 L23.8,52 C24.4636,52 25,51.3295 25,50.5 C25,49.6705 24.4636,49 23.8,49 Z" id="Shape"></path>
                <path d="M23.7777778,58 L15.2222222,58 C14.5463333,58 14,58.6705 14,59.5 C14,60.3295 14.5463333,61 15.2222222,61 L23.7777778,61 C24.4536667,61 25,60.3295 25,59.5 C25,58.6705 24.4536667,58 23.7777778,58 Z" id="Shape"></path>
            </g>
        </g>
    </g>
</svg>