<?xml version="1.0" encoding="UTF-8"?>
<svg width="28px" height="33px" viewBox="0 0 28 33" version="1.1" xmlns="http://www.w3.org/2000/svg" xmlns:xlink="http://www.w3.org/1999/xlink">
    <!-- Generator: Sketch 50.2 (55047) - http://www.bohemiancoding.com/sketch -->
    <title>apple</title>
    <desc>Created with Sketch.</desc>
    <defs></defs>
    <g id="USER" stroke="none" stroke-width="1" fill="none" fill-rule="evenodd">
        <g id="main_black" transform="translate(-470.000000, -1395.000000)" fill="#FFFFFF" fill-rule="nonzero">
            <g id="apple" transform="translate(470.000000, 1395.000000)">
                <path d="M23.3856665,17.534198 C23.3422801,13.3549969 26.9371686,11.3507 27.0977519,11.25112 C25.0778686,8.41454073 21.9313505,8.02595321 20.8100886,7.98102942 C18.1322909,7.72083241 15.5850552,9.49400062 14.2260415,9.49400062 C12.870453,9.49400062 10.773334,8.0195079 8.55250336,8.05824419 C5.63379721,8.09988087 2.94256719,9.68690864 1.43969343,12.1954863 C-1.59278436,17.2453838 0.663104562,24.7264508 3.61874956,28.8219918 C5.06299129,30.8267398 6.78514746,33.0783431 9.04627499,32.9979057 C11.2237192,32.9145035 12.0471197,31.6457449 14.6796505,31.6457449 C17.3121142,31.6457449 18.0521672,32.9979057 20.3564124,32.956398 C22.6995442,32.9146324 24.1840157,30.9133003 25.6183175,28.9024292 C27.2768046,26.5767049 27.9597031,24.3250371 28,24.2094728 C27.9479498,24.1866564 23.4309334,22.5260232 23.3856665,17.534198 Z M19.0558964,5.26974688 C20.2560059,3.87246893 21.0660413,1.93391415 20.8450798,0 C19.1164089,0.06754681 17.0210361,1.10504776 15.780764,2.49916752 C14.6678973,3.73589289 13.6937191,5.70976794 13.954776,7.60501026 C15.8845957,7.74951402 17.8545108,6.66386663 19.0558964,5.26974688 Z" id="Shape"></path>
            </g>
        </g>
    </g>
</svg>