<?xml version="1.0" encoding="UTF-8"?>
<svg width="54px" height="30px" viewBox="0 0 54 30" version="1.1" xmlns="http://www.w3.org/2000/svg" xmlns:xlink="http://www.w3.org/1999/xlink">
    <!-- Generator: Sketch 50.2 (55047) - http://www.bohemiancoding.com/sketch -->
    <title>LOGO</title>
    <desc>Created with Sketch.</desc>
    <defs></defs>
    <g id="Symbols" stroke="none" stroke-width="1" fill="none" fill-rule="evenodd">
        <g id="Logo/Full/LOGO/bl" fill="#171717" fill-rule="nonzero">
            <path d="M53.1,4.54254002 L45.369,4.54254002 L45.369,1.85464652 C45.369,0.830335101 44.534925,0 43.506,0 L16.65,0 C15.621075,0 14.787,0.830335101 14.787,1.85464652 L14.787,7.445465 L7.533,7.445465 C7.210125,7.44423305 6.9114375,7.61513828 6.75,7.89344725 L3.096,14.2458356 L0.9,14.2458356 C0.402975,14.2458356 0,14.6470037 0,15.1418001 L0,25.1766025 C0,25.6713989 0.402975,26.072567 0.9,26.072567 L3.528,26.072567 C4.0287375,28.6927032 6.5683125,30.412507 9.20025,29.9140148 C11.156625,29.5434214 12.6867375,28.0201698 13.059,26.072567 L15.687,26.072567 C15.821775,26.0689831 15.954075,26.0352724 16.074,25.9740109 C16.256475,26.0369524 16.44795,26.0702151 16.641,26.072567 L28.413,26.072567 C28.9137375,28.6927032 31.4533125,30.412507 34.08525,29.9140148 C36.041625,29.5434214 37.5717375,28.0201698 37.944,26.072567 L43.506,26.072567 C44.534925,26.072567 45.369,25.2422319 45.369,24.2179204 L45.369,16.0377646 L51.183,16.0377646 C51.680025,16.0377646 52.083,15.6365965 52.083,15.1418001 C52.083,14.6470037 51.680025,14.2458356 51.183,14.2458356 L45.369,14.2458356 L45.369,11.181637 L46.386,11.181637 C46.883025,11.181637 47.286,10.7804689 47.286,10.2856725 C47.286,9.79087607 46.883025,9.38970797 46.386,9.38970797 L45.369,9.38970797 L45.369,6.33446902 L53.1,6.33446902 C53.597025,6.33446902 54,5.93330091 54,5.43850452 C54,4.94370812 53.597025,4.54254002 53.1,4.54254002 Z M8.055,9.27323258 L14.787,9.27323258 L14.787,14.2458356 L5.175,14.2458356 L8.055,9.27323258 Z M8.298,28.2139221 C8.2949625,28.2139221 8.2920375,28.2139221 8.289,28.2139221 L8.298,28.2139221 C6.608025,28.2139221 5.238,26.8500402 5.238,25.1676428 C5.238,23.4852455 6.608025,22.1213635 8.298,22.1213635 C9.987975,22.1213635 11.358,23.4852455 11.358,25.1676428 C11.358,26.8500402 9.987975,28.2139221 8.298,28.2139221 Z M13.059,24.2716783 C12.5582625,21.6515421 10.0186875,19.9317383 7.38675,20.4302305 C5.430375,20.8008238 3.9002625,22.3240755 3.528,24.2716783 L1.8,24.2716783 L1.8,16.0377646 L14.787,16.0377646 L14.787,24.2716783 L13.059,24.2716783 Z M33.192,28.2139221 C33.1889625,28.2139221 33.1860375,28.2139221 33.183,28.2139221 L33.192,28.2139221 C31.502025,28.2139221 30.132,26.8500402 30.132,25.1676428 C30.132,23.4852455 31.502025,22.1213635 33.192,22.1213635 C34.881975,22.1213635 36.252,23.4852455 36.252,25.1676428 C36.252,26.8500402 34.881975,28.2139221 33.192,28.2139221 Z M43.578,4.5783786 L39.276,4.5783786 C38.778975,4.5783786 38.376,4.9795467 38.376,5.4743431 C38.376,5.96913949 38.778975,6.3703076 39.276,6.3703076 L43.56,6.3703076 L43.56,9.39866761 L32.553,9.39866761 C32.055975,9.39866761 31.653,9.79983572 31.653,10.2946321 C31.653,10.7894285 32.055975,11.1905966 32.553,11.1905966 L43.542,11.1905966 L43.542,14.2547952 L37.35,14.2547952 C36.852975,14.2554672 36.4505625,14.6571953 36.4512375,15.1519917 C36.4519125,15.6458921 36.853875,16.0460522 37.35,16.0467242 L43.524,16.0467242 L43.524,24.280638 L37.953,24.280638 C37.4522625,21.6605018 34.9126875,19.9406979 32.28075,20.4391902 C30.324375,20.8097835 28.7942625,22.3330351 28.422,24.280638 L16.596,24.2268801 L16.659,1.82776758 L43.578,1.8904851 L43.578,4.5783786 Z" id="LOGO"></path>
        </g>
    </g>
</svg>