<?xml version="1.0" encoding="UTF-8"?>
<svg width="69px" height="70px" viewBox="0 0 69 70" version="1.1" xmlns="http://www.w3.org/2000/svg" xmlns:xlink="http://www.w3.org/1999/xlink">
    <!-- Generator: Sketch 50.2 (55047) - http://www.bohemiancoding.com/sketch -->
    <title>route</title>
    <desc>Created with Sketch.</desc>
    <defs></defs>
    <g id="DRIVER" stroke="none" stroke-width="1" fill="none" fill-rule="evenodd">
        <g id="main_driver" transform="translate(-363.000000, -1051.000000)" fill="#393939" fill-rule="nonzero">
            <g id="route" transform="translate(363.000000, 1051.000000)">
                <path d="M23.9600799,33.6487434 C21.307582,30.6504968 17.7709182,29 13.999489,29 C10.2280598,29 6.691396,30.6504968 4.04006611,33.6487434 C-1.3466887,39.7399182 -1.3466887,49.6487434 4.04006611,55.7399182 L13.999489,67 L23.9589119,55.7399182 C29.3468347,49.6487434 29.3468347,39.7399182 23.9600799,33.6487434 Z M21.5815491,53.7565385 L13.5010777,63 L5.41945682,53.7565385 C0.860181061,48.542905 0.860181061,40.0583827 5.41945682,34.8447492 C7.58643483,32.3653923 10.4569622,31 13.4999281,31 C16.5428941,31 19.414571,32.3653923 21.5803995,34.8447492 C26.1396752,40.0583827 26.1396752,48.5417409 21.5815491,53.7565385 Z" id="Shape"></path>
                <path d="M56.5005786,29 L63.9812355,20.3782185 C68.0062548,15.7395438 68.0062548,8.19459746 63.9812355,3.5559228 C61.9907142,1.26261884 59.3335997,0 56.4994214,0 C53.6664003,0 51.0092858,1.26261884 49.0187645,3.5559228 C44.9937452,8.19459746 44.9937452,15.7395438 49.0187645,20.3782185 L56.5005786,29 Z M50.3933987,4.75259054 C51.8998519,2.97691597 53.8904013,2 55.9994358,2 C58.1095987,2 60.1001481,2.97691597 61.6066013,4.75259054 C64.7977996,8.51277316 64.7977996,14.6314764 61.6066013,18.391659 L56.0005642,25 L50.3933987,18.391659 C47.2022004,14.6314764 47.2022004,8.51277316 50.3933987,4.75259054 Z" id="Shape"></path>
                <path d="M60.9054902,63.0323825 C60.1496883,62.8727751 59.3994953,63.3186207 59.2298255,64.0295994 C59.068569,64.7023251 58.7558718,65.3209689 58.3001471,65.8657448 C57.8219867,66.4382212 57.9257517,67.2679162 58.5357217,67.717719 C58.793732,67.9076651 59.0980159,68 59.4008975,68 C59.8173598,68 60.2282131,67.8272018 60.5044524,67.4961153 C61.2111763,66.6519105 61.715979,65.6546936 61.9655759,64.6099902 C62.1352458,63.8976924 61.6612921,63.19199 60.9054902,63.0323825 Z" id="Shape"></path>
                <path d="M37.2906379,35.3858252 C36.7443989,35.3845181 36.2132982,35.2838724 35.7112125,35.0851951 C35.0653133,34.8303131 34.3323691,35.1662345 34.0825878,35.8406916 C33.8353295,36.5151487 34.1620637,37.2706452 34.8117475,37.5281414 C35.6014601,37.8392282 36.432803,37.9986929 37.2881148,38 L37.7384781,38 C38.4360997,38 39,37.4157319 39,36.6929126 C39,35.9700933 38.4360997,35.3858252 37.7384781,35.3858252 L37.2906379,35.3858252 Z" id="Shape"></path>
                <path d="M34.2926088,29 C34.5261749,29 34.7610314,28.9444932 34.9739508,28.8289484 C35.545607,28.5162977 36.1779131,28.3248558 36.8502221,28.2591539 C37.5586629,28.1900536 38.0696694,27.6304542 37.9922442,27.0085513 C37.914819,26.3866484 37.2812225,25.9425938 36.56762,26.0060302 C35.5068944,26.1091143 34.5106899,26.410437 33.6073956,26.9054672 C33.0021884,27.2362425 32.8189487,27.9351753 33.1957514,28.4664549 C33.4409313,28.8108237 33.8616084,29 34.2926088,29 Z" id="Shape"></path>
                <path d="M20.75,68 L18.25,68 C17.55875,68 17,68.447 17,69 C17,69.553 17.55875,70 18.25,70 L20.75,70 C21.44125,70 22,69.553 22,69 C22,68.447 21.44,68 20.75,68 Z" id="Shape"></path>
                <path d="M40.5185859,47 C40.4110809,47 40.3048259,47.0029925 40.1985709,47.0089776 C39.5085383,47.0418953 38.9735131,47.7391521 39.0010144,48.5650873 C39.0272657,49.3700748 39.5822918,50 40.2485732,50 C40.266074,50 40.2835749,50 40.3010757,49.9985037 L42.7499411,49.9925187 C43.4412237,49.9925187 44,49.3236908 44,48.4962594 C44,47.6688279 43.4412237,47 42.7499411,47 L40.5185859,47 Z" id="Shape"></path>
                <path d="M40.25,28 L42.75,28 C43.44125,28 44,27.553 44,27 C44,26.447 43.44125,26 42.75,26 L40.25,26 C39.55875,26 39,26.447 39,27 C39,27.553 39.55875,28 40.25,28 Z" id="Shape"></path>
                <path d="M54.25,47 C53.55875,47 53,47.6705 53,48.5 C53,49.3295 53.55875,50 54.25,50 L56.75,50 C57.44125,50 58,49.3295 58,48.5 C58,47.6705 57.44125,47 56.75,47 L54.25,47 Z" id="Shape"></path>
                <path d="M59,37 C59,36.447 58.44125,36 57.75,36 L55.25,36 C54.55875,36 54,36.447 54,37 C54,37.553 54.55875,38 55.25,38 L57.75,38 C58.44,38 59,37.553 59,37 Z" id="Shape"></path>
                <path d="M48.25,50 L50.75,50 C51.44125,50 52,49.3295 52,48.5 C52,47.6705 51.44125,47 50.75,47 L48.25,47 C47.55875,47 47,47.6705 47,48.5 C47,49.3295 47.56,50 48.25,50 Z" id="Shape"></path>
                <path d="M50.75,28 C51.44125,28 52,27.553 52,27 C52,26.447 51.44125,26 50.75,26 L48.25,26 C47.55875,26 47,26.447 47,27 C47,27.553 47.55875,28 48.25,28 L50.75,28 Z" id="Shape"></path>
                <path d="M41.25,36 C40.55875,36 40,36.447 40,37 C40,37.553 40.55875,38 41.25,38 L43.75,38 C44.44125,38 45,37.553 45,37 C45,36.447 44.44125,36 43.75,36 L41.25,36 Z" id="Shape"></path>
                <path d="M53,37 C53,36.447 52.44125,36 51.75,36 L49.25,36 C48.55875,36 48,36.447 48,37 C48,37.553 48.55875,38 49.25,38 L51.75,38 C52.44,38 53,37.553 53,37 Z" id="Shape"></path>
                <path d="M68.9077388,41.0581853 C68.7867854,40.3723246 68.0789333,39.9037787 67.332596,40.0168327 C66.5821353,40.1261182 66.0722069,40.7717819 66.1931603,41.4563864 C66.2316455,41.679982 66.253637,41.9073461 66.250888,42.1497841 C66.250888,42.5718522 66.1849135,42.9888957 66.0557133,43.3908653 C65.8426704,44.0566275 66.2591349,44.7550498 66.9889785,44.9497538 C67.1181787,44.98367 67.2473789,45 67.3752046,45 C67.9703502,45 68.5187637,44.6457643 68.6946959,44.0968245 C68.896743,43.4649785 68.9998283,42.8105216 68.9998283,42.1585771 C69.0025772,41.7968045 68.9723389,41.4262387 68.9077388,41.0581853 Z" id="Shape"></path>
                <path d="M48.75,68 L46.25,68 C45.55875,68 45,68.447 45,69 C45,69.553 45.55875,70 46.25,70 L48.75,70 C49.44125,70 50,69.553 50,69 C50,68.447 49.44,68 48.75,68 Z" id="Shape"></path>
                <path d="M40.75,68 L38.25,68 C37.55875,68 37,68.447 37,69 C37,69.553 37.55875,70 38.25,70 L40.75,70 C41.44125,70 42,69.553 42,69 C42,68.447 41.44,68 40.75,68 Z" id="Shape"></path>
                <path d="M54,58.5 C54,57.6705 53.44125,57 52.75,57 L50.25,57 C49.55875,57 49,57.6705 49,58.5 C49,59.3295 49.55875,60 50.25,60 L52.75,60 C53.44,60 54,59.3295 54,58.5 Z" id="Shape"></path>
                <path d="M47,58.5 C47,57.6705 46.44125,57 45.75,57 L43.25,57 C42.55875,57 42,57.6705 42,58.5 C42,59.3295 42.55875,60 43.25,60 L45.75,60 C46.44,60 47,59.3295 47,58.5 Z" id="Shape"></path>
                <path d="M54.6948298,68 L52.261034,68 C51.5636822,68 51,68.447 51,69 C51,69.553 51.5636822,70 52.261034,70 L54.7465322,69.999 L54.7831021,68.999 L54.7831021,69.999 C55.480454,69.999 56,69.552 56,68.999 C56,68.447 55.3921816,68 54.6948298,68 Z" id="Shape"></path>
                <path d="M58.8707617,62 C59.1149092,62 59.3624475,61.9138788 59.5681644,61.7367153 C60.0598502,61.3159519 60.1434933,60.5420918 59.7580568,60.009371 C59.1895098,59.2232078 58.4559371,58.5736082 57.6342001,58.1294691 C57.0724349,57.8255845 56.3965082,58.0753358 56.1184514,58.6831051 C55.8403945,59.2921047 56.0687176,60.0302861 56.6270919,60.3329404 C57.1504265,60.6146797 57.6183757,61.0292915 57.9800757,61.5312548 C58.2038775,61.8388304 58.535059,62 58.8707617,62 Z" id="Shape"></path>
                <path d="M64.2465655,47.0999495 C63.7039958,47.3298082 63.1298077,47.4460145 62.5366487,47.4460145 L62.2647314,47.4460145 C61.5653349,47.4460145 61,48.0168303 61,48.7230073 C61,49.4291842 61.5653349,50 62.2647314,50 L62.5366487,50 C63.467491,50 64.3717739,49.816113 65.2242029,49.4547241 C65.8692159,49.1814477 66.1714867,48.4331299 65.9008342,47.7831406 C65.6314464,47.1331513 64.8852549,46.826673 64.2465655,47.0999495 Z" id="Shape"></path>
                <path d="M32.0719327,34.9370873 C32.7787639,34.7194095 33.1645535,34.0084964 32.9325402,33.3479134 C32.777415,32.9062665 32.6978291,32.4444875 32.6978291,31.9789338 C32.699178,31.7889376 32.7113182,31.5989413 32.7355987,31.4139781 C32.8286738,30.7244553 32.3052949,30.0940704 31.5660898,30.0085091 C30.8039531,29.9292392 30.1510784,30.4124084 30.0593522,31.0994147 C30.0215826,31.38378 30.0013489,31.6731783 30,31.9726425 C30,32.7124955 30.1241001,33.4397659 30.3682537,34.1343217 C30.5557528,34.6640464 31.0831784,35 31.6497225,35 C31.7900096,35 31.9329945,34.9811262 32.0719327,34.9370873 Z" id="Shape"></path>
                <path d="M26.75,68 L24.25,68 C23.55875,68 23,68.447 23,69 C23,69.553 23.55875,70 24.25,70 L26.75,70 C27.44125,70 28,69.553 28,69 C28,68.447 27.44,68 26.75,68 Z" id="Shape"></path>
                <path d="M37.881239,59 C38.3061201,59 38.7108753,58.7289099 38.8987175,58.2704303 C39.1547643,57.642051 38.9087805,56.9012379 38.3474901,56.6151567 C37.8230974,56.3465651 37.3479014,55.9430531 36.9744533,55.4458464 C36.5764068,54.9174081 35.8719986,54.8486986 35.3990388,55.2934363 C34.9260791,55.7369247 34.8645831,56.5252097 35.2626296,57.053648 C35.8485183,57.831939 36.5931784,58.4665646 37.4172241,58.8863171 C37.5681687,58.9625221 37.725822,59 37.881239,59 Z" id="Shape"></path>
                <path d="M66.3593141,36.8395283 C65.4425339,36.3599383 64.4410092,36.0784399 63.3842723,36.0031419 C62.6793531,35.9568048 62.0591782,36.4282857 62.0039659,37.067739 C61.9487537,37.7060338 62.4764801,38.2632386 63.1839674,38.3130511 C63.8542185,38.3605467 64.4898015,38.5389449 65.0714562,38.843612 C65.2743291,38.9501875 65.4964621,39 65.7147431,39 C66.1577252,39 66.5891512,38.7926411 66.8266923,38.4231019 C67.182362,37.8705309 66.973069,37.1615718 66.3593141,36.8395283 Z" id="Shape"></path>
                <path d="M34.75,68 L32.25,68 C31.55875,68 31,68.447 31,69 C31,69.553 31.55875,70 32.25,70 L34.75,70 C35.44125,70 36,69.553 36,69 C36,68.447 35.44,68 34.75,68 Z" id="Shape"></path>
                <path d="M37.1273679,52.9353115 C37.2335707,52.2621874 37.4567037,51.6401369 37.7914032,51.084875 C38.1421941,50.5034215 38.0402824,49.6836244 37.5629064,49.2540822 C37.0855305,48.8271591 36.4150586,48.9502596 36.063195,49.5330227 C35.5386179,50.405203 35.1867542,51.3834592 35.0194045,52.4429094 C34.907838,53.1527018 35.288666,53.8389217 35.8711719,53.9764276 C35.9387554,53.9921425 36.0074118,54 36.0739226,54 C36.5781174,53.9973808 37.0276017,53.5612907 37.1273679,52.9353115 Z" id="Shape"></path>
                <path d="M55.5,18 C59.0832727,18 62,15.0832727 62,11.5 C62,7.91672727 59.0832727,5 55.5,5 C51.9167273,5 49,7.91672727 49,11.5 C49,15.0832727 51.9167273,18 55.5,18 Z M55,7 C57.2057143,7 59,8.79428571 59,11 C59,13.2057143 57.2057143,15 55,15 C52.7942857,15 51,13.2057143 51,11 C51,8.79428571 52.7954286,7 55,7 Z" id="Shape"></path>
                <path d="M14,36 C10.1395,36 7,39.1395 7,43 C7,46.8605 10.1395,50 14,50 C17.8605,50 21,46.8605 21,43 C21,39.1395 17.8605,36 14,36 Z M13.5,47 C11.01825,47 9,44.98175 9,42.5 C9,40.01825 11.01825,38 13.5,38 C15.98175,38 18,40.01825 18,42.5 C18,44.98175 15.98175,47 13.5,47 Z" id="Shape"></path>
            </g>
        </g>
    </g>
</svg>